<svg xmlns="http://www.w3.org/2000/svg" width="256" height="256"><path fill="#1976D2" fill-opacity=".016" fill-rule="evenodd" d="M0 128.004v128.004l128.25-.254 128.25-.254.254-127.75L257.008 0H0v128.004m.485.496c0 70.4.119 99.053.265 63.672.146-35.38.146-92.98 0-128C.604 29.153.485 58.1.485 128.5"/><path fill="#1976D2" fill-opacity=".219" fill-rule="evenodd" d="M126.892 36.354c-6.026 2.479-8.763 4.24-16.405 10.556-5.103 4.216-6.44 4.071-6.472-.705C103.99 42.46 99.719 39 95.122 39c-7.193 0-12.348 6.26-18.118 22-4.346 11.857-4.814 12.195-10.623 7.669C63.664 66.552 60.551 65 59.023 65c-3.016 0-7.331 4.005-8.959 8.315-1.811 4.793-1.192 15.609 1.498 26.185 5.912 23.239 17.146 44.931 26.636 51.434l3.467 2.375-1.317 5.596c-.724 3.077-1.324 6.802-1.332 8.277-.011 1.835-.975 3.365-3.052 4.843-2.866 2.041-4.075 2.156-21.64 2.046-21.287-.134-23.324.419-23.324 6.33 0 3.973 1.548 5.489 6.411 6.278l3.589.583v11.296c0 11.013.066 11.349 2.635 13.369 3.696 2.907 6.043 2.595 9.965-1.327l3.4-3.4v-9.881c0-9.86.006-9.883 2.75-10.921l2.75-1.04-.306 12.265c-.282 11.269-.14 12.431 1.75 14.321 2.548 2.548 4.728 2.589 8.415.158 2.801-1.847 2.896-1.847 4.75.007 1.04 1.04 2.625 1.891 3.523 1.891 2.13 0 8.368-3.867 8.368-5.187 0-.564 1.306.373 2.901 2.081 3.535 3.784 5.989 3.911 10.022.517 2.357-1.983 3.096-3.446 3.158-6.25l.081-3.661 1.846 3.964c2.102 4.516 1.836 5.536-1.445 5.536-2.873 0-4.813 2.217-4.813 5.5 0 4.231 1.924 5.5 8.338 5.5 8.258 0 11.738-3.196 16.136-14.822l3.276-8.662.5 6.46c.447 5.774.793 6.622 3.262 7.992 2.514 1.395 3.036 1.375 5.831-.218 2.754-1.57 3.289-1.596 5.211-.25 2.74 1.92 5.671 1.906 8.449-.039 1.987-1.393 2.438-1.382 4.715.11 3.048 1.997 6.089 1.374 9.678-1.984 2.592-2.425 2.681-2.436 4.371-.569 4.471 4.941 14.443 4.926 20.633-.03l3.65-2.921.612 2.437c1.272 5.068 6.998 5.626 11.825 1.152l2.582-2.392 2.12 2.868c2.668 3.608 5.92 3.699 9.984.279 3.057-2.572 3.077-2.653 3.077-12.566 0-5.487-.463-10.842-1.03-11.9-1.918-3.584-5.897-4.736-15.47-4.478-10.741.29-9.98.156-11.921 2.097-.86.86-2.094 1.236-2.742.835-.786-.485-.448-.999 1.014-1.54 3.087-1.141 3.725-3.606 1.874-7.24-.877-1.721-1.883-7.152-2.245-12.119-.361-4.95-1.291-12.375-2.068-16.5-1.784-9.48-1.836-9 .962-9 7.6 0 18.058-7.453 19.23-13.705 1.028-5.479-.584-6.427-9.648-5.671-6.945.579-8.163.411-11.367-1.569-2.96-1.829-3.589-2.804-3.589-5.56 0-3.903-3.65-8.765-8.369-11.148-4.429-2.236-7.631-5.388-7.631-7.511 0-.998 2.229-4.276 4.953-7.284 6.604-7.292 8.219-10.638 7.85-16.254-.243-3.687-.861-5.012-3.122-6.697-2.438-1.816-4.496-2.146-15.195-2.431-9.692-.259-12.655-.668-13.668-1.889-.86-1.036-1.297-4.823-1.305-11.314-.017-12.982-.832-13.976-11.418-13.943-5.603.017-9.066.628-13.203 2.33M134 38.346c-6.94 1.599-12.185 4.328-19.071 9.923-9.863 8.013-12.136 8.235-14.095 1.378-.651-2.281-1.61-4.709-2.132-5.397-1.645-2.171-6.253-1.426-9.158 1.479-3.427 3.427-4.929 6.335-9.135 17.692-4.942 13.342-8.1 15.185-15.468 9.03-2.434-2.034-5.096-3.422-6.233-3.25-4.914.741-7.116 12.134-4.607 23.834l1.101 5.133 2.323-3.42c2.691-3.96 5.018-5.602 15.975-11.267 4.4-2.275 12.804-7.527 18.675-11.67 12.127-8.559 16.97-10.804 24.889-11.539 9.174-.851 13.008 1.954 20.561 15.049 4.241 7.353 4.889 7.993 10.759 10.627 12.624 5.664 19.075 18.656 15.556 31.329-2.16 7.779-11.263 14.919-33.483 26.264-6.957 3.552-12.439 6.459-12.181 6.459 1.107 0 15.854-5.07 22.943-7.887 14.324-5.693 33.642-15.974 37.77-20.102 6.279-6.279 6.632-12.666.875-15.828-13.801-7.58-15.092-12.373-6.018-22.351C179.818 77.266 181 75.09 181 70.664c0-2.991-.433-3.619-3.149-4.566-1.732-.604-7.932-1.098-13.778-1.098-12.231 0-14.441-.941-16.025-6.82-.555-2.061-.905-7.178-.778-11.372.126-4.194-.052-7.911-.396-8.259-1.306-1.323-7.582-1.422-12.874-.203M69.096 94.265c-9.268 4.763-9.067 19.428.331 24.114 3.193 1.592 4.346 1.706 7.552.745 2.081-.623 4.4-1.876 5.152-2.783 1.227-1.479 1.02-1.47-1.989.086-6.285 3.25-13.142-1.08-13.142-8.3 0-4.471.785-7.127 2.107-7.127.491 0 .893 1.077.893 2.393 0 2.558 2.048 3.909 4.5 2.969 2.455-.942 1.907-6.271-.75-7.287-2.238-.855-2.236-.863.392-1.549 5.133-1.338 9.268 2.321 11.269 9.974.287 1.1.302.056.033-2.32-1.065-9.391-9.002-14.69-16.348-10.915m60.354 5.103c-1.677.752-4.264 2.811-5.75 4.576-2.672 3.176-3.633 5.75-1.7 4.556.564-.349 1 .467 1 1.874 0 3.125 3.513 4.541 5.741 2.313 2.448-2.448.868-6.679-2.51-6.719-2.617-.03-2.65-.093-.79-1.5 5.65-4.273 15.559 1.447 15.559 8.982 0 4.821-2.348 9.161-5.967 11.033-4.18 2.162-6.43 1.895-10.107-1.199-2.988-2.514-3.137-2.547-2.013-.446 1.698 3.172 6.969 6.154 10.887 6.158 7.661.009 13.431-6.439 13.431-15.011 0-10.681-9.374-18.387-17.781-14.617m53.411 24.069-3.639 4.063 1.971 5c1.084 2.75 3.284 10.093 4.889 16.318 4.452 17.266 3.687 29.106-1.889 29.215-1.358.027-1.213.433.736 2.056 2.143 1.783 2.533 1.838 3.303.461.62-1.108 1.657-1.371 3.571-.906 2.57.625 2.62.566 1.072-1.244-1.133-1.326-1.835-4.922-2.322-11.9-.828-11.856-2.894-24.38-5.012-30.385-2.664-7.55-.074-11.106 5.775-7.928 3.135 1.703 13.686 1.121 15.894-.877 3.246-2.938 2.266-4.406-2.46-3.683-2.338.358-4.385.761-4.549.895-.782.635-8.794-1.8-11.101-3.373-2.598-1.773-2.603-1.771-6.239 2.288M80.564 141.293c.376.986.935 1.541 1.243 1.233.308-.307.001-1.114-.683-1.793-.988-.98-1.102-.865-.56.56m19.841 1.957L98.5 145.5l2.5-1.989c1.375-1.094 2.688-2.107 2.917-2.25.229-.144-.039-.261-.595-.261-.557 0-1.869 1.012-2.917 2.25m-13.326.333c.048 1.165.285 1.402.604.605.289-.722.253-1.585-.079-1.917-.332-.332-.568.258-.525 1.312M78 145.5c1.292 1.375 2.574 2.5 2.849 2.5.275 0-.557-1.125-1.849-2.5-1.292-1.375-2.574-2.5-2.849-2.5-.275 0 .557 1.125 1.849 2.5m82.885-.103c-8.844 3.193-10.387 4.095-12.803 7.488l-2.057 2.888 2.117.554c1.265.331 1.907 1.104 1.594 1.92-.417 1.084.74 1.294 5.62 1.021 11.223-.63 12.533-1.093 17.211-6.079 4.935-5.26 4.905-5.192 3.183-7.435-2.174-2.831-7.646-2.963-14.865-.357m-76.699 1.658c-2.282.915-2.196 2.959.123 2.93.716-.01.592-.403-.309-.985-1.293-.835-1.266-.971.191-.985.93-.008 1.969-.465 2.309-1.015.718-1.162.72-1.162-2.314.055m19.273.012c-1.026 1.66-.105 1.89 1.33.332.71-.769.849-1.399.309-1.399-.539 0-1.277.48-1.639 1.067m-13.709 4.595c.688.278 1.813.278 2.5 0 .688-.277.125-.504-1.25-.504s-1.937.227-1.25.504m73 14.24c-4.175 1.095-5.75 1.978-5.75 3.222 0 .942-.273 2.424-.607 3.294-.503 1.311.24 1.582 4.345 1.582 5.282 0 8.262 1.978 8.262 5.484 0 1.763.069 1.763 2 .016 1.1-.995 2-2.56 2-3.477 0-2.14-2.981-10.925-3.844-11.326-.361-.167-3.244.375-6.406 1.205m-59.131 3.911c-.582 4.388-.336 5.515 1.93 8.854 1.946 2.868 3.175 3.75 4.907 3.523 1.618-.212 3.051.643 4.78 2.852l2.468 3.154 1.61-4.022c.885-2.213 2.657-4.813 3.937-5.779 2.143-1.616 2.252-2.131 1.368-6.447l-.961-4.691-6.079-.609c-3.344-.335-7.702-.891-9.686-1.236l-3.607-.627-.667 5.028m-16.147.313c-.643 2.927-.304 3.641 3.345 7.044 2.233 2.083 4.524 4.584 5.091 5.559.929 1.595 1.034 1.548 1.062-.479.021-1.617.627-2.25 2.152-2.25 1.785 0 1.922-.242.863-1.518-.846-1.019-1.062-3.185-.658-6.594l.601-5.077-2.254 3.344c-2.914 4.325-5.679 4.335-7.83.029l-1.656-3.316-.716 3.258m55.607 1.201c-.128 2.955-5.716 7.923-8.072 7.175-1.173-.372-2.007-.183-2.007.456 0 .6 1.359 1.364 3.02 1.696 1.66.332 4.135 1.93 5.5 3.552l2.48 2.947v-2.576c0-1.417.55-2.577 1.223-2.577.672 0 .258-.675-.92-1.5-1.88-1.317-2.021-1.936-1.159-5.06.541-1.957.765-4.095.498-4.75-.266-.654-.52-.368-.563.637M35.38 179.452c-.958 2.496.578 3.548 5.179 3.548H45v13.031c0 11.171.235 13.122 1.645 13.663 3.284 1.26 4.355-2.401 4.355-14.885V183l3.75-.015c4.582-.019 6.745-1.254 5.927-3.384-.869-2.265-24.432-2.403-25.297-.149M67 180.5c0 1.982.439 2.562 1.75 2.31.963-.186 1.75-1.225 1.75-2.31s-.787-2.124-1.75-2.31c-1.311-.252-1.75.328-1.75 2.31m93-.69c0 1.257-.874 2.328-2.25 2.758-3.741 1.167-6.554 4.757-7.821 9.981-1.558 6.422-2.739 7.651-3.534 3.677-.541-2.705-4.857-7.098-5.924-6.03-.196.196.65 4.357 1.879 9.248 3.802 15.126 7.061 14.26 11.27-2.995 1.535-6.297 3.092-11.449 3.458-11.449.367 0 .733 5.274.815 11.72.153 12.102.863 14.557 3.565 12.315 2.236-1.856 2.273-28.183.042-30.035-1.251-1.038-1.5-.903-1.5.81m-83.701 2.082c-1.413 2.263-.531 3.545 1.359 1.977 1.437-1.193 1.84-3.869.583-3.869-.418 0-1.292.851-1.942 1.892m-9.049 4.826c-.897.322-1.25 3.544-1.25 11.397 0 9.116.268 11.051 1.601 11.562 2.612 1.003 3.368-1.632 3.384-11.805.015-9.637-.841-12.194-3.735-11.154m38.856.654c-.904 1.09-.255 3.736 2.957 12.052 3.875 10.033 4.024 10.794 2.548 13.047-.862 1.315-2.716 2.535-4.12 2.71-3.432.429-3.485 2.097-.104 3.286 5.339 1.878 7.556-.615 13.325-14.985 5.662-14.1 6.076-15.966 3.746-16.86-1.592-.611-3.684 3.254-6.427 11.878-.7 2.2-1.618 4.377-2.04 4.838-.422.462-1.969-2.767-3.437-7.175-2.93-8.798-4.578-11.044-6.448-8.791m94.144-.654c-.897.322-1.25 3.544-1.25 11.397 0 9.116.268 11.051 1.601 11.562 2.439.936 3.367-1.511 3.384-8.927.012-5.403.414-7.149 2.015-8.75 2.199-2.199 3.723-2.459 6-1.024 1.077.679 1.641 3.425 2 9.735.453 7.956.69 8.789 2.5 8.789 1.832 0 2.024-.762 2.285-9.095.239-7.596-.015-9.468-1.54-11.35-2.208-2.727-8.44-3.094-11.135-.655-2.189 1.982-3.11 2.029-3.11.159 0-1.739-1.058-2.448-2.75-1.841M79.217 198.25c.264 10.489.418 11.25 2.283 11.25 1.8 0 2.05-.833 2.5-8.333.404-6.733.873-8.606 2.441-9.75 2.26-1.649 3.487-1.747 5.559-.441 1.077.679 1.641 3.425 2 9.735.453 7.956.69 8.789 2.5 8.789 1.809 0 2.028-.766 2.297-7.997.163-4.398.063-8.898-.222-10-.557-2.151-5.575-5.103-5.575-3.278 0 .625-1.382.812-3.482.472-1.915-.311-3.741-.145-4.059.369-.9 1.456-2.459 1.098-2.459-.566 0-.841-.893-1.5-2.033-1.5-1.94 0-2.02.514-1.75 11.25m93.54-8.533c-5.809 6.418-3.716 16.821 3.89 19.332 8.292 2.736 15.353-2.319 15.353-10.991 0-6.376-2.89-10.394-6.313-8.778-2.236 1.055-2.253 1.154-.501 2.906 2.259 2.259 2.398 8.535.257 11.591-1.941 2.772-6.484 2.941-8.847.329-1.24-1.37-1.629-3.239-1.405-6.75.282-4.425.62-5.012 3.809-6.61 3.101-1.554 3.215-1.738 1-1.614-1.375.076-3.203-.163-4.063-.532-.93-.399-2.219.054-3.18 1.117M133 199.535c0 9.492.825 11.685 3.544 9.429 1.043-.866 1.454-3.371 1.448-8.836-.007-7.151-.164-7.7-2.5-8.784L133 190.188v9.347m48-2.653c0 1.65.45 3.278 1 3.618.582.36 1-.637 1-2.382 0-1.65-.45-3.278-1-3.618-.582-.36-1 .637-1 2.382"/><path fill="#1976D2" fill-opacity=".352" fill-rule="evenodd" d="M130.5 35.402c-6.24 1.979-11.457 4.957-18.364 10.484-6.413 5.132-8.136 5.577-8.136 2.102 0-3.175-2.088-6.707-4.657-7.878-8.228-3.749-14.91 2.361-21.437 19.602-5.273 13.928-5.795 14.348-11.542 9.302-4.426-3.885-7.705-4.676-10.85-2.615-6.584 4.314-7.995 14.906-4.122 30.953 5.289 21.919 14.078 40.254 24.128 50.334l6.167 6.187-1.322 6.313c-.728 3.473-1.347 7.214-1.376 8.314-.028 1.1-1.188 2.828-2.577 3.84-2.243 1.633-4.524 1.827-20.364 1.734-21.426-.125-24.991.804-25.033 6.521-.021 2.947 3.077 5.405 6.814 5.405H41l.015 10.75c.015 11.482 1.015 15.004 4.632 16.325 2.745 1.003 8.394-1.899 10.088-5.182.729-1.411 1.242-6.393 1.25-12.143.015-9.503.073-9.75 2.315-9.75 1.265 0 2.895-.562 3.622-1.25 1.09-1.03 1.126-.866.2.934-.619 1.205-1.122 6.873-1.122 12.639 0 8.601.321 10.852 1.81 12.691 2.2 2.716 6.491 2.928 9.223.456 1.886-1.707 2.048-1.707 3.934 0 3.255 2.946 7.064 2.259 10.681-1.926l3.204-3.706.324 2.808c.359 3.114 3.807 5.433 6.88 4.629 3.814-.997 6.94-4.992 7.025-8.977l.081-3.798 1.893 4c2.494 5.272 2.419 6.5-.4 6.5-4.726 0-7.381 6.131-4.084 9.429 2.519 2.518 10.267 2.045 14.588-.891 3.477-2.362 4.657-4.525 10.836-19.859.653-1.62.894-.616.942 3.916.049 4.737.501 6.491 2.03 7.875 2.465 2.231 6.536 2.29 8.923.13 1.563-1.415 1.991-1.448 2.999-.233 1.931 2.326 4.861 2.545 8.593.642 1.935-.986 3.518-1.464 3.518-1.062 0 .403 1.147 1.254 2.548 1.893 2.744 1.25 6.796-.139 9.337-3.202 1.084-1.305 1.689-1.188 4.817.934 5.683 3.857 12.86 3.659 18.934-.522l4.135-2.848 1.106 2.428c1.224 2.685 4.573 4.327 7.348 3.601.989-.259 2.889-1.767 4.222-3.351 2.915-3.464 3.32-3.535 3.733-.655.369 2.565 4.116 4.772 6.876 4.05 1.038-.271 3.025-1.548 4.416-2.837 2.363-2.19 2.528-2.963 2.528-11.874 0-9.05-.143-9.693-2.828-12.697l-2.827-3.165-10.423.1c-9.419.089-10.591.307-12.178 2.266-1.468 1.812-2.009 1.957-3.304.882-1.353-1.123-1.164-1.447 1.506-2.569 3.373-1.418 3.776-2.905 1.622-5.98-.845-1.207-1.883-6.926-2.535-13.972-.607-6.561-1.682-14.716-2.387-18.122l-1.283-6.192 4.068-.67c8.834-1.452 14.693-5.282 17.242-11.268 2.78-6.53-.011-8.916-8.268-7.068-4.837 1.082-5.638.986-10.08-1.217-4.171-2.068-4.903-2.889-5.404-6.056-.844-5.346-3.149-8.248-9.387-11.816-5.765-3.299-8.16-6.185-6.879-8.291.412-.676 3.157-4.076 6.101-7.556 2.944-3.48 5.778-7.447 6.298-8.815 1.398-3.676 1.15-8.621-.552-11.052-2.108-3.009-10.123-4.516-19.964-3.753-11.561.896-11.883.547-12.527-13.547-.437-9.551-.793-11.377-2.452-12.589-2.414-1.762-12.521-1.771-18.059-.015m1.429 2.965C126.294 39.887 120.2 43.46 113 49.468c-7.323 6.11-9.902 5.923-12.052-.873-1.71-5.405-4.322-7.164-8.36-5.629-3.82 1.453-7.575 7.321-11.715 18.308C77.363 70.588 73.742 76 71.021 76c-.477 0-2.966-1.601-5.53-3.558-5.621-4.291-8.178-4.161-10.935.558-2.777 4.75-2.645 13.047.392 24.693l2.398 9.194 1.691-4.998c4.428-13.079 17.539-16.83 25.828-7.39 3.965 4.516 5.467 10.067 4.223 15.604-1.296 5.768-3.837 8.968-9.299 11.709-5.726 2.874-10.522 2.239-15.394-2.038l-3.371-2.96 1.586 3.843c6.793 16.459 16.307 28.35 24.671 30.834 6.935 2.059 15.015 1.894 27.019-.552 13.182-2.686 25.51-7.294 45.287-16.927 13.352-6.503 16.796-8.64 20.25-12.565 3.317-3.767 4.163-5.497 4.163-8.512 0-3.964-1.074-5.199-8.908-10.241-4.967-3.198-7.487-6.985-6.709-10.084.354-1.41 3.105-5.322 6.113-8.694 5.803-6.503 7.96-11.585 6.523-15.365C179.806 65.36 178.281 65 165.965 65 149.355 65 148 63.767 148 48.653c0-5.863-.44-9.693-1.2-10.453-1.519-1.519-8.925-1.436-14.871.167M92.207 77.499c-2.911.815-6.511 2.176-8 3.024L81.5 82.065l3.5-.695c1.925-.383 9.125-.666 16-.631 11.116.058 16.678.794 29 3.84 4.189 1.035-3.631-3.566-10-5.884-7.189-2.616-20.648-3.195-27.793-1.196m-25.82 18.785c-10.698 9.804-.033 28.82 12.583 22.437 3.768-1.907 7.03-7.437 7.03-11.919 0-11.794-11.494-17.958-19.613-10.518m63.978-1.248c-8.054 1.707-13.787 9.63-13.722 18.964.046 6.451 1.912 10.524 6.785 14.802 11.151 9.792 27.572.89 27.572-14.946 0-12.227-9.757-21.125-20.635-18.82m-55.262 4.847c2.072 1.677 2.192 2.174 1.101 4.568-1.504 3.302-5.098 3.168-6.798-.255l-1.144-2.304-.618 2.304c-1.137 4.248-.661 6.63 1.945 9.727 5.236 6.223 13.944 2.98 15.098-5.624C85.414 102.876 81.444 98 76.3 98h-3.522l2.325 1.883m53.293-.454c-4.394 1.913-7.628 6.928-8.181 12.687-.576 5.998.981 9.971 5.443 13.889 2.782 2.443 4.302 2.995 8.242 2.995 5.868 0 9.525-2.523 12.204-8.421 2.467-5.433 2.365-9.378-.379-14.566-3.697-6.992-10.476-9.567-17.329-6.584m-1.281 4.479c-1.107.701-.956 1.107.75 2.02 2.128 1.138 2.681 3.487 1.528 6.49-.892 2.325-4.909 1.926-6.719-.668-1.521-2.181-1.571-2.103-1.622 2.577-.043 4.04.425 5.304 2.871 7.75 7.729 7.729 19.639-.784 16.1-11.508-1.977-5.991-8.583-9.4-12.908-6.661m55.533 19.738-3.79 4.357 2.046 5.47c3.864 10.328 7.391 25.915 7.494 33.122.12 8.363-1.18 10.66-5.778 10.206-2.561-.253-3.269-.941-4.422-4.301-2.338-6.812-4.126-10.5-5.091-10.5-.509 0-.058 1.795 1.001 3.988 1.06 2.193 2.207 6.035 2.55 8.537.513 3.742.289 4.811-1.267 6.027-1.773 1.386-1.719 1.44.859.855 1.848-.419 2.75-.22 2.75.607 0 .95.324.962 1.419.053 1.115-.925 1.614-.83 2.325.441.824 1.471 1.025 1.475 2.214.043 1.008-1.215 1.626-1.312 2.698-.422 1.109.921 1.263.823.76-.488-.502-1.308.011-1.641 2.534-1.641 3.069 0 3.117-.066 1.607-2.223-.952-1.359-1.558-4.369-1.56-7.75-.004-8.831-2.019-22.872-4.523-31.518-1.709-5.904-2.008-8.187-1.144-8.744.671-.432 1.692.002 2.395 1.02 1.063 1.538 2.242 1.689 8.923 1.143 6.723-.55 7.994-.973 10.025-3.335 1.28-1.487 2.327-3.548 2.327-4.579 0-1.638-.408-1.757-3.243-.944-5.343 1.532-10.202 1.067-14.889-1.425l-4.43-2.356-3.79 4.357M81 139.368c0 .833.45 1.792 1 2.132.55.34 1 1.716 1 3.059 0 2.873 1.522 3.202 2.9.628.657-1.228.579-2.598-.24-4.241-1.386-2.781-4.66-3.89-4.66-1.578m20.174 4.946C98.97 146.661 98.235 150 99.923 150c1.522 0 7.136-6.095 6.525-7.084-.963-1.559-3.003-1.018-5.274 1.398m57.826.988c-3.025 1.209-6.472 2.755-7.661 3.435-3.542 2.029-6.074 7.307-7.273 15.16-1.232 8.068-1.407 8.541-4.389 11.853-2.866 3.183-5.073 2.806-8.597-1.47l-3.066-3.719.993 3.463c1.354 4.72 1.354 4.718-1.757 6.388l-2.75 1.477 3-.195c2.633-.17 2.967.105 2.727 2.252l-.273 2.446 2.517-2.364 2.516-2.364 1.151 3.303 1.152 3.303 1.149-2.813 1.15-2.813 2.818 2.928 2.818 2.928-.618-2.697c-.445-1.938-.149-2.96 1.05-3.631 1.482-.829 1.426-1.011-.494-1.62-2.438-.774-2.546-1.5-1.223-8.253.517-2.639 1.225-7.387 1.572-10.549.442-4.021 1.061-5.75 2.06-5.75.975 0 1.428 1.151 1.428 3.632v3.631l7.336-.471c8.839-.567 14.611-3.108 16.565-7.292.77-1.65 2.008-3.36 2.75-3.8 2.077-1.231 1.678-6.453-.585-7.665-3.102-1.66-10.13-1.106-16.066 1.267M84.149 160.25a632.405 632.405 0 0 0-1.591 8.75c-.328 1.925-1.601 4.277-2.828 5.228l-2.23 1.728 2.75.022c2.414.019 2.75.407 2.75 3.177 0 2.993.094 3.07 1.829 1.5 2.689-2.434 3.833-2.042 4.66 1.595.708 3.112.768 3.147 1.403.824.945-3.458 2.874-3.683 4.322-.503l1.243 2.728.594-2.399c.427-1.73 1.201-2.333 2.771-2.162 2.562.28 2.824-.957.593-2.808-1.553-1.289-1.51-3.937.206-12.93.307-1.609-.343-.92-1.822 1.935-4.729 9.124-8.446 7.754-9.471-3.49-.568-6.245-1.459-8.383-3.507-8.43-.374-.008-1.126 2.348-1.672 5.235m22.916-4.115c-2.989.496-5.646 1.113-5.905 1.371-.952.953 8.517 4.345 13.988 5.011 4.939.602 5.911.424 7.75-1.415 2.758-2.758 2.701-2.954-1.366-4.653-3.827-1.599-6.384-1.654-14.467-.314m-3.59 13.218c-.533 4.27-.327 6.02.919 7.799.883 1.261 1.606 3.145 1.606 4.187 0 1.516.536 1.792 2.687 1.381 3.716-.711 5.126.023 7.019 3.651l1.632 3.129 2.128-4.842c1.17-2.664 3.113-5.589 4.317-6.5 2.066-1.564 2.12-1.943.954-6.658l-1.237-5-8-.638c-4.4-.35-8.751-.947-9.669-1.325-1.398-.577-1.779.202-2.356 4.816m59.613-3.868c-5.508 1.109-6.858 2.46-7.018 7.022-.061 1.754.466 1.967 4.18 1.684 5.093-.387 7.876 1.371 8.094 5.113.189 3.268.338 3.293 2.712.446 2.182-2.615 2.388-5.117.813-9.851-1.735-5.21-2.62-5.655-8.781-4.414M34.574 178.88c-1.515 2.452.714 4.12 5.504 4.12h4.864l.279 13.238c.254 12.04.449 13.27 2.159 13.598 3.036.583 3.589-1.645 3.605-14.531L51 183.11l4.75-.305c3.982-.256 4.75-.628 4.75-2.305 0-1.88-.76-2.017-12.673-2.279-7.153-.158-12.926.129-13.253.659m32.426.038c0 .505-.288 1.67-.641 2.588-.505 1.318-.136 1.599 1.75 1.332 3.188-.451 4.059-4.838.961-4.838-1.139 0-2.07.413-2.07.918m93 .354c0 .791-1.974 2.686-4.386 4.21-3.943 2.493-4.571 3.442-6.22 9.395l-1.834 6.623-.934-3.66c-.858-3.361-4.961-6.839-6.386-5.413-.567.567 2.239 12.609 3.933 16.876.88 2.216 1.659 2.739 3.72 2.5 2.441-.284 2.807-1.066 5.755-12.303l3.148-12 .352 12 .352 12h5v-15.417c0-11.444-.322-15.524-1.25-15.833-.687-.229-1.25.231-1.25 1.022m-83.964 2.184c-1.647 1.985-.349 4.049 1.553 2.47 1.558-1.293 1.915-3.926.533-3.926-.482 0-1.421.655-2.086 1.456M169 186.059c0 1.132.43 1.793.956 1.468.526-.325.703-1.252.393-2.059-.793-2.067-1.349-1.824-1.349.591m-102.933 1.815c-1.266 2.366-1.411 19.035-.182 20.974.47.742 1.701 1.186 2.735.987 1.71-.33 1.88-1.401 1.88-11.835 0-9.956-.222-11.515-1.683-11.797-.925-.178-2.162.574-2.75 1.671m12.968.06c-.569 1.064-1.035 5.703-1.035 10.309 0 8.979 1.375 12.594 4.355 11.451 1.304-.5 1.645-2.044 1.645-7.44C84 194.5 85.717 191 89.522 191c3.367 0 4.478 2.72 4.478 10.966 0 5.663.332 7.224 1.645 7.728 3.622 1.39 5.585-7.292 3.738-16.531-.728-3.639-4.853-6.848-6.765-5.261-1.552 1.288-8.358.758-9.886-.77-1.608-1.608-2.512-1.412-3.697.802m26.325-.429c-.354.921 1.062 5.939 3.195 11.324 2.106 5.319 3.768 10.494 3.693 11.501-.2 2.69-2.361 4.874-4.317 4.362-2.412-.631-4.335.812-3.608 2.707.754 1.964 7.479 2.197 10.009.347.943-.689 4.152-7.552 7.131-15.25 4.631-11.969 5.214-14.201 4.026-15.41-2.097-2.135-3.736-.194-6.433 7.62-1.29 3.737-2.669 7.161-3.065 7.608-.396.448-2.018-2.923-3.605-7.492-2.883-8.299-5.574-11.102-7.026-7.317m93.84-.305c-1.397 1.397-1.66 19.525-.315 21.648.47.742 1.701 1.188 2.735.991 1.588-.302 1.958-1.537 2.38-7.95.541-8.211 1.909-10.889 5.563-10.889 3.268 0 3.87 1.425 4.437 10.5.448 7.167.708 8 2.5 8 1.842 0 2.023-.762 2.285-9.644.23-7.787-.024-9.952-1.32-11.248-2.549-2.55-6.335-3.041-9.992-1.296-2.886 1.376-3.473 1.393-4.517.135-1.461-1.76-2.195-1.808-3.756-.247m-25.461.926c-4.329 2.423-5.992 10.55-3.245 15.863 2.113 4.085 5.313 6.012 9.979 6.007 8.615-.008 14.182-7.452 11.545-15.44-1.409-4.27-4.647-7.327-6.16-5.814-1.139 1.139-7.578.586-9.369-.805-.555-.431-1.793-.346-2.75.189m-41.724 10.124c.017 9.988.688 12.145 3.605 11.587 1.64-.314 1.917-1.465 2.168-9.019.265-7.966.125-8.711-1.75-9.306-1.121-.356-2.038-1.066-2.038-1.579 0-.513-.45-.933-1-.933-.596 0-.994 3.74-.985 9.25M179 190.694c-4.322 1.545-5.556 9.75-2 13.306 3.187 3.187 6.632 2.531 8.85-1.684 1.836-3.488 1.343-7.214-1.305-9.861-2.527-2.528-2.989-2.675-5.545-1.761m1.885 4.556c-.23 2.495.308 5.271 1.201 6.2.558.579.914-.688.914-3.25 0-2.31-.45-4.2-1-4.2s-1.052.563-1.115 1.25"/><path fill="#1976D2" fill-opacity=".74" fill-rule="evenodd" d="M131.184 35.562c-6.345 1.708-11.755 4.785-19.177 10.907-3.021 2.492-6.008 4.531-6.639 4.531-.63 0-1.423-1.478-1.762-3.284-1.075-5.734-3.163-7.716-8.128-7.716-7.589 0-12.358 6.109-18.918 24.234-.942 2.603-2.484 5.686-3.427 6.851l-1.715 2.117-4.718-3.601c-5.963-4.552-9.579-4.722-13.037-.613-4.118 4.895-5.166 11.976-3.269 22.098 4.55 24.282 18.711 53.76 28.612 59.562 2.711 1.588 3.085 2.279 2.623 4.852-.295 1.65-.997 5.7-1.559 9-1.689 9.917-2.306 10.164-25.899 10.384-18.567.173-19.769.3-21.421 2.26-.962 1.143-1.75 2.703-1.75 3.467 0 2.606 3.874 5.389 7.5 5.389H42v11.845c0 10.205.253 12.074 1.829 13.5 2.631 2.382 6.277 2.039 9.431-.885 2.665-2.472 2.74-2.839 2.74-13.5 0-10.77.04-10.96 2.3-10.96 1.265 0 2.833-.533 3.483-1.183 1.868-1.868 2.254-.534 1.079 3.722-.597 2.159-.893 7.929-.659 12.821.346 7.234.776 9.151 2.302 10.267 2.557 1.87 5.526 1.69 8.385-.509 2.321-1.785 2.444-1.784 4.25.022 2.423 2.423 5.356 2.355 8.956-.208 2.723-1.939 2.904-2.496 2.904-8.941 0-3.78.45-7.151 1-7.491.634-.392 1 2.271 1 7.286 0 6.387.351 8.222 1.829 9.559 2.602 2.355 5.545 2.052 9.094-.934 2.488-2.093 3.093-3.386 3.16-6.75l.083-4.161 2.303 5c2.534 5.501 1.985 7.5-2.056 7.5-2.187 0-4.413 2.489-4.413 4.934 0 2.335 4.07 5.066 7.55 5.066 7.73 0 11.962-4.157 16.794-16.5l3.524-9 .066 6.027c.041 3.742.656 6.871 1.623 8.25 1.844 2.633 5.998 2.936 8.553.623 1.62-1.466 1.958-1.466 4.051 0 2.945 2.063 6.696 2.04 9.01-.055 1.702-1.54 1.956-1.54 3.658 0 2.725 2.466 6.336 2.01 9.905-1.249 2.735-2.498 3.351-2.699 4.4-1.434 4.257 5.129 14.003 5.594 20.652.987 4.571-3.169 5.214-3.253 5.214-.684 0 2.06 2.706 4.035 5.53 4.035.914 0 2.968-.931 4.566-2.068 2.723-1.939 2.904-2.496 2.904-8.941 0-3.78.45-7.151 1-7.491.634-.392 1 2.271 1 7.286 0 6.387.351 8.222 1.829 9.559 2.739 2.479 5.972 2.008 9.344-1.364 2.999-2.999 3.016-3.082 2.673-12.588-.325-8.999-.51-9.709-3.097-11.933-2.503-2.153-3.65-2.362-12.761-2.33-9.941.035-12.988.996-12.988 4.096 0 .596-.9.269-2-.726-2.552-2.309-2.541-3.5.031-3.5 2.865 0 3.606-2.825 1.641-6.249-.961-1.674-1.68-5.111-1.69-8.082-.018-5.074-2.3-23.103-3.559-28.119-.604-2.408-.422-2.55 3.272-2.55 8.824 0 18.877-8.17 18.123-14.729l-.318-2.771-8 .27c-6.827.231-8.587-.067-12-2.03-3.425-1.971-4.081-2.902-4.562-6.485-.629-4.676-2.612-7.308-7.872-10.449-5.297-3.163-8.066-5.924-8.066-8.04 0-1.037 2.174-4.221 4.83-7.076 7.225-7.764 8.17-9.528 8.17-15.258 0-8.059-1.457-8.86-16.852-9.263C150.792 61.74 151 61.912 151 48.8c0-9.168-.179-10.07-2.455-12.345-2.899-2.9-8.78-3.202-17.361-.893m-.86 2.877c-5.147 1.61-9.276 4.127-17.339 10.573-3.432 2.744-6.832 4.988-7.556 4.988-1.772 0-4.429-3.94-4.429-6.568 0-1.167-.823-2.867-1.829-3.777-5.429-4.913-12.721 1.81-18.575 17.126-2.147 5.618-4.535 11.115-5.307 12.216-2.07 2.956-5.568 2.447-10.289-1.497-2.304-1.925-4.626-3.5-5.16-3.5C55.675 68 52 74.971 52 82.872c0 4.703 4.35 24.122 6.077 27.128.574.998.872-.103.893-3.29.061-9.704 6.305-16.699 14.912-16.706 9.128-.008 15.836 8.169 14.879 18.136-1.461 15.206-19.512 20.148-27.348 7.489-4.004-6.47-2.018-.707 4.169 12.099 6.561 13.578 14.24 22.29 21.475 24.365 6.933 1.988 20.084 1.36 31.217-1.489 20.603-5.272 53.313-20.349 61.147-28.183 7.941-7.941 7.213-12.612-3.014-19.362-6.517-4.301-6.924-4.793-7.209-8.696-.277-3.789.152-4.63 5.1-10C180.67 77.446 182 75.162 182 71.137c0-5.905-4.329-7.383-20.212-6.901-7.893.239-8.925.052-10.975-1.989-2.009-2-2.307-3.456-2.655-13-.236-6.492-.84-11.038-1.525-11.482-1.799-1.166-11.736-.755-16.309.674M69.27 93.483c-6.353 2.761-9.513 11.369-6.729 18.327 2.202 5.505 6.038 8.199 11.613 8.158 7.294-.053 11.831-5.216 11.836-13.468.003-6.245-2.774-11.094-7.48-13.06-4.193-1.752-5.122-1.748-9.24.043m58.18 2.924c-6.687 2.912-11.024 11.27-10.215 19.685 1.49 15.51 19.303 21.565 29.12 9.898 11.914-14.159-2.507-36.726-18.905-29.583m-52.021 3.164c3.126 3.127 1.26 7.429-3.223 7.429-1.637 0-2.583-.71-2.993-2.25-.597-2.239-.603-2.238-1.233.25-2.094 8.271 6.206 15.06 12.781 10.455C87.241 110.916 83.953 98 76.318 98c-2.237 0-2.318.143-.889 1.571m49.549 2.215c-6.323 6.324-7.154 14.945-2.12 22.014 2.288 3.214 7.654 6.2 11.142 6.2 7 0 14-7.935 14-15.87 0-9.528-5.81-16.13-14.194-16.13-4.501 0-5.447.406-8.828 3.786m3.232 1.937-2.29.427 2.54 1.997c3.061 2.408 3.202 4.191.54 6.853-2.54 2.54-3.445 2.512-5.961-.189L121 110.623v3.238c0 9.606 9.72 14.573 16.077 8.216 7.15-7.15.862-20.165-8.867-18.354m52.433 20.839c-5.227 5.753-13.341 10.416-32.643 18.76-13.982 6.045-24.553 9.511-34.388 11.276-9.807 1.76-22.119 2.025-25.826.555-2.585-1.025-2.763-.9-3.755 2.636-.572 2.041-1.33 6.106-1.682 9.034-.49 4.065-1.198 5.687-2.995 6.865-3.16 2.07-2.975 3.528.396 3.134 2.554-.299 2.728-.09 2.436 2.928-.359 3.712.711 4.126 3.293 1.274C87.618 178.659 89 179.238 89 182.5c0 3.584 1.745 3.939 2.498.509.805-3.664 1.812-3.819 3.32-.509 1.367 2.999 3.182 3.285 3.182.5 0-1.482.667-2 2.573-2h2.572l-1.893-2.406c-1.681-2.138-1.782-3.142-.908-8.99.869-5.818.771-6.819-.841-8.6-2.826-3.124-.962-3.588 4.152-1.034 6.375 3.184 17.866 4.067 19.732 1.516 1.737-2.375 2.244-1.356 4.227 8.485l1.66 8.236-2.887 2.375-2.887 2.375 3.397-.633c3.278-.611 3.374-.539 2.731 2.022-.801 3.192.675 3.487 2.735.546 1.655-2.363 3.637-1.759 3.637 1.108 0 2.961 1.873 3.354 2.579.541.768-3.058 1.97-3.236 3.653-.541 1.678 2.686 2.768 2.522 2.768-.417 0-1.329.563-2.646 1.25-2.926.852-.347.518-1.103-1.049-2.374-1.3-1.055-2.056-2.499-1.739-3.324.308-.802 1.119-5.636 1.803-10.742 1.204-8.99 3.365-12.841 3.109-5.541l-.126 3.597 7.471-.632c9.664-.817 16.057-3.588 17.579-7.62.627-1.661 1.717-3.021 2.421-3.021 2.122 0 1.446 3.651-1.275 6.884-2.229 2.649-2.398 3.331-1.32 5.327.68 1.259 1.827 4.764 2.548 7.789 1.231 5.162 1.19 5.584-.68 6.872-2.942 2.026-2.422 3.164 1.122 2.455 2.905-.581 3.071-.461 2.473 1.775l-.642 2.398 1.649-2.25c2.042-2.785 3.406-2.885 3.406-.25 0 1.1.45 2 1 2s1-.9 1-2c0-2.267 1.037-2.563 2.8-.8.933.933 1.2.717 1.2-.975 0-1.883.402-2.095 3-1.575 3.188.638 3.971-.599 1.616-2.554-.87-.722-1.636-4.386-2.062-9.872-.921-11.834-3.234-26.276-5.038-31.457-.818-2.347-1.493-4.829-1.501-5.517-.026-2.154 1.976-1.364 3.167 1.25.93 2.04 1.851 2.5 5.012 2.5 5.335 0 13.363-4.242 15.368-8.12 2.174-4.203.855-5.339-4.518-3.892-4.814 1.296-9.095.652-13.851-2.085-1.819-1.047-3.619-1.854-4-1.795-.381.059-2.879 2.514-5.55 5.454m-99.1 14.369c-.317.512-.118 1.213.441 1.559.559.345 1.016 1.726 1.016 3.069 0 1.503.576 2.441 1.5 2.441 1.737 0 1.984-3.227.465-6.066-1.117-2.086-2.502-2.492-3.422-1.003m20.624 4.819c-2.029 1.729-3.324 5.107-1.966 5.132 1.259.023 6.746-5.602 6.097-6.25-1.005-1.005-1.934-.754-4.131 1.118m1.519 21.902c-1.809 6.538-1.744 9.458.263 12.011 1.128 1.434 2.051 3.221 2.051 3.972 0 .881 1.185 1.365 3.345 1.365 3.563 0 6.655 2.476 6.655 5.329 0 3.15 1.754 1.669 3.882-3.276 1.17-2.72 3.081-5.614 4.247-6.431 1.779-1.246 2.01-2.099 1.442-5.303-1.27-7.16-1.069-6.985-8.843-7.672-3.975-.352-8.421-.91-9.88-1.241-2.038-.462-2.769-.174-3.162 1.246m58.141-.283c-5.58 1.351-5.396 1.174-6.123 5.881l-.578 3.75h5.237c2.88 0 5.777.54 6.437 1.2.663.663 1.2 3.849 1.2 7.122 0 5.075.209 5.75 1.458 4.713.937-.778 1.259-2.201.901-3.991-.41-2.047.016-3.316 1.611-4.801 1.969-1.835 2.064-2.403 1.035-6.223-2.559-9.505-2.81-9.677-11.178-7.651M35.011 178.487c-2.237 2.696-.442 4.513 4.458 4.513H44v12.429c0 9.965.311 12.74 1.571 14 1.886 1.886 2.648 1.952 4.229.371.808-.808 1.2-5.378 1.2-14V183h4.893c5.486 0 7.712-2.353 4.47-4.724-2.651-1.938-23.714-1.763-25.352.211m31.619.763c-.857 3.198-.801 3.47.841 4.101 2.354.903 4.731-2.105 3.492-4.42-1.393-2.603-3.593-2.441-4.333.319m92.429-1.067c.367 2.716-.105 3.817-1.636 3.817-2.96 0-7.068 5.353-8.454 11.018l-1.341 5.482-.856-3.5c-.853-3.49-5.315-6.887-6.896-5.25-1.145 1.186 3.912 18.609 5.805 20 .936.688 2.01 1.25 2.388 1.25 1.785 0 3.652-4.104 6.086-13.381l2.655-10.119.095 10.628c.073 8.139.446 10.919 1.595 11.872 1.197.993 1.803.993 3 0 1.21-1.004 1.5-4.114 1.5-16.087 0-13.961-.122-14.908-2.059-15.945-1.602-.857-2.02-.809-1.882.215m-83.433 3.265c-1.698 2.591-.866 3.965 1.784 2.948 1.647-.632 2.27-5.396.705-5.396-.487 0-1.607 1.102-2.489 2.448m25.884 3.568c.346.559 1.047.758 1.559.441 1.387-.857 1.129-1.457-.628-1.457-.857 0-1.276.457-.931 1.016m-35.843 1.651c-1.225 1.225-.75 21.85.533 23.133 1.581 1.581 2.343 1.515 4.229-.371 1.981-1.982 2.288-20.312.371-22.229-1.307-1.307-4.072-1.595-5.133-.533m13 0c-.367.366-.667 5.526-.667 11.464 0 9.646.206 10.909 1.931 11.832 3.466 1.855 5.069-1.12 5.069-9.412 0-7.953 1.11-9.957 5.195-9.378 2.162.307 2.336.873 2.805 9.116.531 9.327 1.695 11.48 5.196 9.606 1.529-.818 1.802-2.295 1.789-9.68-.009-4.793-.391-9.307-.85-10.031-1.059-1.67-6.135-4.344-6.135-3.232 0 1.469-3.206 2.122-4.627.943-1.028-.854-1.721-.851-2.756.008-1.067.885-1.517.799-1.969-.377-.592-1.543-3.753-2.088-4.981-.859m26.526.6c-.762.919.056 4.095 2.974 11.548 4.701 12.003 4.622 14.886-.42 15.372-2.476.239-3.247.788-3.247 2.313 0 2.886 8.329 3.451 10.79.733 2.329-2.574 11.962-28.134 11.276-29.921-.318-.83-1.522-1.315-2.812-1.132-1.807.257-2.75 1.74-4.756 7.488-1.376 3.943-2.741 7.409-3.034 7.702-.293.293-1.804-3.046-3.358-7.419-2.857-8.04-4.819-9.809-7.413-6.684m93.474-.6c-1.225 1.225-.75 21.85.533 23.133 1.581 1.581 2.343 1.515 4.229-.371 1.141-1.142 1.571-3.569 1.571-8.878 0-7.953 1.11-9.957 5.195-9.378 2.162.307 2.336.873 2.805 9.116.531 9.327 1.695 11.48 5.196 9.606 1.534-.821 1.804-2.315 1.804-9.976 0-8.233-.212-9.222-2.455-11.464-2.838-2.839-7.924-3.279-11.221-.969-1.876 1.314-2.187 1.314-2.691 0-.58-1.51-3.752-2.034-4.966-.819m-27.078 3.41c-4.479 5.323-3.02 15.886 2.576 18.646 4.259 2.1 6.831 2.433 10.204 1.32 8.588-2.834 11.36-13.032 5.551-20.418-1.417-1.801-2.507-2.394-3.272-1.78-1.448 1.161-9.517 1.176-10.232.019-.935-1.512-2.169-.946-4.827 2.213M132 198.794c0 7.634.35 10.252 1.5 11.206 1.197.993 1.803.993 3 0 1.124-.933 1.5-3.438 1.5-10.006 0-7.442-.263-8.854-1.75-9.378-.963-.34-2.312-.879-3-1.2-.955-.445-1.25 1.765-1.25 9.378m45.074-6.383c-.644.776-1.428 2.993-1.741 4.926-.468 2.882-.108 3.979 1.993 6.079 2.533 2.534 4.443 2.613 7.424.306 1.513-1.17 1.651-8.105.215-10.788-1.23-2.298-6.147-2.624-7.891-.523m3.584 1.264c-1.165 1.165-.701 6.045.684 7.194 1.748 1.451 2.658.454 2.658-2.913 0-2.749-2.137-5.486-3.342-4.281"/></svg>