<svg xmlns="http://www.w3.org/2000/svg" viewBox="0 0 92.72 90.15"><defs><style>.cls-1{fill:#fff;}.cls-2,.cls-8{fill:#231f20;}.cls-3{fill:#4f3d2e;}.cls-4,.cls-7{fill:#fff3d8;}.cls-5{fill:#a47c4f;}.cls-6{fill:#e5c286;}.cls-7{opacity:0.5;}.cls-8{opacity:0.3;}</style></defs><g id="Layer_2" data-name="Layer 2"><g id="Layer_3" data-name="Layer 3"><path d="M84.22,73.76v.34a5,5,0,0,1,1.65-1.46,4.36,4.36,0,0,1,2-.46,4.08,4.08,0,0,1,2,.49,3.19,3.19,0,0,1,1.33,1.39,3.4,3.4,0,0,1,.36,1.13,10.86,10.86,0,0,1,.09,1.55v5.31a1.83,1.83,0,0,1-.4,1.29,1.4,1.4,0,0,1-2,0,1.9,1.9,0,0,1-.4-1.28V77.29a4.79,4.79,0,0,0-.39-2.16,1.59,1.59,0,0,0-1.56-.75,2.34,2.34,0,0,0-1.39.46,2.56,2.56,0,0,0-.92,1.25,8.87,8.87,0,0,0-.21,2.38v3.58a1.86,1.86,0,0,1-.4,1.3,1.36,1.36,0,0,1-1,.43,1.31,1.31,0,0,1-1-.45,1.9,1.9,0,0,1-.39-1.28V73.8a1.8,1.8,0,0,1,.35-1.22,1.22,1.22,0,0,1,1-.4,1.3,1.3,0,0,1,.68.18,1.26,1.26,0,0,1,.49.53A1.93,1.93,0,0,1,84.22,73.76Z"/><path d="M87.92,72.18a4.08,4.08,0,0,1,2,.49,3.19,3.19,0,0,1,1.33,1.39,3.4,3.4,0,0,1,.36,1.13,10.86,10.86,0,0,1,.09,1.55v5.31a1.83,1.83,0,0,1-.4,1.29,1.4,1.4,0,0,1-2,0,1.9,1.9,0,0,1-.4-1.28V77.29a4.79,4.79,0,0,0-.39-2.16,1.59,1.59,0,0,0-1.56-.75,2.34,2.34,0,0,0-1.39.46,2.56,2.56,0,0,0-.92,1.25,8.87,8.87,0,0,0-.21,2.38v3.58a1.86,1.86,0,0,1-.4,1.3,1.36,1.36,0,0,1-1,.43,1.31,1.31,0,0,1-1-.45,1.9,1.9,0,0,1-.39-1.28V73.8a1.8,1.8,0,0,1,.35-1.22,1.22,1.22,0,0,1,1-.4,1.3,1.3,0,0,1,.68.18,1.26,1.26,0,0,1,.49.53,1.93,1.93,0,0,1,.18.87v.34a5,5,0,0,1,1.65-1.46,4.36,4.36,0,0,1,2-.46m0-1a5.28,5.28,0,0,0-2.51.58,4.07,4.07,0,0,0-.65.4,2.24,2.24,0,0,0-.7-.67,2.32,2.32,0,0,0-1.19-.31,2.2,2.2,0,0,0-1.72.74,2.76,2.76,0,0,0-.6,1.88v8.25A2.82,2.82,0,0,0,81.19,84a2.29,2.29,0,0,0,1.77.79A2.36,2.36,0,0,0,84.73,84a2.84,2.84,0,0,0,.67-2V78.47a7.67,7.67,0,0,1,.16-2.07,1.51,1.51,0,0,1,.56-.75,1.29,1.29,0,0,1,.8-.27c.37,0,.6.08.68.22a3.87,3.87,0,0,1,.27,1.69v4.76A2.83,2.83,0,0,0,88.52,84a2.41,2.41,0,0,0,3.55,0,2.84,2.84,0,0,0,.65-2V76.74a11.44,11.44,0,0,0-.1-1.69,4.31,4.31,0,0,0-.47-1.46,4,4,0,0,0-1.73-1.79,5.09,5.09,0,0,0-2.5-.62Z"/><path class="cls-1" d="M82.64,74.39v.34a4.94,4.94,0,0,1,1.65-1.45,4.36,4.36,0,0,1,2-.47,4.22,4.22,0,0,1,2,.49,3.11,3.11,0,0,1,1.32,1.39,3.41,3.41,0,0,1,.37,1.13,11.16,11.16,0,0,1,.08,1.55v5.31A1.88,1.88,0,0,1,89.74,84a1.28,1.28,0,0,1-1,.44,1.31,1.31,0,0,1-1-.45,1.84,1.84,0,0,1-.4-1.28V77.92a4.79,4.79,0,0,0-.39-2.16A1.6,1.6,0,0,0,85.34,75a2.31,2.31,0,0,0-1.39.45A2.56,2.56,0,0,0,83,76.72a8.92,8.92,0,0,0-.21,2.38v3.58a1.84,1.84,0,0,1-.41,1.3,1.33,1.33,0,0,1-1,.43,1.29,1.29,0,0,1-1-.45,1.89,1.89,0,0,1-.4-1.28V74.43a1.8,1.8,0,0,1,.36-1.22,1.26,1.26,0,0,1,1-.4A1.3,1.3,0,0,1,82,73a1.4,1.4,0,0,1,.49.53A1.93,1.93,0,0,1,82.64,74.39Z"/><path class="cls-2" d="M86.34,72.81a4.22,4.22,0,0,1,2,.49,3.11,3.11,0,0,1,1.32,1.39,3.41,3.41,0,0,1,.37,1.13,11.16,11.16,0,0,1,.08,1.55v5.31A1.88,1.88,0,0,1,89.74,84a1.28,1.28,0,0,1-1,.44,1.31,1.31,0,0,1-1-.45,1.84,1.84,0,0,1-.4-1.28V77.92a4.79,4.79,0,0,0-.39-2.16A1.6,1.6,0,0,0,85.34,75a2.31,2.31,0,0,0-1.39.45A2.56,2.56,0,0,0,83,76.72a8.92,8.92,0,0,0-.21,2.38v3.58a1.84,1.84,0,0,1-.41,1.3,1.33,1.33,0,0,1-1,.43,1.29,1.29,0,0,1-1-.45,1.89,1.89,0,0,1-.4-1.28V74.43a1.8,1.8,0,0,1,.36-1.22,1.26,1.26,0,0,1,1-.4A1.3,1.3,0,0,1,82,73a1.4,1.4,0,0,1,.49.53,1.93,1.93,0,0,1,.18.87v.34a4.94,4.94,0,0,1,1.65-1.45,4.36,4.36,0,0,1,2-.47m0-1.5a5.93,5.93,0,0,0-2.75.64l-.31.17a2.51,2.51,0,0,0-.55-.42,2.78,2.78,0,0,0-1.44-.39,2.74,2.74,0,0,0-2.1.91,3.25,3.25,0,0,0-.73,2.21v8.25A3.3,3.3,0,0,0,79.24,85a2.78,2.78,0,0,0,2.13,1A2.82,2.82,0,0,0,83.51,85a3.26,3.26,0,0,0,.81-2.32V79.1a7.48,7.48,0,0,1,.13-1.89,1.09,1.09,0,0,1,.38-.52.79.79,0,0,1,.51-.17l.27,0a3.94,3.94,0,0,1,.18,1.38v4.76A3.35,3.35,0,0,0,86.56,85a2.83,2.83,0,0,0,2.16,1A2.77,2.77,0,0,0,90.86,85a3.32,3.32,0,0,0,.77-2.29V77.37a14.15,14.15,0,0,0-.09-1.75A4.91,4.91,0,0,0,91,74a4.56,4.56,0,0,0-1.94-2,5.59,5.59,0,0,0-2.74-.68Z"/><path d="M78.87,78a6.63,6.63,0,0,1-.4,2.35,5,5,0,0,1-1.15,1.85,5.11,5.11,0,0,1-1.79,1.19,6.53,6.53,0,0,1-2.36.41,6.16,6.16,0,0,1-2.33-.42,5.2,5.2,0,0,1-1.79-1.19,5.31,5.31,0,0,1-1.15-1.84A6.78,6.78,0,0,1,67.51,78a6.66,6.66,0,0,1,.4-2.37,5,5,0,0,1,2.93-3,6.48,6.48,0,0,1,2.33-.41,6.36,6.36,0,0,1,2.36.42,5.06,5.06,0,0,1,1.8,1.19,5,5,0,0,1,1.15,1.84A6.78,6.78,0,0,1,78.87,78ZM76,78a4.31,4.31,0,0,0-.77-2.72,2.49,2.49,0,0,0-2.07-1,2.56,2.56,0,0,0-1.47.43,2.74,2.74,0,0,0-1,1.28,5.77,5.77,0,0,0,0,3.93,2.79,2.79,0,0,0,1,1.28,2.52,2.52,0,0,0,1.49.45,2.5,2.5,0,0,0,2.07-1A4.27,4.27,0,0,0,76,78Z"/><path d="M73.17,72.18a6.36,6.36,0,0,1,2.36.42,5.06,5.06,0,0,1,1.8,1.19,5,5,0,0,1,1.15,1.84A6.78,6.78,0,0,1,78.87,78a6.63,6.63,0,0,1-.4,2.35,5,5,0,0,1-1.15,1.85,5.11,5.11,0,0,1-1.79,1.19,6.53,6.53,0,0,1-2.36.41,6.16,6.16,0,0,1-2.33-.42,5.2,5.2,0,0,1-1.79-1.19,5.31,5.31,0,0,1-1.15-1.84A6.78,6.78,0,0,1,67.51,78a6.66,6.66,0,0,1,.4-2.37,5,5,0,0,1,2.93-3,6.48,6.48,0,0,1,2.33-.41m0,9.48a2.5,2.5,0,0,0,2.07-1,5.15,5.15,0,0,0,0-5.42,2.49,2.49,0,0,0-2.07-1,2.54,2.54,0,0,0-1.47.43,2.74,2.74,0,0,0-1,1.28,5.77,5.77,0,0,0,0,3.93,2.79,2.79,0,0,0,1,1.28,2.52,2.52,0,0,0,1.49.45m0-10.48a7.35,7.35,0,0,0-2.69.48,6,6,0,0,0-2.15,1.41A6.14,6.14,0,0,0,67,75.26a8.27,8.27,0,0,0,0,5.41,6.15,6.15,0,0,0,3.51,3.62,7.13,7.13,0,0,0,2.7.49,7.36,7.36,0,0,0,2.72-.48,6.05,6.05,0,0,0,3.52-3.62,7.69,7.69,0,0,0,.46-2.7,7.85,7.85,0,0,0-.45-2.7,6.05,6.05,0,0,0-3.53-3.61,7.23,7.23,0,0,0-2.72-.49Zm0,9.48a1.57,1.57,0,0,1-.91-.26,1.84,1.84,0,0,1-.62-.84A4.18,4.18,0,0,1,71.37,78a4.25,4.25,0,0,1,.27-1.6,1.82,1.82,0,0,1,.62-.83,1.62,1.62,0,0,1,.91-.26,1.48,1.48,0,0,1,1.28.59A3.35,3.35,0,0,1,75,78a3.31,3.31,0,0,1-.56,2.08,1.47,1.47,0,0,1-1.28.6Z"/><path class="cls-1" d="M77.29,78.61a6.59,6.59,0,0,1-.4,2.35,5.08,5.08,0,0,1-1.15,1.85A4.93,4.93,0,0,1,73.94,84a6.23,6.23,0,0,1-2.35.41A6.36,6.36,0,0,1,69.26,84a5.13,5.13,0,0,1-1.79-1.2A5.08,5.08,0,0,1,66.32,81a6.78,6.78,0,0,1-.39-2.35,6.93,6.93,0,0,1,.39-2.37,5.3,5.3,0,0,1,1.14-1.84,5.17,5.17,0,0,1,1.8-1.18,6.44,6.44,0,0,1,2.33-.41,6.27,6.27,0,0,1,2.35.42,5.14,5.14,0,0,1,1.81,1.19,5.36,5.36,0,0,1,1.15,1.84A6.82,6.82,0,0,1,77.29,78.61Zm-2.87,0a4.26,4.26,0,0,0-.76-2.71,2.68,2.68,0,0,0-3.54-.54,2.69,2.69,0,0,0-1,1.28,5.77,5.77,0,0,0,0,3.93,2.9,2.9,0,0,0,1,1.28,2.57,2.57,0,0,0,1.49.44,2.48,2.48,0,0,0,2.07-1A4.27,4.27,0,0,0,74.42,78.61Z"/><path class="cls-2" d="M71.59,72.81a6.27,6.27,0,0,1,2.35.42,5.14,5.14,0,0,1,1.81,1.19,5.36,5.36,0,0,1,1.15,1.84,6.82,6.82,0,0,1,.39,2.35,6.59,6.59,0,0,1-.4,2.35,5.08,5.08,0,0,1-1.15,1.85A4.93,4.93,0,0,1,73.94,84a6.23,6.23,0,0,1-2.35.41A6.36,6.36,0,0,1,69.26,84a5.13,5.13,0,0,1-1.79-1.2A5.08,5.08,0,0,1,66.32,81a6.78,6.78,0,0,1-.39-2.35,6.93,6.93,0,0,1,.39-2.37,5.3,5.3,0,0,1,1.14-1.84,5.17,5.17,0,0,1,1.8-1.18,6.44,6.44,0,0,1,2.33-.41m0,9.48a2.48,2.48,0,0,0,2.07-1,5.19,5.19,0,0,0,0-5.41,2.68,2.68,0,0,0-3.54-.54,2.69,2.69,0,0,0-1,1.28,5.77,5.77,0,0,0,0,3.93,2.9,2.9,0,0,0,1,1.28,2.57,2.57,0,0,0,1.49.44m0-11a8,8,0,0,0-2.88.52,6.46,6.46,0,0,0-2.32,1.52,6.63,6.63,0,0,0-1.47,2.37,8.19,8.19,0,0,0-.49,2.89,8.31,8.31,0,0,0,.48,2.87,6.69,6.69,0,0,0,1.48,2.37,6.88,6.88,0,0,0,2.31,1.54,7.7,7.7,0,0,0,2.89.52,7.92,7.92,0,0,0,2.9-.51,6.63,6.63,0,0,0,2.33-1.54,6.75,6.75,0,0,0,1.48-2.38,8.35,8.35,0,0,0,.49-2.87,8.12,8.12,0,0,0-.49-2.87,6.68,6.68,0,0,0-1.47-2.36,6.59,6.59,0,0,0-2.33-1.54,7.85,7.85,0,0,0-2.91-.53Zm0,9.48a1.08,1.08,0,0,1-.63-.17,1.38,1.38,0,0,1-.44-.62,3.74,3.74,0,0,1-.23-1.39,3.89,3.89,0,0,1,.23-1.41,1.31,1.31,0,0,1,.44-.6,1.09,1.09,0,0,1,.63-.18,1,1,0,0,1,.89.41,2.91,2.91,0,0,1,.44,1.78,3,3,0,0,1-.44,1.78,1,1,0,0,1-.89.4Z"/><path d="M40.36,84.14l.27-.64-3.52-8.84a3.44,3.44,0,0,1-.32-1.11,1.25,1.25,0,0,1,.19-.68,1.32,1.32,0,0,1,.52-.5,1.3,1.3,0,0,1,.68-.19,1.12,1.12,0,0,1,.93.39,3.64,3.64,0,0,1,.55,1.12l2.42,7,2.29-6.53a10.57,10.57,0,0,1,.49-1.25,1.46,1.46,0,0,1,.46-.6,1.27,1.27,0,0,1,.7-.16,1.26,1.26,0,0,1,.62.17,1.26,1.26,0,0,1,.62,1.08c0,.14-.07.32-.13.57s-.14.49-.23.74l-3.72,9.74a11.86,11.86,0,0,1-.94,2A3.12,3.12,0,0,1,41,87.62,4.53,4.53,0,0,1,39,88a5,5,0,0,1-1.88-.27A1.12,1.12,0,0,1,36.76,86a1.3,1.3,0,0,1,.89-.27,1.76,1.76,0,0,1,.45.07,2.16,2.16,0,0,0,.47.06,1.67,1.67,0,0,0,.77-.15,1.28,1.28,0,0,0,.51-.5A7.64,7.64,0,0,0,40.36,84.14Z"/><path d="M46,72.18a1.26,1.26,0,0,1,.62.17,1.26,1.26,0,0,1,.62,1.08c0,.14-.07.32-.13.57s-.14.49-.23.74l-3.72,9.74a11.86,11.86,0,0,1-.94,2A3.12,3.12,0,0,1,41,87.62,4.53,4.53,0,0,1,39,88a5,5,0,0,1-1.88-.27A1.12,1.12,0,0,1,36.76,86a1.3,1.3,0,0,1,.89-.27,1.76,1.76,0,0,1,.45.07,2.16,2.16,0,0,0,.47.06,1.67,1.67,0,0,0,.77-.15,1.28,1.28,0,0,0,.51-.5,7.64,7.64,0,0,0,.51-1.06l.27-.64-3.52-8.84a3.44,3.44,0,0,1-.32-1.11,1.25,1.25,0,0,1,.19-.68,1.32,1.32,0,0,1,.52-.5,1.3,1.3,0,0,1,.68-.19,1.12,1.12,0,0,1,.93.39,3.64,3.64,0,0,1,.55,1.12l2.42,7,2.29-6.53a10.57,10.57,0,0,1,.49-1.25,1.46,1.46,0,0,1,.46-.6,1.27,1.27,0,0,1,.7-.16m0-1a2.22,2.22,0,0,0-1.23.31,2.38,2.38,0,0,0-.83,1,12.37,12.37,0,0,0-.54,1.36l-1.33,3.81-1.48-4.3A4.38,4.38,0,0,0,39.89,72a2.08,2.08,0,0,0-1.71-.77,2.46,2.46,0,0,0-2.06,1.17,2.31,2.31,0,0,0-.33,1.2,4,4,0,0,0,.4,1.5l3.36,8.44-.11.27a6.43,6.43,0,0,1-.44.91,1.22,1.22,0,0,1-.12.15h0a1.11,1.11,0,0,1-.31,0,1,1,0,0,1-.23,0,2.68,2.68,0,0,0-.69-.1,2.22,2.22,0,0,0-1.55.53,1.9,1.9,0,0,0-.63,1.5,2,2,0,0,0,1.23,1.91A5.77,5.77,0,0,0,39,89a5.42,5.42,0,0,0,2.51-.5A4.07,4.07,0,0,0,43.08,87a11.46,11.46,0,0,0,1-2.2l3.72-9.73c.11-.3.2-.58.27-.85l.14-.61,0-.1v-.11a2.28,2.28,0,0,0-.28-1.1,2.19,2.19,0,0,0-.84-.84A2.15,2.15,0,0,0,46,71.18Z"/><path d="M55.22,81.21l-2.46-9.76V82a1.93,1.93,0,0,1-.39,1.32,1.45,1.45,0,0,1-2.07,0A1.94,1.94,0,0,1,49.91,82V69.9a1.5,1.5,0,0,1,.52-1.35,2.46,2.46,0,0,1,1.41-.35h1a3.81,3.81,0,0,1,1.26.15,1.08,1.08,0,0,1,.58.57,8,8,0,0,1,.43,1.33l2.23,8.39,2.22-8.39A9,9,0,0,1,60,68.92a1.11,1.11,0,0,1,.58-.57,3.81,3.81,0,0,1,1.26-.15h1a2.41,2.41,0,0,1,1.41.35,1.51,1.51,0,0,1,.53,1.35V82a1.88,1.88,0,0,1-.4,1.32,1.34,1.34,0,0,1-1.05.44,1.32,1.32,0,0,1-1-.44,1.93,1.93,0,0,1-.4-1.32V71.45l-2.45,9.76c-.16.63-.29,1.1-.39,1.39a2,2,0,0,1-.56.81,1.62,1.62,0,0,1-1.13.37,1.74,1.74,0,0,1-.92-.23,1.72,1.72,0,0,1-.59-.61,3.27,3.27,0,0,1-.33-.81C55.38,81.84,55.3,81.53,55.22,81.21Z"/><path d="M62.75,68.2a2.41,2.41,0,0,1,1.41.35,1.51,1.51,0,0,1,.53,1.35V82a1.88,1.88,0,0,1-.4,1.32,1.34,1.34,0,0,1-1.05.44,1.32,1.32,0,0,1-1-.44,1.93,1.93,0,0,1-.4-1.32V71.45l-2.45,9.76c-.16.63-.29,1.1-.39,1.39a2,2,0,0,1-.56.81,1.62,1.62,0,0,1-1.13.37,1.74,1.74,0,0,1-.92-.23,1.72,1.72,0,0,1-.59-.61,3.27,3.27,0,0,1-.33-.81c-.08-.29-.16-.6-.24-.92l-2.46-9.76V82a1.93,1.93,0,0,1-.39,1.32,1.45,1.45,0,0,1-2.07,0A1.94,1.94,0,0,1,49.91,82V69.9a1.5,1.5,0,0,1,.52-1.35,2.46,2.46,0,0,1,1.41-.35h1a3.81,3.81,0,0,1,1.26.15,1.08,1.08,0,0,1,.58.57,8,8,0,0,1,.43,1.33l2.23,8.39,2.22-8.39A9,9,0,0,1,60,68.92a1.11,1.11,0,0,1,.58-.57,3.81,3.81,0,0,1,1.26-.15h1m0-1h-1a4.62,4.62,0,0,0-1.63.22A2.11,2.11,0,0,0,59,68.5,9.36,9.36,0,0,0,58.56,70L57.3,74.74,56,70a9.89,9.89,0,0,0-.49-1.49,2.08,2.08,0,0,0-1.12-1.08,4.59,4.59,0,0,0-1.63-.22h-1a3.46,3.46,0,0,0-2,.52,2.44,2.44,0,0,0-1,2.18V82a2.84,2.84,0,0,0,.66,2,2.3,2.3,0,0,0,1.76.76A2.36,2.36,0,0,0,53.12,84a2.94,2.94,0,0,0,.64-2v-2.5l.49,1.93c.08.34.17.65.25,1a4.53,4.53,0,0,0,.42,1,2.73,2.73,0,0,0,.93,1,2.67,2.67,0,0,0,1.45.39,2.6,2.6,0,0,0,1.79-.62,2.86,2.86,0,0,0,.84-1.23c.11-.33.25-.81.42-1.48l.48-1.93V82a2.85,2.85,0,0,0,.66,2,2.27,2.27,0,0,0,1.75.77A2.35,2.35,0,0,0,65,84a2.89,2.89,0,0,0,.65-2V69.9a2.44,2.44,0,0,0-1-2.18,3.44,3.44,0,0,0-2-.52Z"/><path class="cls-1" d="M38.78,84.77l.26-.64-3.51-8.84a3.44,3.44,0,0,1-.32-1.11,1.27,1.27,0,0,1,.19-.68,1.36,1.36,0,0,1,.51-.5,1.33,1.33,0,0,1,.69-.19,1.12,1.12,0,0,1,.93.39,3.6,3.6,0,0,1,.55,1.13l2.42,7,2.29-6.53a10.57,10.57,0,0,1,.49-1.25,1.45,1.45,0,0,1,.46-.6,1.27,1.27,0,0,1,.7-.16,1.29,1.29,0,0,1,.62.17,1.26,1.26,0,0,1,.62,1.09c0,.13-.07.32-.13.56s-.14.49-.23.74l-3.73,9.74a11.13,11.13,0,0,1-.94,2,3,3,0,0,1-1.21,1.12,4.4,4.4,0,0,1-2,.4,4.79,4.79,0,0,1-1.88-.28,1,1,0,0,1-.63-1,1,1,0,0,1,.3-.76,1.32,1.32,0,0,1,.88-.26,1.63,1.63,0,0,1,.45.06,2.31,2.31,0,0,0,.47.06,1.84,1.84,0,0,0,.78-.14,1.38,1.38,0,0,0,.51-.51A8.27,8.27,0,0,0,38.78,84.77Z"/><path class="cls-2" d="M44.44,72.81a1.29,1.29,0,0,1,.62.17,1.26,1.26,0,0,1,.62,1.09c0,.13-.07.32-.13.56s-.14.49-.23.74l-3.73,9.74a11.13,11.13,0,0,1-.94,2,3,3,0,0,1-1.21,1.12,4.4,4.4,0,0,1-2,.4,4.79,4.79,0,0,1-1.88-.28,1,1,0,0,1-.63-1,1,1,0,0,1,.3-.76,1.32,1.32,0,0,1,.88-.26,1.63,1.63,0,0,1,.45.06,2.31,2.31,0,0,0,.47.06,1.84,1.84,0,0,0,.78-.14,1.38,1.38,0,0,0,.51-.51,8.27,8.27,0,0,0,.51-1.06l.26-.64-3.51-8.84a3.44,3.44,0,0,1-.32-1.11,1.27,1.27,0,0,1,.19-.68,1.36,1.36,0,0,1,.51-.5,1.33,1.33,0,0,1,.69-.19,1.12,1.12,0,0,1,.93.39,3.71,3.71,0,0,1,.55,1.13l2.42,7,2.29-6.53a10.57,10.57,0,0,1,.49-1.25,1.45,1.45,0,0,1,.46-.6,1.27,1.27,0,0,1,.7-.16m0-1.5a2.78,2.78,0,0,0-1.51.39,2.89,2.89,0,0,0-1,1.22,11.44,11.44,0,0,0-.56,1.41l-.86,2.45-1-2.94a4.91,4.91,0,0,0-.8-1.57,2.61,2.61,0,0,0-2.1-1,3,3,0,0,0-2.49,1.42,2.73,2.73,0,0,0-.4,1.45,4.42,4.42,0,0,0,.44,1.7l3.28,8.24,0,.08A5.39,5.39,0,0,1,37,85h0l-.11,0a3.23,3.23,0,0,0-.82-.1,2.74,2.74,0,0,0-1.88.65,2.42,2.42,0,0,0-.8,1.87,2.47,2.47,0,0,0,1.53,2.37,6.26,6.26,0,0,0,2.48.4,5.92,5.92,0,0,0,2.73-.56,4.64,4.64,0,0,0,1.8-1.66A12.39,12.39,0,0,0,43,85.64l3.72-9.73c.11-.32.2-.62.28-.91s.12-.48.15-.62a1.71,1.71,0,0,0,0-.31,2.77,2.77,0,0,0-.35-1.35,2.66,2.66,0,0,0-1-1,2.7,2.7,0,0,0-1.37-.38Z"/><path class="cls-1" d="M53.63,81.84l-2.45-9.76V82.66A1.92,1.92,0,0,1,50.79,84a1.3,1.3,0,0,1-1,.44,1.34,1.34,0,0,1-1-.43,1.93,1.93,0,0,1-.39-1.32V70.53a1.5,1.5,0,0,1,.52-1.35,2.54,2.54,0,0,1,1.41-.35h1a3.51,3.51,0,0,1,1.26.16,1.06,1.06,0,0,1,.58.56,8.31,8.31,0,0,1,.43,1.33l2.22,8.39,2.23-8.39a8.31,8.31,0,0,1,.43-1.33A1.06,1.06,0,0,1,59,69a3.51,3.51,0,0,1,1.26-.16h1a2.54,2.54,0,0,1,1.41.35,1.5,1.5,0,0,1,.52,1.35V82.66A1.92,1.92,0,0,1,62.71,84a1.31,1.31,0,0,1-1.05.44,1.27,1.27,0,0,1-1-.44,1.87,1.87,0,0,1-.4-1.31V72.08l-2.46,9.76c-.16.64-.29,1.1-.39,1.4a1.92,1.92,0,0,1-.56.81,1.94,1.94,0,0,1-2,.13,1.69,1.69,0,0,1-.59-.6,3.62,3.62,0,0,1-.33-.81C53.8,82.47,53.72,82.16,53.63,81.84Z"/><path class="cls-2" d="M61.17,68.83a2.54,2.54,0,0,1,1.41.35,1.5,1.5,0,0,1,.52,1.35V82.66A1.92,1.92,0,0,1,62.71,84a1.31,1.31,0,0,1-1.05.44,1.27,1.27,0,0,1-1-.44,1.87,1.87,0,0,1-.4-1.31V72.08l-2.46,9.76c-.16.64-.29,1.1-.39,1.4a1.92,1.92,0,0,1-.56.81,1.94,1.94,0,0,1-2,.13,1.69,1.69,0,0,1-.59-.6,3.62,3.62,0,0,1-.33-.81c-.08-.3-.16-.61-.25-.93l-2.45-9.76V82.66A1.92,1.92,0,0,1,50.79,84a1.3,1.3,0,0,1-1,.44,1.34,1.34,0,0,1-1-.43,1.93,1.93,0,0,1-.39-1.32V70.53a1.5,1.5,0,0,1,.52-1.35,2.54,2.54,0,0,1,1.41-.35h1a3.51,3.51,0,0,1,1.26.16,1.06,1.06,0,0,1,.58.56,8.31,8.31,0,0,1,.43,1.33l2.22,8.39,2.23-8.39a8.31,8.31,0,0,1,.43-1.33A1.06,1.06,0,0,1,59,69a3.51,3.51,0,0,1,1.26-.16h1m0-1.5h-1a4.94,4.94,0,0,0-1.82.26A2.53,2.53,0,0,0,57,68.92a9.63,9.63,0,0,0-.52,1.58l-.78,2.92-.77-2.93a9.79,9.79,0,0,0-.52-1.57A2.53,2.53,0,0,0,53,67.59a4.94,4.94,0,0,0-1.82-.26h-1a4,4,0,0,0-2.25.6,2.92,2.92,0,0,0-1.18,2.6V82.66A3.31,3.31,0,0,0,47.62,85a2.77,2.77,0,0,0,2.13.92A2.8,2.8,0,0,0,51.91,85a3,3,0,0,0,.67-1.35,4.09,4.09,0,0,0,.33.7A3.19,3.19,0,0,0,54,85.45a3.15,3.15,0,0,0,1.71.46,3.1,3.1,0,0,0,2.14-.75,3.35,3.35,0,0,0,1-1.44l0-.09A2.9,2.9,0,0,0,59.54,85a2.77,2.77,0,0,0,2.12.93A2.81,2.81,0,0,0,63.83,85a3.36,3.36,0,0,0,.77-2.31V70.53a2.92,2.92,0,0,0-1.18-2.6,4,4,0,0,0-2.25-.6Z"/><path d="M26.88,73.76v.34a5,5,0,0,1,1.65-1.46,4.36,4.36,0,0,1,2-.46,4.08,4.08,0,0,1,2,.49,3.19,3.19,0,0,1,1.33,1.39,3.4,3.4,0,0,1,.36,1.13,10.86,10.86,0,0,1,.09,1.55v5.31a1.83,1.83,0,0,1-.4,1.29,1.4,1.4,0,0,1-2,0,1.9,1.9,0,0,1-.4-1.28V77.29a4.79,4.79,0,0,0-.39-2.16,1.59,1.59,0,0,0-1.56-.75,2.34,2.34,0,0,0-1.39.46,2.56,2.56,0,0,0-.92,1.25,8.87,8.87,0,0,0-.21,2.38v3.58a1.86,1.86,0,0,1-.4,1.3,1.36,1.36,0,0,1-1,.43,1.31,1.31,0,0,1-1-.45,1.9,1.9,0,0,1-.39-1.28V73.8a1.8,1.8,0,0,1,.35-1.22,1.22,1.22,0,0,1,1-.4,1.3,1.3,0,0,1,.68.18,1.26,1.26,0,0,1,.49.53A1.93,1.93,0,0,1,26.88,73.76Z"/><path d="M30.58,72.18a4.08,4.08,0,0,1,2,.49,3.19,3.19,0,0,1,1.33,1.39,3.4,3.4,0,0,1,.36,1.13,10.86,10.86,0,0,1,.09,1.55v5.31a1.83,1.83,0,0,1-.4,1.29,1.4,1.4,0,0,1-2,0,1.9,1.9,0,0,1-.4-1.28V77.29a4.79,4.79,0,0,0-.39-2.16,1.59,1.59,0,0,0-1.56-.75,2.34,2.34,0,0,0-1.39.46,2.56,2.56,0,0,0-.92,1.25,8.87,8.87,0,0,0-.21,2.38v3.58a1.86,1.86,0,0,1-.4,1.3,1.36,1.36,0,0,1-1,.43,1.31,1.31,0,0,1-1-.45,1.9,1.9,0,0,1-.39-1.28V73.8a1.8,1.8,0,0,1,.35-1.22,1.22,1.22,0,0,1,1-.4,1.3,1.3,0,0,1,.68.18,1.26,1.26,0,0,1,.49.53,1.93,1.93,0,0,1,.18.87v.34a5,5,0,0,1,1.65-1.46,4.36,4.36,0,0,1,2-.46m0-1a5.28,5.28,0,0,0-2.51.58,4.07,4.07,0,0,0-.65.4,2.24,2.24,0,0,0-.7-.67,2.32,2.32,0,0,0-1.19-.31,2.2,2.2,0,0,0-1.72.74,2.76,2.76,0,0,0-.6,1.88v8.25A2.82,2.82,0,0,0,23.85,84a2.29,2.29,0,0,0,1.77.79A2.36,2.36,0,0,0,27.39,84a2.84,2.84,0,0,0,.67-2V78.47a7.67,7.67,0,0,1,.16-2.07,1.51,1.51,0,0,1,.56-.75,1.29,1.29,0,0,1,.8-.27c.37,0,.6.08.68.22a3.87,3.87,0,0,1,.27,1.69v4.76A2.83,2.83,0,0,0,31.18,84a2.41,2.41,0,0,0,3.55,0,2.84,2.84,0,0,0,.65-2V76.74a11.44,11.44,0,0,0-.1-1.69,4.31,4.31,0,0,0-.47-1.46,4,4,0,0,0-1.73-1.79,5.09,5.09,0,0,0-2.5-.62Z"/><path class="cls-1" d="M25.3,74.39v.34A4.94,4.94,0,0,1,27,73.28,4.36,4.36,0,0,1,29,72.81a4.22,4.22,0,0,1,2,.49,3.11,3.11,0,0,1,1.32,1.39,3.41,3.41,0,0,1,.37,1.13,11.16,11.16,0,0,1,.08,1.55v5.31A1.88,1.88,0,0,1,32.4,84a1.28,1.28,0,0,1-1,.44,1.31,1.31,0,0,1-1-.45,1.84,1.84,0,0,1-.4-1.28V77.92a4.79,4.79,0,0,0-.39-2.16A1.6,1.6,0,0,0,28,75a2.31,2.31,0,0,0-1.39.45,2.56,2.56,0,0,0-.92,1.25,8.92,8.92,0,0,0-.21,2.38v3.58a1.84,1.84,0,0,1-.41,1.3,1.33,1.33,0,0,1-1,.43A1.29,1.29,0,0,1,23,84a1.89,1.89,0,0,1-.4-1.28V74.43A1.8,1.8,0,0,1,23,73.21a1.26,1.26,0,0,1,1-.4,1.3,1.3,0,0,1,.68.18,1.4,1.4,0,0,1,.49.53A1.93,1.93,0,0,1,25.3,74.39Z"/><path class="cls-2" d="M29,72.81a4.22,4.22,0,0,1,2,.49,3.11,3.11,0,0,1,1.32,1.39,3.41,3.41,0,0,1,.37,1.13,11.16,11.16,0,0,1,.08,1.55v5.31A1.88,1.88,0,0,1,32.4,84a1.28,1.28,0,0,1-1,.44,1.31,1.31,0,0,1-1-.45,1.84,1.84,0,0,1-.4-1.28V77.92a4.79,4.79,0,0,0-.39-2.16A1.6,1.6,0,0,0,28,75a2.31,2.31,0,0,0-1.39.45,2.56,2.56,0,0,0-.92,1.25,8.92,8.92,0,0,0-.21,2.38v3.58a1.84,1.84,0,0,1-.41,1.3,1.33,1.33,0,0,1-1,.43A1.29,1.29,0,0,1,23,84a1.89,1.89,0,0,1-.4-1.28V74.43A1.8,1.8,0,0,1,23,73.21a1.26,1.26,0,0,1,1-.4,1.3,1.3,0,0,1,.68.18,1.4,1.4,0,0,1,.49.53,1.93,1.93,0,0,1,.18.87v.34A4.94,4.94,0,0,1,27,73.28,4.36,4.36,0,0,1,29,72.81m0-1.5a5.93,5.93,0,0,0-2.75.64l-.31.17a2.51,2.51,0,0,0-.55-.42A2.78,2.78,0,0,0,24,71.31a2.74,2.74,0,0,0-2.1.91,3.25,3.25,0,0,0-.73,2.21v8.25A3.3,3.3,0,0,0,21.9,85a2.78,2.78,0,0,0,2.13,1A2.82,2.82,0,0,0,26.17,85,3.26,3.26,0,0,0,27,82.68V79.1a7.48,7.48,0,0,1,.13-1.89,1.09,1.09,0,0,1,.38-.52.79.79,0,0,1,.51-.17l.27,0a3.94,3.94,0,0,1,.18,1.38v4.76A3.35,3.35,0,0,0,29.22,85a2.83,2.83,0,0,0,2.16,1A2.77,2.77,0,0,0,33.52,85a3.32,3.32,0,0,0,.77-2.29V77.37a14.15,14.15,0,0,0-.09-1.75A4.91,4.91,0,0,0,33.68,74a4.56,4.56,0,0,0-1.94-2A5.59,5.59,0,0,0,29,71.31Z"/><path d="M19.42,70.85a1.51,1.51,0,0,1-1-.36,1.31,1.31,0,0,1-.42-1,1.29,1.29,0,0,1,.43-1,1.51,1.51,0,0,1,2,0,1.24,1.24,0,0,1,.43,1,1.31,1.31,0,0,1-.42,1A1.43,1.43,0,0,1,19.42,70.85Zm1.41,3v8.25a1.83,1.83,0,0,1-.41,1.29,1.34,1.34,0,0,1-1,.44,1.29,1.29,0,0,1-1-.45A1.9,1.9,0,0,1,18,82.05V73.88a1.82,1.82,0,0,1,.39-1.27,1.3,1.3,0,0,1,1-.43,1.34,1.34,0,0,1,1,.43A1.65,1.65,0,0,1,20.83,73.8Z"/><path d="M19.42,68.06a1.47,1.47,0,0,1,1,.36,1.24,1.24,0,0,1,.43,1,1.31,1.31,0,0,1-.42,1,1.43,1.43,0,0,1-1,.37,1.51,1.51,0,0,1-1-.36,1.31,1.31,0,0,1-.42-1,1.29,1.29,0,0,1,.43-1,1.47,1.47,0,0,1,1-.39m0,4.12a1.34,1.34,0,0,1,1,.43,1.65,1.65,0,0,1,.41,1.19v8.25a1.83,1.83,0,0,1-.41,1.29,1.34,1.34,0,0,1-1,.44,1.29,1.29,0,0,1-1-.45A1.9,1.9,0,0,1,18,82.05V73.88a1.82,1.82,0,0,1,.39-1.27,1.3,1.3,0,0,1,1-.43m0-5.12a2.49,2.49,0,0,0-1.68.65,2.42,2.42,0,0,0,0,3.53,2.47,2.47,0,0,0,.38.28,2.43,2.43,0,0,0-.5.41A2.82,2.82,0,0,0,17,73.88v8.17A2.84,2.84,0,0,0,17.62,84a2.26,2.26,0,0,0,1.77.79A2.37,2.37,0,0,0,21.16,84a2.83,2.83,0,0,0,.67-2V73.8a2.63,2.63,0,0,0-.68-1.88,2,2,0,0,0-.49-.39,3.19,3.19,0,0,0,.42-.3,2.31,2.31,0,0,0,.75-1.78,2.23,2.23,0,0,0-.79-1.8,2.47,2.47,0,0,0-1.62-.59Z"/><path class="cls-1" d="M17.84,71.48a1.51,1.51,0,0,1-1-.36,1.32,1.32,0,0,1-.43-1,1.28,1.28,0,0,1,.44-1,1.42,1.42,0,0,1,1-.4,1.48,1.48,0,0,1,1,.36,1.46,1.46,0,0,1,0,2.06A1.43,1.43,0,0,1,17.84,71.48Zm1.41,3v8.25A1.83,1.83,0,0,1,18.84,84a1.33,1.33,0,0,1-1,.44,1.29,1.29,0,0,1-1-.45,1.84,1.84,0,0,1-.4-1.28V74.52a1.8,1.8,0,0,1,.4-1.28,1.3,1.3,0,0,1,1-.43,1.35,1.35,0,0,1,1,.43A1.67,1.67,0,0,1,19.25,74.43Z"/><path class="cls-2" d="M17.84,68.69a1.48,1.48,0,0,1,1,.36,1.46,1.46,0,0,1,0,2.06,1.43,1.43,0,0,1-1,.37,1.51,1.51,0,0,1-1-.36,1.32,1.32,0,0,1-.43-1,1.28,1.28,0,0,1,.44-1,1.42,1.42,0,0,1,1-.4m0,4.12a1.35,1.35,0,0,1,1,.43,1.67,1.67,0,0,1,.41,1.19v8.25A1.83,1.83,0,0,1,18.84,84a1.33,1.33,0,0,1-1,.44,1.29,1.29,0,0,1-1-.45,1.84,1.84,0,0,1-.4-1.28V74.52a1.8,1.8,0,0,1,.4-1.28,1.3,1.3,0,0,1,1-.43m0-5.62a3,3,0,0,0-2,.78,2.8,2.8,0,0,0-.93,2.11,2.74,2.74,0,0,0,.85,2.08l-.06.07a3.28,3.28,0,0,0-.79,2.29v8.16A3.32,3.32,0,0,0,15.66,85a2.77,2.77,0,0,0,2.15,1A2.84,2.84,0,0,0,19.94,85a3.28,3.28,0,0,0,.81-2.32V74.43a3.13,3.13,0,0,0-.82-2.22l0,0a3,3,0,0,0-.11-4.28,3.08,3.08,0,0,0-1.94-.7Z"/><path d="M14.52,70.76H11.13V81.89a2,2,0,0,1-.43,1.43,1.42,1.42,0,0,1-1.11.46,1.46,1.46,0,0,1-1.12-.47A2,2,0,0,1,8,81.89V70.76H4.65a1.73,1.73,0,0,1-1.18-.35,1.3,1.3,0,0,1,0-1.87,1.76,1.76,0,0,1,1.17-.34h9.87a1.76,1.76,0,0,1,1.19.35,1.18,1.18,0,0,1,.4.93,1.2,1.2,0,0,1-.4.93A1.78,1.78,0,0,1,14.52,70.76Z"/><path d="M14.52,68.2a1.76,1.76,0,0,1,1.19.35,1.18,1.18,0,0,1,.4.93,1.2,1.2,0,0,1-.4.93,1.78,1.78,0,0,1-1.19.35H11.13V81.89a2,2,0,0,1-.43,1.43,1.42,1.42,0,0,1-1.11.46,1.46,1.46,0,0,1-1.12-.47A2,2,0,0,1,8,81.89V70.76H4.65a1.73,1.73,0,0,1-1.18-.35,1.3,1.3,0,0,1,0-1.87,1.76,1.76,0,0,1,1.17-.34h9.87m0-1H4.65a2.72,2.72,0,0,0-1.82.58,2.3,2.3,0,0,0,0,3.37,2.68,2.68,0,0,0,1.85.61H7V81.89a3,3,0,0,0,.7,2.1,2.43,2.43,0,0,0,1.85.79A2.45,2.45,0,0,0,11.44,84a3,3,0,0,0,.69-2.1V71.76h2.39a2.71,2.71,0,0,0,1.85-.6,2.29,2.29,0,0,0,0-3.35,2.68,2.68,0,0,0-1.87-.61Z"/><path class="cls-1" d="M12.93,71.39H9.55V82.52A2,2,0,0,1,9.12,84,1.45,1.45,0,0,1,8,84.41a1.43,1.43,0,0,1-1.12-.47,2,2,0,0,1-.44-1.42V71.39H3.07A1.71,1.71,0,0,1,1.89,71a1.3,1.3,0,0,1,0-1.87,1.76,1.76,0,0,1,1.17-.34h9.86a1.77,1.77,0,0,1,1.2.35,1.21,1.21,0,0,1,.39.94,1.17,1.17,0,0,1-.39.92A1.81,1.81,0,0,1,12.93,71.39Z"/><path class="cls-2" d="M12.93,68.83a1.77,1.77,0,0,1,1.2.35,1.21,1.21,0,0,1,.39.94,1.17,1.17,0,0,1-.39.92,1.81,1.81,0,0,1-1.2.35H9.55V82.52A2,2,0,0,1,9.12,84,1.45,1.45,0,0,1,8,84.41a1.43,1.43,0,0,1-1.12-.47,2,2,0,0,1-.44-1.42V71.39H3.07A1.71,1.71,0,0,1,1.89,71a1.3,1.3,0,0,1,0-1.87,1.76,1.76,0,0,1,1.17-.34h9.86m0-1.5H3.07A3.16,3.16,0,0,0,.93,68a2.79,2.79,0,0,0-.05,4.11,3.16,3.16,0,0,0,2.19.74H5v9.63A3.44,3.44,0,0,0,5.79,85a2.94,2.94,0,0,0,2.22,1A2.91,2.91,0,0,0,10.22,85a3.49,3.49,0,0,0,.83-2.45V72.89h1.88a3.21,3.21,0,0,0,2.19-.72,2.81,2.81,0,0,0,0-4.1,3.21,3.21,0,0,0-2.21-.74Z"/><path class="cls-3" d="M58.47,68.63a4,4,0,0,1,1.58,1,3.86,3.86,0,0,1-1.43,0,.78.78,0,0,0-.57.16.77.77,0,0,0-.28.53,2.25,2.25,0,0,1-.34,1.11s-.07,0-.26-.12a.79.79,0,0,0,0-.09c.3-1.21-1.09-2-2.08-2.46A45.93,45.93,0,0,0,56,63.63c.93,0,1.81,0,2.65,0L58,67.81A.75.75,0,0,0,58.47,68.63Z"/><path class="cls-4" d="M85.1,43.89c-.72,1.88-3.51,4.91-9.47,4.77a13.37,13.37,0,0,0-.95-2.41.74.74,0,0,0-1-.28.75.75,0,0,0-.29,1S76.22,52.27,76.74,68a.79.79,0,0,0,.31.58c.71.52,1.26,1.28,1.15,1.46s-1.16.12-2-.22a.75.75,0,0,0-.94,1,2.91,2.91,0,0,1,.36,1.27,3.39,3.39,0,0,1-.65-1,.75.75,0,0,0-1.44.25,4.76,4.76,0,0,1-.35,1.65c-.21,0-.46-.81-.49-1.49a.74.74,0,0,0-.7-.73.77.77,0,0,0-.79.63,2.5,2.5,0,0,1-.55,1.36c-.09,0-.11-.06-.12-.09a1.77,1.77,0,0,1,.11-1.07.76.76,0,0,0-.19-.83.77.77,0,0,0-.84-.13,6,6,0,0,1-2,.6,5,5,0,0,1,1.75-1.59.74.74,0,0,0,.36-.7,18,18,0,0,0-2.42-7.55,6.35,6.35,0,0,0,1.22-1,4,4,0,0,0,1.23-2.89.75.75,0,0,0-1.5.12,2.57,2.57,0,0,1-.88,1.8c-1.23,1.27-4.19,2.73-11.2,2.64.16-1.52.27-2.7.28-2.82a.74.74,0,0,0-.68-.81.73.73,0,0,0-.81.68c-.2,2.18-.83,8.18-1.44,9.75a.75.75,0,0,0,0,.59.77.77,0,0,0,.45.4,4.94,4.94,0,0,1,1.77.93c-.07.31-.67.21-.67.21a.74.74,0,0,0-.7.24.76.76,0,0,0-.15.72,5.21,5.21,0,0,1,.27,1.91,4.19,4.19,0,0,1-1.59-1.85.75.75,0,0,0-1.41.23c-.13.8-.53,1.75-.83,1.75h0c-.27,0-.51-1.09-.46-2a.75.75,0,0,0-.53-.76.77.77,0,0,0-.87.33c-.56.95-1.34,1.7-1.58,1.7-.29-.17-.06-1.13.21-1.69a.75.75,0,0,0-.14-.86.76.76,0,0,0-.85-.15,6.42,6.42,0,0,1-2.13.63,5.75,5.75,0,0,1,2.32-1.7A.76.76,0,0,0,47,68.7L45.34,61a.75.75,0,0,0-1.47.32l.11.5a24.13,24.13,0,0,1-6.76-.59c-3-.8-3.68-1.7-3.73-1.77a.75.75,0,0,0-1-.3.76.76,0,0,0-.33,1,3.47,3.47,0,0,0,1.41,1.24l-1,6.43a.75.75,0,0,0,.25.69,8,8,0,0,1,1.63,1.8,5.37,5.37,0,0,1-1.8-.23.75.75,0,0,0-.95.84,4.66,4.66,0,0,1,0,1.63,4.2,4.2,0,0,1-1.28-2.12.75.75,0,0,0-1.46.16c-.08.93-.42,2-.68,2.11-.39-.09-.63-1.43-.56-2.48a.76.76,0,0,0-.51-.76.73.73,0,0,0-.86.28,5.17,5.17,0,0,1-1.69,1.7c-.32-.26-.19-1.48.14-2.39a.74.74,0,0,0-.14-.74.76.76,0,0,0-.72-.25,7,7,0,0,1-2.2.16,6.16,6.16,0,0,1,2.17-1.62A.76.76,0,0,0,24.3,66c.23-2.33,1.15-8.86,2.63-11a.66.66,0,0,0,.11-.24C33.41,31.25,67,38.42,67.3,38.5a.73.73,0,0,0,.36,0s2.63-.62,7.53,2.84a8.72,8.72,0,0,0,8.38,1.32c.74-.21,1.38-.39,1.63-.19C85.28,42.53,85.43,43,85.1,43.89Z"/><path class="cls-5" d="M74.36,47.34s8,.11,9.1-1.18c0,0-3.22,4.41-8.35,3.24Z"/><path class="cls-5" d="M33.46,61.14s-1.4,6.12-3.91,5.67-1.83-8.65-1.83-8.65,1.73-14.53,9.52-15.77S67.1,37.71,69.4,42s6.93,18.63,6,23.72-4.52,2.88-4.92,1a49.52,49.52,0,0,0-2.64-6.64s4.72-7-.35-7.71-12.73,2.44-13,8.07S52.37,69,50.07,69.06,44.93,61.82,45,59.82,28.23,54.29,33.46,61.14Z"/><path class="cls-4" d="M86.12,41.28c-.84-.67-1.87-.38-3-.07a7.24,7.24,0,0,1-7.1-1.11c-4.83-3.4-7.8-3.23-8.6-3.1-2.58-.53-35.25-6.64-41.83,17.34-1.74,2.61-2.58,9.4-2.78,11.15C22,66,20.3,67,20.15,68.29a1.18,1.18,0,0,0,.39,1,3.52,3.52,0,0,0,2.51.43,3,3,0,0,0,.63,2.87A1.41,1.41,0,0,0,24.8,73a3,3,0,0,0,1.51-.85,2.41,2.41,0,0,0,1.61,2.1,1.92,1.92,0,0,0,.32.05,1.43,1.43,0,0,0,.92-.3,2.5,2.5,0,0,0,.76-1,2.73,2.73,0,0,0,1.58,1.18,1.31,1.31,0,0,0,1.18-.33,2.72,2.72,0,0,0,.57-2c.94.15,2.08.14,2.57-.61.63-1-.52-2.39-1.73-3.49l.9-5.59a16,16,0,0,0,1.84.6,23.11,23.11,0,0,0,5.1.66c1,0,1.9,0,2.38,0l1.14,5.12c-1.1.59-2.93,1.8-2.64,3.19a1.29,1.29,0,0,0,.7.92,3.16,3.16,0,0,0,2.1,0,2,2,0,0,0,.84,2.07c.51.31,1.35.42,2.44-.67a2,2,0,0,0,1.61,1.62h.14a2.09,2.09,0,0,0,1.85-1.39,2.82,2.82,0,0,0,2.16,1.27,1.27,1.27,0,0,0,1-.54,3.3,3.3,0,0,0,.21-2.39l.25-.1a2.22,2.22,0,0,0,1.24.51,1.54,1.54,0,0,0,.61-.12,2.29,2.29,0,0,0,1.14-1.63h0a3,3,0,0,0,2-.48,1.29,1.29,0,0,0,.47-1c0-1.12-1.19-1.88-2-2.27l.6-4A18,18,0,0,0,66,62.17a15.57,15.57,0,0,1,2.19,6.52c-.9.61-2.45,1.88-2,3.18a1.3,1.3,0,0,0,.75.79,3.26,3.26,0,0,0,2.08-.1,2.13,2.13,0,0,0,.19.81,1.67,1.67,0,0,0,1,.88,1.51,1.51,0,0,0,1.26-.14,1.89,1.89,0,0,0,.37-.32,1.68,1.68,0,0,0,1.18.75h.15a1.35,1.35,0,0,0,.93-.33,2.35,2.35,0,0,0,.59-.9,1.88,1.88,0,0,0,.56.33,1.38,1.38,0,0,0,1.14-.11,1.71,1.71,0,0,0,.72-1.88,2.28,2.28,0,0,0,2.39-.78c.68-1.09-.19-2.38-1.24-3.25a80.48,80.48,0,0,0-2.16-17.46c6.46,0,9.6-3.55,10.43-5.75C87,43.07,86.87,41.86,86.12,41.28ZM58.47,68.63a4,4,0,0,1,1.58,1,3.86,3.86,0,0,1-1.43,0,.78.78,0,0,0-.57.16.77.77,0,0,0-.28.53,2.25,2.25,0,0,1-.34,1.11s-.07,0-.26-.12a.79.79,0,0,0,0-.09c.3-1.21-1.09-2-2.08-2.46A45.93,45.93,0,0,0,56,63.63c.93,0,1.81,0,2.65,0L58,67.81A.75.75,0,0,0,58.47,68.63ZM85.1,43.89c-.72,1.88-3.51,4.91-9.47,4.77a13.37,13.37,0,0,0-.95-2.41.74.74,0,0,0-1-.28.75.75,0,0,0-.29,1S76.22,52.27,76.74,68a.79.79,0,0,0,.31.58c.71.52,1.26,1.28,1.15,1.46s-1.16.12-2-.22a.75.75,0,0,0-.94,1,2.91,2.91,0,0,1,.36,1.27,3.39,3.39,0,0,1-.65-1,.75.75,0,0,0-1.44.25,4.76,4.76,0,0,1-.35,1.65c-.21,0-.46-.81-.49-1.49a.74.74,0,0,0-.7-.73.77.77,0,0,0-.79.63,2.5,2.5,0,0,1-.55,1.36c-.09,0-.11-.06-.12-.09a1.77,1.77,0,0,1,.11-1.07.76.76,0,0,0-.19-.83.77.77,0,0,0-.84-.13,6,6,0,0,1-2,.6,5,5,0,0,1,1.75-1.59.74.74,0,0,0,.36-.7,18,18,0,0,0-2.42-7.55,6.35,6.35,0,0,0,1.22-1,4,4,0,0,0,1.23-2.89.75.75,0,0,0-1.5.12,2.57,2.57,0,0,1-.88,1.8c-1.23,1.27-4.19,2.73-11.2,2.64.16-1.52.27-2.7.28-2.82a.74.74,0,0,0-.68-.81.73.73,0,0,0-.81.68c-.2,2.18-.83,8.18-1.44,9.75a.75.75,0,0,0,0,.59.77.77,0,0,0,.45.4,4.94,4.94,0,0,1,1.77.93c-.07.31-.67.21-.67.21a.74.74,0,0,0-.7.24.76.76,0,0,0-.15.72,5.21,5.21,0,0,1,.27,1.91,4.19,4.19,0,0,1-1.59-1.85.75.75,0,0,0-1.41.23c-.13.8-.53,1.75-.83,1.75h0c-.27,0-.51-1.09-.46-2a.75.75,0,0,0-.53-.76.77.77,0,0,0-.87.33c-.56.95-1.34,1.7-1.58,1.7-.29-.17-.06-1.13.21-1.69a.75.75,0,0,0-.14-.86.76.76,0,0,0-.85-.15,6.42,6.42,0,0,1-2.13.63,5.75,5.75,0,0,1,2.32-1.7A.76.76,0,0,0,47,68.7L45.34,61a.75.75,0,0,0-1.47.32l.11.5a24.13,24.13,0,0,1-6.76-.59c-3-.8-3.68-1.7-3.73-1.77a.75.75,0,0,0-1-.3.76.76,0,0,0-.33,1,3.47,3.47,0,0,0,1.41,1.24l-1,6.43a.75.75,0,0,0,.25.69,8,8,0,0,1,1.63,1.8,5.37,5.37,0,0,1-1.8-.23.75.75,0,0,0-.95.84,4.66,4.66,0,0,1,0,1.63,4.2,4.2,0,0,1-1.28-2.12.75.75,0,0,0-1.46.16c-.08.93-.42,2-.68,2.11-.39-.09-.63-1.43-.56-2.48a.76.76,0,0,0-.51-.76.73.73,0,0,0-.86.28,5.17,5.17,0,0,1-1.69,1.7c-.32-.26-.19-1.48.14-2.39a.74.74,0,0,0-.14-.74.76.76,0,0,0-.72-.25,7,7,0,0,1-2.2.16,6.16,6.16,0,0,1,2.17-1.62A.76.76,0,0,0,24.3,66c.23-2.33,1.15-8.86,2.63-11a.66.66,0,0,0,.11-.24C33.41,31.25,67,38.42,67.3,38.5a.73.73,0,0,0,.36,0s2.63-.62,7.53,2.84a8.72,8.72,0,0,0,8.38,1.32c.74-.21,1.38-.39,1.63-.19C85.28,42.53,85.43,43,85.1,43.89Z"/><path class="cls-2" d="M28.28,74.26a1.49,1.49,0,0,1-.36-.05,2.41,2.41,0,0,1-1.61-2.1A3,3,0,0,1,24.8,73a1.38,1.38,0,0,1-1.12-.32,3,3,0,0,1-.63-2.87,3.52,3.52,0,0,1-2.51-.43,1.18,1.18,0,0,1-.39-1C20.3,67,22,66,22.85,65.49c.2-1.75,1-8.54,2.78-11.15,6.58-24,39.25-17.86,41.83-17.34.8-.13,3.77-.3,8.6,3.1a7.21,7.21,0,0,0,7.1,1.11c1.09-.31,2.12-.6,3,.07s.89,1.79.38,3.14c-.88,2.31-4.29,6.11-11.43,5.73a.75.75,0,1,1,.08-1.5c6.31.35,9.22-2.83,9.95-4.76.33-.88.18-1.36.1-1.43-.25-.2-.89,0-1.63.19a8.72,8.72,0,0,1-8.38-1.32c-4.9-3.46-7.5-2.84-7.53-2.84a.73.73,0,0,1-.36,0C67,38.42,33.41,31.25,27,54.85a.66.66,0,0,1-.11.24c-1.48,2.1-2.4,8.62-2.63,11a.76.76,0,0,1-.41.61,6.31,6.31,0,0,0-2.18,1.62,7,7,0,0,0,2.21-.16.76.76,0,0,1,.72.25.74.74,0,0,1,.14.74c-.33.91-.46,2.13-.14,2.39a5.28,5.28,0,0,0,1.69-1.7.73.73,0,0,1,.86-.28.76.76,0,0,1,.51.76c-.07,1.07.16,2.39.56,2.48a3.61,3.61,0,0,0,.68-2.11A.76.76,0,0,1,29.6,70a.78.78,0,0,1,.8.53,4.2,4.2,0,0,0,1.28,2.12,4.66,4.66,0,0,0,0-1.63.75.75,0,0,1,.95-.84,5.4,5.4,0,0,0,1.8.23,8,8,0,0,0-1.63-1.8.75.75,0,0,1-.25-.69l1.12-7a.75.75,0,0,1,1.49.24L34.09,67.7c1.21,1.1,2.37,2.51,1.73,3.49-.5.74-1.63.76-2.57.61a2.72,2.72,0,0,1-.57,2,1.29,1.29,0,0,1-1.18.33,2.73,2.73,0,0,1-1.58-1.18,2.5,2.5,0,0,1-.76,1A1.46,1.46,0,0,1,28.28,74.26Z"/><path class="cls-2" d="M73.17,74.55H73a1.68,1.68,0,0,1-1.18-.75,1.89,1.89,0,0,1-.37.32,1.51,1.51,0,0,1-1.26.14,1.67,1.67,0,0,1-1-.88,2.13,2.13,0,0,1-.19-.81,3.19,3.19,0,0,1-2.08.1,1.3,1.3,0,0,1-.75-.79c-.44-1.3,1.11-2.57,2-3.18A15.68,15.68,0,0,0,66,62.15a.75.75,0,0,1,1.22-.87c2.14,3,2.51,7.54,2.53,7.73a.74.74,0,0,1-.36.7A5,5,0,0,0,67.6,71.3a5.24,5.24,0,0,0,2-.6.77.77,0,0,1,.84.13.76.76,0,0,1,.19.83,1.77,1.77,0,0,0-.11,1.07s0,.06.12.09a2.46,2.46,0,0,0,.55-1.36.76.76,0,0,1,.79-.63.74.74,0,0,1,.7.73c0,.68.28,1.47.49,1.49a4.76,4.76,0,0,0,.35-1.65.75.75,0,0,1,.62-.71.75.75,0,0,1,.82.46,3.2,3.2,0,0,0,.65,1,2.87,2.87,0,0,0-.36-1.26.75.75,0,0,1,.94-1c.84.34,1.85.45,2,.22s-.43-.94-1.15-1.46a.75.75,0,0,1-.31-.58C76.22,52.27,73.4,47,73.37,47a.75.75,0,0,1,1.31-.74c.12.21,3,5.42,3.55,21.38,1,.87,1.92,2.16,1.24,3.25a2.26,2.26,0,0,1-2.39.77,1.72,1.72,0,0,1-.72,1.89,1.38,1.38,0,0,1-1.14.11,1.88,1.88,0,0,1-.56-.33,2.35,2.35,0,0,1-.59.9A1.37,1.37,0,0,1,73.17,74.55Z"/><path class="cls-2" d="M56.82,63.65l-1.35,0a.75.75,0,1,1,0-1.5c7.49.2,10.58-1.32,11.85-2.63a2.57,2.57,0,0,0,.88-1.8.76.76,0,0,1,.7-.79.75.75,0,0,1,.8.67,4,4,0,0,1-1.23,2.89C66.54,62.58,62.6,63.65,56.82,63.65Z"/><path class="cls-2" d="M50.69,75.57H50.5a2,2,0,0,1-1.61-1.62c-1.1,1.09-1.93,1-2.44.67a2,2,0,0,1-.84-2.07,3.16,3.16,0,0,1-2.1,0,1.29,1.29,0,0,1-.7-.92c-.29-1.39,1.54-2.6,2.64-3.19l-1.58-7.11A.75.75,0,0,1,45.34,61L47,68.71a.75.75,0,0,1-.41.84,5.89,5.89,0,0,0-2.33,1.7,6,6,0,0,0,2.14-.63.76.76,0,0,1,.85.15.73.73,0,0,1,.14.86c-.27.56-.5,1.52-.21,1.69h0c.25,0,1-.75,1.58-1.7a.77.77,0,0,1,.87-.33.75.75,0,0,1,.53.76c-.05.93.19,2,.46,2s.71-.94.84-1.75a.75.75,0,0,1,1.41-.23,4.25,4.25,0,0,0,1.59,1.85A5.21,5.21,0,0,0,54.23,72a.76.76,0,0,1,.15-.72.74.74,0,0,1,.7-.24h0s.6.1.67-.21A5.11,5.11,0,0,0,54,69.93a.79.79,0,0,1-.45-.39.78.78,0,0,1,0-.6c.61-1.57,1.24-7.57,1.44-9.75a.73.73,0,0,1,.81-.68.74.74,0,0,1,.68.81,86.43,86.43,0,0,1-1.31,9.44c1,.42,2.38,1.25,2.08,2.46a1.71,1.71,0,0,1-1.31,1.29,3.37,3.37,0,0,1-.2,2.4,1.31,1.31,0,0,1-1.05.54h0a3,3,0,0,1-2.12-1.27A2.09,2.09,0,0,1,50.69,75.57Z"/><path class="cls-2" d="M42.72,63.38a23.88,23.88,0,0,1-5.89-.67c-3.73-1-4.54-2.27-4.66-2.51a.75.75,0,0,1,1.32-.71c0,.07.75,1,3.73,1.77a25,25,0,0,0,7.39.55.77.77,0,0,1,.82.69.76.76,0,0,1-.69.81C44.67,63.32,43.88,63.38,42.72,63.38Z"/><path class="cls-2" d="M57.43,72.93a2.21,2.21,0,0,1-1.38-.58.75.75,0,1,1,1-1.17c.29.24.42.25.43.25h0a2.21,2.21,0,0,0,.34-1.11.77.77,0,0,1,.28-.53.73.73,0,0,1,.57-.15,4.05,4.05,0,0,0,1.43,0,4,4,0,0,0-1.58-1,.75.75,0,0,1-.48-.82l.76-5a.75.75,0,1,1,1.48.22l-.67,4.42c.83.39,2.06,1.15,2,2.27a1.29,1.29,0,0,1-.47,1,3.14,3.14,0,0,1-2,.48A2.29,2.29,0,0,1,58,72.81,1.41,1.41,0,0,1,57.43,72.93Z"/><path class="cls-4" d="M25.78,56.89C15.76,53.09,9.09,28.31,9.34,23s3.34-9.38,6.86-5.74,4.6,2,6.29-2.8,4-11.21,8.34-11.06S33.26,7.79,35,8.94s6-6.31,14.33-7.8,7.43,1.5,7.26,6,.14,7,3.82,7S72.21,13,72.65,16.49s-.47,5.06-4.47,9-.92,5.84,3.32,8.14,4,8.15-5.27,12.92S36.85,61.09,25.78,56.89Z"/><path class="cls-6" d="M55.38,24.79c7.87,2,10.78,12.44,6.82,17.94S37,57.53,37,57.53s-18,7.17-25.35-23c0,0-1.87-6.24,7.73-10.12,8.1-3.29,14-11.52,22.6-11.76S50,23.45,55.38,24.79Z"/><path class="cls-7" d="M35.1,57.34s10.17-6.21,1.36-9.18S18.1,45.32,22,54C25.16,58.92,35.1,57.34,35.1,57.34Z"/><path class="cls-2" d="M32.16,58.67a18.73,18.73,0,0,1-6.65-1.08h0C15,53.62,8.31,28.74,8.59,22.94c.18-3.78,1.7-6.84,3.8-7.63,1-.38,2.56-.44,4.35,1.41,1.54,1.59,2.31,1.83,2.69,1.74.82-.18,1.62-2.16,2.35-4.27,1.63-4.67,4.06-11.73,9.08-11.56,3.31.11,3.69,2.42,3.94,3.94.14.8.25,1.49.64,1.74.38.06,1.66-1,2.6-1.84,2.41-2,6-5.15,11.19-6.07C53-.27,55.14-.11,56.35,1s1.19,3,1.07,5.13c0,.35,0,.71-.05,1.09-.11,2.84,0,4.65.84,5.54a3,3,0,0,0,2.24.73c.71,0,1.61,0,2.57-.08,4.43-.21,9.94-.46,10.37,3,.49,3.86-.62,5.62-4.68,9.66-1.19,1.18-1.74,2.2-1.62,3,.19,1.35,2.18,2.54,4.76,3.94a5.36,5.36,0,0,1,3,4.79c0,3.29-3.05,6.74-8.3,9.46C51.92,54.85,40.39,58.67,32.16,58.67ZM26,56.19c5.29,2,16.48,1.85,39.84-10.26,4.74-2.46,7.47-5.42,7.49-8.14a3.85,3.85,0,0,0-2.23-3.46c-2.57-1.4-5.22-2.84-5.53-5-.19-1.33.48-2.73,2-4.29,4-3.94,4.64-5.28,4.25-8.41-.27-2.11-5.41-1.87-8.82-1.71-1,0-1.92.08-2.66.08a4.4,4.4,0,0,1-3.31-1.2c-1.21-1.27-1.37-3.31-1.25-6.63,0-.38,0-.75.05-1.11.1-1.82.18-3.26-.56-3.92s-2.72-.78-5.87-.21C44.75,2.72,41.43,5.55,39,7.62c-1.86,1.58-3.2,2.72-4.4,2a3.74,3.74,0,0,1-1.3-2.75c-.25-1.52-.43-2.62-2.51-2.69h-.12c-3.81,0-6,6.34-7.49,10.56-1,2.74-1.82,4.88-3.45,5.23-1.15.26-2.38-.39-4.09-2.16-1-1-1.91-1.37-2.74-1.05-1.5.56-2.69,3.21-2.83,6.3-.25,5.22,6.47,29.58,16,33.18Z"/><path class="cls-2" d="M33.25,55.65a.52.52,0,0,1-.17,0,.74.74,0,0,1-.55-.9c0-.11.68-2.78,2.92-2.92a.73.73,0,0,1,.79.71.74.74,0,0,1-.7.79c-1.13.07-1.55,1.75-1.56,1.77A.75.75,0,0,1,33.25,55.65Z"/><path class="cls-2" d="M25.49,54a.71.71,0,0,1-.41-.13.74.74,0,0,1-.22-1c.3-.47-.37-1.48-.73-1.86a.76.76,0,0,1,.05-1.06.75.75,0,0,1,1.06,0c.2.21,1.89,2.13.88,3.69A.78.78,0,0,1,25.49,54Z"/><ellipse class="cls-1" cx="49.17" cy="38.26" rx="7.48" ry="8.3"/><path class="cls-2" d="M49.16,47.31a7.71,7.71,0,0,1-4.65-1.59A9.24,9.24,0,0,1,41,39.49c-.61-4.93,2.53-9.51,7-10.2a7.67,7.67,0,0,1,5.8,1.5A9.23,9.23,0,0,1,57.32,37h0c.62,4.94-2.53,9.51-7,10.2A7.43,7.43,0,0,1,49.16,47.31Zm0-16.61a5.82,5.82,0,0,0-.92.08c-3.68.56-6.26,4.39-5.75,8.52a7.75,7.75,0,0,0,2.91,5.22,6.16,6.16,0,0,0,4.67,1.22c3.69-.57,6.27-4.4,5.75-8.53A7.7,7.7,0,0,0,52.92,32,6.22,6.22,0,0,0,49.17,30.7Z"/><ellipse class="cls-1" cx="20.5" cy="34.75" rx="6.61" ry="7.34"/><path class="cls-2" d="M20.5,42.84a6.93,6.93,0,0,1-4.17-1.42,8.27,8.27,0,0,1-3.12-5.57c-.55-4.41,2.26-8.49,6.27-9.11a6.87,6.87,0,0,1,5.19,1.34,8.25,8.25,0,0,1,3.13,5.57h0c.55,4.41-2.27,8.49-6.27,9.11A7.26,7.26,0,0,1,20.5,42.84Zm0-14.68a5.29,5.29,0,0,0-.8.06c-3.22.5-5.46,3.84-5,7.44a6.74,6.74,0,0,0,2.54,4.56,5.34,5.34,0,0,0,4.06,1.06c3.21-.5,5.46-3.84,5-7.45h0a6.77,6.77,0,0,0-2.54-4.55A5.43,5.43,0,0,0,20.51,28.16Z"/><ellipse class="cls-2" cx="47.64" cy="38.49" rx="4.79" ry="5.31"/><ellipse class="cls-2" cx="21.51" cy="35.29" rx="4.23" ry="4.7"/><ellipse class="cls-1" cx="20.03" cy="33.06" rx="1.85" ry="2.05"/><ellipse class="cls-1" cx="45.54" cy="36.37" rx="1.95" ry="2.17"/><path class="cls-5" d="M23.19,23.37s13-3.17,26,1.7C49.14,25.07,38.18,15.22,23.19,23.37Z"/><path class="cls-8" d="M73.8,70.54c-1.48-1.45-5.5-6.87-4.6-9.59,2.37-7.2.86-7.06-2.61-2.4-1.24,1.66-6.06,1.5-8.79,1.57a2.16,2.16,0,0,0-2.06,1.68l-.25,1-1.07,5.49A1.2,1.2,0,0,0,55,69.6l1.14.67a.79.79,0,0,1,.4.71l0,.78,1,.42.57-1.07a1.2,1.2,0,0,1,.91-.64l.8-.11a.89.89,0,0,0,.77-.75v0a1,1,0,0,0-.42-1l-1-.69L59.41,64a1.33,1.33,0,0,1,1.11-1.22l2.8-.49.08,0,2-.59a1,1,0,0,1,1.14.5l1.61,3.26a2.59,2.59,0,0,1,.26.9l.19,2a2,2,0,0,1-.56,1.56l-1.28,1.3.73.93,2-.56.17.81a.89.89,0,0,0,.56.66l.7.27,1.82.29a.88.88,0,0,0,1-.72C73.91,72.05,74.81,71.52,73.8,70.54Z"/><path class="cls-8" d="M74.36,47.34l-.54-1.84a.8.8,0,0,1,1.09-1l2.73,1.2A2.72,2.72,0,0,0,79,46l4.89-.56a.38.38,0,0,1,.28.68l-2.6,2a2.59,2.59,0,0,1-1.25.53l-3.85.56a1.71,1.71,0,0,1-1.86-1.11Z"/><path class="cls-8" d="M69.29,45.42c.19-.12-1.23,5.88-7.51,8S53.3,55,51.1,58.16s-3.27,10.62-2.36,11.7,2.57-.19,3.3,1.43-.49,3.87-1.26,3.51-1.32-2.59-1.32-2.59S47.39,74.79,46.89,74a4.35,4.35,0,0,1-.25-2.4s-2.65,1.06-2.9.23S46.12,69,46.12,69l-1.29-6.65s-4.21,1.42-7.65,0-6.24-3.86-6.79-3.26-3.7,5-3.73,6.81,2.16,3,2.43,3.12.59,1.69.59,1.69-.44,3.4-1.59,2.77-1.26-3.07-1.26-3.07-.9,2.88-2.36,1.94S24.23,69,24.23,69s-3.32.5-3.25-.29,2.37-2.45,2.37-2.45l1.95-9.41a26.52,26.52,0,0,0,11.06.93C42.35,57,64.87,48.22,69.29,45.42Z"/></g></g></svg>