<svg xmlns="http://www.w3.org/2000/svg" viewBox="0 0 116.41 51.99"><defs><style>.cls-1{fill:#4f3d2e;}.cls-2,.cls-6{fill:#fff3d8;}.cls-3{fill:#a47c4f;}.cls-4,.cls-8{fill:#231f20;}.cls-5{fill:#e5c286;}.cls-6{opacity:0.5;}.cls-7{fill:#fff;}.cls-8{opacity:0.3;}</style></defs><g id="Layer_2" data-name="Layer 2"><g id="Layer_3" data-name="Layer 3"><path class="cls-1" d="M33.34,45.86a2.71,2.71,0,0,1,1,.64,2.59,2.59,0,0,1-1,0,.5.5,0,0,0-.38.1.52.52,0,0,0-.19.36,1.52,1.52,0,0,1-.23.74.38.38,0,0,1-.17-.08.14.14,0,0,0,0-.06c.21-.81-.73-1.36-1.38-1.65a32.56,32.56,0,0,0,.56-3.42q.93,0,1.77,0L33,45.31A.5.5,0,0,0,33.34,45.86Z"/><path class="cls-2" d="M51.13,29.32c-.48,1.26-2.34,3.28-6.33,3.19a10.1,10.1,0,0,0-.63-1.61.51.51,0,1,0-.88.5s1.91,3.53,2.26,14.06a.5.5,0,0,0,.2.39c.48.35.84.85.77,1s-.77.09-1.33-.14a.51.51,0,0,0-.57.13.5.5,0,0,0-.07.57,1.91,1.91,0,0,1,.25.85,2.05,2.05,0,0,1-.44-.69.5.5,0,0,0-.55-.3.49.49,0,0,0-.41.47,3.34,3.34,0,0,1-.23,1.1c-.14,0-.32-.54-.33-1a.49.49,0,0,0-.47-.48.52.52,0,0,0-.53.42,1.63,1.63,0,0,1-.37.91c-.06,0-.07,0-.08-.06a1.23,1.23,0,0,1,.08-.72.51.51,0,0,0-.13-.55.5.5,0,0,0-.56-.09,4,4,0,0,1-1.35.4,3.46,3.46,0,0,1,1.17-1.06.51.51,0,0,0,.25-.47,12,12,0,0,0-1.62-5,5,5,0,0,0,.82-.66,2.61,2.61,0,0,0,.81-1.93.49.49,0,0,0-.53-.45.49.49,0,0,0-.46.53,1.76,1.76,0,0,1-.59,1.2c-.83.85-2.8,1.82-7.49,1.76.11-1,.18-1.8.19-1.88a.5.5,0,1,0-1-.09,43.36,43.36,0,0,1-1,6.52.48.48,0,0,0,0,.39.47.47,0,0,0,.29.26,3.24,3.24,0,0,1,1.19.63c-.05.2-.45.14-.45.14a.47.47,0,0,0-.46.16.5.5,0,0,0-.11.48,3.63,3.63,0,0,1,.19,1.28,2.83,2.83,0,0,1-1.07-1.24.5.5,0,0,0-.53-.26.49.49,0,0,0-.41.41c-.09.54-.36,1.18-.56,1.17h0c-.18,0-.35-.72-.31-1.35a.5.5,0,0,0-.36-.5.49.49,0,0,0-.57.22C26.5,48.49,26,49,25.82,49s0-.75.14-1.13a.49.49,0,0,0-.09-.57.5.5,0,0,0-.57-.1,4.36,4.36,0,0,1-1.43.42,3.94,3.94,0,0,1,1.55-1.14.5.5,0,0,0,.28-.56l-1.14-5.13a.5.5,0,0,0-1,.21l.08.34a16.33,16.33,0,0,1-4.52-.4c-2-.53-2.46-1.14-2.49-1.18a.5.5,0,0,0-.89.47,2.33,2.33,0,0,0,1,.83l-.7,4.3a.5.5,0,0,0,.17.46A5.73,5.73,0,0,1,17.27,47a3.63,3.63,0,0,1-1.21-.15.48.48,0,0,0-.47.11.48.48,0,0,0-.16.45,3.31,3.31,0,0,1,0,1.09,2.81,2.81,0,0,1-.86-1.41.51.51,0,0,0-.53-.36.51.51,0,0,0-.45.46c0,.63-.27,1.34-.45,1.41s-.42-1-.38-1.66a.51.51,0,0,0-.33-.51.52.52,0,0,0-.58.19,3.53,3.53,0,0,1-1.13,1.14c-.21-.18-.12-1,.1-1.6a.51.51,0,0,0-.58-.66,4.78,4.78,0,0,1-1.47.11,4.16,4.16,0,0,1,1.45-1.09.53.53,0,0,0,.28-.4c.15-1.56.76-5.92,1.75-7.32a.48.48,0,0,0,.08-.16c4.25-15.77,26.67-11,26.9-10.93a.49.49,0,0,0,.24,0s1.75-.42,5,1.9a5.84,5.84,0,0,0,5.6.88c.49-.14.92-.26,1.08-.13S51.35,28.74,51.13,29.32Z"/><path class="cls-3" d="M44,31.63s5.34.08,6.08-.78A5.73,5.73,0,0,1,44.45,33Z"/><path class="cls-3" d="M16.62,40.85s-.93,4.09-2.61,3.79-1.22-5.78-1.22-5.78,1.15-9.71,6.36-10.54,20-3.12,21.49-.26,4.63,12.45,4,15.85-3,1.93-3.29.66a32.3,32.3,0,0,0-1.76-4.44s3.15-4.65-.23-5.15-8.51,1.63-8.71,5.39-1.41,5.74-3,5.78S24.29,41.31,24.33,40,13.13,36.27,16.62,40.85Z"/><path class="cls-2" d="M51.81,27.58c-.56-.44-1.25-.25-2,0a4.81,4.81,0,0,1-4.75-.73c-3.23-2.28-5.21-2.17-5.74-2.08-1.73-.35-23.56-4.43-28,11.59-1.16,1.75-1.72,6.28-1.85,7.45-.6.32-1.71,1-1.81,1.87a.8.8,0,0,0,.26.7,2.35,2.35,0,0,0,1.68.29,2,2,0,0,0,.42,1.92.92.92,0,0,0,.75.21,2.07,2.07,0,0,0,1-.57,1.62,1.62,0,0,0,1.07,1.41l.22,0a1,1,0,0,0,.61-.2,1.64,1.64,0,0,0,.51-.69,1.83,1.83,0,0,0,1.05.79.88.88,0,0,0,.8-.22A1.9,1.9,0,0,0,16.49,48c.62.09,1.38.09,1.71-.41.43-.66-.34-1.6-1.16-2.33l.61-3.74a10.51,10.51,0,0,0,1.23.4,14.77,14.77,0,0,0,3.41.44c.7,0,1.26,0,1.59,0l.76,3.42c-.74.4-2,1.21-1.77,2.14a.89.89,0,0,0,.47.61,2.17,2.17,0,0,0,1.4,0,1.3,1.3,0,0,0,.56,1.38c.35.21.9.29,1.64-.44A1.32,1.32,0,0,0,28,50.49h.1a1.38,1.38,0,0,0,1.23-.92,1.92,1.92,0,0,0,1.45.85.86.86,0,0,0,.69-.37,2.23,2.23,0,0,0,.14-1.6,1.15,1.15,0,0,0,.17-.06,1.5,1.5,0,0,0,.83.34,1,1,0,0,0,.4-.08,1.53,1.53,0,0,0,.77-1.09h0a2.07,2.07,0,0,0,1.31-.32.89.89,0,0,0,.32-.65c0-.75-.8-1.26-1.35-1.51l.4-2.65a12.41,12.41,0,0,0,3.88-.89,10.38,10.38,0,0,1,1.46,4.36c-.6.41-1.63,1.26-1.34,2.12a.87.87,0,0,0,.5.53,2.16,2.16,0,0,0,1.39-.06,1.45,1.45,0,0,0,.12.53,1.11,1.11,0,0,0,.68.59,1,1,0,0,0,.84-.09,1.27,1.27,0,0,0,.25-.21,1.15,1.15,0,0,0,.79.5h.1a.91.91,0,0,0,.62-.22,1.51,1.51,0,0,0,.4-.6,1.07,1.07,0,0,0,.37.22.92.92,0,0,0,.76-.07,1.15,1.15,0,0,0,.48-1.26,1.52,1.52,0,0,0,1.6-.52c.45-.73-.13-1.59-.83-2.17a53.64,53.64,0,0,0-1.45-11.67c4.33,0,6.42-2.37,7-3.84A1.79,1.79,0,0,0,51.81,27.58ZM33.34,45.86a2.71,2.71,0,0,1,1,.64,2.59,2.59,0,0,1-1,0,.5.5,0,0,0-.38.1.52.52,0,0,0-.19.36,1.52,1.52,0,0,1-.23.74.38.38,0,0,1-.17-.08.14.14,0,0,0,0-.06c.21-.81-.73-1.36-1.38-1.65a32.56,32.56,0,0,0,.56-3.42q.93,0,1.77,0L33,45.31A.5.5,0,0,0,33.34,45.86ZM51.13,29.32c-.48,1.26-2.34,3.28-6.33,3.19a10.1,10.1,0,0,0-.63-1.61.51.51,0,1,0-.88.5s1.91,3.53,2.26,14.06a.5.5,0,0,0,.2.39c.48.35.84.85.77,1s-.77.09-1.33-.14a.51.51,0,0,0-.57.13.5.5,0,0,0-.07.57,1.91,1.91,0,0,1,.25.85,2.05,2.05,0,0,1-.44-.69.5.5,0,0,0-.55-.3.49.49,0,0,0-.41.47,3.34,3.34,0,0,1-.23,1.1c-.14,0-.32-.54-.33-1a.49.49,0,0,0-.47-.48.52.52,0,0,0-.53.42,1.63,1.63,0,0,1-.37.91c-.06,0-.07,0-.08-.06a1.23,1.23,0,0,1,.08-.72.51.51,0,0,0-.13-.55.5.5,0,0,0-.56-.09,4,4,0,0,1-1.35.4,3.46,3.46,0,0,1,1.17-1.06.51.51,0,0,0,.25-.47,12,12,0,0,0-1.62-5,5,5,0,0,0,.82-.66,2.61,2.61,0,0,0,.81-1.93.49.49,0,0,0-.53-.45.49.49,0,0,0-.46.53,1.76,1.76,0,0,1-.59,1.2c-.83.85-2.8,1.82-7.49,1.76.11-1,.18-1.8.19-1.88a.5.5,0,1,0-1-.09,43.36,43.36,0,0,1-1,6.52.48.48,0,0,0,0,.39.47.47,0,0,0,.29.26,3.24,3.24,0,0,1,1.19.63c-.05.2-.45.14-.45.14a.47.47,0,0,0-.46.16.5.5,0,0,0-.11.48,3.63,3.63,0,0,1,.19,1.28,2.83,2.83,0,0,1-1.07-1.24.5.5,0,0,0-.53-.26.49.49,0,0,0-.41.41c-.09.54-.36,1.18-.56,1.17h0c-.18,0-.35-.72-.31-1.35a.5.5,0,0,0-.36-.5.49.49,0,0,0-.57.22C26.5,48.49,26,49,25.82,49s0-.75.14-1.13a.49.49,0,0,0-.09-.57.5.5,0,0,0-.57-.1,4.36,4.36,0,0,1-1.43.42,3.94,3.94,0,0,1,1.55-1.14.5.5,0,0,0,.28-.56l-1.14-5.13a.5.5,0,0,0-1,.21l.08.34a16.33,16.33,0,0,1-4.52-.4c-2-.53-2.46-1.14-2.49-1.18a.5.5,0,0,0-.89.47,2.33,2.33,0,0,0,1,.83l-.7,4.3a.5.5,0,0,0,.17.46A5.73,5.73,0,0,1,17.27,47a3.63,3.63,0,0,1-1.21-.15.48.48,0,0,0-.47.11.48.48,0,0,0-.16.45,3.31,3.31,0,0,1,0,1.09,2.81,2.81,0,0,1-.86-1.41.51.51,0,0,0-.53-.36.51.51,0,0,0-.45.46c0,.63-.27,1.34-.45,1.41s-.42-1-.38-1.66a.51.51,0,0,0-.33-.51.52.52,0,0,0-.58.19,3.53,3.53,0,0,1-1.13,1.14c-.21-.18-.12-1,.1-1.6a.51.51,0,0,0-.58-.66,4.78,4.78,0,0,1-1.47.11,4.16,4.16,0,0,1,1.45-1.09.53.53,0,0,0,.28-.4c.15-1.56.76-5.92,1.75-7.32a.48.48,0,0,0,.08-.16c4.25-15.77,26.67-11,26.9-10.93a.49.49,0,0,0,.24,0s1.75-.42,5,1.9a5.84,5.84,0,0,0,5.6.88c.49-.14.92-.26,1.08-.13S51.35,28.74,51.13,29.32Z"/><path class="cls-4" d="M13.17,49.62a1.07,1.07,0,0,1-.25,0,1.62,1.62,0,0,1-1.07-1.41,2.07,2.07,0,0,1-1,.57,1,1,0,0,1-.75-.21,2,2,0,0,1-.42-1.92A2.35,2.35,0,0,1,8,46.33a.8.8,0,0,1-.26-.7c.1-.84,1.21-1.55,1.81-1.87.13-1.17.69-5.7,1.85-7.45,4.4-16,26.23-11.94,28-11.59.53-.09,2.51-.2,5.74,2.08a4.81,4.81,0,0,0,4.75.73c.72-.2,1.41-.4,2,0a1.81,1.81,0,0,1,.24,2.1c-.58,1.54-2.85,4.08-7.63,3.83A.51.51,0,0,1,44,33a.5.5,0,0,1,.53-.47c4.22.24,6.16-1.9,6.65-3.19.22-.58.12-.9.06-.95s-.59,0-1.08.13a5.84,5.84,0,0,1-5.6-.88c-3.28-2.32-5-1.91-5-1.9a.49.49,0,0,1-.24,0c-.23,0-22.65-4.84-26.9,10.93a.48.48,0,0,1-.08.16c-1,1.4-1.6,5.76-1.75,7.32a.53.53,0,0,1-.28.4,4.16,4.16,0,0,0-1.45,1.09,4.76,4.76,0,0,0,1.47-.11.51.51,0,0,1,.58.66c-.22.61-.31,1.42-.1,1.6a3.53,3.53,0,0,0,1.13-1.14.52.52,0,0,1,.58-.19.51.51,0,0,1,.33.51c0,.72.11,1.6.38,1.66a2.36,2.36,0,0,0,.45-1.41.51.51,0,0,1,.45-.46.5.5,0,0,1,.53.35,2.8,2.8,0,0,0,.86,1.42,3.31,3.31,0,0,0,0-1.09.48.48,0,0,1,.16-.45.48.48,0,0,1,.47-.11,3.63,3.63,0,0,0,1.21.15,5.73,5.73,0,0,0-1.09-1.2.5.5,0,0,1-.17-.46l.75-4.65a.5.5,0,0,1,.58-.41.49.49,0,0,1,.41.57L17,45.24c.82.73,1.59,1.67,1.16,2.33-.33.5-1.09.5-1.71.41a1.9,1.9,0,0,1-.38,1.32.88.88,0,0,1-.8.22,1.83,1.83,0,0,1-1.05-.79,1.64,1.64,0,0,1-.51.69A1,1,0,0,1,13.17,49.62Z"/><path class="cls-4" d="M43.16,49.82H43a1.13,1.13,0,0,1-.79-.51,1,1,0,0,1-.25.22,1,1,0,0,1-.84.09,1.11,1.11,0,0,1-.68-.59,1.45,1.45,0,0,1-.12-.53,2.16,2.16,0,0,1-1.39.06.87.87,0,0,1-.5-.53c-.29-.86.74-1.71,1.34-2.12a10.31,10.31,0,0,0-1.47-4.37.5.5,0,0,1,.12-.7.49.49,0,0,1,.69.12,11.74,11.74,0,0,1,1.7,5.16.51.51,0,0,1-.25.47,3.46,3.46,0,0,0-1.17,1.06,3.64,3.64,0,0,0,1.35-.4.5.5,0,0,1,.56.09.51.51,0,0,1,.13.55,1.23,1.23,0,0,0-.08.72s0,0,.08.06a1.63,1.63,0,0,0,.37-.91.5.5,0,0,1,1,.06c0,.46.19,1,.33,1a3.1,3.1,0,0,0,.23-1.1.49.49,0,0,1,.41-.47.48.48,0,0,1,.55.3,2.05,2.05,0,0,0,.44.69,1.91,1.91,0,0,0-.25-.85.5.5,0,0,1,.07-.57.51.51,0,0,1,.57-.13c.55.22,1.23.3,1.33.14s-.29-.62-.77-1a.5.5,0,0,1-.2-.39c-.35-10.54-2.24-14-2.26-14.06a.51.51,0,1,1,.88-.5c.08.15,2,3.63,2.37,14.29.7.58,1.28,1.44.83,2.17a1.52,1.52,0,0,1-1.6.52,1.15,1.15,0,0,1-.48,1.26.92.92,0,0,1-.76.07,1.07,1.07,0,0,1-.37-.22,1.51,1.51,0,0,1-.4.6A.92.92,0,0,1,43.16,49.82Z"/><path class="cls-4" d="M32.23,42.53l-.9,0a.5.5,0,1,1,0-1c5,.13,7.07-.88,7.92-1.75a1.76,1.76,0,0,0,.59-1.2.5.5,0,0,1,.46-.53.49.49,0,0,1,.54.45,2.69,2.69,0,0,1-.82,1.93C38.73,41.81,36.1,42.53,32.23,42.53Z"/><path class="cls-4" d="M28.14,50.49H28a1.32,1.32,0,0,1-1.07-1.08c-.74.73-1.29.65-1.64.44a1.3,1.3,0,0,1-.56-1.38,2.17,2.17,0,0,1-1.4,0,.89.89,0,0,1-.47-.61c-.19-.93,1-1.74,1.77-2.14L23.58,41A.49.49,0,0,1,24,40.4a.5.5,0,0,1,.6.38l1.14,5.13a.5.5,0,0,1-.28.56,3.84,3.84,0,0,0-1.55,1.14,4.07,4.07,0,0,0,1.43-.42.5.5,0,0,1,.57.1.49.49,0,0,1,.09.57c-.18.38-.33,1-.14,1.13h0c.16,0,.68-.5,1.06-1.13a.49.49,0,0,1,.57-.22.5.5,0,0,1,.36.5c0,.63.13,1.33.3,1.35s.48-.62.57-1.17a.49.49,0,0,1,.41-.41.5.5,0,0,1,.53.26,2.73,2.73,0,0,0,1.07,1.23,3.61,3.61,0,0,0-.19-1.27.5.5,0,0,1,.11-.48.45.45,0,0,1,.46-.16h0s.4.06.45-.14a3.34,3.34,0,0,0-1.19-.63.47.47,0,0,1-.29-.26.48.48,0,0,1,0-.39,43.36,43.36,0,0,0,1-6.52.51.51,0,0,1,.55-.46.5.5,0,0,1,.45.55,58.2,58.2,0,0,1-.87,6.3c.65.29,1.59.84,1.38,1.65a1.14,1.14,0,0,1-.87.86,2.23,2.23,0,0,1-.14,1.6.86.86,0,0,1-.69.37h0a2,2,0,0,1-1.42-.85A1.4,1.4,0,0,1,28.14,50.49Z"/><path class="cls-4" d="M22.81,42.35a15.84,15.84,0,0,1-3.93-.45c-2.5-.66-3-1.51-3.12-1.68a.5.5,0,0,1,.89-.47s.49.65,2.49,1.18a16.79,16.79,0,0,0,4.94.37.5.5,0,0,1,.54.46.5.5,0,0,1-.46.54C24.11,42.31,23.59,42.35,22.81,42.35Z"/><path class="cls-4" d="M32.64,48.73a1.43,1.43,0,0,1-.92-.39.49.49,0,0,1-.07-.7.5.5,0,0,1,.7-.08.71.71,0,0,0,.29.17h0a1.52,1.52,0,0,0,.23-.74.52.52,0,0,1,.19-.36.5.5,0,0,1,.38-.1,2.59,2.59,0,0,0,1,0,2.75,2.75,0,0,0-1-.64.5.5,0,0,1-.32-.55l.5-3.34a.51.51,0,0,1,.57-.42.5.5,0,0,1,.42.57l-.44,3c.55.25,1.37.76,1.35,1.51a.89.89,0,0,1-.32.65,2.07,2.07,0,0,1-1.31.32A1.53,1.53,0,0,1,33,48.65.86.86,0,0,1,32.64,48.73Z"/><path class="cls-2" d="M11.49,38C4.8,35.48.34,18.91.51,15.35s2.23-6.26,4.58-3.83,3.08,1.36,4.2-1.87S12,2.16,14.87,2.26s1.62,3,2.81,3.72,4-4.22,9.57-5.22,5,1,4.85,4,.1,4.67,2.55,4.71,7.87-.81,8.16,1.53-.31,3.38-3,6S39.21,21,42,22.5s2.64,5.44-3.52,8.63S18.89,40.82,11.49,38Z"/><path class="cls-5" d="M31.27,16.57c5.26,1.32,7.2,8.3,4.56,12S19,38.44,19,38.44,6.91,43.23,2,23.05c0,0-1.25-4.17,5.17-6.77,5.41-2.19,9.34-7.69,15.1-7.86S27.69,15.67,31.27,16.57Z"/><path class="cls-6" d="M17.72,38.31s6.8-4.14.91-6.13S6.36,30.28,9,36.09C11.08,39.37,17.72,38.31,17.72,38.31Z"/><path class="cls-4" d="M15.75,39.21a12.52,12.52,0,0,1-4.44-.73h0C4.31,35.83-.18,19.2,0,15.33c.11-2.52,1.14-4.57,2.53-5.1a2.62,2.62,0,0,1,2.91.94c1,1.06,1.55,1.22,1.8,1.16.55-.12,1.08-1.44,1.57-2.85,1.09-3.12,2.72-7.83,6.07-7.72,2.21.07,2.46,1.61,2.63,2.63.09.53.17,1,.43,1.16s1.11-.69,1.74-1.22A15.6,15.6,0,0,1,27.16.27c2.53-.45,3.95-.34,4.76.37s.79,2,.72,3.43c0,.23,0,.48,0,.72-.07,1.9,0,3.12.56,3.71a2,2,0,0,0,1.5.48c.48,0,1.08,0,1.72-.05,3-.14,6.64-.31,6.93,2,.32,2.58-.42,3.75-3.13,6.45-.8.79-1.16,1.47-1.08,2,.13.91,1.46,1.7,3.18,2.64a3.57,3.57,0,0,1,2,3.2c0,2.2-2,4.5-5.55,6.32C29,36.65,21.26,39.2,15.75,39.21ZM3.31,11.09a1.14,1.14,0,0,0-.41.07c-1,.38-1.8,2.15-1.89,4.22C.84,18.87,5.33,35.14,11.67,37.55h0c3.53,1.33,11,1.23,26.62-6.86,3.16-1.64,5-3.62,5-5.44a2.59,2.59,0,0,0-1.5-2.31c-1.71-.93-3.48-1.9-3.7-3.38a3.54,3.54,0,0,1,1.37-2.86c2.65-2.64,3.11-3.53,2.84-5.62-.17-1.41-3.61-1.25-5.89-1.15-.65,0-1.28.06-1.77.06a3,3,0,0,1-2.22-.8c-.81-.85-.91-2.22-.83-4.43,0-.26,0-.5,0-.74.06-1.22.11-2.19-.38-2.62s-1.82-.52-3.92-.15a14.7,14.7,0,0,0-7,3.84C19.1,6.15,18.2,6.91,17.4,6.4a2.5,2.5,0,0,1-.87-1.84c-.17-1-.29-1.75-1.68-1.8h-.08c-2.54,0-4,4.24-5,7.05-.64,1.84-1.22,3.26-2.3,3.5-.77.17-1.59-.26-2.74-1.44A2.09,2.09,0,0,0,3.31,11.09Z"/><path class="cls-4" d="M16.49,37.19l-.12,0a.5.5,0,0,1-.37-.6c0-.08.46-1.86,1.95-2a.5.5,0,0,1,.53.47.49.49,0,0,1-.47.53c-.75.05-1,1.17-1,1.18A.51.51,0,0,1,16.49,37.19Z"/><path class="cls-4" d="M11.3,36.08A.53.53,0,0,1,11,36a.5.5,0,0,1-.15-.7c.2-.31-.25-1-.49-1.24a.5.5,0,0,1,.74-.68c.13.15,1.27,1.43.59,2.47A.51.51,0,0,1,11.3,36.08Z"/><ellipse class="cls-7" cx="27.12" cy="25.56" rx="5" ry="5.55"/><path class="cls-4" d="M27.12,31.61A5.17,5.17,0,0,1,24,30.55a6.15,6.15,0,0,1-2.34-4.16,6,6,0,0,1,4.69-6.82,5.08,5.08,0,0,1,3.87,1,6.15,6.15,0,0,1,2.34,4.16,6,6,0,0,1-4.69,6.81A4.87,4.87,0,0,1,27.12,31.61Zm0-11.09a4.17,4.17,0,0,0-.61,0,5,5,0,0,0-3.84,5.7,5.13,5.13,0,0,0,1.94,3.49,4.12,4.12,0,0,0,3.12.81,5,5,0,0,0,3.84-5.7,5.12,5.12,0,0,0-1.94-3.48A4.12,4.12,0,0,0,27.12,20.52Z"/><ellipse class="cls-7" cx="7.97" cy="23.22" rx="4.42" ry="4.9"/><path class="cls-4" d="M8,28.62a4.56,4.56,0,0,1-2.78-.95A5.51,5.51,0,0,1,3.09,24a5.36,5.36,0,0,1,4.19-6.09,4.54,4.54,0,0,1,3.47.9,5.51,5.51,0,0,1,2.09,3.71h0a5.35,5.35,0,0,1-4.19,6.09A4,4,0,0,1,8,28.62Zm0-9.8a3.08,3.08,0,0,0-.53,0,4.34,4.34,0,0,0-3.35,5,4.46,4.46,0,0,0,1.69,3,3.55,3.55,0,0,0,2.72.71,4.34,4.34,0,0,0,3.35-5h0a4.51,4.51,0,0,0-1.7-3A3.62,3.62,0,0,0,8,18.82Z"/><ellipse class="cls-4" cx="26.1" cy="25.72" rx="3.2" ry="3.55"/><ellipse class="cls-4" cx="8.64" cy="23.58" rx="2.83" ry="3.14"/><ellipse class="cls-7" cx="7.65" cy="22.09" rx="1.23" ry="1.37"/><ellipse class="cls-7" cx="24.7" cy="24.3" rx="1.3" ry="1.45"/><path class="cls-3" d="M9.76,15.61A32.81,32.81,0,0,1,27.1,16.75S19.78,10.17,9.76,15.61Z"/><path class="cls-8" d="M43.58,47.14c-1-1-3.68-4.59-3.08-6.42,1.59-4.8.58-4.71-1.74-1.6-.83,1.11-4,1-5.87,1.05a1.46,1.46,0,0,0-1.38,1.12l-.16.69-.72,3.67a.81.81,0,0,0,.39.86l.76.44a.55.55,0,0,1,.27.48L32,48l.67.28.37-.72a.81.81,0,0,1,.61-.42l.54-.07a.6.6,0,0,0,.51-.51v0a.65.65,0,0,0-.28-.64l-.7-.47.2-2.62a.89.89,0,0,1,.75-.82l1.87-.33h.05l1.34-.4a.66.66,0,0,1,.77.34l1.07,2.18a1.54,1.54,0,0,1,.17.6l.13,1.35a1.3,1.3,0,0,1-.37,1l-.86.87.49.62,1.36-.38.12.55a.61.61,0,0,0,.37.44l.47.18,1.21.19a.58.58,0,0,0,.67-.48C43.66,48.15,44.25,47.79,43.58,47.14Z"/><path class="cls-8" d="M44,31.63l-.36-1.23a.54.54,0,0,1,.73-.64l1.82.8a1.74,1.74,0,0,0,.93.14l3.27-.37a.25.25,0,0,1,.18.45l-1.74,1.37a1.67,1.67,0,0,1-.83.35l-2.57.38a1.17,1.17,0,0,1-1.25-.75Z"/><path class="cls-8" d="M40.57,30.35a7.57,7.57,0,0,1-5,5.36c-4.2,1.43-5.67,1-7.14,3.15s-2.18,7.1-1.57,7.82,1.71-.13,2.2,1-.33,2.59-.84,2.35-.88-1.73-.88-1.73S25.93,50,25.6,49.44a3,3,0,0,1-.17-1.61s-1.77.71-1.93.16,1.59-1.91,1.59-1.91l-.87-4.44a8.44,8.44,0,0,1-5.11,0c-2.29-.92-4.17-2.58-4.54-2.17S12.1,42.81,12.08,44s1.44,2,1.63,2.09.39,1.13.39,1.13S13.8,49.52,13,49.1,12.2,47,12.2,47s-.61,1.93-1.58,1.3-.16-2.23-.16-2.23-2.22.33-2.17-.2,1.58-1.63,1.58-1.63L11.17,38a17.9,17.9,0,0,0,7.39.62C22.57,38.07,37.61,32.22,40.57,30.35Z"/><path d="M114.33,47.29a1.5,1.5,0,0,1-1.16-.51,1.93,1.93,0,0,1-.42-1.31V41.86a3.14,3.14,0,0,0-.25-1.41c0-.09-.15-.3-.74-.3a1.24,1.24,0,0,0-.76.25,1.49,1.49,0,0,0-.53.71,6.53,6.53,0,0,0-.13,1.64v2.72a1.84,1.84,0,0,1-.44,1.33,1.51,1.51,0,0,1-1.15.49,1.47,1.47,0,0,1-1.15-.51,1.93,1.93,0,0,1-.43-1.31V39.2a1.87,1.87,0,0,1,.4-1.26,1.43,1.43,0,0,1,1.11-.47,1.55,1.55,0,0,1,.77.2,1.44,1.44,0,0,1,.56.61s0,0,0,.06a3.77,3.77,0,0,1,.69-.46,3.87,3.87,0,0,1,1.79-.41,3.63,3.63,0,0,1,1.78.43,2.9,2.9,0,0,1,1.22,1.28,3,3,0,0,1,.32,1,8.47,8.47,0,0,1,.07,1.24v4a1.87,1.87,0,0,1-.43,1.32A1.48,1.48,0,0,1,114.33,47.29Z"/><path d="M112.52,38a3.11,3.11,0,0,1,1.54.37,2.41,2.41,0,0,1,1,1.06,2.47,2.47,0,0,1,.27.86,7.55,7.55,0,0,1,.07,1.17v4a1.43,1.43,0,0,1-.3,1,1,1,0,0,1-.77.33,1,1,0,0,1-.79-.34,1.44,1.44,0,0,1-.3-1V41.86a3.62,3.62,0,0,0-.3-1.65,1.22,1.22,0,0,0-1.19-.56,1.76,1.76,0,0,0-1.06.34,2,2,0,0,0-.7.95,7,7,0,0,0-.16,1.81v2.72a1.43,1.43,0,0,1-.3,1,1,1,0,0,1-.79.33,1,1,0,0,1-.77-.34,1.39,1.39,0,0,1-.31-1V39.2a1.39,1.39,0,0,1,.27-.93,1,1,0,0,1,.74-.3,1,1,0,0,1,.52.13,1,1,0,0,1,.37.41,1.46,1.46,0,0,1,.14.66v.26A3.9,3.9,0,0,1,111,38.32a3.38,3.38,0,0,1,1.56-.35m0-1a4.32,4.32,0,0,0-2,.46l-.33.2a1.71,1.71,0,0,0-.46-.39,2,2,0,0,0-1-.27,1.94,1.94,0,0,0-1.49.64,2.36,2.36,0,0,0-.52,1.59v6.27a2.36,2.36,0,0,0,.56,1.64,2,2,0,0,0,1.52.68,2,2,0,0,0,1.52-.65,2.37,2.37,0,0,0,.57-1.67V42.75a6.13,6.13,0,0,1,.11-1.5,1,1,0,0,1,.34-.45.73.73,0,0,1,.47-.15.82.82,0,0,1,.32,0,3,3,0,0,1,.17,1.17v3.61a2.36,2.36,0,0,0,.55,1.64,2.07,2.07,0,0,0,3.06,0,2.42,2.42,0,0,0,.55-1.65v-4a11.75,11.75,0,0,0-.07-1.31,3.6,3.6,0,0,0-.39-1.2,3.39,3.39,0,0,0-1.41-1.45,4.14,4.14,0,0,0-2-.5Z"/><path class="cls-7" d="M113.13,48a1.75,1.75,0,0,1-1.35-.59,2.2,2.2,0,0,1-.49-1.48V42.34a2.86,2.86,0,0,0-.21-1.3c-.06-.11-.23-.16-.52-.16a1,1,0,0,0-.62.2,1.24,1.24,0,0,0-.44.6,6.85,6.85,0,0,0-.11,1.55V46a2.1,2.1,0,0,1-.51,1.5,1.75,1.75,0,0,1-1.34.57,1.72,1.72,0,0,1-1.33-.59,2.18,2.18,0,0,1-.49-1.48V39.68a2,2,0,0,1,.46-1.42,1.66,1.66,0,0,1,1.3-.56,1.7,1.7,0,0,1,.89.24,1.46,1.46,0,0,1,.54.51,4.53,4.53,0,0,1,.5-.31,4.1,4.1,0,0,1,1.91-.44,3.88,3.88,0,0,1,1.9.47,3.14,3.14,0,0,1,1.32,1.38,3.11,3.11,0,0,1,.34,1.08,9.24,9.24,0,0,1,.08,1.29v4a2.17,2.17,0,0,1-.49,1.49A1.77,1.77,0,0,1,113.13,48Z"/><path class="cls-4" d="M111.32,38.45a3.09,3.09,0,0,1,1.53.37,2.68,2.68,0,0,1,1.29,1.92,9.22,9.22,0,0,1,.07,1.18v4a1.43,1.43,0,0,1-.3,1,1,1,0,0,1-.78.33,1,1,0,0,1-.79-.34,1.44,1.44,0,0,1-.3-1V42.34a3.62,3.62,0,0,0-.3-1.65,1.21,1.21,0,0,0-1.18-.56,1.76,1.76,0,0,0-1.06.34,2,2,0,0,0-.7,1,6.65,6.65,0,0,0-.16,1.81V46a1.38,1.38,0,0,1-.31,1,1,1,0,0,1-.79.33,1,1,0,0,1-.77-.34,1.44,1.44,0,0,1-.3-1V39.68a1.35,1.35,0,0,1,.27-.92.92.92,0,0,1,.74-.31,1,1,0,0,1,.52.13,1.06,1.06,0,0,1,.37.41,1.46,1.46,0,0,1,.14.66v.26a3.8,3.8,0,0,1,1.25-1.11,3.38,3.38,0,0,1,1.56-.35m0-1.5a5,5,0,0,0-2.26.52l0,0a1.79,1.79,0,0,0-.28-.2,2.48,2.48,0,0,0-1.28-.34,2.44,2.44,0,0,0-1.86.81,2.81,2.81,0,0,0-.65,1.92V46a2.9,2.9,0,0,0,.68,2,2.58,2.58,0,0,0,3.78,0,2.83,2.83,0,0,0,.71-2V43.23a6.66,6.66,0,0,1,.08-1.33.42.42,0,0,1,.16-.21.3.3,0,0,1,.11-.06,3.84,3.84,0,0,1,.05.71V46a2.9,2.9,0,0,0,.68,2,2.59,2.59,0,0,0,3.81,0,2.89,2.89,0,0,0,.68-2v-4a10.75,10.75,0,0,0-.08-1.39,4.21,4.21,0,0,0-.43-1.34,3.92,3.92,0,0,0-1.62-1.68,4.62,4.62,0,0,0-2.26-.56Z"/><path d="M101.31,47.29a5.3,5.3,0,0,1-2-.35,4.53,4.53,0,0,1-1.54-1,4.39,4.39,0,0,1-1-1.57,5.6,5.6,0,0,1-.33-2,5.75,5.75,0,0,1,.33-2,4.36,4.36,0,0,1,1-1.57,4.17,4.17,0,0,1,1.54-1,5.18,5.18,0,0,1,2-.35,5.43,5.43,0,0,1,2,.35,4.45,4.45,0,0,1,1.55,1,4.35,4.35,0,0,1,1,1.58,5.6,5.6,0,0,1,.33,2,5.68,5.68,0,0,1-.33,2,4.42,4.42,0,0,1-1,1.58,4.24,4.24,0,0,1-1.54,1A5.4,5.4,0,0,1,101.31,47.29Zm0-7.22a1.39,1.39,0,0,0-.84.25,1.54,1.54,0,0,0-.57.75,4,4,0,0,0,0,2.61,1.62,1.62,0,0,0,.56.75,1.54,1.54,0,0,0,2-.3,3.45,3.45,0,0,0,0-3.51A1.39,1.39,0,0,0,101.31,40.07Z"/><path d="M101.31,38a4.63,4.63,0,0,1,1.78.32,3.84,3.84,0,0,1,1.38.9,4,4,0,0,1,.87,1.4,5.49,5.49,0,0,1,0,3.58,4.26,4.26,0,0,1-.88,1.41,3.89,3.89,0,0,1-1.37.9,4.78,4.78,0,0,1-1.78.31,4.59,4.59,0,0,1-1.78-.32,3.89,3.89,0,0,1-2.23-2.31,5,5,0,0,1-.3-1.78,5.15,5.15,0,0,1,.3-1.8,3.84,3.84,0,0,1,2.23-2.3,4.86,4.86,0,0,1,1.78-.31m0,7.21a1.9,1.9,0,0,0,1.57-.75,3.23,3.23,0,0,0,.58-2,3.27,3.27,0,0,0-.58-2.07,2,2,0,0,0-2.69-.41,2,2,0,0,0-.75,1,3.87,3.87,0,0,0-.26,1.5,4,4,0,0,0,.25,1.49,2.17,2.17,0,0,0,.74,1,1.9,1.9,0,0,0,1.14.34m0-8.21a5.94,5.94,0,0,0-2.14.38,4.73,4.73,0,0,0-1.72,1.13,4.9,4.9,0,0,0-1.09,1.75A6.22,6.22,0,0,0,96,42.38a6.1,6.1,0,0,0,.36,2.13,4.8,4.8,0,0,0,1.09,1.75,5,5,0,0,0,1.71,1.14,5.68,5.68,0,0,0,2.15.39,5.92,5.92,0,0,0,2.15-.38,4.83,4.83,0,0,0,2.81-2.9,5.92,5.92,0,0,0,.37-2.13,6.06,6.06,0,0,0-.36-2.13,5.06,5.06,0,0,0-1.09-1.76,4.86,4.86,0,0,0-1.73-1.13,5.75,5.75,0,0,0-2.15-.39Zm0,7.21a.91.91,0,0,1-.56-.16,1.17,1.17,0,0,1-.39-.53,3,3,0,0,1-.18-1.11,3.15,3.15,0,0,1,.18-1.13,1.13,1.13,0,0,1,.39-.52,1,1,0,0,1,1.34.2,3,3,0,0,1,0,2.89.9.9,0,0,1-.78.36Z"/><path class="cls-7" d="M100.1,48a5.38,5.38,0,0,1-2-.37,4.65,4.65,0,0,1-2.66-2.74,6.21,6.21,0,0,1,0-4.11,5,5,0,0,1,1-1.67,4.62,4.62,0,0,1,1.64-1.07,5.64,5.64,0,0,1,2-.36,5.56,5.56,0,0,1,2.07.37,4.56,4.56,0,0,1,1.63,1.08,4.62,4.62,0,0,1,1,1.66,5.88,5.88,0,0,1,.35,2,6,6,0,0,1-.35,2,4.86,4.86,0,0,1-1,1.67,4.74,4.74,0,0,1-1.63,1.08A5.69,5.69,0,0,1,100.1,48Zm0-7.22a1.25,1.25,0,0,0-.7.2,1.39,1.39,0,0,0-.47.64,3.21,3.21,0,0,0-.21,1.22,3.27,3.27,0,0,0,.2,1.2,1.39,1.39,0,0,0,.48.65,1.2,1.2,0,0,0,.7.2,1.14,1.14,0,0,0,1-.46,3.17,3.17,0,0,0,0-3.19A1.15,1.15,0,0,0,100.1,40.8Z"/><path class="cls-4" d="M100.1,38.45a4.84,4.84,0,0,1,1.79.32,3.93,3.93,0,0,1,1.38.9,4,4,0,0,1,.87,1.4,5.58,5.58,0,0,1,0,3.58,4,4,0,0,1-.87,1.41,3.89,3.89,0,0,1-1.37.9,4.84,4.84,0,0,1-1.79.31A4.73,4.73,0,0,1,98.33,47a3.95,3.95,0,0,1-2.24-2.31,5.13,5.13,0,0,1-.3-1.79,4.93,4.93,0,0,1,.31-1.8,3.89,3.89,0,0,1,.86-1.4,3.8,3.8,0,0,1,1.37-.9,4.8,4.8,0,0,1,1.77-.31m0,7.21a1.9,1.9,0,0,0,1.57-.74,3.91,3.91,0,0,0,0-4.13,1.9,1.9,0,0,0-1.57-.74,2,2,0,0,0-1.12.33,2.17,2.17,0,0,0-.75,1,4.06,4.06,0,0,0-.26,1.5,4,4,0,0,0,.26,1.49,2.1,2.1,0,0,0,.74,1,1.89,1.89,0,0,0,1.13.34m0-8.71a6.29,6.29,0,0,0-2.32.42,5.18,5.18,0,0,0-1.89,1.24,5.47,5.47,0,0,0-1.2,1.93,6.73,6.73,0,0,0-.4,2.32,6.91,6.91,0,0,0,.39,2.31,5.46,5.46,0,0,0,3.09,3.18,6.7,6.7,0,0,0,4.67,0,5.16,5.16,0,0,0,1.89-1.25,5.36,5.36,0,0,0,1.21-1.93,7,7,0,0,0,0-4.62,5.37,5.37,0,0,0-3.1-3.18A6.32,6.32,0,0,0,100.1,37Zm0,7.21a.4.4,0,0,1-.27-.07.64.64,0,0,1-.21-.31,2.42,2.42,0,0,1-.15-.92,2.57,2.57,0,0,1,.15-.94.68.68,0,0,1,.21-.29.39.39,0,0,1,.27-.08.45.45,0,0,1,.4.17,2,2,0,0,1,.26,1.14,1.84,1.84,0,0,1-.27,1.13.41.41,0,0,1-.39.17Z"/><path d="M75.29,50.51a4.15,4.15,0,0,1-1.63-.25,1.34,1.34,0,0,1-.38-2.16,1.45,1.45,0,0,1,1-.33,1.59,1.59,0,0,1,.48.07l.22,0a.7.7,0,0,0,.35-.06.58.58,0,0,0,.2-.21,5.7,5.7,0,0,0,.35-.73l.12-.3L73.41,40a2.84,2.84,0,0,1-.28-1,1.57,1.57,0,0,1,.79-1.33,1.54,1.54,0,0,1,.77-.21,1.34,1.34,0,0,1,1.1.48,3.17,3.17,0,0,1,.5,1l1.37,4,1.27-3.61a8.1,8.1,0,0,1,.39-1,1.54,1.54,0,0,1,.54-.66,1.39,1.39,0,0,1,.79-.2,1.33,1.33,0,0,1,.72.2,1.28,1.28,0,0,1,.54.54,1.38,1.38,0,0,1,.19.71V39c0,.11-.06.26-.11.45a4.89,4.89,0,0,1-.19.62L79,47.5a9.77,9.77,0,0,1-.76,1.63,2.92,2.92,0,0,1-1.12,1A3.83,3.83,0,0,1,75.29,50.51Z"/><path d="M80.65,38a.94.94,0,0,1,.48.13,1,1,0,0,1,.35.35,1,1,0,0,1,.12.47c0,.1-.06.25-.1.43s-.11.37-.18.57l-2.83,7.4a8.44,8.44,0,0,1-.71,1.54,2.45,2.45,0,0,1-.93.85,3.41,3.41,0,0,1-1.56.3,3.75,3.75,0,0,1-1.43-.21.85.85,0,0,1-.25-1.33,1,1,0,0,1,.68-.2,1.33,1.33,0,0,1,.34,0,1.63,1.63,0,0,0,.35,0,1.21,1.21,0,0,0,.59-.12,1,1,0,0,0,.39-.38,6.27,6.27,0,0,0,.39-.81l.2-.48-2.67-6.73a2.64,2.64,0,0,1-.25-.84,1,1,0,0,1,.15-.52,1,1,0,0,1,.39-.38,1.1,1.1,0,0,1,.52-.14.86.86,0,0,1,.71.3,2.58,2.58,0,0,1,.42.85l1.84,5.34,1.74-5a7.68,7.68,0,0,1,.37-.94,1.12,1.12,0,0,1,.35-.46,1,1,0,0,1,.53-.12m0-1a1.94,1.94,0,0,0-1.06.27,2.12,2.12,0,0,0-.72.87,9,9,0,0,0-.42,1.06l-.79,2.24-.89-2.61a3.7,3.7,0,0,0-.59-1.16A1.81,1.81,0,0,0,74.69,37a2.08,2.08,0,0,0-1,.27,2,2,0,0,0-.75.74,2,2,0,0,0-.29,1A3.18,3.18,0,0,0,73,40.24l2.51,6.33,0,.11a4.44,4.44,0,0,1-.32.66v0H75l-.11,0a2.32,2.32,0,0,0-.58-.08,1.91,1.91,0,0,0-1.34.46,1.69,1.69,0,0,0-.56,1.32,1.74,1.74,0,0,0,1.08,1.67,4.52,4.52,0,0,0,1.82.29,4.3,4.3,0,0,0,2-.41,3.39,3.39,0,0,0,1.31-1.21,9.34,9.34,0,0,0,.81-1.72l2.82-7.4a5.11,5.11,0,0,0,.21-.67c.06-.2.09-.36.12-.47l0-.1v-.11a2,2,0,0,0-1-1.69,2,2,0,0,0-1-.26Z"/><path d="M93.75,47.29a1.49,1.49,0,0,1-1.14-.5,1.93,1.93,0,0,1-.43-1.33v-4L91.3,45c-.13.5-.23.86-.31,1.1a2.07,2.07,0,0,1-.57.83,1.71,1.71,0,0,1-1.19.4,1.76,1.76,0,0,1-1-.25,1.73,1.73,0,0,1-.62-.64,3.19,3.19,0,0,1-.3-.73L87.16,45l-.88-3.51v4a2,2,0,0,1-.42,1.33,1.61,1.61,0,0,1-2.32,0,2,2,0,0,1-.43-1.34V36.23a1.61,1.61,0,0,1,.62-1.44,2.42,2.42,0,0,1,1.35-.35h.73a3.36,3.36,0,0,1,1.15.15,1.36,1.36,0,0,1,.71.69A7.86,7.86,0,0,1,88,36.37l1.21,4.56,1.21-4.56a6.5,6.5,0,0,1,.36-1.09,1.3,1.3,0,0,1,.71-.69,3.25,3.25,0,0,1,1.14-.15h.73a2.42,2.42,0,0,1,1.35.35,1.61,1.61,0,0,1,.62,1.44v9.23a1.93,1.93,0,0,1-.42,1.33A1.53,1.53,0,0,1,93.75,47.29Z"/><path d="M93.38,34.94a1.86,1.86,0,0,1,1.07.27,1.13,1.13,0,0,1,.4,1v9.23a1.46,1.46,0,0,1-.3,1,1,1,0,0,1-.8.33,1,1,0,0,1-.77-.33,1.46,1.46,0,0,1-.3-1V37.41l-1.87,7.43c-.12.48-.22.83-.3,1.06a1.35,1.35,0,0,1-.42.61,1.22,1.22,0,0,1-.86.28,1.28,1.28,0,0,1-.7-.18,1.26,1.26,0,0,1-.44-.45,2.44,2.44,0,0,1-.25-.62c-.07-.23-.13-.46-.19-.7l-1.87-7.43v8.05a1.46,1.46,0,0,1-.3,1,1.1,1.1,0,0,1-1.57,0,1.44,1.44,0,0,1-.3-1V36.23a1.13,1.13,0,0,1,.4-1,1.86,1.86,0,0,1,1.07-.27h.73a2.79,2.79,0,0,1,1,.12.77.77,0,0,1,.44.43,5.62,5.62,0,0,1,.33,1l1.69,6.38,1.69-6.38a6.57,6.57,0,0,1,.33-1,.8.8,0,0,1,.44-.43,2.79,2.79,0,0,1,1-.12h.73m0-1h-.73a3.6,3.6,0,0,0-1.33.19,1.77,1.77,0,0,0-1,.94A7.65,7.65,0,0,0,90,36.24L89.23,39l-.73-2.74a7.65,7.65,0,0,0-.38-1.17,1.77,1.77,0,0,0-1-.94,3.6,3.6,0,0,0-1.33-.19h-.73a3,3,0,0,0-1.63.43,2.09,2.09,0,0,0-.84,1.86v9.23a2.39,2.39,0,0,0,.57,1.68,2.09,2.09,0,0,0,3,0,2.4,2.4,0,0,0,.55-1.65l.09.33a3.38,3.38,0,0,0,.35.85,2.32,2.32,0,0,0,.78.81,2.29,2.29,0,0,0,1.23.33,2.24,2.24,0,0,0,1.53-.53,2.46,2.46,0,0,0,.7-1c.06-.18.14-.43.22-.75a2.4,2.4,0,0,0,.56,1.66,2.09,2.09,0,0,0,3.06,0,2.39,2.39,0,0,0,.55-1.66V36.23A2.09,2.09,0,0,0,95,34.37a3,3,0,0,0-1.63-.43Z"/><path class="cls-7" d="M74.09,51.24A4.29,4.29,0,0,1,72.36,51a1.5,1.5,0,0,1-.93-1.44,1.47,1.47,0,0,1,.48-1.14A1.7,1.7,0,0,1,73.08,48a2,2,0,0,1,.55.08l.15,0a.79.79,0,0,0,.25,0l.09-.11a7.25,7.25,0,0,0,.34-.71l.08-.2L72,40.61a2.88,2.88,0,0,1-.3-1.12,1.67,1.67,0,0,1,.25-.9,1.79,1.79,0,0,1,.66-.65,1.84,1.84,0,0,1,.9-.24,1.56,1.56,0,0,1,1.29.58,3.36,3.36,0,0,1,.55,1.09l1.13,3.29,1-2.93a9.38,9.38,0,0,1,.4-1,1.85,1.85,0,0,1,.63-.77,1.76,1.76,0,0,1,.93-.23,1.72,1.72,0,0,1,.85.23,1.68,1.68,0,0,1,.63.64,1.75,1.75,0,0,1,.22.83.78.78,0,0,1,0,.16c0,.11-.06.26-.11.46s-.12.42-.2.63L78,48.07a9.48,9.48,0,0,1-.78,1.67A3.2,3.2,0,0,1,76,50.86,4.07,4.07,0,0,1,74.09,51.24Z"/><path class="cls-4" d="M79.45,38.45a.9.9,0,0,1,.47.13,1,1,0,0,1,.35.35,1,1,0,0,1,.13.47c0,.1-.06.25-.11.43s-.1.38-.17.57l-2.83,7.41a9.32,9.32,0,0,1-.72,1.53,2.28,2.28,0,0,1-.92.85,3.44,3.44,0,0,1-1.56.3,4,4,0,0,1-1.43-.2A.84.84,0,0,1,72.41,49a1,1,0,0,1,.67-.2,1.27,1.27,0,0,1,.34,0,1.81,1.81,0,0,0,.36.05,1.35,1.35,0,0,0,.59-.11,1.2,1.2,0,0,0,.39-.39,6.27,6.27,0,0,0,.39-.81l.2-.48-2.67-6.73a2.34,2.34,0,0,1-.25-.84,1.07,1.07,0,0,1,.14-.52,1.12,1.12,0,0,1,.4-.38,1.07,1.07,0,0,1,.52-.14.83.83,0,0,1,.7.3,2.91,2.91,0,0,1,.43.85l1.83,5.34,1.74-5a8.8,8.8,0,0,1,.38-.95,1.12,1.12,0,0,1,.35-.46,1,1,0,0,1,.53-.12m0-1.5a2.5,2.5,0,0,0-1.34.35,2.67,2.67,0,0,0-.89,1.07,9.89,9.89,0,0,0-.45,1.12l-.3.88L76,39.11a4.17,4.17,0,0,0-.66-1.3A2.35,2.35,0,0,0,73.49,37a2.49,2.49,0,0,0-1.27.34,2.54,2.54,0,0,0-.93.91,2.46,2.46,0,0,0-.36,1.29,3.62,3.62,0,0,0,.37,1.43l2.43,6.13a1.47,1.47,0,0,1-.12.25,3.07,3.07,0,0,0-.53,0,2.42,2.42,0,0,0-1.67.59,2.23,2.23,0,0,0-.73,1.69,2.25,2.25,0,0,0,1.38,2.13,5.21,5.21,0,0,0,2,.33,4.83,4.83,0,0,0,2.24-.46,3.88,3.88,0,0,0,1.51-1.39,9.69,9.69,0,0,0,.85-1.81l2.83-7.4a7.1,7.1,0,0,0,.22-.72c.06-.22.1-.38.12-.5a1.55,1.55,0,0,0,0-.31,2.44,2.44,0,0,0-1.23-2.12A2.4,2.4,0,0,0,79.45,37Z"/><path class="cls-7" d="M92.55,48a1.76,1.76,0,0,1-1.33-.58,2.15,2.15,0,0,1-.49-1.5V44l-.39,1.55c-.13.51-.24.88-.32,1.12a2.2,2.2,0,0,1-.63.93A1.94,1.94,0,0,1,88,48a2,2,0,0,1-1.8-1,3,3,0,0,1-.32-.79l-.19-.71L85.33,44v2a2.2,2.2,0,0,1-.49,1.5,1.76,1.76,0,0,1-1.35.58,1.72,1.72,0,0,1-1.33-.57,2.17,2.17,0,0,1-.5-1.51V36.72a1.85,1.85,0,0,1,.73-1.66,2.64,2.64,0,0,1,1.49-.39h.73a3.29,3.29,0,0,1,1.23.17,1.57,1.57,0,0,1,.85.81,8.5,8.5,0,0,1,.37,1.14l1,3.65,1-3.65a7.64,7.64,0,0,1,.36-1.13,1.62,1.62,0,0,1,.85-.82,3.38,3.38,0,0,1,1.24-.17h.73a2.64,2.64,0,0,1,1.49.39,1.87,1.87,0,0,1,.73,1.66v9.22a2.2,2.2,0,0,1-.49,1.5A1.77,1.77,0,0,1,92.55,48Z"/><path class="cls-4" d="M92.18,35.42a1.88,1.88,0,0,1,1.07.27,1.16,1.16,0,0,1,.4,1v9.22a1.46,1.46,0,0,1-.3,1,1,1,0,0,1-.8.33,1,1,0,0,1-.77-.33,1.46,1.46,0,0,1-.3-1v-8l-1.87,7.43c-.12.48-.22.83-.3,1.06a1.63,1.63,0,0,1-.42.62,1.37,1.37,0,0,1-2-.36,2.87,2.87,0,0,1-.25-.62c-.06-.22-.12-.46-.18-.7l-1.87-7.43v8a1.46,1.46,0,0,1-.3,1,1.1,1.1,0,0,1-1.57,0,1.44,1.44,0,0,1-.3-1V36.72a1.16,1.16,0,0,1,.39-1,1.92,1.92,0,0,1,1.08-.27h.73a2.79,2.79,0,0,1,1,.12A.8.8,0,0,1,86,36a7.26,7.26,0,0,1,.32,1L88,43.36,89.72,37a5.91,5.91,0,0,1,.33-1,.77.77,0,0,1,.44-.43,2.79,2.79,0,0,1,1-.12h.73m0-1.5h-.73a4,4,0,0,0-1.52.23,2.28,2.28,0,0,0-1.25,1.19,8.46,8.46,0,0,0-.41,1.26l-.24.91-.25-.92a7.57,7.57,0,0,0-.41-1.25,2.28,2.28,0,0,0-1.25-1.19,3.89,3.89,0,0,0-1.51-.23h-.73a3.4,3.4,0,0,0-1.91.52,2.54,2.54,0,0,0-1.06,2.28v9.22a2.91,2.91,0,0,0,.69,2,2.54,2.54,0,0,0,1.89.81,2.51,2.51,0,0,0,1.91-.83,2.14,2.14,0,0,0,.28-.39,3,3,0,0,0,.85.82,2.78,2.78,0,0,0,1.5.4,2.72,2.72,0,0,0,1.86-.66,3.17,3.17,0,0,0,.49-.55,2.19,2.19,0,0,0,.29.39,2.6,2.6,0,0,0,3.8,0,2.92,2.92,0,0,0,.68-2V36.72a2.57,2.57,0,0,0-1.06-2.28,3.43,3.43,0,0,0-1.91-.52Z"/><path d="M70.72,47.29a1.5,1.5,0,0,1-1.16-.51,1.93,1.93,0,0,1-.43-1.31V41.86a3.16,3.16,0,0,0-.24-1.41c0-.09-.15-.3-.74-.3a1.29,1.29,0,0,0-.77.25,1.47,1.47,0,0,0-.52.71,6.53,6.53,0,0,0-.13,1.64v2.72a1.89,1.89,0,0,1-.44,1.33,1.51,1.51,0,0,1-1.15.49A1.47,1.47,0,0,1,64,46.78a1.93,1.93,0,0,1-.43-1.31V39.2a1.87,1.87,0,0,1,.4-1.26,1.43,1.43,0,0,1,1.11-.47,1.55,1.55,0,0,1,.77.2,1.44,1.44,0,0,1,.56.61l0,.06a3.77,3.77,0,0,1,.69-.46,3.87,3.87,0,0,1,1.79-.41,3.63,3.63,0,0,1,1.78.43,2.83,2.83,0,0,1,1.21,1.28,2.8,2.8,0,0,1,.33,1,10.16,10.16,0,0,1,.07,1.24v4a1.92,1.92,0,0,1-.43,1.32A1.48,1.48,0,0,1,70.72,47.29Z"/><path d="M68.91,38a3.13,3.13,0,0,1,1.54.37,2.41,2.41,0,0,1,1,1.06,2.47,2.47,0,0,1,.27.86,7.55,7.55,0,0,1,.07,1.17v4a1.43,1.43,0,0,1-.3,1,1,1,0,0,1-.78.33,1,1,0,0,1-.78-.34,1.44,1.44,0,0,1-.31-1V41.86a3.64,3.64,0,0,0-.29-1.65,1.22,1.22,0,0,0-1.19-.56,1.76,1.76,0,0,0-1.06.34,2,2,0,0,0-.7.95,7,7,0,0,0-.16,1.81v2.72a1.43,1.43,0,0,1-.3,1,1,1,0,0,1-.79.33,1,1,0,0,1-.78-.34,1.44,1.44,0,0,1-.3-1V39.2a1.39,1.39,0,0,1,.27-.93,1,1,0,0,1,.74-.3,1,1,0,0,1,.52.13,1,1,0,0,1,.37.41,1.46,1.46,0,0,1,.14.66v.26a3.9,3.9,0,0,1,1.25-1.11A3.38,3.38,0,0,1,68.91,38m0-1a4.29,4.29,0,0,0-2,.46l-.33.2a1.61,1.61,0,0,0-.47-.39,2,2,0,0,0-1-.27,1.93,1.93,0,0,0-1.49.64,2.36,2.36,0,0,0-.52,1.59v6.27a2.36,2.36,0,0,0,.56,1.64,1.94,1.94,0,0,0,1.52.68,2,2,0,0,0,1.52-.65,2.37,2.37,0,0,0,.57-1.67V42.75a6.13,6.13,0,0,1,.11-1.5,1,1,0,0,1,.34-.45.73.73,0,0,1,.47-.15.82.82,0,0,1,.32,0,3.09,3.09,0,0,1,.16,1.17v3.61a2.36,2.36,0,0,0,.56,1.64,2.06,2.06,0,0,0,3,0,2.37,2.37,0,0,0,.56-1.65v-4a9.56,9.56,0,0,0-.08-1.31,3.58,3.58,0,0,0-.38-1.2,3.39,3.39,0,0,0-1.41-1.45,4.14,4.14,0,0,0-2-.5Z"/><path class="cls-7" d="M69.52,48a1.75,1.75,0,0,1-1.35-.59A2.2,2.2,0,0,1,67.68,46V42.34a2.86,2.86,0,0,0-.21-1.3c-.06-.11-.24-.16-.53-.16a1,1,0,0,0-.61.2,1.24,1.24,0,0,0-.44.6,6.18,6.18,0,0,0-.11,1.55V46a2.1,2.1,0,0,1-.51,1.5,1.75,1.75,0,0,1-1.34.57,1.71,1.71,0,0,1-1.33-.59A2.13,2.13,0,0,1,62.11,46V39.68a2,2,0,0,1,.46-1.42,1.66,1.66,0,0,1,1.3-.56,1.7,1.7,0,0,1,.89.24,1.46,1.46,0,0,1,.54.51,3.76,3.76,0,0,1,.5-.31,4.1,4.1,0,0,1,1.91-.44,3.91,3.91,0,0,1,1.9.47,3.14,3.14,0,0,1,1.32,1.38,3.18,3.18,0,0,1,.34,1.08,9.43,9.43,0,0,1,.07,1.29v4a2.17,2.17,0,0,1-.48,1.49A1.77,1.77,0,0,1,69.52,48Z"/><path class="cls-4" d="M67.71,38.45a3.09,3.09,0,0,1,1.53.37,2.35,2.35,0,0,1,1,1.06,2.56,2.56,0,0,1,.28.86,9.48,9.48,0,0,1,.06,1.18v4a1.48,1.48,0,0,1-.29,1,1.09,1.09,0,0,1-1.57,0,1.44,1.44,0,0,1-.3-1V42.34a3.62,3.62,0,0,0-.3-1.65,1.22,1.22,0,0,0-1.19-.56,1.76,1.76,0,0,0-1,.34,2,2,0,0,0-.7,1A6.65,6.65,0,0,0,65,43.23V46a1.38,1.38,0,0,1-.31,1,1,1,0,0,1-.79.33,1,1,0,0,1-.77-.34,1.44,1.44,0,0,1-.3-1V39.68a1.35,1.35,0,0,1,.27-.92.92.92,0,0,1,.74-.31,1,1,0,0,1,.51.13.93.93,0,0,1,.37.41,1.34,1.34,0,0,1,.14.66v.26a3.93,3.93,0,0,1,1.26-1.11,3.38,3.38,0,0,1,1.56-.35m0-1.5a5,5,0,0,0-2.26.52l0,0a1.87,1.87,0,0,0-.29-.2A2.42,2.42,0,0,0,63.87,37a2.48,2.48,0,0,0-1.87.81,2.85,2.85,0,0,0-.64,1.92V46a2.9,2.9,0,0,0,.68,2,2.58,2.58,0,0,0,3.78,0,2.83,2.83,0,0,0,.71-2V43.23a6.66,6.66,0,0,1,.08-1.33.42.42,0,0,1,.16-.21.3.3,0,0,1,.11-.06,5,5,0,0,1,.05.71V46a2.9,2.9,0,0,0,.68,2,2.52,2.52,0,0,0,1.91.84,2.48,2.48,0,0,0,1.89-.83,2.85,2.85,0,0,0,.68-2v-4A11,11,0,0,0,72,40.53a4.07,4.07,0,0,0-.43-1.33A3.89,3.89,0,0,0,70,37.51,4.67,4.67,0,0,0,67.71,37Z"/><path d="M60.4,47.29a1.46,1.46,0,0,1-1.15-.51,1.93,1.93,0,0,1-.43-1.31V39.26a1.89,1.89,0,0,1,.43-1.3,1.61,1.61,0,0,1,2.3,0A1.76,1.76,0,0,1,62,39.2v6.27a1.9,1.9,0,0,1-.44,1.33A1.54,1.54,0,0,1,60.4,47.29Zm0-9.83a1.65,1.65,0,0,1-1.1-.4,1.48,1.48,0,0,1-.5-1.17,1.51,1.51,0,0,1,.5-1.13,1.59,1.59,0,0,1,1.1-.42,1.61,1.61,0,0,1,1.07.38,1.45,1.45,0,0,1,.5,1.17,1.5,1.5,0,0,1-.48,1.16A1.61,1.61,0,0,1,60.42,37.46Z"/><path d="M60.42,34.84a1.15,1.15,0,0,1,.75.27.94.94,0,0,1,.32.78,1,1,0,0,1-.31.79,1.17,1.17,0,0,1-.76.28,1.11,1.11,0,0,1-.77-.28,1.07,1.07,0,0,1,0-1.55,1.1,1.1,0,0,1,.77-.29m0,3.13a1,1,0,0,1,.78.32,1.26,1.26,0,0,1,.31.91v6.27a1.38,1.38,0,0,1-.31,1,1,1,0,0,1-.78.33,1,1,0,0,1-.78-.34,1.44,1.44,0,0,1-.3-1V39.26a1.39,1.39,0,0,1,.3-1A1,1,0,0,1,60.4,38m0-4.13a2.14,2.14,0,0,0-1.44.55,2,2,0,0,0-.66,1.5A2,2,0,0,0,59,37.44l0,0-.15.15a2.36,2.36,0,0,0-.56,1.64v6.21a2.44,2.44,0,0,0,.55,1.64,2,2,0,0,0,1.53.68,2,2,0,0,0,1.52-.65,2.37,2.37,0,0,0,.57-1.67V39.2a2.26,2.26,0,0,0-.58-1.6l-.13-.12.06-.06a2.12,2.12,0,0,0,0-3.08,2.16,2.16,0,0,0-1.39-.5Z"/><path class="cls-7" d="M59.19,48a1.72,1.72,0,0,1-1.34-.6A2.15,2.15,0,0,1,57.37,46v-6.2a2.1,2.1,0,0,1,.5-1.48,1.48,1.48,0,0,1,.39-.32L58,37.73a1.74,1.74,0,0,1-.58-1.36A1.71,1.71,0,0,1,58,35.06a1.85,1.85,0,0,1,1.27-.49,1.89,1.89,0,0,1,1.22.44,1.68,1.68,0,0,1,.6,1.36,1.73,1.73,0,0,1-.57,1.35,1.5,1.5,0,0,1-.33.23,2.31,2.31,0,0,1,.39.31A2,2,0,0,1,61,39.68V46a2.13,2.13,0,0,1-.51,1.5A1.76,1.76,0,0,1,59.19,48Z"/><path class="cls-4" d="M59.22,35.32a1.11,1.11,0,0,1,.74.27,1,1,0,0,1,.33.78,1,1,0,0,1-.32.79,1.08,1.08,0,0,1-.75.28,1.15,1.15,0,0,1-.78-.28,1,1,0,0,1-.32-.79,1,1,0,0,1,.33-.75,1.11,1.11,0,0,1,.77-.3m0,3.13a1,1,0,0,1,.79.33,1.22,1.22,0,0,1,.31.9V46a1.38,1.38,0,0,1-.31,1,1,1,0,0,1-.79.33,1,1,0,0,1-.77-.34,1.44,1.44,0,0,1-.3-1V39.74a1.36,1.36,0,0,1,.3-1,1,1,0,0,1,.77-.33m0-4.63a2.61,2.61,0,0,0-1.78.68A2.59,2.59,0,0,0,57.15,38a3,3,0,0,0-.53,1.78V46a2.92,2.92,0,0,0,.67,2,2.49,2.49,0,0,0,1.9.85A2.52,2.52,0,0,0,61.08,48a2.85,2.85,0,0,0,.71-2V39.68A2.82,2.82,0,0,0,61.26,38a2.59,2.59,0,0,0,.53-1.6,2.48,2.48,0,0,0-.87-1.94,2.63,2.63,0,0,0-1.7-.61Z"/><path d="M53,47.29a1.6,1.6,0,0,1-1.22-.52,2,2,0,0,1-.47-1.42v-8H49.19A1.81,1.81,0,0,1,48,37a1.5,1.5,0,0,1,0-2.17,1.81,1.81,0,0,1,1.21-.38h7.5a1.79,1.79,0,0,1,1.25.4,1.49,1.49,0,0,1,0,2.16,1.88,1.88,0,0,1-1.24.39H54.62v8a2.06,2.06,0,0,1-.46,1.43A1.62,1.62,0,0,1,53,47.29Z"/><path d="M56.69,34.94a1.32,1.32,0,0,1,.91.27.91.91,0,0,1,.3.71.89.89,0,0,1-.3.7,1.32,1.32,0,0,1-.91.27H54.12v8.46a1.56,1.56,0,0,1-.33,1.09,1.2,1.2,0,0,1-1.7,0,1.52,1.52,0,0,1-.33-1.08V36.89H49.19a1.31,1.31,0,0,1-.9-.27.89.89,0,0,1-.29-.7.91.91,0,0,1,.3-.72,1.37,1.37,0,0,1,.89-.26h7.5m0-1h-7.5a2.32,2.32,0,0,0-1.54.5,2,2,0,0,0,0,2.92,2.24,2.24,0,0,0,1.57.53h1.57v7.46a2.49,2.49,0,0,0,.6,1.76,2.2,2.2,0,0,0,3.17,0,2.54,2.54,0,0,0,.59-1.77V37.89h1.57a2.32,2.32,0,0,0,1.57-.52,1.87,1.87,0,0,0,.64-1.45,1.9,1.9,0,0,0-.63-1.45,2.27,2.27,0,0,0-1.58-.53Z"/><path class="cls-7" d="M51.75,48a1.84,1.84,0,0,1-1.41-.6,2.26,2.26,0,0,1-.53-1.59V38.12H48a2.06,2.06,0,0,1-1.41-.46,1.74,1.74,0,0,1,0-2.55A2.08,2.08,0,0,1,48,34.67h7.5a2.06,2.06,0,0,1,1.41.46,1.68,1.68,0,0,1,.55,1.27,1.62,1.62,0,0,1-.56,1.26,2.05,2.05,0,0,1-1.4.46H53.66v7.71a2.28,2.28,0,0,1-.52,1.6A1.84,1.84,0,0,1,51.75,48Z"/><path class="cls-4" d="M55.49,35.42a1.32,1.32,0,0,1,.91.27.91.91,0,0,1,.3.71.89.89,0,0,1-.3.7,1.35,1.35,0,0,1-.91.27H52.91v8.46a1.61,1.61,0,0,1-.32,1.09,1.08,1.08,0,0,1-.84.35,1.15,1.15,0,0,1-.86-.35,1.56,1.56,0,0,1-.33-1.09V37.37H48a1.26,1.26,0,0,1-.89-.27,1,1,0,0,1,0-1.42,1.34,1.34,0,0,1,.88-.26h7.51m0-1.5H48a2.78,2.78,0,0,0-1.86.62,2.42,2.42,0,0,0-.83,1.86,2.4,2.4,0,0,0,.79,1.81,2.71,2.71,0,0,0,1.9.66h1.08v7a3,3,0,0,0,.73,2.1,2.69,2.69,0,0,0,3.9,0,3,3,0,0,0,.72-2.11v-7h1.08a2.8,2.8,0,0,0,1.9-.64,2.48,2.48,0,0,0,0-3.65,2.76,2.76,0,0,0-1.92-.66Z"/></g></g></svg>