<svg xmlns="http://www.w3.org/2000/svg" xmlns:xlink="http://www.w3.org/1999/xlink" viewBox="0 0 230.07 53.19"><defs><style>.cls-1{fill:url(#linear-gradient);}.cls-2,.cls-9{fill:#231f20;}.cls-3{fill:#4f3d2e;}.cls-4,.cls-7{fill:#fff3d8;}.cls-5{fill:#a47c4f;}.cls-6{fill:#e5c286;}.cls-7{opacity:0.5;}.cls-8{fill:#fff;}.cls-9{opacity:0.3;}</style><linearGradient id="linear-gradient" x1="0.6" y1="26.45" x2="54.06" y2="26.45" gradientUnits="userSpaceOnUse"><stop offset="0" stop-color="#fff"/><stop offset="1"/></linearGradient></defs><g id="Layer_2" data-name="Layer 2"><g id="Layer_3" data-name="Layer 3"><path class="cls-1" d="M29.16,52.28a1.41,1.41,0,0,1-.53-.15,1.7,1.7,0,0,1-.71-.6,2.09,2.09,0,0,1-.64.24H27a1.52,1.52,0,0,1-.8-.22,1.71,1.71,0,0,1-.83-1.18H25.1l-.34,0a1.69,1.69,0,0,1-.48-.15,1.48,1.48,0,0,1-.79-1,1.55,1.55,0,0,1,.12-1,3.89,3.89,0,0,1,1.54-1.55l-.55-2.5H23.35l-.35,0-.66,0L22,44c-.24,0-.47,0-.7-.09L21,43.9c-.35-.06-.7-.13-1-.22l-.59-.18-.44,2.72c.17.17.33.34.47.51,1,1.14.83,1.92.54,2.36a1.62,1.62,0,0,1-1.15.7l-.25,0-.18-.59.05.59h-.13a2.37,2.37,0,0,1-.22.71,1.55,1.55,0,0,1-.3.4l-.07.07-.15.07a1.31,1.31,0,0,1-.81.26,1.36,1.36,0,0,1-.29,0,.66.66,0,0,1-.2-.06,2,2,0,0,1-.65-.35,1.27,1.27,0,0,1-.25.22,1.53,1.53,0,0,1-.46.23l-.06,0-.11,0a.88.88,0,0,1-.22,0h-.14a1.75,1.75,0,0,1-.33-.05l-.08,0-.16-.08a1.92,1.92,0,0,1-1-.93,1.73,1.73,0,0,1-.62.2l-.23,0a1.54,1.54,0,0,1-1-.36l-.07-.06-.1-.13a2,2,0,0,1-.51-1.16c0-.14,0-.28,0-.41a2.29,2.29,0,0,1-1.31-.39l-.08,0,0,0a1.41,1.41,0,0,1-.45-1.22,3.34,3.34,0,0,1,1.84-2.17c0-.36.1-.87.19-1.45a31.73,31.73,0,0,1,.72-3.5C4.6,35.68.42,20.45.61,16.5c.13-2.8,1.28-5,2.92-5.63a2.78,2.78,0,0,1,1-.18A3.59,3.59,0,0,1,7.08,12c.92,1,1.27,1,1.28,1a7.8,7.8,0,0,0,1.09-2.46C10.59,7.24,12.29,2.36,16,2.36h.12c2.71.09,3,2.15,3.21,3.13,0,.15.06.32.09.48.33-.24.77-.62,1-.84A16.36,16.36,0,0,1,28.25.88,14.92,14.92,0,0,1,30.87.6a3.83,3.83,0,0,1,2.65.79c1.07,1,1,2.39.92,3.91,0,.23,0,.47,0,.72-.06,1.65,0,2.83.4,3.27a1.48,1.48,0,0,0,1.06.29H36c.43,0,.93,0,1.47,0,.82,0,1.6-.08,2.36-.08,1.35,0,5,0,5.27,2.62.36,2.82-.47,4.14-3.3,7-.89.88-.93,1.34-.91,1.5.1.68,1.77,1.59,2.88,2.19a4.18,4.18,0,0,1,2.33,3.73,5.22,5.22,0,0,1-.06.66l.3.2.29.19a4.51,4.51,0,0,0,2.59.94,5.62,5.62,0,0,0,1.4-.22l.38-.11a4.31,4.31,0,0,1,1.19-.21,1.93,1.93,0,0,1,1.2.4,2.06,2.06,0,0,1,.64,2,3.47,3.47,0,0,1-.2.8,4.33,4.33,0,0,1-.32.65,4.76,4.76,0,0,1-.47.7,6.37,6.37,0,0,1-.65.71,7.17,7.17,0,0,1-.83.67,8.45,8.45,0,0,1-1,.6,8.35,8.35,0,0,1-1.21.47,9.6,9.6,0,0,1-1.42.32c-.29,0-.57.07-.86.09,0,0,.19.81.24,1.05l.21,1.13.07.48c0,.25.09.52.13.8l.08.56c0,.28.18,1.52.18,1.52,0,.31.06.65.09,1l.07.68c0,.32,0,.66.07,1l.05.85c0,.53.06,1.09.08,1.66v.09c1,.89,1.25,1.92.76,2.73l0,.06-.13.16a1.86,1.86,0,0,1-1.36.64,1.56,1.56,0,0,1-.77,1.15,1.5,1.5,0,0,1-.76.21,1.41,1.41,0,0,1-.45-.07,1.51,1.51,0,0,1-.23.26,1.47,1.47,0,0,1-.47.27l-.07,0-.13,0-.23,0h-.22a2.58,2.58,0,0,1-.45-.1,1.83,1.83,0,0,1-.39-.21,1.54,1.54,0,0,1-.7.17,1.58,1.58,0,0,1-.52-.09,1.7,1.7,0,0,1-.71-.47,1.66,1.66,0,0,1-.32-.43l0-.08-.22,0h-.22a1.86,1.86,0,0,1-.73-.13,1.38,1.38,0,0,1-.39-.25l0,0-.16-.15-.06-.12a.9.9,0,0,1-.2-.35c-.18-.55-.15-1.41,1-2.41l.23-.19v0a10.71,10.71,0,0,0-1-3.12l-.1-.19a9,9,0,0,1-1.3.38l-.14,0c-.29.07-.57.12-.87.17l-.32,0-.49.06-.27,1.76a2.18,2.18,0,0,1,1.3,1.87,1.67,1.67,0,0,1-.09.42,1.54,1.54,0,0,1-.44.67,2.17,2.17,0,0,1-1.27.45,1.85,1.85,0,0,1-1,1,1.36,1.36,0,0,1-.5.12h-.24l-.22,0a2,2,0,0,1-.33,1.11l-.07.1h0a1.48,1.48,0,0,1-1.08.51h-.08l-.17,0a2,2,0,0,1-1.12-.5,2.07,2.07,0,0,1-.21.21l-.05,0-.12.07a2,2,0,0,1-.33.18l-.07,0-.16,0-.28,0h-.25Z"/><path class="cls-2" d="M30.87,1.2a3.29,3.29,0,0,1,2.25.64c.86.76.79,2,.72,3.43,0,.23,0,.48,0,.72-.07,1.9,0,3.12.56,3.71a2,2,0,0,0,1.5.48H36c.45,0,1,0,1.57,0,.73,0,1.5-.07,2.25-.07,2.31,0,4.46.34,4.68,2.1.32,2.58-.42,3.76-3.13,6.45-.8.79-1.16,1.47-1.08,2,.13.91,1.46,1.7,3.18,2.64a3.57,3.57,0,0,1,2,3.2,4.45,4.45,0,0,1-.14.94c.16.09.33.21.49.32s.29.17.44.28a5,5,0,0,0,2.93,1.05,5.59,5.59,0,0,0,1.55-.25l.27-.07.12,0a4,4,0,0,1,1-.19,1.26,1.26,0,0,1,.82.27,1.47,1.47,0,0,1,.43,1.42,3,3,0,0,1-.18.68h0a2.9,2.9,0,0,1-.27.57v0a4.27,4.27,0,0,1-.41.6l0,0a5.18,5.18,0,0,1-.56.6l0,0a7,7,0,0,1-.72.58l0,0a6.93,6.93,0,0,1-.89.52l-.05,0a7.59,7.59,0,0,1-1.08.42h0a7.89,7.89,0,0,1-1.27.28h0a11.67,11.67,0,0,1-1.5.1h0l0,.13c.06.2.11.42.17.66l.06.28c.05.22.1.44.15.68s0,.25.07.38.09.48.13.74.06.3.08.46.08.52.12.8.06.36.08.55.07.57.11.87.05.41.07.63.07.65.1,1l.06.68c0,.37,0,.77.08,1.16,0,.23,0,.44,0,.68,0,.52.05,1.07.07,1.64,0,.12,0,.23,0,.35.7.58,1.27,1.42.84,2.15,0,0,0,0,0,0l-.09.09a1.36,1.36,0,0,1-1.11.46,2.69,2.69,0,0,1-.4,0,1.28,1.28,0,0,1,0,.19,1.07,1.07,0,0,1-.49,1.07,1,1,0,0,1-.46.12.79.79,0,0,1-.3-.05,1.51,1.51,0,0,1-.17-.1,1.32,1.32,0,0,1-.2-.12,2.55,2.55,0,0,1-.17.33v0a1.79,1.79,0,0,1-.22.25,1,1,0,0,1-.29.17l-.1,0a1.55,1.55,0,0,1-.21,0h-.12A1.83,1.83,0,0,1,44,51a1.18,1.18,0,0,1-.54-.44,1.27,1.27,0,0,1-.25.21,1,1,0,0,1-.51.15,1,1,0,0,1-.33-.06,1.08,1.08,0,0,1-.47-.31,1.21,1.21,0,0,1-.21-.28L41.62,50a2.5,2.5,0,0,1,0-.29s0,0,0-.06a3.53,3.53,0,0,1-.72.14h-.18a1.16,1.16,0,0,1-.49-.09.68.68,0,0,1-.26-.18l0,0s0,0,0-.06a.84.84,0,0,1-.15-.26c-.22-.66.32-1.3.85-1.75.18-.15.35-.27.49-.37s0-.24,0-.39a11.19,11.19,0,0,0-1-3.31l0-.09a4.73,4.73,0,0,0-.28-.44.83.83,0,0,0-.07-.13,9.62,9.62,0,0,1-1.67.55l-.15,0-.82.16-.32,0-.79.1h-.13v0l-.39,2.61c.55.25,1.37.76,1.35,1.51a1.11,1.11,0,0,1-.07.26.82.82,0,0,1-.25.39,1.94,1.94,0,0,1-1.21.32H35a1.53,1.53,0,0,1-.77,1.09,1.2,1.2,0,0,1-.36.08h-.07a1.4,1.4,0,0,1-.8-.33h0a1.15,1.15,0,0,1-.17.06,2.23,2.23,0,0,1-.14,1.6h0a.86.86,0,0,1-.68.36h0l-.11,0a2,2,0,0,1-1.24-.75l-.07-.08,0,.07a2.16,2.16,0,0,1-.18.3l-.09.09a1.21,1.21,0,0,1-.19.2.47.47,0,0,1-.12.07.63.63,0,0,1-.21.12.8.8,0,0,1-.15,0,.93.93,0,0,1-.23,0h-.12a1.15,1.15,0,0,1-.33-.1,1.46,1.46,0,0,1-.74-1,1.92,1.92,0,0,1-1,.57H27a.91.91,0,0,1-.48-.14,1.17,1.17,0,0,1-.57-1h0a2.26,2.26,0,0,1,0-.37h-.05a3.09,3.09,0,0,1-.79.12,1.06,1.06,0,0,1-.25,0,.85.85,0,0,1-.31-.09.89.89,0,0,1-.47-.61,1,1,0,0,1,.08-.65,3.92,3.92,0,0,1,1.69-1.49l-.76-3.42H23.31l-.33,0-.58,0-.35,0-.67-.09-.31,0a8.29,8.29,0,0,1-1-.21c-.28-.07-.53-.15-.77-.23l-.22-.08-.24-.09-.61,3.74a6,6,0,0,1,.66.67c.5.58.8,1.19.5,1.66a1.08,1.08,0,0,1-.75.43h-.59a2.22,2.22,0,0,1-.37,0,2.4,2.4,0,0,1-.2,1.07,1.14,1.14,0,0,1-.18.25l-.1,0a.82.82,0,0,1-.52.18h-.18l-.15,0a1.64,1.64,0,0,1-.48-.27,3.13,3.13,0,0,1-.42-.47,1.64,1.64,0,0,1-.51.69.89.89,0,0,1-.29.15h-.08a.78.78,0,0,1-.21,0h0l-.22,0s-.09,0-.14-.06a1.69,1.69,0,0,1-.93-1.35A2.07,2.07,0,0,1,12,50h-.15a.94.94,0,0,1-.6-.22.61.61,0,0,1-.07-.1,1.43,1.43,0,0,1-.39-.86,3.39,3.39,0,0,1,0-1l-.48,0a1.92,1.92,0,0,1-1.13-.27l-.07,0h0a.8.8,0,0,1-.26-.7C9,46,10.14,45.28,10.74,45c0-.34.11-1,.23-1.73a26.35,26.35,0,0,1,.83-3.87C5.21,35.89,1,20.27,1.21,16.53,1.32,14,2.35,12,3.74,11.43a2,2,0,0,1,.77-.14,3,3,0,0,1,2.14,1.08c.92.94,1.43,1.17,1.71,1.17h.09C9,13.41,9.53,12.09,10,10.68,11.1,7.59,12.71,3,16,3h.11c2.21.07,2.46,1.61,2.63,2.63.09.53.17,1,.43,1.16h0c.29,0,1.1-.71,1.72-1.23a15.6,15.6,0,0,1,7.47-4.06,14.46,14.46,0,0,1,2.51-.27m0-1.2V0a15.11,15.11,0,0,0-2.72.29,16.79,16.79,0,0,0-8,4.32L20,4.67l-.23.2a3.59,3.59,0,0,0-3.68-3.11H16c-4.12,0-5.9,5.12-7.08,8.51a16.84,16.84,0,0,1-.75,1.86,6,6,0,0,1-.64-.6,4.16,4.16,0,0,0-3-1.44,3.51,3.51,0,0,0-1.19.21C1.45,11,.15,13.43,0,16.47c-.2,4.08,3.83,19,10.39,23.44-.23.91-.44,2-.62,3.14-.07.46-.12.86-.16,1.18a3.69,3.69,0,0,0-1.88,2.46,2,2,0,0,0,.64,1.73l.13.11.12.07a2.74,2.74,0,0,0,1,.38,2.64,2.64,0,0,0,.63,1.42,1.35,1.35,0,0,0,.24.26,2.1,2.1,0,0,0,1.37.5l.31,0,.31-.07a2.39,2.39,0,0,0,1,.75,1.49,1.49,0,0,0,.36.14,1.74,1.74,0,0,0,.39,0h.24a2,2,0,0,0,.31,0h.07l.17-.05a2.23,2.23,0,0,0,.56-.27,3.2,3.2,0,0,0,.39.16,1.32,1.32,0,0,0,.3.09,1.84,1.84,0,0,0,.41,0,2.1,2.1,0,0,0,1.15-.35,1.61,1.61,0,0,0,.3-.22,2.13,2.13,0,0,0,.41-.55c.06-.13.12-.27.17-.41l.14,0a2.21,2.21,0,0,0,1.54-1c.33-.5.7-1.58-.58-3.08L19.53,46l.28-1.74c.32.08.66.16,1.05.23l.24,0,.1,0,.72.09.38,0,.62,0h1.2l.36,1.62a3.9,3.9,0,0,0-1.42,1.57,2.21,2.21,0,0,0-.16,1.38A2.07,2.07,0,0,0,24,50.76a2.32,2.32,0,0,0,.66.21l.26,0a2.35,2.35,0,0,0,1,1.09,2.2,2.2,0,0,0,1.06.3h.11a1.55,1.55,0,0,0,.31,0h.1a1.57,1.57,0,0,0,.29-.08,2.34,2.34,0,0,0,.62.42,2.11,2.11,0,0,0,.71.2h.39l.31-.06a1.22,1.22,0,0,0,.34-.08,2,2,0,0,0,.42-.22l.12-.08a2.48,2.48,0,0,0,1,.34,1.85,1.85,0,0,0,.29,0H32a2.09,2.09,0,0,0,1.47-.67l0,0,.12-.18a2.18,2.18,0,0,0,.36-.82,2.06,2.06,0,0,0,.67-.17,2.29,2.29,0,0,0,1.13-1.05,2.59,2.59,0,0,0,1.26-.54,2.13,2.13,0,0,0,.61-.92,1.87,1.87,0,0,0,.13-.61,2.55,2.55,0,0,0-1.25-2.18l.14-.93h.11l.28,0c.3,0,.6-.1.89-.17l.16,0c.3-.07.59-.15.86-.24a10.4,10.4,0,0,1,.71,2.36c-1.49,1.27-1.39,2.44-1.19,3a2.44,2.44,0,0,0,.28.54,2.22,2.22,0,0,0,.17.22l.13.13.08,0a2,2,0,0,0,.51.32,2.49,2.49,0,0,0,1,.18h.12a3.07,3.07,0,0,0,.24.29A2.41,2.41,0,0,0,42,52a2.1,2.1,0,0,0,.7.12,2.38,2.38,0,0,0,.65-.1l.23.1a2.83,2.83,0,0,0,.52.13h.43a2.5,2.5,0,0,0,.28-.05,1.26,1.26,0,0,0,.28-.07,2.22,2.22,0,0,0,.65-.38l.07-.06H46a2.16,2.16,0,0,0,2-1.42,2.39,2.39,0,0,0,1.32-.77,1.33,1.33,0,0,0,.22-.27l.07-.11,0,0a2.7,2.7,0,0,0-.75-3.21c0-.52-.05-1-.08-1.51a3,3,0,0,0,0-.44v-.31c0-.38,0-.76-.08-1.11,0-.18,0-.34,0-.5l0-.2c0-.35-.06-.68-.1-1s0-.34,0-.5l0-.14c0-.3-.07-.6-.11-.89s0-.38-.08-.57-.08-.55-.12-.81-.06-.32-.08-.48-.09-.51-.14-.76l-.08-.38c0-.14,0-.28-.08-.41l.17,0a9.81,9.81,0,0,0,1.48-.33h.06A10.65,10.65,0,0,0,50.74,35l.06,0a7.6,7.6,0,0,0,1.05-.61h0l0,0a6.83,6.83,0,0,0,.86-.69h0l0,0a7.4,7.4,0,0,0,.67-.73l0,0,0,0a6.24,6.24,0,0,0,.5-.72v0l0,0a5,5,0,0,0,.34-.7,5.41,5.41,0,0,0,.24-.94,2.64,2.64,0,0,0-.87-2.53,2.5,2.5,0,0,0-1.57-.53,5.45,5.45,0,0,0-1.36.23l0,0-.08,0-.16,0-.09,0a4.71,4.71,0,0,1-1.24.2A3.85,3.85,0,0,1,47,27a2.61,2.61,0,0,0-.3-.2c0-.12,0-.24,0-.35a4.75,4.75,0,0,0-2.65-4.27c-.66-.36-2.4-1.31-2.57-1.76h0a2.87,2.87,0,0,1,.75-1C45,16.75,46.1,15.23,45.7,12s-4.37-3.15-5.87-3.15c-.78,0-1.59,0-2.31.07h-.08c-.53,0-1,0-1.43,0h-.14a1.15,1.15,0,0,1-.64-.11C35,8.65,34.94,7.69,35,6q0-.35,0-.66c.09-1.64.18-3.29-1.12-4.43a4.38,4.38,0,0,0-3-.95Z"/><path class="cls-3" d="M34.54,47.06a2.71,2.71,0,0,1,1.05.64,2.59,2.59,0,0,1-1,0,.5.5,0,0,0-.38.1.52.52,0,0,0-.19.36,1.52,1.52,0,0,1-.23.74.38.38,0,0,1-.17-.08.14.14,0,0,0,0-.06c.21-.81-.73-1.36-1.38-1.65a32.56,32.56,0,0,0,.56-3.42q.93,0,1.77,0l-.42,2.82A.5.5,0,0,0,34.54,47.06Z"/><path class="cls-4" d="M52.33,30.52C51.85,31.78,50,33.8,46,33.71a10.1,10.1,0,0,0-.63-1.61.51.51,0,1,0-.88.5s1.91,3.53,2.26,14.06a.5.5,0,0,0,.2.39c.48.35.84.85.77,1s-.77.09-1.33-.14a.51.51,0,0,0-.57.13.5.5,0,0,0-.07.57,1.91,1.91,0,0,1,.25.85,2.05,2.05,0,0,1-.44-.69.5.5,0,0,0-.55-.3.49.49,0,0,0-.41.47,3.34,3.34,0,0,1-.23,1.1c-.14,0-.32-.54-.33-1a.49.49,0,0,0-.47-.48A.52.52,0,0,0,43,49a1.63,1.63,0,0,1-.37.91c-.06,0-.07,0-.08-.06a1.23,1.23,0,0,1,.08-.72.51.51,0,0,0-.13-.55.5.5,0,0,0-.56-.09,4,4,0,0,1-1.35.4,3.46,3.46,0,0,1,1.17-1.06.51.51,0,0,0,.25-.47,12,12,0,0,0-1.62-5,5,5,0,0,0,.82-.66,2.61,2.61,0,0,0,.81-1.93.49.49,0,0,0-.53-.45.49.49,0,0,0-.46.53,1.76,1.76,0,0,1-.59,1.2c-.83.85-2.8,1.82-7.49,1.76.11-1,.18-1.8.19-1.88a.5.5,0,1,0-1-.09,43.36,43.36,0,0,1-1,6.52.48.48,0,0,0,0,.39.47.47,0,0,0,.29.26,3.24,3.24,0,0,1,1.19.63c0,.2-.45.14-.45.14a.47.47,0,0,0-.46.16.5.5,0,0,0-.11.48,3.63,3.63,0,0,1,.19,1.28,2.83,2.83,0,0,1-1.07-1.24.5.5,0,0,0-.53-.26.49.49,0,0,0-.41.41c-.09.54-.36,1.18-.56,1.17h0c-.17,0-.34-.72-.3-1.35a.5.5,0,0,0-.36-.5.49.49,0,0,0-.57.22c-.38.63-.9,1.13-1.06,1.13s0-.75.14-1.13a.49.49,0,0,0-.09-.57.5.5,0,0,0-.57-.1,4.36,4.36,0,0,1-1.43.42,3.94,3.94,0,0,1,1.55-1.14.5.5,0,0,0,.28-.56L25.76,42a.5.5,0,0,0-1,.21l.08.34a16.33,16.33,0,0,1-4.52-.4c-2-.53-2.46-1.14-2.49-1.18a.5.5,0,0,0-.89.47,2.33,2.33,0,0,0,.95.83l-.7,4.3a.5.5,0,0,0,.17.46,5.73,5.73,0,0,1,1.09,1.2,3.63,3.63,0,0,1-1.21-.15.48.48,0,0,0-.47.11.48.48,0,0,0-.16.45,3.31,3.31,0,0,1,0,1.09,2.81,2.81,0,0,1-.86-1.41.51.51,0,0,0-.53-.36.51.51,0,0,0-.45.46c-.05.63-.27,1.34-.45,1.41s-.42-1-.38-1.66a.51.51,0,0,0-.33-.51.52.52,0,0,0-.58.19A3.53,3.53,0,0,1,11.93,49c-.21-.18-.12-1,.1-1.6a.51.51,0,0,0-.58-.66,4.78,4.78,0,0,1-1.47.11,4.16,4.16,0,0,1,1.45-1.09.53.53,0,0,0,.28-.4c.15-1.56.76-5.92,1.75-7.32a.48.48,0,0,0,.08-.16c4.25-15.77,26.67-11,26.89-10.93a.53.53,0,0,0,.25,0s1.75-.42,5,1.9a5.84,5.84,0,0,0,5.6.88c.49-.14.92-.26,1.08-.13S52.55,29.94,52.33,30.52Z"/><path class="cls-5" d="M45.15,32.83s5.34.08,6.08-.78a5.73,5.73,0,0,1-5.58,2.16Z"/><path class="cls-5" d="M17.82,42.05s-.93,4.09-2.61,3.79S14,40.06,14,40.06s1.15-9.71,6.36-10.54,20-3.12,21.49-.26,4.63,12.45,4,15.85-3,1.93-3.29.66a32.3,32.3,0,0,0-1.76-4.44s3.15-4.65-.23-5.15-8.51,1.63-8.71,5.39-1.41,5.74-2.95,5.78-3.43-4.84-3.39-6.18S14.33,37.47,17.82,42.05Z"/><path class="cls-4" d="M53,28.78c-.56-.44-1.25-.25-2-.05A4.81,4.81,0,0,1,46.29,28c-3.23-2.28-5.21-2.17-5.74-2.08-1.73-.35-23.56-4.43-28,11.59-1.16,1.75-1.72,6.28-1.85,7.45-.6.32-1.71,1-1.81,1.87a.8.8,0,0,0,.26.7,2.35,2.35,0,0,0,1.68.29,2,2,0,0,0,.42,1.92A.92.92,0,0,0,12,50a2.07,2.07,0,0,0,1-.57,1.62,1.62,0,0,0,1.07,1.41l.22,0a1,1,0,0,0,.61-.2,1.64,1.64,0,0,0,.51-.69,1.83,1.83,0,0,0,1.05.79.88.88,0,0,0,.8-.22,1.9,1.9,0,0,0,.38-1.32c.62.09,1.38.09,1.71-.41.43-.66-.34-1.6-1.16-2.33l.61-3.74a10.51,10.51,0,0,0,1.23.4,14.77,14.77,0,0,0,3.41.44c.7,0,1.26,0,1.59,0l.76,3.42c-.74.4-2,1.21-1.77,2.14a.89.89,0,0,0,.47.61,2.17,2.17,0,0,0,1.4,0,1.3,1.3,0,0,0,.56,1.38c.35.21.9.29,1.64-.44a1.32,1.32,0,0,0,1.07,1.08h.1a1.38,1.38,0,0,0,1.23-.92,1.92,1.92,0,0,0,1.45.85.86.86,0,0,0,.69-.37,2.23,2.23,0,0,0,.14-1.6,1.15,1.15,0,0,0,.17-.06,1.5,1.5,0,0,0,.83.34,1,1,0,0,0,.4-.08A1.53,1.53,0,0,0,35,48.76h0a2.07,2.07,0,0,0,1.31-.32.89.89,0,0,0,.32-.65c0-.75-.8-1.26-1.35-1.51l.4-2.65a12.41,12.41,0,0,0,3.88-.89A10.38,10.38,0,0,1,41,47.1c-.6.41-1.63,1.26-1.34,2.12a.87.87,0,0,0,.5.53,2.16,2.16,0,0,0,1.39-.06,1.45,1.45,0,0,0,.12.53,1.11,1.11,0,0,0,.68.59,1,1,0,0,0,.84-.09,1.27,1.27,0,0,0,.25-.21,1.15,1.15,0,0,0,.79.5h.1a.91.91,0,0,0,.62-.22,1.51,1.51,0,0,0,.4-.6,1.07,1.07,0,0,0,.37.22.92.92,0,0,0,.76-.07A1.15,1.15,0,0,0,47,49.08a1.52,1.52,0,0,0,1.6-.52c.45-.73-.13-1.59-.83-2.17a53.64,53.64,0,0,0-1.45-11.67c4.33,0,6.42-2.37,7-3.84A1.79,1.79,0,0,0,53,28.78ZM34.54,47.06a2.71,2.71,0,0,1,1.05.64,2.59,2.59,0,0,1-1,0,.5.5,0,0,0-.38.1.52.52,0,0,0-.19.36,1.52,1.52,0,0,1-.23.74.38.38,0,0,1-.17-.08.14.14,0,0,0,0-.06c.21-.81-.73-1.36-1.38-1.65a32.56,32.56,0,0,0,.56-3.42q.93,0,1.77,0l-.42,2.82A.5.5,0,0,0,34.54,47.06ZM52.33,30.52C51.85,31.78,50,33.8,46,33.71a10.1,10.1,0,0,0-.63-1.61.51.51,0,1,0-.88.5s1.91,3.53,2.26,14.06a.5.5,0,0,0,.2.39c.48.35.84.85.77,1s-.77.09-1.33-.14a.51.51,0,0,0-.57.13.5.5,0,0,0-.07.57,1.91,1.91,0,0,1,.25.85,2.05,2.05,0,0,1-.44-.69.5.5,0,0,0-.55-.3.49.49,0,0,0-.41.47,3.34,3.34,0,0,1-.23,1.1c-.14,0-.32-.54-.33-1a.49.49,0,0,0-.47-.48A.52.52,0,0,0,43,49a1.63,1.63,0,0,1-.37.91c-.06,0-.07,0-.08-.06a1.23,1.23,0,0,1,.08-.72.51.51,0,0,0-.13-.55.5.5,0,0,0-.56-.09,4,4,0,0,1-1.35.4,3.46,3.46,0,0,1,1.17-1.06.51.51,0,0,0,.25-.47,12,12,0,0,0-1.62-5,5,5,0,0,0,.82-.66,2.61,2.61,0,0,0,.81-1.93.49.49,0,0,0-.53-.45.49.49,0,0,0-.46.53,1.76,1.76,0,0,1-.59,1.2c-.83.85-2.8,1.82-7.49,1.76.11-1,.18-1.8.19-1.88a.5.5,0,1,0-1-.09,43.36,43.36,0,0,1-1,6.52.48.48,0,0,0,0,.39.47.47,0,0,0,.29.26,3.24,3.24,0,0,1,1.19.63c0,.2-.45.14-.45.14a.47.47,0,0,0-.46.16.5.5,0,0,0-.11.48,3.63,3.63,0,0,1,.19,1.28,2.83,2.83,0,0,1-1.07-1.24.5.5,0,0,0-.53-.26.49.49,0,0,0-.41.41c-.09.54-.36,1.18-.56,1.17h0c-.17,0-.34-.72-.3-1.35a.5.5,0,0,0-.36-.5.49.49,0,0,0-.57.22c-.38.63-.9,1.13-1.06,1.13s0-.75.14-1.13a.49.49,0,0,0-.09-.57.5.5,0,0,0-.57-.1,4.36,4.36,0,0,1-1.43.42,3.94,3.94,0,0,1,1.55-1.14.5.5,0,0,0,.28-.56L25.76,42a.5.5,0,0,0-1,.21l.08.34a16.33,16.33,0,0,1-4.52-.4c-2-.53-2.46-1.14-2.49-1.18a.5.5,0,0,0-.89.47,2.33,2.33,0,0,0,.95.83l-.7,4.3a.5.5,0,0,0,.17.46,5.73,5.73,0,0,1,1.09,1.2,3.63,3.63,0,0,1-1.21-.15.48.48,0,0,0-.47.11.48.48,0,0,0-.16.45,3.31,3.31,0,0,1,0,1.09,2.81,2.81,0,0,1-.86-1.41.51.51,0,0,0-.53-.36.51.51,0,0,0-.45.46c-.05.63-.27,1.34-.45,1.41s-.42-1-.38-1.66a.51.51,0,0,0-.33-.51.52.52,0,0,0-.58.19A3.53,3.53,0,0,1,11.93,49c-.21-.18-.12-1,.1-1.6a.51.51,0,0,0-.58-.66,4.78,4.78,0,0,1-1.47.11,4.16,4.16,0,0,1,1.45-1.09.53.53,0,0,0,.28-.4c.15-1.56.76-5.92,1.75-7.32a.48.48,0,0,0,.08-.16c4.25-15.77,26.67-11,26.89-10.93a.53.53,0,0,0,.25,0s1.75-.42,5,1.9a5.84,5.84,0,0,0,5.6.88c.49-.14.92-.26,1.08-.13S52.55,29.94,52.33,30.52Z"/><path class="cls-2" d="M14.37,50.82a1.07,1.07,0,0,1-.25,0,1.62,1.62,0,0,1-1.07-1.41A2.07,2.07,0,0,1,12,50a1,1,0,0,1-.75-.21,2,2,0,0,1-.42-1.92,2.35,2.35,0,0,1-1.68-.29.8.8,0,0,1-.26-.7C9,46,10.14,45.28,10.74,45c.13-1.17.69-5.7,1.85-7.45,4.4-16,26.23-11.94,28-11.59.53-.09,2.51-.2,5.74,2.08a4.81,4.81,0,0,0,4.75.73c.72-.2,1.41-.4,2,.05a1.81,1.81,0,0,1,.24,2.1c-.58,1.54-2.85,4.08-7.63,3.83a.51.51,0,0,1-.48-.53.5.5,0,0,1,.53-.47c4.22.24,6.16-1.9,6.65-3.19.22-.58.12-.9.06-.95s-.59,0-1.08.13a5.84,5.84,0,0,1-5.6-.88c-3.28-2.32-5-1.91-5-1.9a.49.49,0,0,1-.24,0c-.23,0-22.65-4.84-26.9,10.93a.48.48,0,0,1-.08.16c-1,1.4-1.6,5.76-1.75,7.32a.53.53,0,0,1-.28.4A4.16,4.16,0,0,0,10,46.82a4.76,4.76,0,0,0,1.47-.11.51.51,0,0,1,.58.66c-.22.61-.31,1.42-.1,1.6a3.53,3.53,0,0,0,1.13-1.14.52.52,0,0,1,.58-.19.51.51,0,0,1,.33.51c0,.72.11,1.6.38,1.66a2.36,2.36,0,0,0,.45-1.41.51.51,0,0,1,.45-.46.5.5,0,0,1,.53.35,2.8,2.8,0,0,0,.86,1.42,3.31,3.31,0,0,0,0-1.09.48.48,0,0,1,.16-.45.48.48,0,0,1,.47-.11,3.63,3.63,0,0,0,1.21.15A5.73,5.73,0,0,0,17.38,47a.5.5,0,0,1-.17-.46L18,41.9a.5.5,0,0,1,.58-.41.49.49,0,0,1,.41.57l-.71,4.38c.82.73,1.59,1.67,1.16,2.33-.33.5-1.09.5-1.71.41a1.9,1.9,0,0,1-.38,1.32.88.88,0,0,1-.8.22,1.83,1.83,0,0,1-1.05-.79,1.64,1.64,0,0,1-.51.69A1,1,0,0,1,14.37,50.82Z"/><path class="cls-2" d="M44.36,51h-.12a1.13,1.13,0,0,1-.79-.51,1,1,0,0,1-.25.22,1,1,0,0,1-.84.09,1.11,1.11,0,0,1-.68-.59,1.45,1.45,0,0,1-.12-.53,2.16,2.16,0,0,1-1.39.06.87.87,0,0,1-.5-.53c-.29-.86.74-1.71,1.34-2.12a10.31,10.31,0,0,0-1.47-4.37.5.5,0,0,1,.12-.7.49.49,0,0,1,.69.12,11.74,11.74,0,0,1,1.7,5.16.51.51,0,0,1-.25.47,3.46,3.46,0,0,0-1.17,1.06,3.64,3.64,0,0,0,1.35-.4.5.5,0,0,1,.56.09.51.51,0,0,1,.13.55,1.23,1.23,0,0,0-.08.72s0,0,.08.06A1.63,1.63,0,0,0,43,49,.5.5,0,0,1,44,49c0,.46.19,1,.33,1a3.1,3.1,0,0,0,.23-1.1.49.49,0,0,1,.41-.47.48.48,0,0,1,.55.3,2.05,2.05,0,0,0,.44.69,1.91,1.91,0,0,0-.25-.85.5.5,0,0,1,.07-.57.51.51,0,0,1,.57-.13c.55.22,1.23.3,1.33.14s-.29-.62-.77-1a.5.5,0,0,1-.2-.39c-.35-10.54-2.24-14-2.26-14.06a.51.51,0,1,1,.88-.5c.08.15,2,3.63,2.37,14.29.7.58,1.28,1.44.83,2.17a1.52,1.52,0,0,1-1.6.52,1.15,1.15,0,0,1-.48,1.26.92.92,0,0,1-.76.07,1.07,1.07,0,0,1-.37-.22,1.51,1.51,0,0,1-.4.6A.92.92,0,0,1,44.36,51Z"/><path class="cls-2" d="M33.43,43.73l-.9,0a.5.5,0,1,1,0-1c5,.13,7.07-.88,7.92-1.75a1.76,1.76,0,0,0,.59-1.2.5.5,0,0,1,.46-.53.49.49,0,0,1,.54.45,2.69,2.69,0,0,1-.82,1.93C39.93,43,37.3,43.73,33.43,43.73Z"/><path class="cls-2" d="M29.33,51.69h-.12a1.32,1.32,0,0,1-1.07-1.08c-.74.73-1.29.65-1.64.44a1.3,1.3,0,0,1-.56-1.38,2.17,2.17,0,0,1-1.4,0,.89.89,0,0,1-.47-.61c-.19-.93,1-1.74,1.77-2.14l-1.06-4.75a.49.49,0,0,1,.38-.59.5.5,0,0,1,.6.38l1.14,5.13a.5.5,0,0,1-.28.56,3.84,3.84,0,0,0-1.55,1.14,4.07,4.07,0,0,0,1.43-.42.5.5,0,0,1,.57.1.49.49,0,0,1,.09.57c-.18.38-.33,1-.14,1.13h0c.16,0,.68-.5,1.06-1.13a.48.48,0,0,1,.57-.22.5.5,0,0,1,.36.5c0,.63.13,1.33.3,1.35s.48-.62.57-1.17a.49.49,0,0,1,.41-.41.5.5,0,0,1,.53.26,2.73,2.73,0,0,0,1.07,1.23,3.61,3.61,0,0,0-.19-1.27.5.5,0,0,1,.11-.48.45.45,0,0,1,.46-.16h0s.4.06.45-.14a3.34,3.34,0,0,0-1.19-.63.47.47,0,0,1-.29-.26.48.48,0,0,1,0-.39,43.36,43.36,0,0,0,1-6.52.51.51,0,0,1,.55-.46.5.5,0,0,1,.45.55,58.2,58.2,0,0,1-.87,6.3c.65.29,1.59.84,1.38,1.65a1.14,1.14,0,0,1-.87.86,2.23,2.23,0,0,1-.14,1.6.86.86,0,0,1-.69.37h0a2,2,0,0,1-1.42-.85A1.4,1.4,0,0,1,29.33,51.69Z"/><path class="cls-2" d="M24,43.55a15.84,15.84,0,0,1-3.93-.45c-2.5-.66-3-1.51-3.12-1.68a.5.5,0,0,1,.89-.47s.49.65,2.49,1.18a16.41,16.41,0,0,0,4.94.37.5.5,0,0,1,.54.46.5.5,0,0,1-.46.54C25.31,43.51,24.79,43.55,24,43.55Z"/><path class="cls-2" d="M33.84,49.93a1.43,1.43,0,0,1-.92-.39.49.49,0,0,1-.07-.7.5.5,0,0,1,.7-.08.71.71,0,0,0,.29.17h0a1.52,1.52,0,0,0,.23-.74.54.54,0,0,1,.18-.36.54.54,0,0,1,.39-.1,2.39,2.39,0,0,0,1,0,2.75,2.75,0,0,0-1.05-.64.5.5,0,0,1-.32-.55l.5-3.34a.51.51,0,0,1,.57-.42.5.5,0,0,1,.42.57l-.44,3c.55.25,1.37.76,1.35,1.51a.89.89,0,0,1-.32.65,2.07,2.07,0,0,1-1.31.32,1.53,1.53,0,0,1-.77,1.09A.86.86,0,0,1,33.84,49.93Z"/><path class="cls-4" d="M12.69,39.21C6,36.68,1.54,20.11,1.71,16.55s2.23-6.26,4.58-3.83,3.08,1.36,4.2-1.87,2.69-7.49,5.58-7.39,1.62,3,2.81,3.72S22.87,3,28.45,2s5,1,4.85,4,.1,4.67,2.55,4.71,7.87-.81,8.16,1.53-.31,3.38-3,6-.62,3.9,2.21,5.44,2.64,5.44-3.52,8.63S20.09,42,12.69,39.21Z"/><path class="cls-6" d="M32.47,17.77c5.26,1.32,7.2,8.3,4.56,12s-16.86,9.89-16.86,9.89S8.11,44.43,3.23,24.25c0,0-1.25-4.17,5.17-6.77,5.41-2.19,9.34-7.69,15.1-7.86S28.89,16.87,32.47,17.77Z"/><path class="cls-7" d="M18.92,39.51s6.8-4.14.91-6.13-12.27-1.9-9.66,3.91C12.28,40.57,18.92,39.51,18.92,39.51Z"/><path class="cls-2" d="M17,40.41a12.52,12.52,0,0,1-4.44-.73h0C5.51,37,1,20.4,1.21,16.53,1.32,14,2.35,12,3.74,11.43a2.62,2.62,0,0,1,2.91.94c1,1.06,1.55,1.22,1.8,1.16C9,13.41,9.53,12.09,10,10.68,11.11,7.56,12.74,2.85,16.09,3c2.21.07,2.46,1.61,2.63,2.63.09.53.17,1,.43,1.16s1.11-.69,1.74-1.22a15.6,15.6,0,0,1,7.47-4.06c2.53-.45,4-.34,4.76.37s.79,2,.72,3.43c0,.23,0,.48,0,.72-.07,1.9,0,3.12.56,3.71a2,2,0,0,0,1.5.48c.48,0,1.08,0,1.72,0,3-.14,6.64-.3,6.93,2,.32,2.58-.42,3.76-3.13,6.45-.8.79-1.16,1.47-1.08,2,.13.91,1.46,1.7,3.18,2.64a3.57,3.57,0,0,1,2,3.2c0,2.2-2,4.5-5.55,6.32C30.16,37.85,22.46,40.4,17,40.41ZM4.51,12.29a1.14,1.14,0,0,0-.41.07c-1,.38-1.8,2.15-1.89,4.22C2,20.07,6.53,36.34,12.87,38.75h0c3.53,1.33,11,1.23,26.62-6.86,3.16-1.64,5-3.62,5-5.44A2.59,2.59,0,0,0,43,24.14c-1.71-.93-3.48-1.9-3.7-3.38a3.54,3.54,0,0,1,1.37-2.86c2.65-2.64,3.11-3.53,2.84-5.62-.17-1.41-3.61-1.25-5.89-1.15-.65,0-1.28.06-1.77.06a3,3,0,0,1-2.22-.8c-.81-.85-.91-2.22-.83-4.43,0-.26,0-.5,0-.74C32.9,4,33,3,32.46,2.6s-1.82-.52-3.92-.15a14.7,14.7,0,0,0-7,3.84C20.3,7.35,19.4,8.11,18.6,7.6a2.5,2.5,0,0,1-.87-1.84c-.17-1-.29-1.75-1.68-1.8H16C13.43,4,12,8.2,11,11c-.64,1.84-1.22,3.26-2.3,3.5-.77.17-1.59-.26-2.74-1.44A2.09,2.09,0,0,0,4.51,12.29Z"/><path class="cls-2" d="M17.69,38.39l-.12,0a.5.5,0,0,1-.37-.6c0-.08.46-1.86,1.95-2a.5.5,0,0,1,.53.47.49.49,0,0,1-.47.53c-.75,0-1,1.17-1,1.18A.51.51,0,0,1,17.69,38.39Z"/><path class="cls-2" d="M12.5,37.28a.53.53,0,0,1-.27-.08.5.5,0,0,1-.15-.7c.2-.31-.25-1-.49-1.24a.5.5,0,0,1,.74-.68c.13.15,1.27,1.43.59,2.47A.51.51,0,0,1,12.5,37.28Z"/><ellipse class="cls-8" cx="28.32" cy="26.76" rx="5" ry="5.55"/><path class="cls-2" d="M28.32,32.81a5.17,5.17,0,0,1-3.11-1.06,6.15,6.15,0,0,1-2.34-4.16,6,6,0,0,1,4.69-6.82,5.08,5.08,0,0,1,3.87,1,6.15,6.15,0,0,1,2.34,4.16,6,6,0,0,1-4.69,6.81A4.87,4.87,0,0,1,28.32,32.81Zm0-11.09a4.17,4.17,0,0,0-.61,0,5,5,0,0,0-3.84,5.7A5.13,5.13,0,0,0,25.81,31a4.12,4.12,0,0,0,3.12.81,5,5,0,0,0,3.84-5.7,5.12,5.12,0,0,0-1.94-3.48A4.12,4.12,0,0,0,28.32,21.72Z"/><ellipse class="cls-8" cx="9.17" cy="24.42" rx="4.42" ry="4.9"/><path class="cls-2" d="M9.16,29.82a4.56,4.56,0,0,1-2.78-.95,5.51,5.51,0,0,1-2.09-3.71,5.35,5.35,0,0,1,4.19-6.09A4.54,4.54,0,0,1,12,20,5.51,5.51,0,0,1,14,23.68h0a5.35,5.35,0,0,1-4.19,6.09A4,4,0,0,1,9.16,29.82Zm0-9.8a3.08,3.08,0,0,0-.53,0,4.34,4.34,0,0,0-3.35,5,4.46,4.46,0,0,0,1.69,3,3.55,3.55,0,0,0,2.72.71,4.34,4.34,0,0,0,3.35-5h0a4.51,4.51,0,0,0-1.7-3A3.62,3.62,0,0,0,9.17,20Z"/><ellipse class="cls-2" cx="27.3" cy="26.92" rx="3.2" ry="3.55"/><ellipse class="cls-2" cx="9.84" cy="24.78" rx="2.83" ry="3.14"/><ellipse class="cls-8" cx="8.85" cy="23.29" rx="1.23" ry="1.37"/><ellipse class="cls-8" cx="25.9" cy="25.5" rx="1.3" ry="1.45"/><path class="cls-5" d="M11,16.81A32.81,32.81,0,0,1,28.3,18S21,11.37,11,16.81Z"/><path class="cls-9" d="M44.78,48.34c-1-1-3.68-4.59-3.08-6.42,1.59-4.8.58-4.71-1.74-1.6-.83,1.11-4.05,1-5.87,1a1.46,1.46,0,0,0-1.38,1.12l-.16.69-.72,3.67a.81.81,0,0,0,.39.86l.76.44a.55.55,0,0,1,.27.48l0,.52.67.28.37-.72a.81.81,0,0,1,.61-.42l.54-.07a.6.6,0,0,0,.51-.51v0a.65.65,0,0,0-.28-.64l-.7-.47.2-2.62a.89.89,0,0,1,.75-.82l1.87-.33h0l1.34-.4a.66.66,0,0,1,.77.34L41,44.91a1.54,1.54,0,0,1,.17.6l.13,1.35a1.3,1.3,0,0,1-.37,1l-.86.87.49.62L41.93,49l.12.55a.61.61,0,0,0,.37.44l.47.18,1.21.19a.58.58,0,0,0,.67-.48C44.86,49.35,45.45,49,44.78,48.34Z"/><path class="cls-9" d="M45.15,32.83l-.36-1.23a.54.54,0,0,1,.73-.64l1.82.8a1.74,1.74,0,0,0,.93.14l3.27-.37a.25.25,0,0,1,.18.45L50,33.35a1.67,1.67,0,0,1-.83.35l-2.57.38a1.17,1.17,0,0,1-1.25-.75Z"/><path class="cls-9" d="M41.77,31.55a7.57,7.57,0,0,1-5,5.36c-4.2,1.43-5.67,1.05-7.14,3.15s-2.18,7.1-1.57,7.82,1.71-.13,2.2.95-.33,2.59-.84,2.35-.88-1.73-.88-1.73-1.39,1.72-1.72,1.19A3,3,0,0,1,26.63,49s-1.77.71-1.93.16,1.59-1.91,1.59-1.91l-.87-4.44a8.44,8.44,0,0,1-5.11,0c-2.29-.92-4.17-2.58-4.54-2.17S13.3,44,13.28,45.23s1.44,2,1.63,2.09.39,1.13.39,1.13-.3,2.27-1.06,1.85-.84-2.06-.84-2.06-.61,1.93-1.58,1.3-.16-2.23-.16-2.23-2.22.33-2.17-.2,1.58-1.63,1.58-1.63l1.3-6.29a17.9,17.9,0,0,0,7.39.62C23.77,39.27,38.81,33.42,41.77,31.55Z"/><path d="M226.32,42.73a3,3,0,0,1-2.38-1,4.13,4.13,0,0,1-.9-2.83V29.61a8.75,8.75,0,0,0-.71-4,2.62,2.62,0,0,0-2.59-1.19,4,4,0,0,0-2.41.79,4.6,4.6,0,0,0-1.61,2.2,17,17,0,0,0-.38,4.46v7a4.09,4.09,0,0,1-.92,2.87,3.12,3.12,0,0,1-2.38,1,3,3,0,0,1-2.35-1,4.13,4.13,0,0,1-.9-2.83v-16a4,4,0,0,1,.82-2.7,2.89,2.89,0,0,1,2.26-.95,2.9,2.9,0,0,1,2.71,1.65,3.79,3.79,0,0,1,.38,1.26,9.33,9.33,0,0,1,2.5-1.95,9.06,9.06,0,0,1,4.23-1,8.54,8.54,0,0,1,4.16,1,6.61,6.61,0,0,1,2.79,2.92,7.13,7.13,0,0,1,.76,2.35,23.53,23.53,0,0,1,.17,3.08V38.86a4.16,4.16,0,0,1-.89,2.85A3,3,0,0,1,226.32,42.73Z"/><path d="M221.69,19.68a7.93,7.93,0,0,1,3.92.95,6.12,6.12,0,0,1,2.58,2.7,6.39,6.39,0,0,1,.71,2.2,22.27,22.27,0,0,1,.17,3V38.86a3.67,3.67,0,0,1-.77,2.52,2.53,2.53,0,0,1-2,.85,2.56,2.56,0,0,1-2-.87,3.63,3.63,0,0,1-.77-2.5V29.61a9.29,9.29,0,0,0-.76-4.19,3.12,3.12,0,0,0-3-1.46,4.53,4.53,0,0,0-2.71.89,5.09,5.09,0,0,0-1.78,2.43,17.33,17.33,0,0,0-.41,4.63v7a3.62,3.62,0,0,1-.78,2.53,2.64,2.64,0,0,1-2,.84,2.54,2.54,0,0,1-2-.87,3.68,3.68,0,0,1-.77-2.5v-16a3.49,3.49,0,0,1,.69-2.37,2.39,2.39,0,0,1,1.89-.78,2.55,2.55,0,0,1,1.32.34,2.47,2.47,0,0,1,.95,1,3.6,3.6,0,0,1,.35,1.68v.67a9.79,9.79,0,0,1,3.21-2.83,8.5,8.5,0,0,1,4-.9m0-1a9,9,0,0,0-6.45,2.42,4.4,4.4,0,0,0-.21-.5,3.51,3.51,0,0,0-1.33-1.44,3.57,3.57,0,0,0-1.83-.48,3.39,3.39,0,0,0-2.64,1.12,4.45,4.45,0,0,0-.94,3v16a4.62,4.62,0,0,0,1,3.16A3.54,3.54,0,0,0,212,43.23a3.61,3.61,0,0,0,2.75-1.16,4.55,4.55,0,0,0,1.05-3.21V31.91a15.41,15.41,0,0,1,.36-4.32,4,4,0,0,1,1.42-1.93,3.5,3.5,0,0,1,2.12-.7c1.67,0,2,.69,2.15.92a8.37,8.37,0,0,1,.65,3.73v9.25a4.62,4.62,0,0,0,1,3.16,3.59,3.59,0,0,0,2.76,1.21A3.54,3.54,0,0,0,229.05,42a4.63,4.63,0,0,0,1-3.18V28.54a22.79,22.79,0,0,0-.18-3.15,7.37,7.37,0,0,0-.82-2.53,7,7,0,0,0-3-3.1,8.91,8.91,0,0,0-4.4-1.08Z"/><path class="cls-8" d="M223.24,44.21a3.31,3.31,0,0,1-2.57-1.12,4.38,4.38,0,0,1-1-3V30.84A8.54,8.54,0,0,0,219,27c-.13-.27-.55-1.06-2.37-1.06a3.74,3.74,0,0,0-2.26.75,4.25,4.25,0,0,0-1.53,2.08,16.12,16.12,0,0,0-.36,4.37v7a4.34,4.34,0,0,1-1,3A3.36,3.36,0,0,1,209,44.21a3.26,3.26,0,0,1-2.53-1.12,4.38,4.38,0,0,1-1-3v-16a4.24,4.24,0,0,1,.87-2.87,3.13,3.13,0,0,1,2.46-1,3.39,3.39,0,0,1,1.7.44,3.33,3.33,0,0,1,1.23,1.34,3.81,3.81,0,0,1,.31.86,9.5,9.5,0,0,1,2.23-1.66,9.37,9.37,0,0,1,4.34-1,8.81,8.81,0,0,1,4.29,1,6.93,6.93,0,0,1,2.89,3,7.29,7.29,0,0,1,.78,2.43,23.92,23.92,0,0,1,.17,3.11V40.09a4.41,4.41,0,0,1-1,3A3.29,3.29,0,0,1,223.24,44.21Z"/><path class="cls-2" d="M218.61,20.91a7.93,7.93,0,0,1,3.92.95,6,6,0,0,1,2.58,2.7,6.4,6.4,0,0,1,.72,2.2,24.32,24.32,0,0,1,.16,3V40.09a3.72,3.72,0,0,1-.76,2.52,2.53,2.53,0,0,1-2,.85,2.58,2.58,0,0,1-2-.87,3.68,3.68,0,0,1-.77-2.5V30.84a9.19,9.19,0,0,0-.76-4.19,3.11,3.11,0,0,0-3-1.46,4.48,4.48,0,0,0-2.7.89,5.11,5.11,0,0,0-1.79,2.43,17.33,17.33,0,0,0-.41,4.63v7a3.62,3.62,0,0,1-.78,2.53,2.64,2.64,0,0,1-2,.84,2.51,2.51,0,0,1-2-.87,3.63,3.63,0,0,1-.77-2.5v-16a3.49,3.49,0,0,1,.69-2.37,2.39,2.39,0,0,1,1.89-.78,2.6,2.6,0,0,1,1.32.34,2.51,2.51,0,0,1,.94,1,3.6,3.6,0,0,1,.36,1.68v.67a9.67,9.67,0,0,1,3.2-2.83,8.56,8.56,0,0,1,4-.9m0-1.5a10.05,10.05,0,0,0-4.68,1.07,9.16,9.16,0,0,0-1.58,1A3.89,3.89,0,0,0,210.88,20a4,4,0,0,0-2.08-.55,3.89,3.89,0,0,0-3,1.29,4.91,4.91,0,0,0-1.06,3.36v16a5.09,5.09,0,0,0,1.14,3.49A4,4,0,0,0,209,45a4.11,4.11,0,0,0,3.12-1.32,5,5,0,0,0,1.18-3.55v-7a15.36,15.36,0,0,1,.33-4.14,3.5,3.5,0,0,1,1.25-1.71,3,3,0,0,1,1.82-.6c1.37,0,1.63.49,1.71.65a7.72,7.72,0,0,1,.59,3.5v9.25a5.1,5.1,0,0,0,1.15,3.49,4.25,4.25,0,0,0,6.24,0,5.17,5.17,0,0,0,1.14-3.52V29.77a23.9,23.9,0,0,0-.18-3.22,7.89,7.89,0,0,0-.86-2.67,7.55,7.55,0,0,0-3.19-3.33,9.48,9.48,0,0,0-4.65-1.14Z"/><path d="M193,42.73a12.39,12.39,0,0,1-4.71-.85,10.51,10.51,0,0,1-6-6.19,14.65,14.65,0,0,1,0-9.52,10.49,10.49,0,0,1,2.33-3.75A10.29,10.29,0,0,1,188.3,20a13.84,13.84,0,0,1,9.47,0,10.39,10.39,0,0,1,6,6.19,13.86,13.86,0,0,1,.79,4.74,13.73,13.73,0,0,1-.8,4.75,10.74,10.74,0,0,1-2.35,3.77,10.31,10.31,0,0,1-3.67,2.42A12.85,12.85,0,0,1,193,42.73Zm0-18.45a4.45,4.45,0,0,0-2.58.76,4.86,4.86,0,0,0-1.73,2.26,9.68,9.68,0,0,0-.63,3.65,9.73,9.73,0,0,0,.62,3.62,4.94,4.94,0,0,0,1.72,2.26,4.37,4.37,0,0,0,2.6.78,4.31,4.31,0,0,0,3.62-1.71A7.82,7.82,0,0,0,198,31a7.88,7.88,0,0,0-1.38-5A4.36,4.36,0,0,0,193,24.28Z"/><path d="M193,19.68a12.41,12.41,0,0,1,4.58.81,9.85,9.85,0,0,1,3.51,2.31,10.08,10.08,0,0,1,2.23,3.58,13.12,13.12,0,0,1,.76,4.57,13.26,13.26,0,0,1-.77,4.58,10.11,10.11,0,0,1-2.24,3.59,9.82,9.82,0,0,1-3.49,2.31,12.5,12.5,0,0,1-4.58.8,12,12,0,0,1-4.53-.81A10,10,0,0,1,185,39.09a10.15,10.15,0,0,1-2.24-3.57A13.08,13.08,0,0,1,182,31a13.35,13.35,0,0,1,.77-4.61A10.22,10.22,0,0,1,185,22.76a9.75,9.75,0,0,1,3.49-2.28,12.25,12.25,0,0,1,4.53-.8m0,18.43a4.88,4.88,0,0,0,4-1.9A8.35,8.35,0,0,0,198.52,31,8.35,8.35,0,0,0,197,25.67a4.87,4.87,0,0,0-4-1.89,5,5,0,0,0-2.86.84,5.42,5.42,0,0,0-1.91,2.49,10.09,10.09,0,0,0-.67,3.84,10,10,0,0,0,.66,3.8,5.38,5.38,0,0,0,1.89,2.49,4.87,4.87,0,0,0,2.89.87m0-19.43a13.33,13.33,0,0,0-4.89.87,10.69,10.69,0,0,0-3.85,2.52A11.22,11.22,0,0,0,181.83,26a15.17,15.17,0,0,0,0,9.87,11,11,0,0,0,6.29,6.49,13.16,13.16,0,0,0,4.9.88,13.34,13.34,0,0,0,4.94-.87,10.92,10.92,0,0,0,3.85-2.54,11.28,11.28,0,0,0,2.46-4,15.05,15.05,0,0,0,0-9.83,11.12,11.12,0,0,0-2.45-3.93A11,11,0,0,0,198,19.56a13.37,13.37,0,0,0-5-.88Zm0,18.43a4,4,0,0,1-2.32-.68,4.41,4.41,0,0,1-1.53-2,9.11,9.11,0,0,1-.59-3.43,9.11,9.11,0,0,1,.6-3.46,4.31,4.31,0,0,1,1.54-2,4,4,0,0,1,2.3-.67,3.85,3.85,0,0,1,3.23,1.51A7.39,7.39,0,0,1,197.52,31a7.38,7.38,0,0,1-1.28,4.64A3.86,3.86,0,0,1,193,37.11Z"/><path class="cls-8" d="M189.94,44.21a13,13,0,0,1-4.82-.86A10.75,10.75,0,0,1,179,37a13.87,13.87,0,0,1-.81-4.83,14.1,14.1,0,0,1,.82-4.87,10.84,10.84,0,0,1,2.38-3.84A10.54,10.54,0,0,1,185.13,21a13.1,13.1,0,0,1,4.81-.85,13.28,13.28,0,0,1,4.85.86,10.74,10.74,0,0,1,3.77,2.49,11,11,0,0,1,2.4,3.84,14.15,14.15,0,0,1,.8,4.83,13.82,13.82,0,0,1-.82,4.84,10.81,10.81,0,0,1-2.4,3.86,10.68,10.68,0,0,1-3.75,2.48A13.17,13.17,0,0,1,189.94,44.21Zm0-18.45a4.23,4.23,0,0,0-2.45.71,4.64,4.64,0,0,0-1.63,2.16,9.38,9.38,0,0,0-.62,3.55,9.2,9.2,0,0,0,.61,3.52,4.72,4.72,0,0,0,1.62,2.16,4.17,4.17,0,0,0,2.47.73A4.08,4.08,0,0,0,193.36,37a7.56,7.56,0,0,0,1.33-4.79,7.59,7.59,0,0,0-1.33-4.81A4.09,4.09,0,0,0,189.94,25.76Z"/><path class="cls-2" d="M189.94,20.91a12.35,12.35,0,0,1,4.57.81A9.87,9.87,0,0,1,198,24a10.07,10.07,0,0,1,2.22,3.57,13.12,13.12,0,0,1,.76,4.57,13,13,0,0,1-.77,4.58A10.09,10.09,0,0,1,198,40.35a9.81,9.81,0,0,1-3.5,2.31,12.24,12.24,0,0,1-4.57.8,12,12,0,0,1-4.53-.81,10,10,0,0,1-5.72-5.9,14,14,0,0,1,0-9.18A10.06,10.06,0,0,1,181.91,24a9.79,9.79,0,0,1,3.5-2.28,12.18,12.18,0,0,1,4.53-.8m0,18.43a4.84,4.84,0,0,0,4-1.9,8.29,8.29,0,0,0,1.5-5.26A8.29,8.29,0,0,0,194,26.9a4.84,4.84,0,0,0-4-1.89,5,5,0,0,0-2.87.84,5.48,5.48,0,0,0-1.91,2.49,10.29,10.29,0,0,0-.67,3.84,10,10,0,0,0,.66,3.8A5.38,5.38,0,0,0,187,38.47a4.9,4.9,0,0,0,2.9.87m0-19.93a13.94,13.94,0,0,0-5.08.9,11.21,11.21,0,0,0-4,2.64,11.34,11.34,0,0,0-2.55,4.1,15.53,15.53,0,0,0,0,10.22A11.53,11.53,0,0,0,184.84,44a13.62,13.62,0,0,0,5.1.92,13.93,13.93,0,0,0,5.12-.9,11.53,11.53,0,0,0,4-2.66,11.73,11.73,0,0,0,2.57-4.12,15.61,15.61,0,0,0,0-10.19,11.37,11.37,0,0,0-6.6-6.77,13.84,13.84,0,0,0-5.12-.91Zm0,18.43a3.5,3.5,0,0,1-2-.59,4,4,0,0,1-1.36-1.83,8.75,8.75,0,0,1-.55-3.24,8.7,8.7,0,0,1,.56-3.27,3.85,3.85,0,0,1,1.37-1.82,3.46,3.46,0,0,1,2-.58,3.34,3.34,0,0,1,2.83,1.32A6.92,6.92,0,0,1,194,32.18a6.89,6.89,0,0,1-1.18,4.33,3.33,3.33,0,0,1-2.83,1.33Z"/><path d="M126.52,51a9.84,9.84,0,0,1-3.85-.57A2.41,2.41,0,0,1,121.15,48a2.36,2.36,0,0,1,.74-1.84,3,3,0,0,1,2-.65,3.85,3.85,0,0,1,1,.14,3.47,3.47,0,0,0,.78.11,2.85,2.85,0,0,0,1.27-.23,2.21,2.21,0,0,0,.8-.81,14.48,14.48,0,0,0,1-2l.43-1-6.75-17a6.61,6.61,0,0,1-.66-2.34,3,3,0,0,1,.43-1.58,3.2,3.2,0,0,1,1.19-1.15,3.11,3.11,0,0,1,1.58-.43,2.68,2.68,0,0,1,2.2.95,7.59,7.59,0,0,1,1.16,2.34l4.22,12.28,4-11.34a22,22,0,0,1,1-2.47,3.28,3.28,0,0,1,1.09-1.38,2.92,2.92,0,0,1,1.62-.38,2.84,2.84,0,0,1,1.46.4,2.9,2.9,0,0,1,1.08,1.09,3,3,0,0,1,.38,1.44v.11c-.06.26-.15.63-.27,1.12s-.28,1-.46,1.48l-7.24,19a22.57,22.57,0,0,1-1.87,4,6.59,6.59,0,0,1-2.56,2.36A9.19,9.19,0,0,1,126.52,51Z"/><path d="M140.22,19.68a2.43,2.43,0,0,1,2.1,1.23,2.45,2.45,0,0,1,.32,1.2c-.06.26-.14.63-.27,1.1s-.27,1-.44,1.44l-7.24,18.94a21.69,21.69,0,0,1-1.83,3.93,6,6,0,0,1-2.36,2.18,8.73,8.73,0,0,1-4,.76,9.55,9.55,0,0,1-3.66-.53,2.16,2.16,0,0,1-.64-3.4,2.49,2.49,0,0,1,1.72-.52,3.28,3.28,0,0,1,.88.12,3.68,3.68,0,0,0,.91.13,3.25,3.25,0,0,0,1.5-.29,2.64,2.64,0,0,0,1-1,15.49,15.49,0,0,0,1-2.07l.5-1.24-6.82-17.19a6.47,6.47,0,0,1-.63-2.15,2.52,2.52,0,0,1,.36-1.32A2.78,2.78,0,0,1,125,19.68a2.18,2.18,0,0,1,1.81.76,7.12,7.12,0,0,1,1.07,2.18l4.7,13.66L137,23.58a22.34,22.34,0,0,1,1-2.42,2.88,2.88,0,0,1,.91-1.18,2.55,2.55,0,0,1,1.35-.3m0-1a3.44,3.44,0,0,0-1.89.46,3.68,3.68,0,0,0-1.26,1.58,22.73,22.73,0,0,0-1,2.53l-3.49,10L128.81,22.3a8.13,8.13,0,0,0-1.24-2.49A3.15,3.15,0,0,0,125,18.68a3.64,3.64,0,0,0-1.83.49,3.88,3.88,0,0,0-1.37,1.33,3.58,3.58,0,0,0-.5,1.84,7.12,7.12,0,0,0,.7,2.54l6.67,16.8-.35.86a14,14,0,0,1-.93,1.92,1.56,1.56,0,0,1-.6.62,2.16,2.16,0,0,1-1,.18,2.71,2.71,0,0,1-.67-.1,4.2,4.2,0,0,0-1.12-.15,3.41,3.41,0,0,0-2.38.78,2.81,2.81,0,0,0-.91,2.21,2.92,2.92,0,0,0,1.82,2.85,10.47,10.47,0,0,0,4,.61,9.51,9.51,0,0,0,4.43-.87,7,7,0,0,0,2.76-2.54,23.35,23.35,0,0,0,1.92-4.11L142.86,25c.19-.54.35-1.05.48-1.55s.22-.87.28-1.14l0-.1v-.11a3.48,3.48,0,0,0-.44-1.68,3.47,3.47,0,0,0-3-1.75Z"/><path d="M173.71,42.73a3,3,0,0,1-2.34-1,4.17,4.17,0,0,1-.9-2.89V22.29l-3.79,15.06q-.48,1.88-.78,2.76a4.23,4.23,0,0,1-1.22,1.78,3.68,3.68,0,0,1-2.53.84,3.87,3.87,0,0,1-2.06-.53,3.82,3.82,0,0,1-1.3-1.35,6.66,6.66,0,0,1-.69-1.69c-.16-.57-.32-1.18-.48-1.8l-3.79-15.07V38.82a4.22,4.22,0,0,1-.89,2.89,3.31,3.31,0,0,1-4.76,0,4.21,4.21,0,0,1-.9-2.91V15.25a3.39,3.39,0,0,1,1.24-3.05,5.34,5.34,0,0,1,3-.77h1.87a7.44,7.44,0,0,1,2.63.34,2.57,2.57,0,0,1,1.4,1.35,17.17,17.17,0,0,1,.86,2.67l3.85,14.49L166,15.79a17.55,17.55,0,0,1,.86-2.67,2.57,2.57,0,0,1,1.4-1.35,7.47,7.47,0,0,1,2.63-.34h1.87a5.38,5.38,0,0,1,3,.77A3.41,3.41,0,0,1,177,15.25V38.82a4.22,4.22,0,0,1-.89,2.89A3.06,3.06,0,0,1,173.71,42.73Z"/><path d="M172.75,11.93a4.91,4.91,0,0,1,2.75.68,3,3,0,0,1,1,2.64V38.82a3.73,3.73,0,0,1-.76,2.56,2.6,2.6,0,0,1-2,.85,2.52,2.52,0,0,1-2-.85,3.68,3.68,0,0,1-.77-2.56V18.25l-4.78,19c-.31,1.24-.57,2.14-.76,2.72a3.77,3.77,0,0,1-1.09,1.57,3.14,3.14,0,0,1-2.19.71,3.19,3.19,0,0,1-2.93-1.62,7,7,0,0,1-.64-1.58q-.24-.86-.48-1.8l-4.77-19V38.82a3.73,3.73,0,0,1-.77,2.56,2.56,2.56,0,0,1-2,.85,2.59,2.59,0,0,1-2-.84,3.72,3.72,0,0,1-.77-2.57V15.25a3,3,0,0,1,1-2.64,4.93,4.93,0,0,1,2.75-.68h1.87a7,7,0,0,1,2.45.31A2.06,2.06,0,0,1,157,13.33a16,16,0,0,1,.84,2.59l4.33,16.31,4.32-16.31a17.08,17.08,0,0,1,.84-2.59,2,2,0,0,1,1.13-1.09,6.87,6.87,0,0,1,2.44-.31h1.87m0-1h-1.87a8,8,0,0,0-2.82.38,3,3,0,0,0-1.66,1.61,17.57,17.57,0,0,0-.89,2.74l-3.36,12.67-3.37-12.67a17.57,17.57,0,0,0-.89-2.74,3,3,0,0,0-1.66-1.61,8,8,0,0,0-2.82-.38h-1.87a5.87,5.87,0,0,0-3.3.85,3.89,3.89,0,0,0-1.46,3.47V38.82a4.67,4.67,0,0,0,1,3.24,3.79,3.79,0,0,0,5.5,0,4.71,4.71,0,0,0,1-3.22V26.33l2.8,11.15c.17.63.33,1.23.48,1.81a7.72,7.72,0,0,0,.74,1.81,4.23,4.23,0,0,0,3.8,2.13,4.16,4.16,0,0,0,2.86-1,4.77,4.77,0,0,0,1.36-2c.21-.61.47-1.52.79-2.79L170,26.33V38.82a4.64,4.64,0,0,0,1,3.23,3.78,3.78,0,0,0,5.5,0,4.71,4.71,0,0,0,1-3.22V15.25a3.89,3.89,0,0,0-1.46-3.47,5.87,5.87,0,0,0-3.3-.85Z"/><path class="cls-8" d="M123.45,52.44a10.21,10.21,0,0,1-4-.59,2.66,2.66,0,0,1-1.67-2.62,2.6,2.6,0,0,1,.83-2,3.21,3.21,0,0,1,2.21-.71,3.91,3.91,0,0,1,1.08.15,3.35,3.35,0,0,0,.71.1,2.55,2.55,0,0,0,1.16-.2,1.94,1.94,0,0,0,.7-.72,16.64,16.64,0,0,0,.95-2l.39-1L119.13,26a6.88,6.88,0,0,1-.68-2.43,3.31,3.31,0,0,1,.47-1.71,3.46,3.46,0,0,1,1.28-1.24,3.37,3.37,0,0,1,1.7-.46,2.92,2.92,0,0,1,2.4,1,7.67,7.67,0,0,1,1.2,2.42l4,11.6,3.73-10.66a24.52,24.52,0,0,1,1-2.5,3.55,3.55,0,0,1,1.18-1.48,3.49,3.49,0,0,1,3.34,0,3,3,0,0,1,1.17,1.19,3.22,3.22,0,0,1,.41,1.56.41.41,0,0,1,0,.16c0,.27-.14.64-.27,1.13a15.25,15.25,0,0,1-.46,1.51l-7.24,19a23.45,23.45,0,0,1-1.9,4.06,6.81,6.81,0,0,1-2.66,2.45A9.44,9.44,0,0,1,123.45,52.44Z"/><path class="cls-2" d="M137.14,20.91a2.4,2.4,0,0,1,1.21.33,2.32,2.32,0,0,1,.9.91,2.38,2.38,0,0,1,.31,1.19c-.05.26-.14.63-.26,1.1s-.27,1-.45,1.44l-7.23,18.94a23.14,23.14,0,0,1-1.83,3.93,6.13,6.13,0,0,1-2.37,2.18,8.68,8.68,0,0,1-4,.76,9.49,9.49,0,0,1-3.66-.53,1.92,1.92,0,0,1-1.22-1.93,1.87,1.87,0,0,1,.58-1.47,2.53,2.53,0,0,1,1.72-.52,3.26,3.26,0,0,1,.87.12,3.74,3.74,0,0,0,.91.13,3.32,3.32,0,0,0,1.51-.29,2.69,2.69,0,0,0,1-1,15.49,15.49,0,0,0,1-2.07l.51-1.24-6.83-17.19a6.41,6.41,0,0,1-.63-2.15,2.52,2.52,0,0,1,.36-1.32,2.79,2.79,0,0,1,1-1,2.69,2.69,0,0,1,1.33-.36,2.18,2.18,0,0,1,1.81.76,6.9,6.9,0,0,1,1.08,2.18l4.69,13.66,4.45-12.7a20.2,20.2,0,0,1,1-2.42,2.8,2.8,0,0,1,.9-1.18,2.55,2.55,0,0,1,1.35-.3m0-1.5A3.87,3.87,0,0,0,135,20a4.16,4.16,0,0,0-1.44,1.78,23.12,23.12,0,0,0-1,2.59l-3,8.61-3.29-9.57a8.48,8.48,0,0,0-1.33-2.63,3.63,3.63,0,0,0-3-1.32,4.29,4.29,0,0,0-3.62,2.07,4,4,0,0,0-.58,2.09,7.54,7.54,0,0,0,.75,2.74L125,42.91l-.28.68a12.59,12.59,0,0,1-.89,1.83,1.29,1.29,0,0,1-.4.45,1.92,1.92,0,0,1-.82.12,2.93,2.93,0,0,1-.54-.08,4.75,4.75,0,0,0-1.24-.17,4,4,0,0,0-2.72.9,3.35,3.35,0,0,0-1.08,2.59,3.4,3.4,0,0,0,2.12,3.31,10.93,10.93,0,0,0,4.26.65,10,10,0,0,0,4.66-.93,7.54,7.54,0,0,0,2.95-2.71,23.68,23.68,0,0,0,2-4.2l7.23-18.93c.2-.56.37-1.09.5-1.6s.22-.89.28-1.17a1.55,1.55,0,0,0,0-.31,4,4,0,0,0-.5-1.92,3.84,3.84,0,0,0-1.46-1.48,3.9,3.9,0,0,0-2-.53Z"/><path class="cls-8" d="M170.63,44.21a3.27,3.27,0,0,1-2.52-1.1,4.39,4.39,0,0,1-1-3.06V25.54l-3.3,13.11c-.32,1.27-.58,2.17-.78,2.77a4.51,4.51,0,0,1-1.29,1.89,3.91,3.91,0,0,1-2.7.9,4,4,0,0,1-3.58-2,7.55,7.55,0,0,1-.71-1.75c-.16-.58-.32-1.18-.48-1.81L151,25.54V40.05a4.48,4.48,0,0,1-.95,3.06,3.56,3.56,0,0,1-5.13,0,4.46,4.46,0,0,1-1-3.08V16.48a3.67,3.67,0,0,1,1.35-3.26,5.65,5.65,0,0,1,3.16-.81h1.87a7.75,7.75,0,0,1,2.73.36,2.84,2.84,0,0,1,1.53,1.48,18.31,18.31,0,0,1,.88,2.71l3.6,13.58L162.67,17a17.73,17.73,0,0,1,.88-2.7,2.84,2.84,0,0,1,1.53-1.48,7.71,7.71,0,0,1,2.73-.36h1.87a5.67,5.67,0,0,1,3.16.81,3.67,3.67,0,0,1,1.35,3.26V40.05a4.44,4.44,0,0,1-1,3.06A3.33,3.33,0,0,1,170.63,44.21Z"/><path class="cls-2" d="M169.68,13.16a4.89,4.89,0,0,1,2.74.68,3,3,0,0,1,1,2.64V40.05a3.73,3.73,0,0,1-.77,2.56,2.57,2.57,0,0,1-2,.85,2.54,2.54,0,0,1-2-.85,3.73,3.73,0,0,1-.77-2.56V19.48l-4.78,19c-.31,1.24-.56,2.14-.76,2.72a3.68,3.68,0,0,1-1.09,1.57,3.12,3.12,0,0,1-2.19.71,3.19,3.19,0,0,1-2.93-1.62,7,7,0,0,1-.64-1.58c-.15-.57-.31-1.17-.47-1.8l-4.78-19V40.05a3.73,3.73,0,0,1-.76,2.56,2.57,2.57,0,0,1-2,.85,2.6,2.6,0,0,1-2-.84,3.72,3.72,0,0,1-.77-2.57V16.48a3,3,0,0,1,1-2.64,4.89,4.89,0,0,1,2.74-.68h1.87a6.93,6.93,0,0,1,2.45.31,2.06,2.06,0,0,1,1.13,1.1,16.73,16.73,0,0,1,.83,2.58l4.33,16.31,4.33-16.31a16.73,16.73,0,0,1,.83-2.58,2.06,2.06,0,0,1,1.13-1.1,6.93,6.93,0,0,1,2.45-.31h1.87m0-1.5h-1.87a8.09,8.09,0,0,0-3,.42,3.51,3.51,0,0,0-1.93,1.86,17.67,17.67,0,0,0-.92,2.83l-2.88,10.84-2.88-10.85a18.55,18.55,0,0,0-.92-2.82,3.51,3.51,0,0,0-1.93-1.86,8.09,8.09,0,0,0-3-.42h-1.87a6.35,6.35,0,0,0-3.58.94,4.35,4.35,0,0,0-1.68,3.88V40.05a5.1,5.1,0,0,0,1.17,3.58,4.3,4.3,0,0,0,6.24,0,5.18,5.18,0,0,0,1.14-3.56V31.59l1.82,7.24c.17.64.33,1.24.49,1.82a7.88,7.88,0,0,0,.78,1.93A4.7,4.7,0,0,0,159.07,45a4.67,4.67,0,0,0,3.2-1.09,5.26,5.26,0,0,0,1.5-2.21c.21-.62.47-1.54.8-2.83l1.82-7.24v8.46a5.15,5.15,0,0,0,1.16,3.57A4,4,0,0,0,170.63,45a4.12,4.12,0,0,0,3.16-1.35,5.18,5.18,0,0,0,1.15-3.56V16.48a4.35,4.35,0,0,0-1.68-3.88,6.35,6.35,0,0,0-3.58-.94Z"/><path d="M114.84,42.73a3.06,3.06,0,0,1-2.39-1,4.18,4.18,0,0,1-.9-2.83V29.61a8.77,8.77,0,0,0-.7-4,2.64,2.64,0,0,0-2.6-1.19,4,4,0,0,0-2.41.79,4.66,4.66,0,0,0-1.61,2.2,17.14,17.14,0,0,0-.37,4.46v7a4.09,4.09,0,0,1-.92,2.87,3.15,3.15,0,0,1-2.39,1,3,3,0,0,1-2.34-1,4.13,4.13,0,0,1-.9-2.83v-16a4,4,0,0,1,.81-2.7,2.89,2.89,0,0,1,2.27-.95,3,3,0,0,1,1.57.41,3,3,0,0,1,1.14,1.24,3.78,3.78,0,0,1,.37,1.26A9.22,9.22,0,0,1,106,20.14a9,9,0,0,1,4.22-1,8.55,8.55,0,0,1,4.17,1,6.67,6.67,0,0,1,2.79,2.92,6.89,6.89,0,0,1,.75,2.35,21.8,21.8,0,0,1,.17,3.08V38.86a4.16,4.16,0,0,1-.89,2.85A3,3,0,0,1,114.84,42.73Z"/><path d="M110.2,19.68a8,8,0,0,1,3.93.95,6.12,6.12,0,0,1,2.58,2.7,6.61,6.61,0,0,1,.71,2.2,22.5,22.5,0,0,1,.16,3V38.86a3.67,3.67,0,0,1-.76,2.52,2.74,2.74,0,0,1-4,0,3.64,3.64,0,0,1-.78-2.5V29.61a9.16,9.16,0,0,0-.76-4.19,3.11,3.11,0,0,0-3-1.46,4.48,4.48,0,0,0-2.7.89,5.11,5.11,0,0,0-1.79,2.43,17.45,17.45,0,0,0-.4,4.63v7a3.62,3.62,0,0,1-.79,2.53,2.63,2.63,0,0,1-2,.84,2.51,2.51,0,0,1-2-.87,3.68,3.68,0,0,1-.77-2.5v-16a3.49,3.49,0,0,1,.69-2.37,2.39,2.39,0,0,1,1.89-.78,2.55,2.55,0,0,1,1.32.34,2.45,2.45,0,0,1,.94,1,3.6,3.6,0,0,1,.36,1.68v.67a9.77,9.77,0,0,1,3.2-2.83,8.56,8.56,0,0,1,4-.9m0-1a9,9,0,0,0-6.44,2.42,3.16,3.16,0,0,0-.22-.5,3.48,3.48,0,0,0-1.32-1.44,3.6,3.6,0,0,0-1.83-.48,3.39,3.39,0,0,0-2.64,1.12,4.4,4.4,0,0,0-.94,3v16a4.62,4.62,0,0,0,1,3.16,3.54,3.54,0,0,0,2.72,1.21,3.63,3.63,0,0,0,2.76-1.16,4.59,4.59,0,0,0,1-3.21V31.91a16.08,16.08,0,0,1,.35-4.32,4,4,0,0,1,1.43-1.93,3.45,3.45,0,0,1,2.11-.7c1.67,0,2,.69,2.16.92a8.39,8.39,0,0,1,.64,3.73v9.25a4.62,4.62,0,0,0,1,3.16,3.57,3.57,0,0,0,2.76,1.21A3.52,3.52,0,0,0,117.56,42a4.59,4.59,0,0,0,1-3.18V28.54a24.71,24.71,0,0,0-.17-3.15,7.59,7.59,0,0,0-.82-2.53,7,7,0,0,0-3-3.1,9,9,0,0,0-4.41-1.08Z"/><path class="cls-8" d="M111.76,44.21a3.31,3.31,0,0,1-2.57-1.12,4.38,4.38,0,0,1-1-3V30.84a8.51,8.51,0,0,0-.68-3.84c-.14-.27-.55-1.06-2.37-1.06a3.75,3.75,0,0,0-2.27.75,4.3,4.3,0,0,0-1.52,2.08,16.12,16.12,0,0,0-.36,4.37v7a4.34,4.34,0,0,1-1,3,3.37,3.37,0,0,1-2.57,1.08,3.28,3.28,0,0,1-2.54-1.12,4.38,4.38,0,0,1-1-3v-16a4.25,4.25,0,0,1,.88-2.87,3.11,3.11,0,0,1,2.45-1,3.39,3.39,0,0,1,1.7.44,3.26,3.26,0,0,1,1.23,1.34,3.82,3.82,0,0,1,.32.86,9.5,9.5,0,0,1,2.23-1.66,9.37,9.37,0,0,1,4.34-1,8.8,8.8,0,0,1,4.28,1,6.84,6.84,0,0,1,2.89,3,7.12,7.12,0,0,1,.79,2.41,24.55,24.55,0,0,1,.16,3.12V40.09a4.41,4.41,0,0,1-1,3A3.26,3.26,0,0,1,111.76,44.21Z"/><path class="cls-2" d="M107.13,20.91a7.93,7.93,0,0,1,3.92.95,6.12,6.12,0,0,1,2.58,2.7,6.39,6.39,0,0,1,.71,2.2,22.5,22.5,0,0,1,.16,3V40.09a3.67,3.67,0,0,1-.76,2.52,2.74,2.74,0,0,1-4,0,3.63,3.63,0,0,1-.77-2.5V30.84a9.17,9.17,0,0,0-.77-4.19,3.09,3.09,0,0,0-3-1.46,4.53,4.53,0,0,0-2.71.89,5,5,0,0,0-1.78,2.43,16.91,16.91,0,0,0-.41,4.63v7a3.62,3.62,0,0,1-.78,2.53,2.65,2.65,0,0,1-2,.84,2.54,2.54,0,0,1-2-.87,3.68,3.68,0,0,1-.77-2.5v-16a3.49,3.49,0,0,1,.69-2.37,2.39,2.39,0,0,1,1.89-.78,2.55,2.55,0,0,1,1.32.34,2.47,2.47,0,0,1,1,1A3.73,3.73,0,0,1,99.93,24v.67a9.87,9.87,0,0,1,3.2-2.83,8.57,8.57,0,0,1,4-.9m0-1.5a10.09,10.09,0,0,0-4.69,1.07,9.08,9.08,0,0,0-1.57,1A3.91,3.91,0,0,0,99.39,20a4,4,0,0,0-2.08-.55,3.86,3.86,0,0,0-3,1.29,4.91,4.91,0,0,0-1.07,3.36v16a5.1,5.1,0,0,0,1.15,3.49A4,4,0,0,0,97.47,45a4.15,4.15,0,0,0,3.13-1.32,5.07,5.07,0,0,0,1.18-3.55v-7A16.14,16.14,0,0,1,102.1,29a3.63,3.63,0,0,1,1.25-1.71,3.06,3.06,0,0,1,1.83-.6c1.37,0,1.62.49,1.71.65a7.72,7.72,0,0,1,.59,3.5v9.25a5,5,0,0,0,1.15,3.49,4.24,4.24,0,0,0,6.23,0A5.12,5.12,0,0,0,116,40.09V29.77a24.11,24.11,0,0,0-.17-3.22,7.89,7.89,0,0,0-.86-2.67,7.6,7.6,0,0,0-3.19-3.33,9.5,9.5,0,0,0-4.65-1.14Z"/><path d="M88.44,42.73a3,3,0,0,1-2.36-1,4.19,4.19,0,0,1-.88-2.83V23a4.08,4.08,0,0,1,.89-2.82,3.05,3.05,0,0,1,2.35-1,3.15,3.15,0,0,1,2.37,1,3.73,3.73,0,0,1,.93,2.67v16a4.08,4.08,0,0,1-.92,2.86A3.14,3.14,0,0,1,88.44,42.73Zm.06-25.14a3.45,3.45,0,0,1-2.31-.83,3,3,0,0,1-1-2.39,3,3,0,0,1,1-2.31,3.36,3.36,0,0,1,2.3-.89,3.45,3.45,0,0,1,2.23.8,3,3,0,0,1,1,2.4,3,3,0,0,1-1,2.38A3.3,3.3,0,0,1,88.5,17.59Z"/><path d="M88.5,11.67a2.9,2.9,0,0,1,1.91.69,2.44,2.44,0,0,1,.83,2,2.54,2.54,0,0,1-.81,2,2.8,2.8,0,0,1-1.93.72,2.9,2.9,0,0,1-2-.71,2.5,2.5,0,0,1-.82-2,2.51,2.51,0,0,1,.84-1.94,2.83,2.83,0,0,1,2-.76m-.06,8a2.64,2.64,0,0,1,2,.83,3.22,3.22,0,0,1,.79,2.32v16a3.58,3.58,0,0,1-.79,2.52,2.62,2.62,0,0,1-2,.85,2.51,2.51,0,0,1-2-.87,3.68,3.68,0,0,1-.76-2.5V23a3.54,3.54,0,0,1,.76-2.48,2.55,2.55,0,0,1,2-.83m.06-9a3.8,3.8,0,0,0-2.63,1,3.5,3.5,0,0,0-1.17,2.68,3.47,3.47,0,0,0,1.17,2.77,3.9,3.9,0,0,0,2.63.95,3.8,3.8,0,0,0,2.6-1,3.51,3.51,0,0,0,1.14-2.75,3.45,3.45,0,0,0-1.19-2.78,3.92,3.92,0,0,0-2.55-.92Zm-.06,8a3.59,3.59,0,0,0-2.72,1.15,4.55,4.55,0,0,0-1,3.16V38.86a4.66,4.66,0,0,0,1,3.16,3.53,3.53,0,0,0,2.73,1.21,3.58,3.58,0,0,0,2.74-1.17,4.51,4.51,0,0,0,1.06-3.2v-16a4.19,4.19,0,0,0-1.06-3,3.65,3.65,0,0,0-2.74-1.14Z"/><path class="cls-8" d="M85.36,44.21a3.23,3.23,0,0,1-2.54-1.13,4.4,4.4,0,0,1-.95-3V24.22a4.28,4.28,0,0,1,1-3,3.3,3.3,0,0,1,2.53-1.07,3.37,3.37,0,0,1,2.56,1.06,4,4,0,0,1,1,2.84v16a4.35,4.35,0,0,1-1,3A3.36,3.36,0,0,1,85.36,44.21Zm.06-25.13a3.7,3.7,0,0,1-2.47-.9,3.24,3.24,0,0,1-1.08-2.58A3.26,3.26,0,0,1,83,13.1a3.58,3.58,0,0,1,2.46-.95,3.65,3.65,0,0,1,2.39.86,3.18,3.18,0,0,1,1.11,2.59,3.25,3.25,0,0,1-1.07,2.56A3.52,3.52,0,0,1,85.42,19.08Z"/><path class="cls-2" d="M85.42,12.9a2.9,2.9,0,0,1,1.91.69,2.45,2.45,0,0,1,.84,2,2.5,2.5,0,0,1-.82,2,2.8,2.8,0,0,1-1.93.72,2.9,2.9,0,0,1-2-.71,2.5,2.5,0,0,1-.82-2,2.51,2.51,0,0,1,.84-1.94,2.84,2.84,0,0,1,2-.76m-.06,8a2.65,2.65,0,0,1,2,.83,3.26,3.26,0,0,1,.79,2.32v16a3.62,3.62,0,0,1-.79,2.52,2.63,2.63,0,0,1-2,.85,2.51,2.51,0,0,1-2-.87,3.68,3.68,0,0,1-.76-2.5V24.22a3.54,3.54,0,0,1,.76-2.48,2.55,2.55,0,0,1,2-.83m.06-9.51a4.35,4.35,0,0,0-3,1.15,4,4,0,0,0-1.34,3,4,4,0,0,0,1.34,3.15,4.2,4.2,0,0,0,1.54.86,4,4,0,0,0-1.72,1.12,5,5,0,0,0-1.16,3.49V40.09a5.17,5.17,0,0,0,1.13,3.49A4,4,0,0,0,85.36,45a4.13,4.13,0,0,0,3.11-1.33,5,5,0,0,0,1.2-3.54v-16a4.67,4.67,0,0,0-1.21-3.35,4,4,0,0,0-1.69-1.08,4.24,4.24,0,0,0,1.58-.9,4,4,0,0,0,1.32-3.13,3.91,3.91,0,0,0-1.38-3.16,4.37,4.37,0,0,0-2.87-1Z"/><path d="M69.4,42.73a3.31,3.31,0,0,1-2.55-1.07,4.44,4.44,0,0,1-1-3.11V17.41H59.79a3.83,3.83,0,0,1-2.64-.81,2.82,2.82,0,0,1-.91-2.17,2.79,2.79,0,0,1,.95-2.21,3.94,3.94,0,0,1,2.6-.79H79a3.87,3.87,0,0,1,2.66.82,2.81,2.81,0,0,1,.93,2.18,2.81,2.81,0,0,1-.94,2.18,3.94,3.94,0,0,1-2.65.8H72.89V38.55a4.5,4.5,0,0,1-1,3.12A3.31,3.31,0,0,1,69.4,42.73Z"/><path d="M79,11.93a3.4,3.4,0,0,1,2.33.69,2.33,2.33,0,0,1,.76,1.81,2.29,2.29,0,0,1-.77,1.8,3.45,3.45,0,0,1-2.32.68H72.39V38.55a4,4,0,0,1-.84,2.78,2.79,2.79,0,0,1-2.15.9,2.85,2.85,0,0,1-2.19-.91,4,4,0,0,1-.84-2.77V16.91H59.79a3.36,3.36,0,0,1-2.3-.68,2.3,2.3,0,0,1-.75-1.8,2.3,2.3,0,0,1,.78-1.83,3.43,3.43,0,0,1,2.27-.67H79m0-1H59.79a4.38,4.38,0,0,0-2.92.91,3.3,3.3,0,0,0-1.13,2.59A3.32,3.32,0,0,0,56.82,17a4.25,4.25,0,0,0,3,.94h5.58V38.55A4.92,4.92,0,0,0,66.48,42a3.81,3.81,0,0,0,2.92,1.23A3.78,3.78,0,0,0,72.29,42a5,5,0,0,0,1.1-3.46V17.91H79A4.36,4.36,0,0,0,82,17a3.31,3.31,0,0,0,1.11-2.55A3.36,3.36,0,0,0,82,11.88a4.35,4.35,0,0,0-3-1Z"/><path class="cls-8" d="M66.32,44.21a3.56,3.56,0,0,1-2.73-1.15,4.7,4.7,0,0,1-1.05-3.28V18.89H56.71a4,4,0,0,1-2.8-.87,3.05,3.05,0,0,1-1-2.36A3,3,0,0,1,54,13.26a4.11,4.11,0,0,1,2.75-.85H75.89a4.07,4.07,0,0,1,2.83.89,3.06,3.06,0,0,1,1,2.36,3,3,0,0,1-1,2.36,4.14,4.14,0,0,1-2.82.87H70.06V39.78a4.73,4.73,0,0,1-1,3.29A3.53,3.53,0,0,1,66.32,44.21Z"/><path class="cls-2" d="M75.89,13.16a3.38,3.38,0,0,1,2.33.69A2.33,2.33,0,0,1,79,15.66a2.29,2.29,0,0,1-.77,1.8,3.38,3.38,0,0,1-2.32.68H69.31V39.78a4,4,0,0,1-.83,2.78,3.05,3.05,0,0,1-4.34,0,4,4,0,0,1-.85-2.77V18.14H56.71a3.31,3.31,0,0,1-2.3-.68,2.3,2.3,0,0,1-.75-1.8,2.3,2.3,0,0,1,.78-1.83,3.45,3.45,0,0,1,2.27-.67H75.89m0-1.5H56.71a4.81,4.81,0,0,0-3.24,1,3.74,3.74,0,0,0-1.31,3,3.78,3.78,0,0,0,1.25,2.91,4.75,4.75,0,0,0,3.3,1.07h5.08V39.78A5.44,5.44,0,0,0,63,43.57a4.56,4.56,0,0,0,6.55,0,5.43,5.43,0,0,0,1.23-3.8V19.64h5.08a4.85,4.85,0,0,0,3.31-1.05,3.78,3.78,0,0,0,1.28-2.93,3.85,3.85,0,0,0-1.25-2.92,4.84,4.84,0,0,0-3.34-1.08Z"/></g></g></svg>