<svg xmlns="http://www.w3.org/2000/svg" viewBox="0 0 192.61 57.67"><defs><style>.cls-1{fill:#bf7430;}.cls-2{fill:#231f20;}.cls-3{fill:#fff;}</style></defs><g id="Layer_2" data-name="Layer 2"><g id="Layer_2-2" data-name="Layer 2"><path class="cls-1" d="M5.84,32.17c1.25,4.29-2.18,20.52,6.53,23.94S31,47.87,35.82,44.92s18.45-3.11,17-8.71c-1-4-4.18-4.12-4-8.28.17-5.15,8.09-7.89,4.51-12.25C49.55,11.16,44.87,18,41.91,14.6s2.33-10-4-13.14S29,10.55,25.74,9s-2.95-7.9-8.39-7.53S14.86,17.4,9.88,17.08,3.2,16,1.33,19,4.75,28.43,5.84,32.17Z"/><path class="cls-2" d="M15.72,57.67A10,10,0,0,1,12,57c-6.89-2.71-6.84-12.14-6.8-19a25.36,25.36,0,0,0-.29-5.52,26.44,26.44,0,0,0-2-4.35C1,24.53-1,20.86.54,18.45,2.4,15.51,4.4,15.69,7.72,16c.66.06,1.4.12,2.22.17,1.59.09,2.07-3.28,2.55-6.54C13.08,5.47,13.76.78,17.28.54,21.17.27,22.62,3,23.79,5.17c.68,1.29,1.34,2.5,2.35,3C26.79,8.47,28,6.81,29,5.35,31,2.44,33.84-1.54,38.28.62s4,5.75,3.71,8.68c-.17,1.92-.33,3.58.63,4.69s1.87.77,4,0,5-1.83,7.4,1.09c2.53,3.08.38,5.58-1.51,7.79-1.34,1.56-2.72,3.18-2.78,5.08a4.9,4.9,0,0,0,1.65,3.93A9.54,9.54,0,0,1,53.7,36a3.66,3.66,0,0,1-.36,2.87c-1.43,2.42-5.58,3.45-10,4.55-2.69.67-5.47,1.36-7.06,2.32A43.07,43.07,0,0,0,32.1,49C27.57,52.74,21.66,57.67,15.72,57.67Zm-9-25.77A25.22,25.22,0,0,1,7.09,38c0,6.35-.08,15,5.62,17.28,6.09,2.39,13.08-3.44,18.19-7.7a43.25,43.25,0,0,1,4.43-3.42C37.16,43,40,42.31,42.91,41.58c3.65-.91,7.79-1.94,8.82-3.69a1.74,1.74,0,0,0,.16-1.44,7.62,7.62,0,0,0-2-3.34,6.7,6.7,0,0,1-2.11-5.21c.08-2.56,1.76-4.51,3.24-6.24,2-2.31,2.95-3.6,1.48-5.38s-3-1.38-5.32-.53c-1.88.69-4.21,1.54-6-.54-1.48-1.71-1.27-3.94-1.07-6.08.26-2.84.49-5.29-2.68-6.83-2.79-1.37-4.64.85-6.94,4.12C29,8.59,27.41,10.83,25.34,9.84c-1.57-.75-2.4-2.29-3.2-3.79C21,4,20.1,2.22,17.41,2.4c-2,.14-2.58,4-3.08,7.47C13.74,14,13.14,18.22,9.82,18l-2.26-.18c-3.22-.29-4.19-.37-5.44,1.61-.94,1.49.92,5,2.42,7.75A27.31,27.31,0,0,1,6.74,31.9Z"/><ellipse class="cls-3" cx="16.76" cy="25.74" rx="8.15" ry="6.67" transform="translate(-11.95 36.66) rotate(-77.76)"/><path class="cls-2" d="M16.19,34.76a6.28,6.28,0,0,1-1.36-.14c-4.1-.89-6.56-5.6-5.5-10.49s5.25-8.16,9.35-7.27,6.56,5.6,5.5,10.49h0C23.24,31.7,19.82,34.76,16.19,34.76Zm1.12-16.18c-2.76,0-5.4,2.46-6.16,5.94-.84,3.89,1,7.61,4.07,8.28s6.3-1.95,7.14-5.84-1-7.6-4.07-8.27A4.15,4.15,0,0,0,17.31,18.58Z"/><ellipse class="cls-3" cx="35.82" cy="31.15" rx="8.36" ry="7.15" transform="translate(-6.72 52.21) rotate(-67.34)"/><path class="cls-2" d="M35,40.28a7.18,7.18,0,0,1-2.77-.56A7.52,7.52,0,0,1,28,34.94a9.93,9.93,0,0,1,.37-6.9c2-4.73,6.93-7.18,11-5.47s5.85,7,3.88,11.69h0a10,10,0,0,1-4.65,5.12A8,8,0,0,1,35,40.28Zm1.62-16.39a7.46,7.46,0,0,0-6.55,4.86,8.17,8.17,0,0,0-.32,5.62,5.53,5.53,0,0,0,8,3.35,8.19,8.19,0,0,0,3.77-4.18h0c1.57-3.78.28-7.92-2.88-9.24A5.21,5.21,0,0,0,36.63,23.89Z"/><ellipse class="cls-2" cx="35.82" cy="31.15" rx="4.18" ry="3.58" transform="translate(-6.72 52.21) rotate(-67.34)"/><ellipse class="cls-2" cx="16.76" cy="25.74" rx="4.08" ry="3.33" transform="translate(-11.95 36.66) rotate(-77.76)"/><ellipse class="cls-2" cx="19.36" cy="51.76" rx="1.75" ry="1.5" transform="translate(-35.86 49.61) rotate(-67.27)"/><ellipse class="cls-2" cx="11.38" cy="49.48" rx="1.71" ry="1.4" transform="translate(-39.39 50.05) rotate(-77.69)"/><path d="M80.32,29.05H74.7V47.52A3.35,3.35,0,0,1,74,49.88a2.34,2.34,0,0,1-1.83.77,2.42,2.42,0,0,1-1.87-.78,3.36,3.36,0,0,1-.72-2.35V29.05H64a2.83,2.83,0,0,1-2-.58,2.16,2.16,0,0,1,0-3.09A2.92,2.92,0,0,1,64,24.81H80.32a2.87,2.87,0,0,1,2,.59A2,2,0,0,1,83,26.94a1.93,1.93,0,0,1-.66,1.53A2.91,2.91,0,0,1,80.32,29.05Z"/><path d="M85.83,29.21a2.46,2.46,0,0,1-1.69-.61,2.12,2.12,0,0,1-.71-1.71,2.15,2.15,0,0,1,.72-1.66,2.44,2.44,0,0,1,1.68-.65,2.51,2.51,0,0,1,1.63.59,2.43,2.43,0,0,1,0,3.42A2.39,2.39,0,0,1,85.83,29.21Zm2.34,4.89V47.78a3,3,0,0,1-.68,2.14,2.22,2.22,0,0,1-1.72.73,2.17,2.17,0,0,1-1.69-.74,3.17,3.17,0,0,1-.65-2.13V34.24a3.07,3.07,0,0,1,.65-2.12,2.21,2.21,0,0,1,1.69-.71,2.28,2.28,0,0,1,1.72.71A2.77,2.77,0,0,1,88.17,34.1Z"/><path d="M95.58,34v.57a8.29,8.29,0,0,1,2.73-2.42,7.32,7.32,0,0,1,3.41-.77,6.72,6.72,0,0,1,3.34.82,5.15,5.15,0,0,1,2.2,2.3,5.48,5.48,0,0,1,.61,1.87A19.87,19.87,0,0,1,108,39v8.81a3.13,3.13,0,0,1-.65,2.14,2.16,2.16,0,0,1-1.69.73,2.2,2.2,0,0,1-1.72-.74,3.12,3.12,0,0,1-.66-2.13V39.89a7.78,7.78,0,0,0-.65-3.58,2.63,2.63,0,0,0-2.59-1.24,3.84,3.84,0,0,0-2.3.75,4.35,4.35,0,0,0-1.53,2.07,14.93,14.93,0,0,0-.35,4v5.93a3.09,3.09,0,0,1-.66,2.15,2.26,2.26,0,0,1-1.73.72,2.16,2.16,0,0,1-1.68-.74,3.12,3.12,0,0,1-.66-2.13V34.1a3,3,0,0,1,.59-2,2,2,0,0,1,1.61-.67,2.11,2.11,0,0,1,1.94,1.18A3.13,3.13,0,0,1,95.58,34Z"/><path d="M115.32,51.24l.43-1.06-5.82-14.66a5.47,5.47,0,0,1-.54-1.84,2.1,2.1,0,0,1,.31-1.12,2.37,2.37,0,0,1,2-1.15,1.88,1.88,0,0,1,1.55.65,6.07,6.07,0,0,1,.91,1.86l4,11.65L122,34.74a18.5,18.5,0,0,1,.81-2.06,2.39,2.39,0,0,1,.77-1,2.18,2.18,0,0,1,1.15-.26,2.09,2.09,0,0,1,2.07,2.08c-.05.22-.12.53-.23.94s-.23.81-.38,1.23L120,51.81a18.48,18.48,0,0,1-1.56,3.35,5.09,5.09,0,0,1-2,1.86,7.36,7.36,0,0,1-3.39.65,8.22,8.22,0,0,1-3.12-.45,1.65,1.65,0,0,1-1-1.64,1.62,1.62,0,0,1,.49-1.26,2.12,2.12,0,0,1,1.47-.44,2.64,2.64,0,0,1,.74.1,3.54,3.54,0,0,0,.78.11,2.84,2.84,0,0,0,1.29-.25,2.24,2.24,0,0,0,.84-.84A13.21,13.21,0,0,0,115.32,51.24Z"/><path d="M137.32,46.39,133.25,30.2V47.74a3.19,3.19,0,0,1-.65,2.18,2.38,2.38,0,0,1-3.42,0,3.15,3.15,0,0,1-.66-2.19V27.63a2.53,2.53,0,0,1,.86-2.24,4.15,4.15,0,0,1,2.35-.58h1.59a5.91,5.91,0,0,1,2.09.26,1.75,1.75,0,0,1,1,.93,13.89,13.89,0,0,1,.71,2.2l3.69,13.92,3.7-13.92a13.89,13.89,0,0,1,.71-2.2,1.72,1.72,0,0,1,1-.93,5.91,5.91,0,0,1,2.09-.26h1.59a4.14,4.14,0,0,1,2.34.58,2.51,2.51,0,0,1,.87,2.24V47.74a3.19,3.19,0,0,1-.65,2.18,2.21,2.21,0,0,1-1.74.73,2.13,2.13,0,0,1-1.68-.73,3.14,3.14,0,0,1-.66-2.18V30.2l-4.08,16.19c-.26,1-.48,1.82-.65,2.31a3.17,3.17,0,0,1-.92,1.35,2.74,2.74,0,0,1-1.88.6,2.75,2.75,0,0,1-2.49-1.38,5.79,5.79,0,0,1-.55-1.35Z"/><path d="M173.93,41a11.16,11.16,0,0,1-.66,3.9A8.63,8.63,0,0,1,171.36,48a8.34,8.34,0,0,1-3,2,10.71,10.71,0,0,1-3.9.68,10.34,10.34,0,0,1-3.87-.69,8.53,8.53,0,0,1-4.87-5,11,11,0,0,1-.66-3.89,11.25,11.25,0,0,1,.66-3.93,8.55,8.55,0,0,1,1.89-3.05,8.21,8.21,0,0,1,3-1.95,11.28,11.28,0,0,1,7.77,0,8.42,8.42,0,0,1,4.9,5A11.32,11.32,0,0,1,173.93,41Zm-4.75,0a7.07,7.07,0,0,0-1.28-4.5,4.13,4.13,0,0,0-3.42-1.62,4.22,4.22,0,0,0-2.44.72,4.52,4.52,0,0,0-1.63,2.13,8.6,8.6,0,0,0-.58,3.27,8.45,8.45,0,0,0,.57,3.24A4.59,4.59,0,0,0,162,46.4a4.19,4.19,0,0,0,2.47.73,4.13,4.13,0,0,0,3.42-1.62A7.06,7.06,0,0,0,169.18,41Z"/><path d="M180.18,34v.57a8.29,8.29,0,0,1,2.73-2.42,7.31,7.31,0,0,1,3.4-.77,6.73,6.73,0,0,1,3.35.82,5.15,5.15,0,0,1,2.2,2.3,5.48,5.48,0,0,1,.61,1.87,19.87,19.87,0,0,1,.14,2.57v8.81a3.13,3.13,0,0,1-.65,2.14,2.16,2.16,0,0,1-1.69.73,2.2,2.2,0,0,1-1.72-.74,3.12,3.12,0,0,1-.66-2.13V39.89a7.78,7.78,0,0,0-.65-3.58,2.64,2.64,0,0,0-2.59-1.24,3.84,3.84,0,0,0-2.3.75,4.35,4.35,0,0,0-1.53,2.07,14.93,14.93,0,0,0-.35,4v5.93a3.09,3.09,0,0,1-.66,2.15,2.26,2.26,0,0,1-1.73.72,2.16,2.16,0,0,1-1.68-.74,3.12,3.12,0,0,1-.66-2.13V34.1a3,3,0,0,1,.59-2,2,2,0,0,1,1.61-.67,2.11,2.11,0,0,1,1.94,1.18A3.13,3.13,0,0,1,180.18,34Z"/></g></g></svg>