<svg xmlns="http://www.w3.org/2000/svg" viewBox="0 0 157.25 174.14"><defs><style>.cls-1{fill:#bc9b31;}.cls-2{fill:#231f20;}.cls-3{fill:#bf7430;}.cls-4{fill:#fff;}</style></defs><g id="Layer_2" data-name="Layer 2"><g id="Layer_2-2" data-name="Layer 2"><path class="cls-1" d="M40.4,137.83H63.18s6.51-.3,6.51-8V115.05s12.13,10.35,29.29,0v11.39s-7.1.44-7.1,6.06,7.1,5.33,7.1,5.33h24s5.62-1.78,5.62-6.81V97.3a15.3,15.3,0,0,0,14.5,0c7.69-4.15,14.49-12.43,11.83-16.57s-10.35,6.8-19.23,0-22.48-8.28-30.77-3.26-26.71,6-34,1.48S40.7,82.5,40.4,96.41v30s-7.1.44-7.1,6.06S40.4,137.83,40.4,137.83Z"/><path class="cls-2" d="M98.75,139.61c-1.08,0-4.47-.18-6.71-2.34a6.4,6.4,0,0,1-1.94-4.77c0-4.83,4-6.93,7.1-7.6v-6.85c-8.21,4.11-15.17,3.74-19.73,2.6a25.91,25.91,0,0,1-6-2.33v11.52c0,7.42-5.36,9.63-8.2,9.76H40.44c-.62,0-4.5.05-7-2.33a6.43,6.43,0,0,1-1.93-4.77c0-4.83,4-6.93,7.1-7.6V96.41c.13-6.35,4.49-12.31,12-16.39,7.8-4.25,16.71-5.34,21.2-2.58C78.43,81.52,96.17,80.7,104,76c8.88-5.4,23.28-3.92,32.77,3.36,4.37,3.35,8.33,1.6,11.83.06,2.63-1.16,5.89-2.6,7.81.39a6.25,6.25,0,0,1,.61,5.08c-1.21,4.68-6.72,10.58-13.09,14A16.82,16.82,0,0,1,130.34,100v31c0,6.26-6.58,8.41-6.86,8.5l-.27.08H98.75Zm2-27.71v16.2l-1.66.11c-.22,0-5.44.42-5.44,4.29a2.9,2.9,0,0,0,.84,2.21c1.24,1.19,3.66,1.38,4.41,1.34h23.73c.91-.35,4.16-1.83,4.16-5V94.14l2.69,1.64a13.42,13.42,0,0,0,12.74,0c5.4-2.91,10.38-8.08,11.33-11.77a2.83,2.83,0,0,0-.15-2.27.53.53,0,0,0-.11-.14c-.4-.19-2.28.63-3.29,1.08-3.73,1.65-9.38,4.14-15.42-.49-8.27-6.34-21.18-7.76-28.76-3.15-9,5.46-28.11,6.25-35.88,1.48-3.3-2-11.22-.84-17.64,2.67s-10,8.3-10.12,13.31V128.1l-1.67.11c-.21,0-5.43.42-5.43,4.29a2.87,2.87,0,0,0,.84,2.21c1.24,1.19,3.66,1.38,4.41,1.34h22.8c.59,0,4.78-.56,4.78-6.21V111.2l2.93,2.5c.46.38,11.43,9.36,27.22-.17Z"/><path class="cls-3" d="M11.11,61.2C13.5,69.38,7,100.25,23.54,106.76s35.39-15.68,44.61-21.3,35.12-5.91,32.31-16.56c-2-7.53-7.95-7.84-7.7-15.76.32-9.8,15.39-15,8.58-23.3-7.06-8.6-16,4.44-21.59-2.07s4.43-19.08-7.69-25S55.19,20.08,49,17.12,43.36,2.09,33,2.8,28.27,33.1,18.8,32.51,6.08,30.44,2.53,36.06,9,54.1,11.11,61.2Z"/><path class="cls-2" d="M29.92,109.74a19.15,19.15,0,0,1-7-1.32C9.77,103.26,9.87,85.31,10,72.2c0-4.55.05-8.48-.54-10.5a50.13,50.13,0,0,0-3.9-8.27C1.89,46.68-1.86,39.69,1,35.11c3.54-5.6,7.35-5.26,13.67-4.71,1.24.11,2.65.24,4.21.33,3,.18,3.95-6.23,4.85-12.45C24.89,10.41,26.18,1.49,32.88,1,40.28.52,43,5.69,45.26,9.83c1.31,2.45,2.55,4.77,4.48,5.69,1.24.59,3.46-2.57,5.42-5.35,3.9-5.53,9.24-13.11,17.67-9,8.24,4,7.59,10.94,7.07,16.51-.34,3.66-.63,6.81,1.19,8.92,1.65,1.91,3.57,1.48,7.54,0s9.52-3.48,14.09,2.09c4.8,5.85.72,10.61-2.88,14.81-2.55,3-5.18,6-5.3,9.67s1.25,5.29,3.15,7.48a17.91,17.91,0,0,1,4.48,7.76,6.88,6.88,0,0,1-.68,5.46c-2.73,4.61-10.62,6.57-19,8.65-5.12,1.28-10.41,2.6-13.42,4.43a78.25,78.25,0,0,0-8,6.2C52.46,100.36,41.21,109.74,29.92,109.74Zm-17.1-49c.73,2.51.71,6.48.68,11.51-.07,12.08-.16,28.63,10.69,32.89,11.58,4.55,24.89-6.55,34.61-14.66A81.3,81.3,0,0,1,67.23,84c3.47-2.12,8.79-3.44,14.42-4.84,6.94-1.73,14.82-3.69,16.79-7a3.39,3.39,0,0,0,.3-2.74A14.74,14.74,0,0,0,95,63c-2.06-2.37-4.18-4.82-4-9.92.16-4.86,3.34-8.58,6.15-11.86,3.78-4.4,5.62-6.86,2.83-10.25s-5.69-2.62-10.12-1c-3.57,1.3-8,2.93-11.45-1-2.81-3.25-2.41-7.48-2-11.57.5-5.39.94-10-5.09-13C66,1.78,62.45,6,58.06,12.21c-2.9,4.13-5.91,8.39-9.84,6.52-3-1.43-4.57-4.37-6.09-7.22-2.09-3.91-3.89-7.29-9-6.94-3.84.27-4.91,7.68-5.86,14.22C26.14,26.6,25,34.67,18.69,34.28c-1.6-.1-3-.23-4.31-.34C8.26,33.4,6.41,33.24,4,37c-1.79,2.84,1.76,9.44,4.61,14.75A52.1,52.1,0,0,1,12.82,60.71Z"/><ellipse class="cls-4" cx="31.88" cy="48.98" rx="15.51" ry="12.69" transform="translate(-22.74 69.75) rotate(-77.76)"/><path class="cls-2" d="M30.81,66.15a12,12,0,0,1-2.59-.28c-7.8-1.69-12.49-10.64-10.47-20s10-15.52,17.79-13.83S48,42.73,46,52h0C44.22,60.32,37.71,66.15,30.81,66.15Zm2.12-30.8c-5.25,0-10.28,4.69-11.71,11.31C19.61,54.07,23.09,61.13,29,62.4s12-3.71,13.57-11.11-1.87-14.46-7.75-15.74A9,9,0,0,0,32.93,35.35Z"/><ellipse class="cls-4" cx="68.15" cy="59.27" rx="15.91" ry="13.61" transform="translate(-12.79 99.33) rotate(-67.34)"/><path class="cls-2" d="M66.62,76.64a13.57,13.57,0,0,1-5.28-1.06,14.32,14.32,0,0,1-8.08-9.09A19,19,0,0,1,54,53.34c3.76-9,13.18-13.65,21-10.39S86.1,56.2,82.35,65.19h0a19.06,19.06,0,0,1-8.85,9.75A15.26,15.26,0,0,1,66.62,76.64ZM69.7,45.45c-5,0-10.09,3.57-12.46,9.26a15.48,15.48,0,0,0-.61,10.69A10.5,10.5,0,0,0,71.9,71.77a15.43,15.43,0,0,0,7.17-7.95h0c3-7.19.55-15.08-5.47-17.59A10,10,0,0,0,69.7,45.45Z"/><ellipse class="cls-2" cx="68.15" cy="59.27" rx="7.95" ry="6.8" transform="translate(-12.79 99.33) rotate(-67.34)"/><ellipse class="cls-2" cx="31.88" cy="48.98" rx="7.76" ry="6.34" transform="translate(-22.74 69.75) rotate(-77.76)"/><ellipse class="cls-2" cx="36.83" cy="98.48" rx="3.33" ry="2.85" transform="translate(-68.23 94.4) rotate(-67.27)"/><ellipse class="cls-2" cx="21.65" cy="94.15" rx="3.25" ry="2.66" transform="translate(-74.95 95.23) rotate(-77.69)"/><path d="M31.88,145.52H26.26V164a3.4,3.4,0,0,1-.71,2.36,2.37,2.37,0,0,1-1.84.77,2.42,2.42,0,0,1-1.86-.78,3.36,3.36,0,0,1-.72-2.35V145.52H15.51a2.89,2.89,0,0,1-2-.58,2,2,0,0,1-.64-1.54,2,2,0,0,1,.67-1.56,2.91,2.91,0,0,1,1.93-.57H31.88a2.87,2.87,0,0,1,2,.59,2.14,2.14,0,0,1,0,3.08A2.93,2.93,0,0,1,31.88,145.52Z"/><path d="M37.38,145.67a2.52,2.52,0,0,1-1.69-.6,2.37,2.37,0,0,1,0-3.38,2.44,2.44,0,0,1,1.67-.65,2.5,2.5,0,0,1,1.63.59,2.1,2.1,0,0,1,.71,1.72,2.17,2.17,0,0,1-.69,1.71A2.39,2.39,0,0,1,37.38,145.67Zm2.34,4.89v13.68a3.06,3.06,0,0,1-.67,2.15,2.26,2.26,0,0,1-1.72.72,2.12,2.12,0,0,1-1.69-.74,3.17,3.17,0,0,1-.65-2.13V150.7a3.07,3.07,0,0,1,.65-2.12,2.2,2.2,0,0,1,1.69-.71,2.29,2.29,0,0,1,1.72.71A2.78,2.78,0,0,1,39.72,150.56Z"/><path d="M47.13,150.49v.57a8.38,8.38,0,0,1,2.74-2.41,7.17,7.17,0,0,1,3.4-.78,6.87,6.87,0,0,1,3.35.82,5.2,5.2,0,0,1,2.2,2.3,5.77,5.77,0,0,1,.61,1.88,20,20,0,0,1,.13,2.56v8.81a3.11,3.11,0,0,1-.65,2.15,2.34,2.34,0,0,1-3.4,0,3.12,3.12,0,0,1-.66-2.13v-7.89a7.94,7.94,0,0,0-.65-3.58,2.64,2.64,0,0,0-2.59-1.24,3.81,3.81,0,0,0-2.31.76,4.3,4.3,0,0,0-1.52,2.07,14.37,14.37,0,0,0-.35,3.95v5.93a3.06,3.06,0,0,1-.67,2.16,2.26,2.26,0,0,1-1.72.71,2.12,2.12,0,0,1-1.68-.74,3.12,3.12,0,0,1-.66-2.13V150.56a3,3,0,0,1,.59-2,2.05,2.05,0,0,1,1.61-.67,2.2,2.2,0,0,1,1.13.3,2.14,2.14,0,0,1,.8.88A3.19,3.19,0,0,1,47.13,150.49Z"/><path d="M66.87,167.7l.44-1L61.48,152a5.41,5.41,0,0,1-.54-1.84,2.11,2.11,0,0,1,.32-1.12,2.19,2.19,0,0,1,.85-.83,2.29,2.29,0,0,1,1.14-.32,1.86,1.86,0,0,1,1.54.65,6.13,6.13,0,0,1,.92,1.87l4,11.65,3.8-10.84a17.16,17.16,0,0,1,.82-2.06,2.46,2.46,0,0,1,.77-1,2.15,2.15,0,0,1,1.15-.26,2,2,0,0,1,1,.29,2,2,0,0,1,.76.77,2.08,2.08,0,0,1,.27,1c0,.22-.12.54-.22.94s-.23.81-.38,1.23l-6.18,16.16A18.67,18.67,0,0,1,70,171.62a5.16,5.16,0,0,1-2,1.87,7.49,7.49,0,0,1-3.39.65,8,8,0,0,1-3.12-.46,1.62,1.62,0,0,1-1-1.64,1.6,1.6,0,0,1,.49-1.26,2.17,2.17,0,0,1,1.47-.44,2.64,2.64,0,0,1,.74.1,3.54,3.54,0,0,0,.78.11,2.7,2.7,0,0,0,1.28-.25,2.11,2.11,0,0,0,.84-.84A11.58,11.58,0,0,0,66.87,167.7Z"/><path d="M88.88,162.85l-4.07-16.19V164.2a3.24,3.24,0,0,1-.65,2.19,2.41,2.41,0,0,1-3.43,0,3.16,3.16,0,0,1-.66-2.2V144.09a2.52,2.52,0,0,1,.87-2.24,4.14,4.14,0,0,1,2.34-.58h1.6a6.13,6.13,0,0,1,2.08.26,1.72,1.72,0,0,1,1,.94,15.9,15.9,0,0,1,.71,2.2l3.69,13.92L96,144.67a14.62,14.62,0,0,1,.71-2.2,1.73,1.73,0,0,1,1-.94,6.2,6.2,0,0,1,2.09-.26h1.6a4.14,4.14,0,0,1,2.34.58,2.52,2.52,0,0,1,.86,2.24V164.2a3.18,3.18,0,0,1-.65,2.19,2.22,2.22,0,0,1-1.74.72,2.18,2.18,0,0,1-1.68-.72,3.19,3.19,0,0,1-.66-2.19V146.66l-4.07,16.19c-.27,1.05-.48,1.82-.65,2.31a3.23,3.23,0,0,1-.93,1.35,2.71,2.71,0,0,1-1.87.6,2.75,2.75,0,0,1-2.5-1.38,5.6,5.6,0,0,1-.54-1.35C89.15,163.89,89,163.38,88.88,162.85Z"/><path d="M125.48,157.49a11.16,11.16,0,0,1-.66,3.9,8.37,8.37,0,0,1-4.88,5,10.5,10.5,0,0,1-3.9.68,10.27,10.27,0,0,1-3.87-.69,8.53,8.53,0,0,1-4.88-5,12,12,0,0,1,0-7.83,8.55,8.55,0,0,1,1.89-3.05,8.39,8.39,0,0,1,3-1.95,11.21,11.21,0,0,1,7.77,0,8.32,8.32,0,0,1,4.89,5A11.08,11.08,0,0,1,125.48,157.49Zm-4.75,0a7.07,7.07,0,0,0-1.27-4.5,4.12,4.12,0,0,0-3.42-1.61,4.32,4.32,0,0,0-2.45.71,4.58,4.58,0,0,0-1.63,2.13,8.64,8.64,0,0,0-.57,3.27,8.74,8.74,0,0,0,.56,3.25,4.69,4.69,0,0,0,1.62,2.12,4.17,4.17,0,0,0,2.47.74,4.13,4.13,0,0,0,3.42-1.62A7.11,7.11,0,0,0,120.73,157.49Z"/><path d="M131.73,150.49v.57a8.45,8.45,0,0,1,2.73-2.41,7.23,7.23,0,0,1,3.41-.78,6.87,6.87,0,0,1,3.35.82,5.2,5.2,0,0,1,2.2,2.3,5.52,5.52,0,0,1,.6,1.88,18.07,18.07,0,0,1,.14,2.56v8.81a3.11,3.11,0,0,1-.65,2.15,2.34,2.34,0,0,1-3.4,0,3.12,3.12,0,0,1-.66-2.13v-7.89a7.94,7.94,0,0,0-.65-3.58,2.65,2.65,0,0,0-2.59-1.24,3.79,3.79,0,0,0-2.31.76,4.3,4.3,0,0,0-1.52,2.07,14.37,14.37,0,0,0-.35,3.95v5.93a3.06,3.06,0,0,1-.67,2.16,2.26,2.26,0,0,1-1.72.71,2.1,2.1,0,0,1-1.68-.74,3.12,3.12,0,0,1-.66-2.13V150.56a3,3,0,0,1,.59-2,2.05,2.05,0,0,1,1.61-.67,2.13,2.13,0,0,1,1.12.3,2.1,2.1,0,0,1,.81.88A3.19,3.19,0,0,1,131.73,150.49Z"/></g></g></svg>