<svg id="Layer_3" data-name="Layer 3" xmlns="http://www.w3.org/2000/svg" viewBox="0 0 257.18 291.19"><defs><style>.cls-1{fill:#4f3d2e;}.cls-2,.cls-6{fill:#fff3d8;}.cls-3{fill:#a47c4f;}.cls-4,.cls-8{fill:#231f20;}.cls-5{fill:#e5c286;}.cls-6{opacity:0.5;}.cls-10,.cls-13,.cls-14,.cls-7{fill:#fff;}.cls-8{opacity:0.3;}.cls-11,.cls-12,.cls-9{fill:none;}.cls-10,.cls-11,.cls-12,.cls-13,.cls-14,.cls-9{stroke:#231f20;}.cls-10,.cls-11,.cls-12,.cls-14,.cls-9{stroke-linecap:round;stroke-linejoin:round;}.cls-14,.cls-9{stroke-width:1.5px;}.cls-10{stroke-width:1.8px;}.cls-11,.cls-13{stroke-width:2px;}.cls-12{stroke-width:3px;}.cls-13{stroke-miterlimit:10;}</style></defs><path class="cls-1" d="M383.31,439.18a2.74,2.74,0,0,1,1.05.65,2.64,2.64,0,0,1-.95,0,.5.5,0,0,0-.39.11.47.47,0,0,0-.18.35,1.63,1.63,0,0,1-.23.74.38.38,0,0,1-.17-.08.14.14,0,0,1,0-.06c.2-.81-.73-1.36-1.39-1.64a30.52,30.52,0,0,0,.57-3.43q.93,0,1.77,0l-.43,2.82A.51.51,0,0,0,383.31,439.18Z" transform="translate(-209.2 -252.9)"/><path class="cls-2" d="M401.09,422.65c-.47,1.25-2.34,3.28-6.32,3.19a8.86,8.86,0,0,0-.64-1.62.49.49,0,0,0-.68-.18.5.5,0,0,0-.19.68s1.9,3.53,2.25,14.06a.5.5,0,0,0,.21.39c.48.35.84.86.77,1s-.78.08-1.34-.15a.5.5,0,0,0-.63.7,1.75,1.75,0,0,1,.24.85,2.22,2.22,0,0,1-.43-.69.51.51,0,0,0-1,.17,3.1,3.1,0,0,1-.23,1.1c-.14,0-.31-.54-.32-1a.49.49,0,0,0-.47-.48.52.52,0,0,0-.53.42,1.71,1.71,0,0,1-.37.91c-.06,0-.07,0-.08-.06a1.22,1.22,0,0,1,.07-.72.49.49,0,0,0-.12-.55.49.49,0,0,0-.56-.08,4.63,4.63,0,0,1-1.35.4,3.36,3.36,0,0,1,1.17-1.07.48.48,0,0,0,.24-.46,12,12,0,0,0-1.61-5.05,4.15,4.15,0,0,0,.81-.66,2.63,2.63,0,0,0,.82-1.93.49.49,0,0,0-.53-.45.52.52,0,0,0-.47.53,1.71,1.71,0,0,1-.58,1.2c-.83.85-2.81,1.82-7.49,1.76.11-1,.18-1.8.19-1.88a.5.5,0,0,0-.46-.54.48.48,0,0,0-.54.45,43.17,43.17,0,0,1-1,6.52.48.48,0,0,0,0,.39.53.53,0,0,0,.3.27,3.21,3.21,0,0,1,1.19.62c-.05.2-.45.14-.45.14a.5.5,0,0,0-.47.16.52.52,0,0,0-.1.48,3.36,3.36,0,0,1,.18,1.28,2.88,2.88,0,0,1-1.06-1.24.51.51,0,0,0-.95.16c-.08.53-.35,1.17-.55,1.16h0c-.18,0-.34-.72-.3-1.35a.51.51,0,0,0-.94-.28c-.37.63-.89,1.14-1.06,1.13s0-.75.15-1.13a.5.5,0,0,0-.09-.57.52.52,0,0,0-.58-.1,4.26,4.26,0,0,1-1.42.42,3.86,3.86,0,0,1,1.55-1.14.5.5,0,0,0,.28-.56l-1.14-5.13a.5.5,0,0,0-1,.22l.07.33a15.91,15.91,0,0,1-4.51-.4c-2-.53-2.46-1.13-2.5-1.18a.5.5,0,0,0-.66-.2.52.52,0,0,0-.22.68,2.42,2.42,0,0,0,.94.83l-.69,4.29a.48.48,0,0,0,.17.46,6.08,6.08,0,0,1,1.09,1.21,3.93,3.93,0,0,1-1.21-.16.5.5,0,0,0-.63.56,3.27,3.27,0,0,1,0,1.09,2.83,2.83,0,0,1-.85-1.41.52.52,0,0,0-.53-.36.51.51,0,0,0-.45.46,2.46,2.46,0,0,1-.45,1.41c-.27-.06-.42-1-.38-1.66a.48.48,0,0,0-.34-.5.48.48,0,0,0-.57.19,3.68,3.68,0,0,1-1.13,1.13c-.21-.18-.13-1,.09-1.59a.48.48,0,0,0-.09-.5.51.51,0,0,0-.48-.17,4.84,4.84,0,0,1-1.48.11,4.26,4.26,0,0,1,1.45-1.09.47.47,0,0,0,.28-.4c.16-1.56.77-5.92,1.76-7.32a.8.8,0,0,0,.08-.16c4.25-15.77,26.67-11,26.89-10.92a.64.64,0,0,0,.24,0s1.76-.41,5,1.9a5.79,5.79,0,0,0,5.59.88c.5-.14.92-.26,1.09-.13S401.32,422.06,401.09,422.65Z" transform="translate(-209.2 -252.9)"/><path class="cls-3" d="M393.92,425s5.34.08,6.08-.78a5.73,5.73,0,0,1-5.58,2.16Z" transform="translate(-209.2 -252.9)"/><path class="cls-3" d="M366.59,434.17s-.94,4.09-2.61,3.79-1.22-5.78-1.22-5.78,1.15-9.71,6.36-10.54,19.95-3.12,21.49-.26,4.62,12.45,4,15.85-3,1.93-3.29.66a32.3,32.3,0,0,0-1.76-4.44s3.15-4.65-.24-5.15-8.5,1.63-8.7,5.39-1.41,5.74-2.95,5.78-3.44-4.84-3.39-6.18S363.1,429.6,366.59,434.17Z" transform="translate(-209.2 -252.9)"/><path class="cls-2" d="M401.78,420.9c-.56-.44-1.25-.25-2,0a4.79,4.79,0,0,1-4.74-.73c-3.23-2.28-5.21-2.16-5.75-2.07-1.73-.36-23.55-4.44-27.95,11.58-1.16,1.75-1.73,6.28-1.86,7.45-.6.33-1.7,1-1.8,1.87a.8.8,0,0,0,.26.7,2.35,2.35,0,0,0,1.68.29,2,2,0,0,0,.42,1.92.91.91,0,0,0,.74.21,2.06,2.06,0,0,0,1-.57,1.61,1.61,0,0,0,1.07,1.41.78.78,0,0,0,.22,0,1,1,0,0,0,.61-.2,1.64,1.64,0,0,0,.51-.69,1.8,1.8,0,0,0,1,.79.87.87,0,0,0,.79-.22,1.81,1.81,0,0,0,.38-1.32c.63.09,1.39.09,1.72-.41.42-.66-.35-1.6-1.16-2.33l.6-3.74a11.4,11.4,0,0,0,1.24.4,14.76,14.76,0,0,0,3.4.44c.7,0,1.27,0,1.59,0l.76,3.43c-.73.39-2,1.2-1.76,2.13a.86.86,0,0,0,.47.61,2,2,0,0,0,1.4,0,1.32,1.32,0,0,0,.56,1.39c.34.2.9.28,1.64-.45a1.31,1.31,0,0,0,1.07,1.08h.09a1.38,1.38,0,0,0,1.24-.92,1.92,1.92,0,0,0,1.44.85.87.87,0,0,0,.7-.37,2.18,2.18,0,0,0,.13-1.6.85.85,0,0,0,.17-.06,1.5,1.5,0,0,0,.83.34A1,1,0,0,0,383,442a1.52,1.52,0,0,0,.76-1.09h0a2.07,2.07,0,0,0,1.31-.32.84.84,0,0,0,.31-.65c0-.75-.79-1.25-1.35-1.51l.4-2.65a12,12,0,0,0,3.88-.89,10.57,10.57,0,0,1,1.47,4.36c-.6.41-1.64,1.26-1.35,2.12a.89.89,0,0,0,.51.53,2.16,2.16,0,0,0,1.39-.06,1.24,1.24,0,0,0,.12.53,1.08,1.08,0,0,0,.68.59,1,1,0,0,0,.84-.09,1.64,1.64,0,0,0,.25-.21,1.15,1.15,0,0,0,.79.5h.09a.9.9,0,0,0,.62-.23,1.44,1.44,0,0,0,.4-.59,1.19,1.19,0,0,0,.38.21.9.9,0,0,0,.75-.07,1.14,1.14,0,0,0,.49-1.26,1.48,1.48,0,0,0,1.59-.52c.46-.73-.12-1.59-.82-2.17a54.29,54.29,0,0,0-1.45-11.67c4.32,0,6.42-2.37,7-3.84A1.81,1.81,0,0,0,401.78,420.9Zm-18.47,18.28a2.74,2.74,0,0,1,1.05.65,2.64,2.64,0,0,1-.95,0,.5.5,0,0,0-.39.11.47.47,0,0,0-.18.35,1.63,1.63,0,0,1-.23.74.38.38,0,0,1-.17-.08.14.14,0,0,1,0-.06c.2-.81-.73-1.36-1.39-1.64a30.52,30.52,0,0,0,.57-3.43q.93,0,1.77,0l-.43,2.82A.51.51,0,0,0,383.31,439.18Zm17.78-16.53c-.47,1.25-2.34,3.28-6.32,3.19a8.86,8.86,0,0,0-.64-1.62.49.49,0,0,0-.68-.18.5.5,0,0,0-.19.68s1.9,3.53,2.25,14.06a.5.5,0,0,0,.21.39c.48.35.84.86.77,1s-.78.08-1.34-.15a.5.5,0,0,0-.63.7,1.75,1.75,0,0,1,.24.85,2.22,2.22,0,0,1-.43-.69.51.51,0,0,0-1,.17,3.1,3.1,0,0,1-.23,1.1c-.14,0-.31-.54-.32-1a.49.49,0,0,0-.47-.48.52.52,0,0,0-.53.42,1.71,1.71,0,0,1-.37.91c-.06,0-.07,0-.08-.06a1.22,1.22,0,0,1,.07-.72.49.49,0,0,0-.12-.55.49.49,0,0,0-.56-.08,4.63,4.63,0,0,1-1.35.4,3.36,3.36,0,0,1,1.17-1.07.48.48,0,0,0,.24-.46,12,12,0,0,0-1.61-5.05,4.15,4.15,0,0,0,.81-.66,2.63,2.63,0,0,0,.82-1.93.49.49,0,0,0-.53-.45.52.52,0,0,0-.47.53,1.71,1.71,0,0,1-.58,1.2c-.83.85-2.81,1.82-7.49,1.76.11-1,.18-1.8.19-1.88a.5.5,0,0,0-.46-.54.48.48,0,0,0-.54.45,43.17,43.17,0,0,1-1,6.52.48.48,0,0,0,0,.39.53.53,0,0,0,.3.27,3.21,3.21,0,0,1,1.19.62c-.05.2-.45.14-.45.14a.5.5,0,0,0-.47.16.52.52,0,0,0-.1.48,3.36,3.36,0,0,1,.18,1.28,2.88,2.88,0,0,1-1.06-1.24.51.51,0,0,0-.95.16c-.08.53-.35,1.17-.55,1.16h0c-.18,0-.34-.72-.3-1.35a.51.51,0,0,0-.94-.28c-.37.63-.89,1.14-1.06,1.13s0-.75.15-1.13a.5.5,0,0,0-.09-.57.52.52,0,0,0-.58-.1,4.26,4.26,0,0,1-1.42.42,3.86,3.86,0,0,1,1.55-1.14.5.5,0,0,0,.28-.56l-1.14-5.13a.5.5,0,0,0-1,.22l.07.33a15.91,15.91,0,0,1-4.51-.4c-2-.53-2.46-1.13-2.5-1.18a.5.5,0,0,0-.66-.2.52.52,0,0,0-.22.68,2.42,2.42,0,0,0,.94.83l-.69,4.29a.48.48,0,0,0,.17.46,6.08,6.08,0,0,1,1.09,1.21,3.93,3.93,0,0,1-1.21-.16.5.5,0,0,0-.63.56,3.27,3.27,0,0,1,0,1.09,2.83,2.83,0,0,1-.85-1.41.52.52,0,0,0-.53-.36.51.51,0,0,0-.45.46,2.46,2.46,0,0,1-.45,1.41c-.27-.06-.42-1-.38-1.66a.48.48,0,0,0-.34-.5.48.48,0,0,0-.57.19,3.68,3.68,0,0,1-1.13,1.13c-.21-.18-.13-1,.09-1.59a.48.48,0,0,0-.09-.5.51.51,0,0,0-.48-.17,4.84,4.84,0,0,1-1.48.11,4.26,4.26,0,0,1,1.45-1.09.47.47,0,0,0,.28-.4c.16-1.56.77-5.92,1.76-7.32a.8.8,0,0,0,.08-.16c4.25-15.77,26.67-11,26.89-10.92a.64.64,0,0,0,.24,0s1.76-.41,5,1.9a5.79,5.79,0,0,0,5.59.88c.5-.14.92-.26,1.09-.13S401.32,422.06,401.09,422.65Z" transform="translate(-209.2 -252.9)"/><path class="cls-4" d="M363.13,442.94l-.24,0a1.6,1.6,0,0,1-1.07-1.41,2.06,2.06,0,0,1-1,.57.9.9,0,0,1-.74-.21,2,2,0,0,1-.42-1.92,2.35,2.35,0,0,1-1.68-.29.8.8,0,0,1-.26-.7c.1-.84,1.2-1.54,1.8-1.87.13-1.17.7-5.7,1.86-7.45,4.4-16,26.22-11.94,27.95-11.58.54-.09,2.52-.21,5.75,2.07a4.79,4.79,0,0,0,4.74.73c.73-.2,1.41-.39,2,0A1.81,1.81,0,0,1,402,423c-.58,1.55-2.86,4.09-7.64,3.83a.5.5,0,0,1-.47-.53.49.49,0,0,1,.53-.47c4.21.24,6.16-1.89,6.64-3.18.23-.59.13-.91.07-1s-.59,0-1.09.13a5.79,5.79,0,0,1-5.59-.88c-3.28-2.31-5-1.9-5-1.9a.64.64,0,0,1-.24,0C389,419,366.56,414.2,362.31,430a.8.8,0,0,1-.08.16c-1,1.4-1.61,5.76-1.76,7.32a.47.47,0,0,1-.28.4,4.26,4.26,0,0,0-1.45,1.09,4.81,4.81,0,0,0,1.48-.11.5.5,0,0,1,.48.17.48.48,0,0,1,.09.5c-.22.6-.3,1.41-.09,1.59a3.68,3.68,0,0,0,1.13-1.13.5.5,0,0,1,.91.31c-.05.72.11,1.6.38,1.67a2.5,2.5,0,0,0,.45-1.42.51.51,0,0,1,.45-.46.52.52,0,0,1,.53.36,2.83,2.83,0,0,0,.85,1.41,3.27,3.27,0,0,0,0-1.09.5.5,0,0,1,.63-.56,3.65,3.65,0,0,0,1.21.16,6.08,6.08,0,0,0-1.09-1.21.48.48,0,0,1-.17-.46l.75-4.64a.49.49,0,0,1,.57-.42.51.51,0,0,1,.42.58l-.71,4.37c.81.73,1.58,1.67,1.16,2.33-.33.5-1.09.5-1.72.41a1.81,1.81,0,0,1-.38,1.32.87.87,0,0,1-.79.22,1.76,1.76,0,0,1-1-.79,1.64,1.64,0,0,1-.51.69A1,1,0,0,1,363.13,442.94Z" transform="translate(-209.2 -252.9)"/><path class="cls-4" d="M393.13,443.14H393a1.15,1.15,0,0,1-.79-.5,1.64,1.64,0,0,1-.25.21,1,1,0,0,1-.84.09,1.08,1.08,0,0,1-.68-.59,1.41,1.41,0,0,1-.12-.53,2.16,2.16,0,0,1-1.39.06.89.89,0,0,1-.51-.53c-.29-.86.75-1.71,1.35-2.12a10.6,10.6,0,0,0-1.47-4.37.5.5,0,1,1,.81-.58,11.8,11.8,0,0,1,1.69,5.17.48.48,0,0,1-.24.46A3.46,3.46,0,0,0,389.4,441a3.63,3.63,0,0,0,1.35-.39.49.49,0,0,1,.56.08.49.49,0,0,1,.12.55,1.22,1.22,0,0,0-.07.72s0,0,.08.06a1.71,1.71,0,0,0,.37-.91.5.5,0,0,1,.53-.42.49.49,0,0,1,.47.48c0,.46.18,1,.32,1a3.1,3.1,0,0,0,.23-1.1.5.5,0,0,1,.42-.47.49.49,0,0,1,.55.3,2.22,2.22,0,0,0,.43.69,1.87,1.87,0,0,0-.24-.85.5.5,0,0,1,.63-.7c.55.23,1.24.3,1.34.15s-.29-.63-.77-1a.5.5,0,0,1-.21-.39c-.35-10.53-2.23-14-2.25-14.06a.5.5,0,0,1,.19-.68.49.49,0,0,1,.68.18c.08.15,2,3.63,2.38,14.29.7.58,1.28,1.44.82,2.17a1.5,1.5,0,0,1-1.59.52,1.15,1.15,0,0,1-.48,1.26.92.92,0,0,1-.76.07,1,1,0,0,1-.38-.22,1.49,1.49,0,0,1-.39.6A.92.92,0,0,1,393.13,443.14Z" transform="translate(-209.2 -252.9)"/><path class="cls-4" d="M382.2,435.85h-.9a.5.5,0,0,1-.49-.52.51.51,0,0,1,.52-.49c5,.13,7.06-.88,7.92-1.75a1.71,1.71,0,0,0,.58-1.2.52.52,0,0,1,.47-.53.49.49,0,0,1,.53.45,2.63,2.63,0,0,1-.82,1.93C388.69,435.14,386.07,435.85,382.2,435.85Z" transform="translate(-209.2 -252.9)"/><path class="cls-4" d="M378.1,443.81H378a1.31,1.31,0,0,1-1.07-1.08c-.74.73-1.3.65-1.64.45a1.32,1.32,0,0,1-.56-1.39,2.11,2.11,0,0,1-1.4,0,.86.86,0,0,1-.47-.61c-.2-.93,1-1.74,1.76-2.13l-1.05-4.75a.5.5,0,0,1,1-.22l1.14,5.13a.5.5,0,0,1-.28.56,3.86,3.86,0,0,0-1.55,1.14,4,4,0,0,0,1.42-.42.52.52,0,0,1,.58.1.5.5,0,0,1,.09.57c-.18.38-.34,1-.15,1.13h0c.17,0,.69-.5,1.06-1.13a.51.51,0,0,1,.94.28c0,.63.12,1.33.3,1.35s.48-.62.56-1.17a.51.51,0,0,1,.42-.41.5.5,0,0,1,.53.26,2.82,2.82,0,0,0,1.06,1.24,3.36,3.36,0,0,0-.18-1.28.52.52,0,0,1,.1-.48.5.5,0,0,1,.47-.16h0s.4.06.45-.14a3.37,3.37,0,0,0-1.19-.62.53.53,0,0,1-.3-.27.48.48,0,0,1,0-.39,44.28,44.28,0,0,0,1-6.52.5.5,0,0,1,.54-.46.51.51,0,0,1,.46.55,56.78,56.78,0,0,1-.88,6.31c.66.28,1.59.83,1.39,1.64a1.14,1.14,0,0,1-.87.86,2.23,2.23,0,0,1-.14,1.6.87.87,0,0,1-.7.37h0a2,2,0,0,1-1.41-.85A1.4,1.4,0,0,1,378.1,443.81Z" transform="translate(-209.2 -252.9)"/><path class="cls-4" d="M372.78,435.67a15.79,15.79,0,0,1-3.93-.45c-2.5-.66-3-1.51-3.12-1.67a.52.52,0,0,1,.22-.68.5.5,0,0,1,.66.2c0,.05.5.65,2.49,1.18a16.42,16.42,0,0,0,4.94.37.52.52,0,0,1,.55.46.5.5,0,0,1-.46.54C374.08,435.63,373.55,435.67,372.78,435.67Z" transform="translate(-209.2 -252.9)"/><path class="cls-4" d="M382.61,442.05a1.48,1.48,0,0,1-.93-.39.5.5,0,0,1,.64-.78c.19.17.28.17.29.17h0a1.63,1.63,0,0,0,.23-.74A.47.47,0,0,1,383,440a.5.5,0,0,1,.39-.11,2.39,2.39,0,0,0,.95,0,2.75,2.75,0,0,0-1.05-.64.51.51,0,0,1-.33-.55l.51-3.34a.5.5,0,0,1,.57-.42.51.51,0,0,1,.42.57l-.45,3c.56.26,1.38.76,1.35,1.51a.84.84,0,0,1-.31.65,2.09,2.09,0,0,1-1.32.32A1.52,1.52,0,0,1,383,442,.89.89,0,0,1,382.61,442.05Z" transform="translate(-209.2 -252.9)"/><path class="cls-2" d="M361.46,431.34c-6.69-2.54-11.15-19.1-11-22.67s2.24-6.26,4.59-3.83,3.07,1.36,4.2-1.87,2.68-7.49,5.58-7.39,1.62,2.95,2.8,3.72,4-4.22,9.57-5.22,5,1,4.86,4,.09,4.68,2.55,4.71,7.87-.81,8.16,1.53-.31,3.38-3,6-.61,3.9,2.22,5.44,2.64,5.44-3.52,8.63S368.86,434.14,361.46,431.34Z" transform="translate(-209.2 -252.9)"/><path class="cls-5" d="M381.24,409.89c5.26,1.32,7.2,8.31,4.56,12s-16.86,9.88-16.86,9.88-12.06,4.79-16.94-15.39c0,0-1.25-4.17,5.16-6.77,5.41-2.19,9.34-7.69,15.11-7.85S377.65,409,381.24,409.89Z" transform="translate(-209.2 -252.9)"/><path class="cls-6" d="M367.69,431.63s6.79-4.14.9-6.13-12.26-1.9-9.65,3.91C361.05,432.69,367.69,431.63,367.69,431.63Z" transform="translate(-209.2 -252.9)"/><path class="cls-4" d="M365.72,432.53a12.3,12.3,0,0,1-4.44-.73h0c-7-2.65-11.49-19.28-11.31-23.15.12-2.52,1.14-4.57,2.54-5.1a2.62,2.62,0,0,1,2.91.94c1,1.06,1.54,1.22,1.8,1.17.55-.13,1.08-1.45,1.57-2.86,1.09-3.12,2.72-7.83,6.06-7.72,2.21.07,2.47,1.61,2.64,2.63.09.54.16,1,.43,1.17s1.1-.69,1.73-1.23a15.78,15.78,0,0,1,7.48-4.06c2.52-.45,3.95-.34,4.76.38s.79,2,.71,3.42l0,.73c-.07,1.89,0,3.11.56,3.7a2,2,0,0,0,1.49.49c.48,0,1.08,0,1.72-.06,3-.13,6.64-.3,6.94,2,.32,2.58-.42,3.76-3.13,6.45-.8.79-1.16,1.47-1.09,2,.13.91,1.46,1.7,3.19,2.64a3.56,3.56,0,0,1,2,3.2c0,2.2-2,4.5-5.54,6.32C378.93,430,371.22,432.53,365.72,432.53Zm-12.45-28.12a1.1,1.1,0,0,0-.4.08c-1,.37-1.8,2.14-1.9,4.21-.16,3.49,4.33,19.76,10.66,22.17h0c3.53,1.33,11,1.23,26.63-6.86,3.16-1.64,5-3.62,5-5.44a2.58,2.58,0,0,0-1.49-2.31c-1.72-.93-3.49-1.9-3.7-3.37a3.49,3.49,0,0,1,1.37-2.87c2.65-2.63,3.1-3.53,2.84-5.62-.17-1.41-3.62-1.25-5.89-1.15-.66,0-1.28.06-1.78.06a3,3,0,0,1-2.21-.8c-.81-.85-.92-2.21-.83-4.43,0-.26,0-.5,0-.74.07-1.22.12-2.18-.38-2.62s-1.81-.52-3.92-.14a14.66,14.66,0,0,0-7,3.83c-1.24,1.06-2.13,1.82-2.93,1.31a2.48,2.48,0,0,1-.87-1.84c-.17-1-.29-1.75-1.68-1.8h-.08c-2.55,0-4,4.24-5,7.05-.64,1.84-1.21,3.26-2.3,3.5-.77.18-1.59-.26-2.73-1.44A2.09,2.09,0,0,0,353.27,404.41Z" transform="translate(-209.2 -252.9)"/><path class="cls-4" d="M366.46,430.51l-.12,0a.49.49,0,0,1-.37-.6c0-.07.45-1.86,1.95-1.95a.51.51,0,0,1,.53.47.49.49,0,0,1-.47.53c-.75.05-1,1.17-1,1.18A.5.5,0,0,1,366.46,430.51Z" transform="translate(-209.2 -252.9)"/><path class="cls-4" d="M361.27,429.4a.57.57,0,0,1-.28-.08.5.5,0,0,1-.14-.69c.2-.32-.25-1-.49-1.25a.5.5,0,0,1,.74-.68c.13.15,1.26,1.43.59,2.47A.51.51,0,0,1,361.27,429.4Z" transform="translate(-209.2 -252.9)"/><ellipse class="cls-7" cx="167.89" cy="165.98" rx="5" ry="5.55"/><path class="cls-4" d="M377.08,424.93a5.15,5.15,0,0,1-3.11-1.06,6.17,6.17,0,0,1-2.33-4.16,6,6,0,0,1,4.68-6.82,5.09,5.09,0,0,1,3.88,1,6.19,6.19,0,0,1,2.34,4.16,6,6,0,0,1-4.69,6.81A5,5,0,0,1,377.08,424.93Zm0-11.09a3.14,3.14,0,0,0-.61.05,5,5,0,0,0-3.85,5.69,5.17,5.17,0,0,0,1.95,3.49,4.12,4.12,0,0,0,3.12.81,5,5,0,0,0,3.84-5.7,5.16,5.16,0,0,0-1.94-3.48A4.12,4.12,0,0,0,377.09,413.84Z" transform="translate(-209.2 -252.9)"/><ellipse class="cls-7" cx="148.74" cy="163.64" rx="4.42" ry="4.9"/><path class="cls-4" d="M357.93,422a4.6,4.6,0,0,1-2.78-.95,5.53,5.53,0,0,1-2.09-3.72,5.35,5.35,0,0,1,4.19-6.09,4.55,4.55,0,0,1,3.47.9,5.51,5.51,0,0,1,2.09,3.72h0a5.34,5.34,0,0,1-4.19,6.08A4,4,0,0,1,357.93,422Zm0-9.81a3.23,3.23,0,0,0-.53,0,4.34,4.34,0,0,0-3.34,5,4.51,4.51,0,0,0,1.69,3.05,3.56,3.56,0,0,0,2.71.7,4.34,4.34,0,0,0,3.35-5h0a4.46,4.46,0,0,0-1.69-3A3.63,3.63,0,0,0,357.93,412.14Z" transform="translate(-209.2 -252.9)"/><ellipse class="cls-4" cx="166.87" cy="166.14" rx="3.2" ry="3.55"/><ellipse class="cls-4" cx="149.41" cy="164" rx="2.83" ry="3.14"/><ellipse class="cls-7" cx="148.42" cy="162.51" rx="1.23" ry="1.37"/><ellipse class="cls-7" cx="165.47" cy="164.72" rx="1.3" ry="1.45"/><path class="cls-3" d="M359.73,408.94a32.7,32.7,0,0,1,17.34,1.14S369.74,403.49,359.73,408.94Z" transform="translate(-209.2 -252.9)"/><path class="cls-8" d="M393.55,440.46c-1-1-3.68-4.59-3.08-6.42,1.59-4.8.58-4.71-1.74-1.6-.83,1.11-4.05,1-5.87,1.05a1.46,1.46,0,0,0-1.38,1.13l-.17.68L380.6,439a.81.81,0,0,0,.38.86l.77.44a.53.53,0,0,1,.26.48v.52l.66.28.38-.72a.79.79,0,0,1,.61-.42l.54-.07a.6.6,0,0,0,.51-.51v0a.67.67,0,0,0-.29-.64l-.69-.47.2-2.62a.9.9,0,0,1,.74-.82l1.87-.33h.06l1.34-.4a.66.66,0,0,1,.76.34l1.08,2.18a1.79,1.79,0,0,1,.17.6l.13,1.35a1.29,1.29,0,0,1-.38,1l-.85.87.49.62,1.36-.38.11.55a.65.65,0,0,0,.38.44l.46.18,1.22.19a.58.58,0,0,0,.67-.48C393.62,441.47,394.22,441.11,393.55,440.46Z" transform="translate(-209.2 -252.9)"/><path class="cls-8" d="M393.92,425l-.36-1.23a.54.54,0,0,1,.73-.64l1.82.8a1.72,1.72,0,0,0,.92.14l3.27-.37a.25.25,0,0,1,.19.45l-1.74,1.37a1.7,1.7,0,0,1-.83.35l-2.58.38a1.17,1.17,0,0,1-1.24-.75Z" transform="translate(-209.2 -252.9)"/><path class="cls-8" d="M390.54,423.67a7.6,7.6,0,0,1-5,5.36c-4.2,1.43-5.67,1.05-7.14,3.16s-2.19,7.09-1.58,7.81,1.72-.13,2.21,1-.33,2.58-.84,2.34-.89-1.73-.89-1.73-1.38,1.72-1.72,1.19a2.91,2.91,0,0,1-.16-1.61s-1.77.71-1.94.16,1.59-1.91,1.59-1.91l-.86-4.44a8.44,8.44,0,0,1-5.11,0c-2.3-.92-4.17-2.58-4.54-2.17s-2.47,3.32-2.49,4.54,1.44,2,1.62,2.09.4,1.13.4,1.13-.3,2.27-1.07,1.85-.84-2.05-.84-2.05-.6,1.92-1.57,1.29-.17-2.23-.17-2.23-2.22.33-2.16-.2,1.58-1.63,1.58-1.63l1.3-6.29a17.9,17.9,0,0,0,7.39.62C372.53,431.39,387.58,425.54,390.54,423.67Z" transform="translate(-209.2 -252.9)"/><path d="M299.5,452.53a1.85,1.85,0,0,1-1.41-.62,2.4,2.4,0,0,1-.52-1.62v-4.75a4.35,4.35,0,0,0-.33-1.93c-.07-.12-.26-.48-1.12-.48a1.81,1.81,0,0,0-1.1.36,2.1,2.1,0,0,0-.74,1,8.17,8.17,0,0,0-.18,2.21v3.57a2.3,2.3,0,0,1-.54,1.64,1.82,1.82,0,0,1-1.41.6,1.79,1.79,0,0,1-1.38-.62,2.36,2.36,0,0,1-.53-1.62v-8.24a2.32,2.32,0,0,1,.48-1.55,1.72,1.72,0,0,1,1.35-.57,1.84,1.84,0,0,1,.93.24,1.74,1.74,0,0,1,.68.74,2.21,2.21,0,0,1,.12.27,4.69,4.69,0,0,1,3.32-1.25,4.61,4.61,0,0,1,2.26.55,4,4,0,0,1,1.94,2.89,12,12,0,0,1,.09,1.61v5.31a2.33,2.33,0,0,1-.52,1.63A1.79,1.79,0,0,1,299.5,452.53Z" transform="translate(-209.2 -252.9)"/><path d="M297.12,440.43a4.11,4.11,0,0,1,2,.49,3.06,3.06,0,0,1,1.32,1.39,3.34,3.34,0,0,1,.37,1.13,11,11,0,0,1,.08,1.54v5.31a1.91,1.91,0,0,1-.39,1.3,1.4,1.4,0,0,1-2,0,1.86,1.86,0,0,1-.4-1.29v-4.75a4.79,4.79,0,0,0-.39-2.16,1.59,1.59,0,0,0-1.56-.75,2.25,2.25,0,0,0-1.39.46,2.57,2.57,0,0,0-.92,1.24,9,9,0,0,0-.21,2.39v3.57a1.84,1.84,0,0,1-.41,1.3,1.34,1.34,0,0,1-1,.44,1.29,1.29,0,0,1-1-.45,1.91,1.91,0,0,1-.4-1.29v-8.24a1.78,1.78,0,0,1,.36-1.22,1.22,1.22,0,0,1,1-.4,1.3,1.3,0,0,1,.68.17,1.36,1.36,0,0,1,.49.54,1.86,1.86,0,0,1,.18.86v.35a5,5,0,0,1,1.65-1.46,4.36,4.36,0,0,1,2.05-.46m0-1a5.47,5.47,0,0,0-2.52.57,6.18,6.18,0,0,0-.64.4,2.2,2.2,0,0,0-.7-.66,2.32,2.32,0,0,0-1.19-.31,2.2,2.2,0,0,0-1.72.74,2.74,2.74,0,0,0-.61,1.88v8.24a2.85,2.85,0,0,0,.65,1.95,2.29,2.29,0,0,0,1.76.79,2.34,2.34,0,0,0,1.78-.76,2.81,2.81,0,0,0,.67-2v-3.57a7.6,7.6,0,0,1,.16-2.07,1.55,1.55,0,0,1,.55-.75,1.28,1.28,0,0,1,.81-.27c.37,0,.6.07.67.21a3.69,3.69,0,0,1,.28,1.7v4.75a2.85,2.85,0,0,0,.65,1.95,2.4,2.4,0,0,0,3.55,0,2.84,2.84,0,0,0,.64-2V445a13,13,0,0,0-.09-1.68,4.17,4.17,0,0,0-.48-1.47,4.07,4.07,0,0,0-1.72-1.79,5.09,5.09,0,0,0-2.5-.61Z" transform="translate(-209.2 -252.9)"/><path class="cls-7" d="M297.92,453.41a2.08,2.08,0,0,1-1.6-.7,2.65,2.65,0,0,1-.58-1.78v-4.76a4,4,0,0,0-.31-1.81c0-.09-.18-.35-.9-.35a1.58,1.58,0,0,0-.95.32,1.85,1.85,0,0,0-.65.9,7.68,7.68,0,0,0-.17,2.12v3.58a2.57,2.57,0,0,1-.6,1.81,2.11,2.11,0,0,1-1.59.67,2,2,0,0,1-1.57-.7,2.6,2.6,0,0,1-.59-1.78v-8.25A2.49,2.49,0,0,1,289,441a2,2,0,0,1,1.53-.65,2,2,0,0,1,1.06.28,2.05,2.05,0,0,1,.76.81,5.35,5.35,0,0,1,.83-.54,5.08,5.08,0,0,1,2.4-.55,4.93,4.93,0,0,1,2.38.58,4,4,0,0,1,1.64,1.72A4.17,4.17,0,0,1,300,444a12.45,12.45,0,0,1,.09,1.65v5.31a2.59,2.59,0,0,1-.58,1.79A2.06,2.06,0,0,1,297.92,453.41Z" transform="translate(-209.2 -252.9)"/><path class="cls-4" d="M295.54,441.06a4,4,0,0,1,2,.49,3.08,3.08,0,0,1,1.33,1.39,3.34,3.34,0,0,1,.37,1.13,12.85,12.85,0,0,1,.08,1.55v5.31a1.88,1.88,0,0,1-.39,1.29,1.31,1.31,0,0,1-1,.44,1.29,1.29,0,0,1-1-.45,1.85,1.85,0,0,1-.4-1.28v-4.76a4.79,4.79,0,0,0-.39-2.16,1.62,1.62,0,0,0-1.57-.75,2.34,2.34,0,0,0-1.39.46,2.68,2.68,0,0,0-.92,1.25,8.87,8.87,0,0,0-.21,2.38v3.58a1.86,1.86,0,0,1-.4,1.3,1.34,1.34,0,0,1-1,.43,1.28,1.28,0,0,1-1-.45,1.85,1.85,0,0,1-.4-1.28v-8.25a1.8,1.8,0,0,1,.36-1.22,1.21,1.21,0,0,1,1-.4,1.3,1.3,0,0,1,.68.18,1.19,1.19,0,0,1,.48.53,1.8,1.8,0,0,1,.19.87V443a5,5,0,0,1,1.64-1.46,4.4,4.4,0,0,1,2.06-.46m0-1.5a5.9,5.9,0,0,0-2.75.63l-.31.18a2.82,2.82,0,0,0-.55-.43,2.87,2.87,0,0,0-1.44-.38,2.7,2.7,0,0,0-2.1.91,3.25,3.25,0,0,0-.73,2.21v8.25a3.32,3.32,0,0,0,.77,2.27,2.79,2.79,0,0,0,2.14,1,2.85,2.85,0,0,0,2.14-.91,3.32,3.32,0,0,0,.8-2.32v-3.58a8.13,8.13,0,0,1,.13-1.89,1.19,1.19,0,0,1,.38-.53.89.89,0,0,1,.51-.17,1.17,1.17,0,0,1,.27,0,3.61,3.61,0,0,1,.19,1.38v4.76a3.32,3.32,0,0,0,.77,2.27,2.91,2.91,0,0,0,4.3,0,3.34,3.34,0,0,0,.77-2.29v-5.31a12.39,12.39,0,0,0-.1-1.76,5,5,0,0,0-.51-1.61,4.59,4.59,0,0,0-1.94-2,5.59,5.59,0,0,0-2.74-.68Z" transform="translate(-209.2 -252.9)"/><path d="M282.37,452.53a6.77,6.77,0,0,1-2.52-.46,5.58,5.58,0,0,1-2-1.31,5.66,5.66,0,0,1-1.26-2,7.28,7.28,0,0,1-.42-2.52,7.45,7.45,0,0,1,.42-2.55,5.66,5.66,0,0,1,1.25-2,5.59,5.59,0,0,1,2-1.3,7,7,0,0,1,2.51-.44,6.91,6.91,0,0,1,2.54.45,5.57,5.57,0,0,1,2,1.31,5.71,5.71,0,0,1,1.26,2,7.71,7.71,0,0,1,0,5.05,5.8,5.8,0,0,1-1.26,2,5.64,5.64,0,0,1-2,1.3A6.88,6.88,0,0,1,282.37,452.53Zm0-9.49a2.05,2.05,0,0,0-1.19.34,2.2,2.2,0,0,0-.8,1.06,4.62,4.62,0,0,0-.31,1.79,4.7,4.7,0,0,0,.3,1.76,2.25,2.25,0,0,0,.8,1.06,2.17,2.17,0,0,0,2.87-.43,4.69,4.69,0,0,0,0-4.8A2,2,0,0,0,282.37,443Z" transform="translate(-209.2 -252.9)"/><path d="M282.37,440.43a6.47,6.47,0,0,1,2.35.41,5,5,0,0,1,1.81,1.2,5.23,5.23,0,0,1,1.15,1.83,6.87,6.87,0,0,1,.39,2.36,6.63,6.63,0,0,1-.4,2.35,5.17,5.17,0,0,1-1.15,1.85,5,5,0,0,1-1.8,1.18,6.23,6.23,0,0,1-2.35.42,6.16,6.16,0,0,1-2.33-.42,5.13,5.13,0,0,1-1.79-1.2,5.08,5.08,0,0,1-1.15-1.84,6.72,6.72,0,0,1-.39-2.34,7,7,0,0,1,.39-2.38,5.39,5.39,0,0,1,1.14-1.84,5.15,5.15,0,0,1,1.8-1.17,6.23,6.23,0,0,1,2.33-.41m0,9.48a2.51,2.51,0,0,0,2.07-1,5.21,5.21,0,0,0,0-5.42,2.71,2.71,0,0,0-3.54-.54,2.74,2.74,0,0,0-1,1.28,5.23,5.23,0,0,0-.35,2,5.11,5.11,0,0,0,.34,1.95,2.79,2.79,0,0,0,1,1.28,2.5,2.5,0,0,0,1.49.45m0-10.48a7.31,7.31,0,0,0-2.69.48,5.87,5.87,0,0,0-2.15,1.41,6.06,6.06,0,0,0-1.36,2.19,7.69,7.69,0,0,0-.46,2.72,7.79,7.79,0,0,0,.45,2.69,6.15,6.15,0,0,0,3.51,3.62,7.74,7.74,0,0,0,5.42,0,6,6,0,0,0,2.15-1.41,6.34,6.34,0,0,0,1.37-2.21,7.83,7.83,0,0,0,.46-2.69,7.62,7.62,0,0,0-.46-2.7,6,6,0,0,0-1.36-2.19,6.13,6.13,0,0,0-2.16-1.43,7.44,7.44,0,0,0-2.72-.48Zm0,9.48a1.51,1.51,0,0,1-.91-.27,1.74,1.74,0,0,1-.62-.83,4.18,4.18,0,0,1-.27-1.58,4.25,4.25,0,0,1,.27-1.6,1.82,1.82,0,0,1,.62-.83,1.55,1.55,0,0,1,.91-.26,1.49,1.49,0,0,1,1.28.59,4.25,4.25,0,0,1,0,4.18,1.5,1.5,0,0,1-1.28.6Z" transform="translate(-209.2 -252.9)"/><path class="cls-7" d="M280.79,453.41a7,7,0,0,1-2.61-.47,5.92,5.92,0,0,1-3.37-3.47,7.56,7.56,0,0,1-.44-2.61,7.41,7.41,0,0,1,.45-2.63,5.68,5.68,0,0,1,3.36-3.46,7.34,7.34,0,0,1,2.61-.46,7.16,7.16,0,0,1,2.63.47,6.11,6.11,0,0,1,2.07,1.36,6,6,0,0,1,1.31,2.11,7.56,7.56,0,0,1,.44,2.61,7.42,7.42,0,0,1-.45,2.61,5.78,5.78,0,0,1-3.37,3.47A7.16,7.16,0,0,1,280.79,453.41Zm0-9.49a1.83,1.83,0,0,0-1.05.3,2,2,0,0,0-.71.95,4.52,4.52,0,0,0-.29,1.69,4.42,4.42,0,0,0,.28,1.67,2,2,0,0,0,.71,1,1.77,1.77,0,0,0,1.06.31,1.73,1.73,0,0,0,1.47-.69,3.56,3.56,0,0,0,.61-2.24,3.59,3.59,0,0,0-.6-2.25A1.75,1.75,0,0,0,280.79,443.92Z" transform="translate(-209.2 -252.9)"/><path class="cls-4" d="M280.79,441.06a6.3,6.3,0,0,1,2.35.42,5,5,0,0,1,2.95,3,6.77,6.77,0,0,1,.4,2.35,6.86,6.86,0,0,1-.4,2.35,5.22,5.22,0,0,1-1.15,1.85,5.06,5.06,0,0,1-1.8,1.19,6.47,6.47,0,0,1-2.35.41,6.12,6.12,0,0,1-2.33-.42,5.25,5.25,0,0,1-1.79-1.19,5.16,5.16,0,0,1-1.15-1.84,6.55,6.55,0,0,1-.4-2.35,6.89,6.89,0,0,1,.4-2.37,5.3,5.3,0,0,1,1.14-1.84,5.08,5.08,0,0,1,1.8-1.18,6.44,6.44,0,0,1,2.33-.41m0,9.48a2.49,2.49,0,0,0,2.06-1,5.15,5.15,0,0,0,0-5.42,2.48,2.48,0,0,0-2.06-1,2.52,2.52,0,0,0-1.47.43,2.76,2.76,0,0,0-1,1.28,5.27,5.27,0,0,0-.34,2,5,5,0,0,0,.34,1.95,2.72,2.72,0,0,0,1,1.28,2.5,2.5,0,0,0,1.49.45m0-11a8,8,0,0,0-2.88.51,6.61,6.61,0,0,0-2.32,1.53,6.8,6.8,0,0,0-1.48,2.37,8.43,8.43,0,0,0-.49,2.89,8.31,8.31,0,0,0,.49,2.87,6.63,6.63,0,0,0,3.79,3.9,8.24,8.24,0,0,0,5.79,0,6.57,6.57,0,0,0,2.32-1.53,6.81,6.81,0,0,0,1.49-2.38,8.65,8.65,0,0,0,0-5.74,6.6,6.6,0,0,0-1.48-2.37,6.68,6.68,0,0,0-2.33-1.54,7.75,7.75,0,0,0-2.9-.52Zm0,9.48a1.08,1.08,0,0,1-.63-.17,1.31,1.31,0,0,1-.44-.62,3.78,3.78,0,0,1-.23-1.39,3.89,3.89,0,0,1,.23-1.41,1.29,1.29,0,0,1,.44-.61,1.11,1.11,0,0,1,.63-.17,1,1,0,0,1,.89.4,3,3,0,0,1,.44,1.79,2.82,2.82,0,0,1-.45,1.77,1,1,0,0,1-.88.41Z" transform="translate(-209.2 -252.9)"/><path d="M248.17,456.76a5.42,5.42,0,0,1-2.08-.31,1.6,1.6,0,0,1-.46-2.59,1.76,1.76,0,0,1,1.21-.39,2.33,2.33,0,0,1,.59.08,1.47,1.47,0,0,0,.33.05,1.25,1.25,0,0,0,.55-.09,1,1,0,0,0,.31-.33,6.59,6.59,0,0,0,.48-1l.18-.45-3.43-8.65a3.52,3.52,0,0,1-.36-1.29,1.8,1.8,0,0,1,.26-.94,2,2,0,0,1,.69-.68,1.89,1.89,0,0,1,.94-.25,1.58,1.58,0,0,1,1.32.58,3.85,3.85,0,0,1,.64,1.27l1.94,5.66,1.81-5.17a12,12,0,0,1,.52-1.3,2,2,0,0,1,.64-.81,1.77,1.77,0,0,1,1-.23,1.73,1.73,0,0,1,.87.24,1.71,1.71,0,0,1,.87,1.51v.1c0,.14-.08.34-.14.59s-.15.52-.24.79l-3.73,9.75a12,12,0,0,1-1,2.1,3.67,3.67,0,0,1-1.41,1.3A5,5,0,0,1,248.17,456.76Z" transform="translate(-209.2 -252.9)"/><path d="M255.22,440.43a1.26,1.26,0,0,1,1.08.63,1.25,1.25,0,0,1,.16.62c0,.13-.07.32-.13.56s-.14.5-.23.75l-3.73,9.74a11.47,11.47,0,0,1-.94,2,3.1,3.1,0,0,1-1.21,1.12,4.53,4.53,0,0,1-2.05.39,5,5,0,0,1-1.88-.27,1,1,0,0,1-.63-1,1,1,0,0,1,.3-.76,1.27,1.27,0,0,1,.88-.27,1.63,1.63,0,0,1,.45.06,1.84,1.84,0,0,0,.47.07,1.69,1.69,0,0,0,.78-.15,1.38,1.38,0,0,0,.51-.51,8.27,8.27,0,0,0,.51-1.06l.26-.63-3.51-8.85a3.44,3.44,0,0,1-.32-1.11,1.21,1.21,0,0,1,.19-.67,1.39,1.39,0,0,1,.51-.51,1.42,1.42,0,0,1,.69-.18,1.12,1.12,0,0,1,.93.39,3.53,3.53,0,0,1,.55,1.12l2.42,7,2.29-6.53a10.31,10.31,0,0,1,.49-1.24,1.49,1.49,0,0,1,.46-.61,1.37,1.37,0,0,1,.7-.15m0-1a2.26,2.26,0,0,0-1.24.31,2.44,2.44,0,0,0-.82,1,11.6,11.6,0,0,0-.54,1.36l-1.33,3.81-1.48-4.3a4.54,4.54,0,0,0-.72-1.43,2.1,2.1,0,0,0-1.71-.76,2.28,2.28,0,0,0-1.18.32,2.34,2.34,0,0,0-1.21,2,3.93,3.93,0,0,0,.4,1.5l3.36,8.45-.11.26a9.53,9.53,0,0,1-.44.92.45.45,0,0,1-.12.14h0a1,1,0,0,1-.32,0l-.22,0a2.74,2.74,0,0,0-.7-.09,2.29,2.29,0,0,0-1.55.52,2,2,0,0,0-.63,1.51,2,2,0,0,0,1.23,1.91,6,6,0,0,0,2.28.35,5.42,5.42,0,0,0,2.51-.5,4.14,4.14,0,0,0,1.6-1.48,12.1,12.1,0,0,0,1-2.2l3.72-9.74c.11-.3.19-.58.26-.85s.12-.46.15-.6l0-.11v-.1a2.23,2.23,0,0,0-.29-1.1,2.12,2.12,0,0,0-.83-.85,2.24,2.24,0,0,0-1.12-.3Z" transform="translate(-209.2 -252.9)"/><path d="M272.44,452.53a1.78,1.78,0,0,1-1.38-.61,2.37,2.37,0,0,1-.53-1.65v-6.54l-1.47,5.85c-.16.65-.3,1.13-.4,1.43a2.46,2.46,0,0,1-.7,1,2.13,2.13,0,0,1-1.47.5,2.25,2.25,0,0,1-1.18-.31,2.32,2.32,0,0,1-.75-.78,3.86,3.86,0,0,1-.38-.93c-.08-.29-.16-.61-.25-.93l-1.47-5.85v6.54a2.42,2.42,0,0,1-.52,1.65,1.93,1.93,0,0,1-2.81,0,2.38,2.38,0,0,1-.52-1.66V438.15a2,2,0,0,1,.74-1.77,3,3,0,0,1,1.69-.44h1a4.08,4.08,0,0,1,1.45.2,1.51,1.51,0,0,1,.84.81,8.9,8.9,0,0,1,.46,1.41l1.74,6.57,1.75-6.57a9.68,9.68,0,0,1,.46-1.41,1.51,1.51,0,0,1,.84-.81,4.08,4.08,0,0,1,1.45-.2h1a3,3,0,0,1,1.69.44,2,2,0,0,1,.74,1.77v12.12a2.37,2.37,0,0,1-.52,1.65A1.81,1.81,0,0,1,272.44,452.53Z" transform="translate(-209.2 -252.9)"/><path d="M272,436.44a2.54,2.54,0,0,1,1.41.35,1.53,1.53,0,0,1,.52,1.36v12.12a1.93,1.93,0,0,1-.39,1.32,1.34,1.34,0,0,1-1.05.44,1.3,1.3,0,0,1-1-.44,1.88,1.88,0,0,1-.4-1.32V439.69l-2.46,9.77c-.16.63-.29,1.1-.39,1.39a1.81,1.81,0,0,1-.56.81,1.59,1.59,0,0,1-1.13.37,1.65,1.65,0,0,1-.91-.24,1.55,1.55,0,0,1-.59-.6,3.27,3.27,0,0,1-.33-.81c-.08-.29-.16-.6-.25-.92L262,439.69v10.58a1.93,1.93,0,0,1-.39,1.32,1.44,1.44,0,0,1-2.07,0,1.93,1.93,0,0,1-.39-1.32V438.15a1.53,1.53,0,0,1,.52-1.36,2.54,2.54,0,0,1,1.41-.35h1a3.76,3.76,0,0,1,1.26.16,1.06,1.06,0,0,1,.58.56,8.67,8.67,0,0,1,.43,1.33l2.22,8.4,2.23-8.4a8.67,8.67,0,0,1,.43-1.33,1.06,1.06,0,0,1,.58-.56,3.76,3.76,0,0,1,1.26-.16h1m0-1h-1a4.59,4.59,0,0,0-1.63.23,2,2,0,0,0-1.12,1.08,9.51,9.51,0,0,0-.49,1.49L266.49,443l-1.25-4.74a9.51,9.51,0,0,0-.49-1.49,2,2,0,0,0-1.12-1.08,4.59,4.59,0,0,0-1.63-.23h-1a3.54,3.54,0,0,0-2,.52,2.45,2.45,0,0,0-1,2.19v12.12a2.86,2.86,0,0,0,.66,2,2.42,2.42,0,0,0,3.54,0,2.86,2.86,0,0,0,.65-2v-2.5l.49,1.93c.08.33.16.64.25.94a4.43,4.43,0,0,0,.42,1.05,2.69,2.69,0,0,0,2.37,1.34,2.61,2.61,0,0,0,1.8-.62,3,3,0,0,0,.84-1.24c.11-.32.25-.8.41-1.47l.49-1.93v2.5a2.85,2.85,0,0,0,.66,2,2.42,2.42,0,0,0,3.55,0,2.86,2.86,0,0,0,.64-2V438.15a2.45,2.45,0,0,0-1-2.19,3.54,3.54,0,0,0-2-.52Z" transform="translate(-209.2 -252.9)"/><path class="cls-7" d="M246.59,457.64a5.7,5.7,0,0,1-2.18-.33,1.85,1.85,0,0,1-.53-3,2,2,0,0,1,1.38-.46,2.39,2.39,0,0,1,.66.1l.26,0a1.12,1.12,0,0,0,.43-.06.64.64,0,0,0,.22-.24,9.67,9.67,0,0,0,.46-.95l.14-.36-3.4-8.56a3.83,3.83,0,0,1-.37-1.38,2,2,0,0,1,.29-1.07,2.14,2.14,0,0,1,.79-.76,2,2,0,0,1,1.06-.29,1.86,1.86,0,0,1,1.51.67,4.31,4.31,0,0,1,.68,1.36l1.71,5,1.58-4.49a12,12,0,0,1,.52-1.33,2.11,2.11,0,0,1,.74-.91,2.06,2.06,0,0,1,2.83.75,2,2,0,0,1,.26,1,.88.88,0,0,1,0,.16c0,.14-.07.34-.14.59a8.36,8.36,0,0,1-.25.81l-3.73,9.76a12.63,12.63,0,0,1-1,2.15,3.88,3.88,0,0,1-1.51,1.39A5.16,5.16,0,0,1,246.59,457.64Z" transform="translate(-209.2 -252.9)"/><path class="cls-4" d="M253.63,441.06a1.29,1.29,0,0,1,.63.17,1.22,1.22,0,0,1,.46.47,1.32,1.32,0,0,1,.16.61c0,.14-.07.32-.14.57s-.14.49-.23.74l-3.72,9.74a11.13,11.13,0,0,1-.94,2,3.06,3.06,0,0,1-1.22,1.12,4.46,4.46,0,0,1-2,.39,5,5,0,0,1-1.88-.27,1,1,0,0,1-.63-1,1,1,0,0,1,.3-.76,1.27,1.27,0,0,1,.88-.27,1.63,1.63,0,0,1,.45.07,2.23,2.23,0,0,0,.47.06,1.69,1.69,0,0,0,.78-.15,1.32,1.32,0,0,0,.5-.5A8.77,8.77,0,0,0,248,453l.26-.64-3.51-8.84a3.2,3.2,0,0,1-.32-1.11,1.33,1.33,0,0,1,.18-.68,1.39,1.39,0,0,1,.52-.5,1.33,1.33,0,0,1,.69-.19,1.12,1.12,0,0,1,.93.39,3.89,3.89,0,0,1,.55,1.12l2.41,7,2.29-6.53a12.67,12.67,0,0,1,.49-1.25,1.47,1.47,0,0,1,.47-.6,1.24,1.24,0,0,1,.69-.16m0-1.5a2.77,2.77,0,0,0-1.5.39,2.92,2.92,0,0,0-1,1.21,13.34,13.34,0,0,0-.57,1.42l-.85,2.44-1-2.93a5.08,5.08,0,0,0-.8-1.58,2.65,2.65,0,0,0-2.1-.95,2.89,2.89,0,0,0-1.43.38,2.94,2.94,0,0,0-1.06,1,2.73,2.73,0,0,0-.4,1.45,4.33,4.33,0,0,0,.44,1.69l3.27,8.25,0,.08a7.87,7.87,0,0,1-.37.78h0l-.1,0a3.24,3.24,0,0,0-.82-.11,2.72,2.72,0,0,0-1.88.65,2.6,2.6,0,0,0,.73,4.25,6.47,6.47,0,0,0,2.48.39,5.82,5.82,0,0,0,2.73-.56,4.54,4.54,0,0,0,1.8-1.65,12.39,12.39,0,0,0,1.08-2.29l3.71-9.74c.12-.32.21-.61.29-.9s.12-.48.15-.63a1.55,1.55,0,0,0,0-.31A2.76,2.76,0,0,0,256,441a2.74,2.74,0,0,0-2.4-1.41Z" transform="translate(-209.2 -252.9)"/><path class="cls-7" d="M270.86,453.41a2.05,2.05,0,0,1-1.57-.69,2.62,2.62,0,0,1-.59-1.82v-4.52l-1,3.89c-.17.66-.3,1.15-.41,1.46a2.6,2.6,0,0,1-.77,1.12,2.35,2.35,0,0,1-1.63.56,2.48,2.48,0,0,1-1.32-.35,2.44,2.44,0,0,1-.83-.86,4.38,4.38,0,0,1-.41-1l-.24-.93-1-3.9v4.52a2.62,2.62,0,0,1-.59,1.82,2.07,2.07,0,0,1-1.6.69,2,2,0,0,1-1.57-.68,2.59,2.59,0,0,1-.6-1.83V438.78a2.22,2.22,0,0,1,.86-2,3.27,3.27,0,0,1,1.83-.47h1a4.11,4.11,0,0,1,1.54.21,1.84,1.84,0,0,1,1,.94,9,9,0,0,1,.47,1.46l1.5,5.65,1.5-5.66a10.09,10.09,0,0,1,.48-1.45,1.77,1.77,0,0,1,1-.94,4.11,4.11,0,0,1,1.54-.21h1a3.31,3.31,0,0,1,1.83.47,2.23,2.23,0,0,1,.85,2V450.9a2.62,2.62,0,0,1-.58,1.82A2.09,2.09,0,0,1,270.86,453.41Z" transform="translate(-209.2 -252.9)"/><path class="cls-4" d="M270.37,437.08a2.46,2.46,0,0,1,1.41.35,1.5,1.5,0,0,1,.52,1.35V450.9a1.93,1.93,0,0,1-.39,1.32,1.34,1.34,0,0,1-1.05.44,1.3,1.3,0,0,1-1-.44,1.88,1.88,0,0,1-.4-1.32V440.33L267,450.09c-.16.63-.29,1.1-.39,1.39a1.89,1.89,0,0,1-.56.81,1.6,1.6,0,0,1-1.13.37,1.77,1.77,0,0,1-.92-.23,1.69,1.69,0,0,1-.58-.61,3.27,3.27,0,0,1-.33-.81c-.08-.29-.16-.6-.25-.92l-2.45-9.76V450.9a1.88,1.88,0,0,1-.4,1.32,1.44,1.44,0,0,1-2.06,0,1.94,1.94,0,0,1-.4-1.33V438.78a1.51,1.51,0,0,1,.53-1.35,2.41,2.41,0,0,1,1.41-.35h1a3.81,3.81,0,0,1,1.26.15,1.11,1.11,0,0,1,.58.57,9.25,9.25,0,0,1,.43,1.32l2.22,8.4,2.23-8.4a8.11,8.11,0,0,1,.43-1.32,1.08,1.08,0,0,1,.58-.57,3.81,3.81,0,0,1,1.26-.15h1m0-1.5h-1a4.94,4.94,0,0,0-1.82.26,2.53,2.53,0,0,0-1.38,1.33,8.75,8.75,0,0,0-.52,1.58l-.78,2.92-.77-2.93a9.79,9.79,0,0,0-.52-1.57,2.58,2.58,0,0,0-1.39-1.33,4.88,4.88,0,0,0-1.81-.26h-1a4,4,0,0,0-2.25.6,2.91,2.91,0,0,0-1.19,2.6V450.9a3.36,3.36,0,0,0,.79,2.34,2.84,2.84,0,0,0,2.13.92,2.79,2.79,0,0,0,2.16-.94,3,3,0,0,0,.68-1.36,4.19,4.19,0,0,0,.33.71,3.19,3.19,0,0,0,1.09,1.13,3.24,3.24,0,0,0,1.71.46,3.06,3.06,0,0,0,2.13-.75,3.35,3.35,0,0,0,1-1.44l0-.09a3,3,0,0,0,.68,1.35,2.94,2.94,0,0,0,4.3,0,3.37,3.37,0,0,0,.77-2.32V438.78a2.88,2.88,0,0,0-1.19-2.6,3.94,3.94,0,0,0-2.24-.6Z" transform="translate(-209.2 -252.9)"/><path d="M242.16,452.53a1.85,1.85,0,0,1-1.41-.62,2.4,2.4,0,0,1-.52-1.62v-4.75a4.35,4.35,0,0,0-.33-1.93c-.07-.12-.26-.48-1.12-.48a1.81,1.81,0,0,0-1.1.36,2.1,2.1,0,0,0-.74,1,8.17,8.17,0,0,0-.18,2.21v3.57a2.3,2.3,0,0,1-.54,1.64,1.82,1.82,0,0,1-1.41.6,1.79,1.79,0,0,1-1.38-.62,2.36,2.36,0,0,1-.53-1.62v-8.24a2.32,2.32,0,0,1,.48-1.55,1.72,1.72,0,0,1,1.35-.57,1.84,1.84,0,0,1,.93.24,1.74,1.74,0,0,1,.68.74,2.21,2.21,0,0,1,.12.27,4.69,4.69,0,0,1,3.32-1.25,4.61,4.61,0,0,1,2.26.55,4,4,0,0,1,1.94,2.89,11.9,11.9,0,0,1,.09,1.61v5.31a2.33,2.33,0,0,1-.52,1.63A1.79,1.79,0,0,1,242.16,452.53Z" transform="translate(-209.2 -252.9)"/><path d="M239.78,440.43a4.11,4.11,0,0,1,2,.49,3.06,3.06,0,0,1,1.32,1.39,3.34,3.34,0,0,1,.37,1.13,11,11,0,0,1,.08,1.54v5.31a1.91,1.91,0,0,1-.39,1.3,1.4,1.4,0,0,1-2.05,0,1.86,1.86,0,0,1-.4-1.29v-4.75a4.79,4.79,0,0,0-.39-2.16,1.59,1.59,0,0,0-1.56-.75,2.25,2.25,0,0,0-1.39.46,2.57,2.57,0,0,0-.92,1.24,9,9,0,0,0-.21,2.39v3.57a1.84,1.84,0,0,1-.41,1.3,1.34,1.34,0,0,1-1,.44,1.29,1.29,0,0,1-1-.45,1.91,1.91,0,0,1-.4-1.29v-8.24a1.78,1.78,0,0,1,.36-1.22,1.22,1.22,0,0,1,1-.4,1.3,1.3,0,0,1,.68.17,1.36,1.36,0,0,1,.49.54,1.86,1.86,0,0,1,.18.86v.35a5,5,0,0,1,1.65-1.46,4.36,4.36,0,0,1,2.05-.46m0-1a5.47,5.47,0,0,0-2.52.57,6.18,6.18,0,0,0-.64.4,2.2,2.2,0,0,0-.7-.66,2.32,2.32,0,0,0-1.19-.31,2.2,2.2,0,0,0-1.72.74,2.74,2.74,0,0,0-.61,1.88v8.24a2.85,2.85,0,0,0,.65,1.95,2.29,2.29,0,0,0,1.76.79,2.34,2.34,0,0,0,1.78-.76,2.81,2.81,0,0,0,.67-2v-3.57a7.6,7.6,0,0,1,.16-2.07,1.55,1.55,0,0,1,.55-.75,1.28,1.28,0,0,1,.81-.27c.37,0,.6.07.67.21a3.69,3.69,0,0,1,.28,1.7v4.75a2.85,2.85,0,0,0,.65,1.95,2.4,2.4,0,0,0,3.55,0,2.84,2.84,0,0,0,.64-2V445a13,13,0,0,0-.09-1.68,4.17,4.17,0,0,0-.48-1.47,4.07,4.07,0,0,0-1.72-1.79,5.09,5.09,0,0,0-2.5-.61Z" transform="translate(-209.2 -252.9)"/><path class="cls-7" d="M240.58,453.41a2.08,2.08,0,0,1-1.6-.7,2.65,2.65,0,0,1-.58-1.78v-4.76a4,4,0,0,0-.31-1.81c0-.09-.18-.35-.9-.35a1.58,1.58,0,0,0-.95.32,1.85,1.85,0,0,0-.65.9,7.68,7.68,0,0,0-.17,2.12v3.58a2.57,2.57,0,0,1-.6,1.81,2.11,2.11,0,0,1-1.59.67,2,2,0,0,1-1.57-.7,2.6,2.6,0,0,1-.59-1.78v-8.25a2.49,2.49,0,0,1,.55-1.72,2,2,0,0,1,1.53-.65A2,2,0,0,1,235,441.4a5.35,5.35,0,0,1,.83-.54,5.08,5.08,0,0,1,2.4-.55,4.93,4.93,0,0,1,2.38.58,4,4,0,0,1,1.64,1.72,4.17,4.17,0,0,1,.43,1.36,12.55,12.55,0,0,1,.09,1.65v5.31a2.64,2.64,0,0,1-.58,1.79A2.06,2.06,0,0,1,240.58,453.41Z" transform="translate(-209.2 -252.9)"/><path class="cls-4" d="M238.2,441.06a4,4,0,0,1,2,.49,3.08,3.08,0,0,1,1.33,1.39,3.34,3.34,0,0,1,.37,1.13,12.85,12.85,0,0,1,.08,1.55v5.31a1.88,1.88,0,0,1-.39,1.29,1.31,1.31,0,0,1-1,.44,1.29,1.29,0,0,1-1-.45,1.85,1.85,0,0,1-.4-1.28v-4.76a4.79,4.79,0,0,0-.39-2.16,1.62,1.62,0,0,0-1.57-.75,2.34,2.34,0,0,0-1.39.46,2.68,2.68,0,0,0-.92,1.25,8.87,8.87,0,0,0-.21,2.38v3.58a1.86,1.86,0,0,1-.4,1.3,1.34,1.34,0,0,1-1,.43,1.28,1.28,0,0,1-1-.45,1.85,1.85,0,0,1-.4-1.28v-8.25a1.8,1.8,0,0,1,.36-1.22,1.21,1.21,0,0,1,1-.4,1.3,1.3,0,0,1,.68.18,1.19,1.19,0,0,1,.48.53,1.8,1.8,0,0,1,.19.87V443a5,5,0,0,1,1.64-1.46,4.4,4.4,0,0,1,2.06-.46m0-1.5a5.9,5.9,0,0,0-2.75.63l-.31.18a2.82,2.82,0,0,0-.55-.43,2.87,2.87,0,0,0-1.44-.38,2.7,2.7,0,0,0-2.1.91,3.25,3.25,0,0,0-.73,2.21v8.25a3.28,3.28,0,0,0,.78,2.27,2.75,2.75,0,0,0,2.13,1,2.85,2.85,0,0,0,2.14-.91,3.32,3.32,0,0,0,.8-2.32v-3.58a8.13,8.13,0,0,1,.13-1.89,1.19,1.19,0,0,1,.38-.53.89.89,0,0,1,.51-.17,1.17,1.17,0,0,1,.27,0,3.61,3.61,0,0,1,.19,1.38v4.76a3.32,3.32,0,0,0,.77,2.27,2.91,2.91,0,0,0,4.3,0,3.34,3.34,0,0,0,.77-2.29v-5.31a12.39,12.39,0,0,0-.1-1.76,5,5,0,0,0-.51-1.61,4.59,4.59,0,0,0-1.94-2,5.59,5.59,0,0,0-2.74-.68Z" transform="translate(-209.2 -252.9)"/><path d="M228.59,452.53a1.82,1.82,0,0,1-1.4-.62,2.42,2.42,0,0,1-.52-1.62v-8.16a2.3,2.3,0,0,1,.53-1.61,1.81,1.81,0,0,1,1.39-.59,1.84,1.84,0,0,1,1.39.58,2.16,2.16,0,0,1,.55,1.54v8.24a2.33,2.33,0,0,1-.54,1.64A1.83,1.83,0,0,1,228.59,452.53Zm0-12.93a2,2,0,0,1-1.35-.49,1.91,1.91,0,0,1,0-2.78,1.94,1.94,0,0,1,1.35-.52,2,2,0,0,1,1.3.47,1.75,1.75,0,0,1,.61,1.42,1.78,1.78,0,0,1-.59,1.4A1.92,1.92,0,0,1,228.62,439.6Z" transform="translate(-209.2 -252.9)"/><path d="M228.62,436.31a1.53,1.53,0,0,1,1,.35,1.29,1.29,0,0,1,.43,1,1.31,1.31,0,0,1-.42,1,1.55,1.55,0,0,1-2,0,1.3,1.3,0,0,1-.43-1,1.28,1.28,0,0,1,.44-1,1.45,1.45,0,0,1,1-.39m0,4.12a1.38,1.38,0,0,1,1,.42,1.69,1.69,0,0,1,.41,1.2v8.24a1.86,1.86,0,0,1-.41,1.3,1.36,1.36,0,0,1-1,.44,1.29,1.29,0,0,1-1-.45,1.86,1.86,0,0,1-.4-1.29v-8.16a1.8,1.8,0,0,1,.4-1.28,1.33,1.33,0,0,1,1-.42m0-5.12a2.44,2.44,0,0,0-1.68.65,2.41,2.41,0,0,0,0,3.53,2.09,2.09,0,0,0,.39.27,2.48,2.48,0,0,0-.5.42,2.76,2.76,0,0,0-.66,1.95v8.16a2.9,2.9,0,0,0,.64,1.95,2.41,2.41,0,0,0,3.54,0,2.8,2.8,0,0,0,.68-2v-8.24a2.58,2.58,0,0,0-.69-1.88,2,2,0,0,0-.48-.4,2.34,2.34,0,0,0,.41-.29,2.29,2.29,0,0,0,.76-1.78,2.26,2.26,0,0,0-.79-1.81,2.55,2.55,0,0,0-1.62-.58Z" transform="translate(-209.2 -252.9)"/><path class="cls-7" d="M227,453.41a2,2,0,0,1-1.58-.71,2.62,2.62,0,0,1-.58-1.77v-8.17a2.57,2.57,0,0,1,.59-1.78.61.61,0,1,0,.09-1.05,2,2,0,0,1-.68-1.6,2.05,2.05,0,0,1,.68-1.55,2.19,2.19,0,0,1,1.51-.59,2.27,2.27,0,0,1,1.47.53,2,2,0,0,1,.7,1.61,2.06,2.06,0,0,1-.67,1.59,2.24,2.24,0,0,1-.88.48,2,2,0,0,1,.93.57,2.38,2.38,0,0,1,.62,1.71v8.25a2.56,2.56,0,0,1-.61,1.8A2.1,2.1,0,0,1,227,453.41Z" transform="translate(-209.2 -252.9)"/><path class="cls-4" d="M227,436.94a1.51,1.51,0,0,1,1,.36,1.27,1.27,0,0,1,.43,1,1.31,1.31,0,0,1-.42,1,1.44,1.44,0,0,1-1,.37,1.51,1.51,0,0,1-1-.36,1.41,1.41,0,0,1,0-2,1.43,1.43,0,0,1,1-.39m0,4.12a1.36,1.36,0,0,1,1,.43,1.65,1.65,0,0,1,.41,1.19v8.25a1.83,1.83,0,0,1-.41,1.29,1.37,1.37,0,0,1-1,.44,1.3,1.3,0,0,1-1-.45,1.9,1.9,0,0,1-.39-1.28v-8.17a1.82,1.82,0,0,1,.39-1.27,1.32,1.32,0,0,1,1-.43m0-5.62a3,3,0,0,0-2,.78,2.91,2.91,0,0,0-.08,4.19l-.06.06a3.28,3.28,0,0,0-.79,2.29v8.17a3.38,3.38,0,0,0,.76,2.27,2.78,2.78,0,0,0,2.15,1,2.86,2.86,0,0,0,2.14-.92,3.32,3.32,0,0,0,.81-2.31v-8.25a3.12,3.12,0,0,0-.83-2.23l0,0a2.78,2.78,0,0,0,.86-2.09,2.72,2.72,0,0,0-1-2.19,3,3,0,0,0-1.94-.7Z" transform="translate(-209.2 -252.9)"/><path d="M218.79,452.53a2,2,0,0,1-1.49-.63,2.5,2.5,0,0,1-.57-1.76V439.5h-2.88a2.18,2.18,0,0,1-1.52-.48,1.79,1.79,0,0,1,0-2.61,2.22,2.22,0,0,1,1.49-.47h9.86a2.24,2.24,0,0,1,1.54.49,1.71,1.71,0,0,1,.55,1.3,1.69,1.69,0,0,1-.56,1.3,2.28,2.28,0,0,1-1.53.47h-2.88v10.64a2.53,2.53,0,0,1-.56,1.76A1.93,1.93,0,0,1,218.79,452.53Z" transform="translate(-209.2 -252.9)"/><path d="M223.71,436.44a1.72,1.72,0,0,1,1.2.36,1.21,1.21,0,0,1,.39.93,1.17,1.17,0,0,1-.39.92,1.76,1.76,0,0,1-1.2.35h-3.38v11.14a2,2,0,0,1-.43,1.42,1.56,1.56,0,0,1-2.23,0,2,2,0,0,1-.44-1.42V439h-3.38a1.67,1.67,0,0,1-1.18-.35,1.29,1.29,0,0,1,0-1.86,1.76,1.76,0,0,1,1.17-.35h9.86m0-1h-9.86A2.71,2.71,0,0,0,212,436a2.17,2.17,0,0,0-.75,1.7,2.19,2.19,0,0,0,.72,1.67,2.66,2.66,0,0,0,1.85.6h2.38v10.14a3,3,0,0,0,.7,2.1,2.49,2.49,0,0,0,1.86.79,2.41,2.41,0,0,0,1.84-.79,3,3,0,0,0,.7-2.1V440h2.38a2.72,2.72,0,0,0,1.86-.6,2.15,2.15,0,0,0,.73-1.67,2.19,2.19,0,0,0-.72-1.67,2.69,2.69,0,0,0-1.87-.62Z" transform="translate(-209.2 -252.9)"/><path class="cls-7" d="M217.21,453.41a2.24,2.24,0,0,1-1.68-.71,2.77,2.77,0,0,1-.63-1.93V440.39h-2.63a2.44,2.44,0,0,1-1.69-.55,2.06,2.06,0,0,1,0-3,2.46,2.46,0,0,1,1.66-.52h9.86a2.42,2.42,0,0,1,1.7.55,2,2,0,0,1,0,3,2.45,2.45,0,0,1-1.69.54H219.5v10.38a2.74,2.74,0,0,1-.63,1.93A2.18,2.18,0,0,1,217.21,453.41Z" transform="translate(-209.2 -252.9)"/><path class="cls-4" d="M222.13,437.08a1.72,1.72,0,0,1,1.2.35,1.21,1.21,0,0,1,.39.93,1.17,1.17,0,0,1-.4.93,1.76,1.76,0,0,1-1.19.35h-3.38v11.13a2.09,2.09,0,0,1-.43,1.43,1.57,1.57,0,0,1-2.23,0,2,2,0,0,1-.44-1.42V439.64h-3.38a1.76,1.76,0,0,1-1.19-.35,1.22,1.22,0,0,1-.38-.93,1.16,1.16,0,0,1,.4-.94,1.76,1.76,0,0,1,1.17-.34h9.86m0-1.5h-9.86a3.2,3.2,0,0,0-2.15.7,2.81,2.81,0,0,0,0,4.12,3.14,3.14,0,0,0,2.19.74h1.88v9.63a3.49,3.49,0,0,0,.83,2.44,3,3,0,0,0,2.23,1,2.93,2.93,0,0,0,2.21-1,3.45,3.45,0,0,0,.83-2.44v-9.63h1.88a3.22,3.22,0,0,0,2.19-.73,2.79,2.79,0,0,0,0-4.09,3.21,3.21,0,0,0-2.21-.74Z" transform="translate(-209.2 -252.9)"/><path class="cls-9" d="M271.55,282.63s2.83-.75,8.08,3.17,8.5.16,10,1.41-1.5,8-10.75,7.25" transform="translate(-209.2 -252.9)"/><path class="cls-9" d="M277.47,289.88s3.2,7,3.31,23.25c0,0,1.94,1.5,1.27,2.5s-2.92,0-2.92,0,.92,1.83,0,2.33-1.66-1.5-1.66-1.5-.17,2.5-1.25,2.34-1.09-2.25-1.09-2.25-.41,2.33-1.58,1.91-.42-2.16-.42-2.16-2.75,1.25-3.08.16,2.17-2.5,2.17-2.5-.23-4.5-2.2-7.41" transform="translate(-209.2 -252.9)"/><path class="cls-9" d="M272.55,302.55s.36,5.61-13.63,4.86" transform="translate(-209.2 -252.9)"/><path class="cls-9" d="M259.22,303.8s-.92,7.91-1.75,9.91c0,0,2.5.89,2.22,1.89s-1.56.73-1.56.73.84,2.88-.38,2.88-2.34-2.33-2.34-2.33-.44,2.5-1.72,2.33-1.06-2.83-1.06-2.83-1.61,2.56-2.66,1.89,0-2.67,0-2.67-3,1.34-3.22.11,2.83-2.55,2.83-2.55l-1.5-7.72" transform="translate(-209.2 -252.9)"/><path class="cls-9" d="M236.36,303.8s.55,1.17,4.12,2.23a25.91,25.91,0,0,0,7.64.78" transform="translate(-209.2 -252.9)"/><path class="cls-9" d="M237.89,305l-1.31,6.93s2.33,2.11,1.83,2.83-2.78,0-2.78,0,.39,2.78-.83,2.5-1.89-2.72-1.89-2.72-.33,3.09-1.66,2.74-1.06-3.3-1.06-3.3-1.89,2.61-2.83,1.78,0-3.22,0-3.22-3.34.61-3.17-.56,2.72-2.33,2.72-2.33,1.45-9.17,3.45-11.83" transform="translate(-209.2 -252.9)"/><path class="cls-9" d="M228.38,296.88c-8.66-4.37-11.91-25.5-11.08-29.83s4.1-7.25,6.88-3.84,3.95,2.26,6-1.49,4.91-8.67,8.83-8,1.71,3.92,3.19,5.09,6.14-4.42,13.89-4.59,6.59,2.17,5.92,5.84-.67,5.75,2.67,6.25,10.83.5,10.83,3.41-1,4.09-5.08,6.84-1.5,4.66,2.08,7.08,2.67,7.17-6.25,9.92S238,301.71,228.38,296.88Z" transform="translate(-209.2 -252.9)"/><path class="cls-9" d="M234.41,296.05s.84-1.72,2.39-1.5" transform="translate(-209.2 -252.9)"/><path class="cls-9" d="M227.41,290.93s1.11,1.62.28,2.4" transform="translate(-209.2 -252.9)"/><path class="cls-9" d="M262.91,307.57l-.89,5s2.11.83,2.06,1.83-2.33.61-2.33.61-.29,2.84-2,1.34" transform="translate(-209.2 -252.9)"/><path class="cls-10" d="M229.89,278.36c-.37-4.19-4.8-9.67-7.81-4.55-3.56,6.07.11,10.3,2.61,11.33C226.75,286,230.62,286.58,229.89,278.36Z" transform="translate(-209.2 -252.9)"/><path class="cls-11" d="M232.08,281.16s-4.77-6.23-4.47-11.66" transform="translate(-209.2 -252.9)"/><path class="cls-11" d="M224.73,271.75c-.23,0-3.81.05-4.52-2.22" transform="translate(-209.2 -252.9)"/><path class="cls-11" d="M221.78,274.35s-1.59,1.48-2.92.37" transform="translate(-209.2 -252.9)"/><path class="cls-12" d="M228,274.69s-2.46,1.78-1.9,6.14" transform="translate(-209.2 -252.9)"/><path class="cls-10" d="M244.47,289c0,4.29,13.22.45,14.16-1.78a6.82,6.82,0,0,0-2.38-8.5C252.69,276.21,244.52,278.27,244.47,289Z" transform="translate(-209.2 -252.9)"/><path class="cls-13" d="M252.52,273.77" transform="translate(-209.2 -252.9)"/><path class="cls-11" d="M252.25,273.77s-.62,4.89-8.28,8.72" transform="translate(-209.2 -252.9)"/><path class="cls-11" d="M252.25,277.76s5.55-.43,6.38-2.6" transform="translate(-209.2 -252.9)"/><path class="cls-11" d="M257.22,279.52s2.16,2.47,4.68.86" transform="translate(-209.2 -252.9)"/><path class="cls-12" d="M250.88,278.13a34.05,34.05,0,0,1,2.34,8.08" transform="translate(-209.2 -252.9)"/><path class="cls-1" d="M267.67,436.88a3.88,3.88,0,0,1,1.57,1,3.76,3.76,0,0,1-1.42,0,.78.78,0,0,0-.57.16.74.74,0,0,0-.28.53,2.38,2.38,0,0,1-.35,1.11.64.64,0,0,1-.25-.12l0-.09c.3-1.22-1.1-2-2.08-2.46a48.37,48.37,0,0,0,.85-5.13c.93,0,1.81,0,2.65,0l-.64,4.22A.75.75,0,0,0,267.67,436.88Z" transform="translate(-209.2 -252.9)"/><path class="cls-2" d="M294.29,412.13c-.71,1.88-3.5,4.91-9.46,4.78a13.6,13.6,0,0,0-1-2.42.75.75,0,0,0-1.3.74s2.85,5.29,3.37,21a.74.74,0,0,0,.31.58c.71.53,1.26,1.28,1.15,1.46s-1.16.13-2-.21a.75.75,0,0,0-.95,1,2.88,2.88,0,0,1,.37,1.27,3.15,3.15,0,0,1-.65-1,.77.77,0,0,0-.83-.45.76.76,0,0,0-.62.71,4.83,4.83,0,0,1-.34,1.65c-.21,0-.47-.81-.49-1.5a.74.74,0,0,0-.7-.72.77.77,0,0,0-.79.63,2.45,2.45,0,0,1-.56,1.36.17.17,0,0,1-.12-.09,1.88,1.88,0,0,1,.11-1.08.74.74,0,0,0-.18-.82.77.77,0,0,0-.84-.13,6,6,0,0,1-2,.6,5.05,5.05,0,0,1,1.75-1.59.75.75,0,0,0,.37-.7,18,18,0,0,0-2.42-7.55,7.21,7.21,0,0,0,1.22-1,3.88,3.88,0,0,0,1.22-2.89.74.74,0,0,0-.8-.67.75.75,0,0,0-.69.79,2.62,2.62,0,0,1-.88,1.8c-1.23,1.27-4.19,2.73-11.21,2.63.17-1.52.28-2.69.29-2.81a.76.76,0,0,0-.68-.82.74.74,0,0,0-.81.69c-.2,2.17-.83,8.17-1.44,9.75a.71.71,0,0,0,0,.59.73.73,0,0,0,.44.39,4.89,4.89,0,0,1,1.78.94c-.08.3-.67.21-.67.21a.72.72,0,0,0-.7.24.75.75,0,0,0-.15.72,5.16,5.16,0,0,1,.27,1.91,4.26,4.26,0,0,1-1.6-1.85.74.74,0,0,0-.78-.4.75.75,0,0,0-.63.63c-.12.8-.52,1.75-.83,1.74h0c-.27,0-.51-1.08-.46-2a.75.75,0,0,0-.53-.76.73.73,0,0,0-.86.33c-.56.95-1.34,1.7-1.59,1.7-.28-.17-.05-1.13.22-1.69a.75.75,0,0,0-.14-.86.73.73,0,0,0-.85-.15,6.33,6.33,0,0,1-2.14.62,5.94,5.94,0,0,1,2.32-1.7.76.76,0,0,0,.42-.84l-1.71-7.68a.75.75,0,1,0-1.46.33l.11.5a24.52,24.52,0,0,1-6.76-.59c-3-.8-3.68-1.71-3.73-1.77a.75.75,0,0,0-1.32.71,3.55,3.55,0,0,0,1.41,1.24l-1,6.43a.75.75,0,0,0,.25.69,8.48,8.48,0,0,1,1.63,1.8,5.61,5.61,0,0,1-1.8-.23.71.71,0,0,0-.71.16.76.76,0,0,0-.24.68,4.6,4.6,0,0,1,0,1.62,4.12,4.12,0,0,1-1.28-2.11.77.77,0,0,0-.8-.53.76.76,0,0,0-.67.69,3.67,3.67,0,0,1-.67,2.11c-.4-.09-.63-1.44-.57-2.49a.75.75,0,0,0-1.36-.47,5.5,5.5,0,0,1-1.69,1.7c-.32-.27-.19-1.48.14-2.39a.76.76,0,0,0-.14-.75.75.75,0,0,0-.72-.24,7,7,0,0,1-2.21.16,6.36,6.36,0,0,1,2.17-1.63.74.74,0,0,0,.42-.6c.23-2.33,1.14-8.86,2.63-11a.86.86,0,0,0,.11-.24c6.36-23.61,39.92-16.43,40.26-16.35a.88.88,0,0,0,.36,0s2.63-.62,7.53,2.84a8.72,8.72,0,0,0,8.38,1.32c.74-.21,1.37-.39,1.62-.2C294.48,410.77,294.62,411.26,294.29,412.13Z" transform="translate(-209.2 -252.9)"/><path class="cls-3" d="M283.55,415.59s8,.11,9.11-1.18c0,0-3.23,4.4-8.36,3.24Z" transform="translate(-209.2 -252.9)"/><path class="cls-3" d="M242.65,429.39s-1.4,6.11-3.9,5.66-1.83-8.64-1.83-8.64,1.73-14.53,9.52-15.78,29.86-4.67,32.16-.39,6.92,18.63,6,23.72-4.52,2.89-4.91,1a49.52,49.52,0,0,0-2.64-6.64s4.72-7-.35-7.71-12.73,2.43-13,8.07-2.11,8.59-4.42,8.64-5.14-7.24-5.07-9.25S237.43,422.53,242.65,429.39Z" transform="translate(-209.2 -252.9)"/><path class="cls-2" d="M295.32,409.53c-.85-.67-1.87-.38-3-.08a7.2,7.2,0,0,1-7.1-1.1c-4.83-3.4-7.8-3.24-8.6-3.1-2.59-.53-35.25-6.64-41.83,17.33-1.74,2.62-2.59,9.4-2.78,11.16-.9.48-2.55,1.54-2.7,2.8a1.19,1.19,0,0,0,.38,1,3.5,3.5,0,0,0,2.52.43,3,3,0,0,0,.63,2.88,1.38,1.38,0,0,0,1.11.31,3.09,3.09,0,0,0,1.52-.84,2.4,2.4,0,0,0,1.61,2.1,1.17,1.17,0,0,0,.32,0,1.48,1.48,0,0,0,.92-.29,2.5,2.5,0,0,0,.76-1,2.71,2.71,0,0,0,1.58,1.17,1.26,1.26,0,0,0,1.18-.33,2.72,2.72,0,0,0,.57-2c.94.14,2.07.13,2.56-.62.64-1-.51-2.38-1.73-3.48l.91-5.59c.52.2,1.12.4,1.84.6a23,23,0,0,0,5.1.66c1.05,0,1.9,0,2.38,0l1.14,5.13c-1.1.59-2.93,1.8-2.64,3.19a1.26,1.26,0,0,0,.7.91,3.15,3.15,0,0,0,2.1,0,1.94,1.94,0,0,0,.84,2.07c.51.3,1.34.42,2.44-.67a2,2,0,0,0,1.61,1.62h.14a2.06,2.06,0,0,0,1.85-1.38,2.85,2.85,0,0,0,2.16,1.27,1.26,1.26,0,0,0,1-.55,3.34,3.34,0,0,0,.21-2.39l.25-.09a2.13,2.13,0,0,0,1.24.5,1.42,1.42,0,0,0,.61-.11,2.32,2.32,0,0,0,1.14-1.63h0a3.07,3.07,0,0,0,2-.49,1.3,1.3,0,0,0,.47-1c0-1.11-1.19-1.88-2-2.26l.6-4a18.59,18.59,0,0,0,5.81-1.33,15.72,15.72,0,0,1,2.19,6.52c-.9.61-2.45,1.88-2,3.17a1.29,1.29,0,0,0,.75.8,3.26,3.26,0,0,0,2.08-.1,1.91,1.91,0,0,0,.19.8,1.59,1.59,0,0,0,1,.88,1.41,1.41,0,0,0,1.25-.14A1.61,1.61,0,0,0,281,442a1.66,1.66,0,0,0,1.18.75h.15a1.37,1.37,0,0,0,.92-.33,2.26,2.26,0,0,0,.6-.9,1.88,1.88,0,0,0,.56.33,1.36,1.36,0,0,0,1.13-.12,1.69,1.69,0,0,0,.73-1.88,2.25,2.25,0,0,0,2.39-.78c.68-1.08-.19-2.37-1.24-3.24a80.29,80.29,0,0,0-2.17-17.46c6.47,0,9.6-3.55,10.44-5.76C296.21,411.31,296.06,410.11,295.32,409.53Zm-27.65,27.35a3.88,3.88,0,0,1,1.57,1,3.76,3.76,0,0,1-1.42,0,.78.78,0,0,0-.57.16.74.74,0,0,0-.28.53,2.38,2.38,0,0,1-.35,1.11.64.64,0,0,1-.25-.12l0-.09c.3-1.22-1.1-2-2.08-2.46a48.37,48.37,0,0,0,.85-5.13c.93,0,1.81,0,2.65,0l-.64,4.22A.75.75,0,0,0,267.67,436.88Zm26.62-24.75c-.71,1.88-3.5,4.91-9.46,4.78a13.6,13.6,0,0,0-1-2.42.75.75,0,0,0-1.3.74s2.85,5.29,3.37,21a.74.74,0,0,0,.31.58c.71.53,1.26,1.28,1.15,1.46s-1.16.13-2-.21a.75.75,0,0,0-.95,1,2.88,2.88,0,0,1,.37,1.27,3.15,3.15,0,0,1-.65-1,.77.77,0,0,0-.83-.45.76.76,0,0,0-.62.71,4.83,4.83,0,0,1-.34,1.65c-.21,0-.47-.81-.49-1.5a.74.74,0,0,0-.7-.72.77.77,0,0,0-.79.63,2.45,2.45,0,0,1-.56,1.36.17.17,0,0,1-.12-.09,1.88,1.88,0,0,1,.11-1.08.74.74,0,0,0-.18-.82.77.77,0,0,0-.84-.13,6,6,0,0,1-2,.6,5.05,5.05,0,0,1,1.75-1.59.75.75,0,0,0,.37-.7,18,18,0,0,0-2.42-7.55,7.21,7.21,0,0,0,1.22-1,3.88,3.88,0,0,0,1.22-2.89.74.74,0,0,0-.8-.67.75.75,0,0,0-.69.79,2.62,2.62,0,0,1-.88,1.8c-1.23,1.27-4.19,2.73-11.21,2.63.17-1.52.28-2.69.29-2.81a.76.76,0,0,0-.68-.82.74.74,0,0,0-.81.69c-.2,2.17-.83,8.17-1.44,9.75a.71.71,0,0,0,0,.59.73.73,0,0,0,.44.39,4.89,4.89,0,0,1,1.78.94c-.08.3-.67.21-.67.21a.72.72,0,0,0-.7.24.75.75,0,0,0-.15.72,5.16,5.16,0,0,1,.27,1.91,4.26,4.26,0,0,1-1.6-1.85.74.74,0,0,0-.78-.4.75.75,0,0,0-.63.63c-.12.8-.52,1.75-.83,1.74h0c-.27,0-.51-1.08-.46-2a.75.75,0,0,0-.53-.76.73.73,0,0,0-.86.33c-.56.95-1.34,1.7-1.59,1.7-.28-.17-.05-1.13.22-1.69a.75.75,0,0,0-.14-.86.73.73,0,0,0-.85-.15,6.33,6.33,0,0,1-2.14.62,5.94,5.94,0,0,1,2.32-1.7.76.76,0,0,0,.42-.84l-1.71-7.68a.75.75,0,1,0-1.46.33l.11.5a24.52,24.52,0,0,1-6.76-.59c-3-.8-3.68-1.71-3.73-1.77a.75.75,0,0,0-1.32.71,3.55,3.55,0,0,0,1.41,1.24l-1,6.43a.75.75,0,0,0,.25.69,8.48,8.48,0,0,1,1.63,1.8,5.61,5.61,0,0,1-1.8-.23.71.71,0,0,0-.71.16.76.76,0,0,0-.24.68,4.6,4.6,0,0,1,0,1.62,4.12,4.12,0,0,1-1.28-2.11.77.77,0,0,0-.8-.53.76.76,0,0,0-.67.69,3.67,3.67,0,0,1-.67,2.11c-.4-.09-.63-1.44-.57-2.49a.75.75,0,0,0-1.36-.47,5.5,5.5,0,0,1-1.69,1.7c-.32-.27-.19-1.48.14-2.39a.76.76,0,0,0-.14-.75.75.75,0,0,0-.72-.24,7,7,0,0,1-2.21.16,6.36,6.36,0,0,1,2.17-1.63.74.74,0,0,0,.42-.6c.23-2.33,1.14-8.86,2.63-11a.86.86,0,0,0,.11-.24c6.36-23.61,39.92-16.43,40.26-16.35a.88.88,0,0,0,.36,0s2.63-.62,7.53,2.84a8.72,8.72,0,0,0,8.38,1.32c.74-.21,1.37-.39,1.62-.2C294.48,410.77,294.62,411.26,294.29,412.13Z" transform="translate(-209.2 -252.9)"/><path class="cls-9" d="M243.6,429.28l-1.12,7s2.39,2.05,1.91,2.78-2.78.08-2.78.08.46,2.76-.77,2.52-2-2.67-2-2.67-.25,3.1-1.59,2.78-1.14-3.27-1.14-3.27-1.82,2.66-2.79,1.86-.09-3.23-.09-3.23-3.31.7-3.18-.47,2.66-2.4,2.66-2.4.84-8.6,2.77-11.32c6.63-24.58,41.14-16.89,41.14-16.89s2.81-.82,8.16,2.95,8.5,0,10,1.16-1.29,8-10.56,7.53" transform="translate(-209.2 -252.9)"/><path class="cls-9" d="M283.22,414.87s2.93,5.15,3.47,21.39c0,0,2,1.45,1.34,2.46s-2.91.08-2.91.08,1,1.81.06,2.33-1.71-1.45-1.71-1.45-.1,2.5-1.19,2.36-1.14-2.22-1.14-2.22-.35,2.35-1.53,2-.47-2.15-.47-2.15-2.72,1.32-3.08.25,2.1-2.56,2.1-2.56-.35-4.49-2.4-7.36" transform="translate(-209.2 -252.9)"/><path class="cls-9" d="M278.19,425.9s.51,5.6-13.5,5.22" transform="translate(-209.2 -252.9)"/><path class="cls-9" d="M264.89,427.5s-.7,7.94-1.48,10c0,0,2.52.82,2.27,1.83s-1.54.76-1.54.76.91,2.87-.31,2.9-2.39-2.27-2.39-2.27-.38,2.51-1.66,2.38-1.13-2.81-1.13-2.81-1.55,2.6-2.62,2-.07-2.66-.07-2.66-3,1.41-3.22.19,2.77-2.63,2.77-2.63l-1.71-7.67" transform="translate(-209.2 -252.9)"/><path class="cls-9" d="M242,428.11s.59,1.16,4.19,2.12a25.79,25.79,0,0,0,7.65.58" transform="translate(-209.2 -252.9)"/><path class="cls-9" d="M268.69,431.18l-.76,5s2.13.78,2.1,1.78-2.31.67-2.31.67-.22,2.84-2,1.39" transform="translate(-209.2 -252.9)"/><path class="cls-2" d="M235,425.14c-10-3.8-16.69-28.59-16.44-33.92s3.35-9.37,6.86-5.74,4.61,2,6.3-2.8,4-11.2,8.34-11.05,2.43,4.41,4.2,5.56,6-6.32,14.32-7.8,7.44,1.5,7.27,6,.14,7,3.82,7.05,11.77-1.2,12.21,2.3-.47,5.06-4.47,9-.92,5.84,3.31,8.15,4,8.14-5.26,12.92S246.05,429.34,235,425.14Z" transform="translate(-209.2 -252.9)"/><path class="cls-5" d="M264.57,393c7.88,2,10.79,12.43,6.83,17.94s-25.23,14.8-25.23,14.8-18,7.17-25.36-23c0,0-1.86-6.24,7.73-10.13,8.11-3.28,14-11.51,22.61-11.76S259.21,391.69,264.57,393Z" transform="translate(-209.2 -252.9)"/><path class="cls-6" d="M244.29,425.58s10.18-6.2,1.37-9.17-18.36-2.85-14.45,5.84C234.36,427.16,244.29,425.58,244.29,425.58Z" transform="translate(-209.2 -252.9)"/><path class="cls-9" d="M235,425.14c-10-3.8-16.69-28.59-16.44-33.92s3.35-9.37,6.86-5.74,4.61,2,6.3-2.8,4-11.2,8.34-11.05,2.43,4.41,4.2,5.56,6-6.32,14.32-7.8,7.44,1.5,7.27,6,.14,7,3.82,7.05,11.77-1.2,12.21,2.3-.47,5.06-4.47,9-.92,5.84,3.31,8.15,4,8.14-5.26,12.92S246.05,429.34,235,425.14Z" transform="translate(-209.2 -252.9)"/><path class="cls-9" d="M242.45,423.15s.53-2.24,2.24-2.34" transform="translate(-209.2 -252.9)"/><path class="cls-9" d="M233.88,418.72s1.53,1.65.81,2.77" transform="translate(-209.2 -252.9)"/><ellipse class="cls-14" cx="49.17" cy="153.6" rx="7.48" ry="8.3"/><ellipse class="cls-14" cx="20.5" cy="150.09" rx="6.61" ry="7.34"/><ellipse class="cls-4" cx="47.64" cy="153.84" rx="4.79" ry="5.31"/><ellipse class="cls-4" cx="21.51" cy="150.63" rx="4.23" ry="4.7"/><ellipse class="cls-7" cx="20.03" cy="148.41" rx="1.85" ry="2.05"/><ellipse class="cls-7" cx="45.54" cy="151.71" rx="1.95" ry="2.17"/><path class="cls-3" d="M232.39,391.61s13-3.16,25.95,1.71C258.34,393.32,247.37,383.47,232.39,391.61Z" transform="translate(-209.2 -252.9)"/><path class="cls-8" d="M283,438.79c-1.49-1.45-5.51-6.87-4.61-9.6,2.38-7.19.87-7.06-2.61-2.39-1.24,1.66-6.06,1.5-8.78,1.57a2.18,2.18,0,0,0-2.07,1.68l-.24,1-1.07,5.5a1.2,1.2,0,0,0,.58,1.28l1.14.66a.82.82,0,0,1,.4.72l0,.78,1,.42.57-1.08a1.21,1.21,0,0,1,.9-.63l.81-.11a.89.89,0,0,0,.77-.75v-.05a1,1,0,0,0-.43-1l-1-.7.3-3.93a1.36,1.36,0,0,1,1.12-1.23l2.8-.48.08,0,2-.59a1,1,0,0,1,1.14.5l1.61,3.26a2.33,2.33,0,0,1,.25.89l.2,2a2,2,0,0,1-.56,1.56L276,439.43l.72.94,2.05-.57.17.82a.88.88,0,0,0,.56.65l.7.27,1.82.29a.85.85,0,0,0,1-.71C283.11,440.3,284,439.77,283,438.79Z" transform="translate(-209.2 -252.9)"/><path class="cls-8" d="M283.55,415.59l-.54-1.84a.8.8,0,0,1,1.1-1l2.73,1.2a2.68,2.68,0,0,0,1.37.21l4.9-.56a.38.38,0,0,1,.28.67l-2.61,2.05a2.65,2.65,0,0,1-1.24.53l-3.85.56a1.72,1.72,0,0,1-1.86-1.12Z" transform="translate(-209.2 -252.9)"/><path class="cls-8" d="M278.49,413.67c.19-.12-1.23,5.87-7.51,8s-8.49,1.58-10.68,4.72S257,437,257.94,438.11s2.56-.19,3.3,1.43-.49,3.86-1.26,3.51-1.32-2.59-1.32-2.59-2.07,2.57-2.58,1.78a4.44,4.44,0,0,1-.24-2.41s-2.65,1.06-2.9.24,2.38-2.86,2.38-2.86l-1.3-6.65s-4.2,1.42-7.64,0-6.24-3.87-6.79-3.26-3.7,5-3.74,6.81,2.17,3,2.44,3.12.59,1.69.59,1.69-.44,3.4-1.59,2.77-1.26-3.08-1.26-3.08-.9,2.89-2.36,1.94-.24-3.34-.24-3.34-3.33.5-3.25-.29,2.37-2.45,2.37-2.45l1.95-9.41a26.68,26.68,0,0,0,11.06.93C251.55,425.22,274.07,416.47,278.49,413.67Z" transform="translate(-209.2 -252.9)"/><path d="M464.3,440.61a1.5,1.5,0,0,1-1.16-.51,1.93,1.93,0,0,1-.43-1.31v-3.61a3.16,3.16,0,0,0-.24-1.41c0-.08-.16-.3-.74-.3a1.29,1.29,0,0,0-.77.25,1.41,1.41,0,0,0-.52.71,6,6,0,0,0-.13,1.64v2.72a1.89,1.89,0,0,1-.44,1.33,1.55,1.55,0,0,1-1.16.49,1.45,1.45,0,0,1-1.14-.51,1.88,1.88,0,0,1-.43-1.31v-6.27a1.82,1.82,0,0,1,.4-1.26,1.43,1.43,0,0,1,1.11-.47,1.55,1.55,0,0,1,.77.2,1.5,1.5,0,0,1,.56.61l0,.06a3.77,3.77,0,0,1,.69-.46,3.84,3.84,0,0,1,1.79-.41,3.67,3.67,0,0,1,1.78.44,2.81,2.81,0,0,1,1.21,1.27,3.08,3.08,0,0,1,.33,1,10.29,10.29,0,0,1,.07,1.24v4a1.92,1.92,0,0,1-.43,1.32A1.48,1.48,0,0,1,464.3,440.61Z" transform="translate(-209.2 -252.9)"/><path d="M462.49,431.29a3.09,3.09,0,0,1,1.53.37,2.68,2.68,0,0,1,1.29,1.92,9.22,9.22,0,0,1,.07,1.18v4a1.43,1.43,0,0,1-.3,1,1,1,0,0,1-.78.33,1,1,0,0,1-.78-.34,1.39,1.39,0,0,1-.31-1v-3.61a3.78,3.78,0,0,0-.29-1.65,1.23,1.23,0,0,0-1.19-.56,1.76,1.76,0,0,0-1.06.34,2,2,0,0,0-.7.95,6.65,6.65,0,0,0-.16,1.81v2.72a1.38,1.38,0,0,1-.31,1,1,1,0,0,1-.79.33,1,1,0,0,1-.77-.34,1.44,1.44,0,0,1-.3-1v-6.27a1.35,1.35,0,0,1,.27-.92.92.92,0,0,1,.74-.31,1,1,0,0,1,.52.13,1.06,1.06,0,0,1,.37.41,1.46,1.46,0,0,1,.14.66v.26a3.8,3.8,0,0,1,1.25-1.11,3.38,3.38,0,0,1,1.56-.35m0-1a4.3,4.3,0,0,0-2,.47,2.79,2.79,0,0,0-.33.19,1.75,1.75,0,0,0-.47-.39,2,2,0,0,0-1-.27,1.93,1.93,0,0,0-1.49.64,2.36,2.36,0,0,0-.52,1.59v6.27a2.41,2.41,0,0,0,.55,1.64,2,2,0,0,0,1.52.68,2,2,0,0,0,1.53-.65,2.37,2.37,0,0,0,.57-1.67v-2.72a5.55,5.55,0,0,1,.11-1.5,1,1,0,0,1,.34-.45.72.72,0,0,1,.47-.15.79.79,0,0,1,.31,0,2.79,2.79,0,0,1,.17,1.17v3.61a2.36,2.36,0,0,0,.56,1.64,2,2,0,0,0,1.53.68,2,2,0,0,0,1.52-.66,2.42,2.42,0,0,0,.56-1.66v-4a9.61,9.61,0,0,0-.08-1.32,3.6,3.6,0,0,0-.39-1.2,3.31,3.31,0,0,0-1.4-1.45,4.14,4.14,0,0,0-2-.5Z" transform="translate(-209.2 -252.9)"/><path class="cls-7" d="M463.1,441.34a1.74,1.74,0,0,1-1.35-.59,2.13,2.13,0,0,1-.49-1.48v-3.61a3,3,0,0,0-.21-1.3c-.06-.11-.24-.16-.53-.16a1,1,0,0,0-.61.2,1.24,1.24,0,0,0-.44.6,6.31,6.31,0,0,0-.11,1.56v2.71a2.14,2.14,0,0,1-.51,1.51,1.79,1.79,0,0,1-1.34.56,1.71,1.71,0,0,1-1.33-.59,2.13,2.13,0,0,1-.49-1.48V433a2.1,2.1,0,0,1,.45-1.42,1.69,1.69,0,0,1,1.31-.56,1.72,1.72,0,0,1,.89.24,1.55,1.55,0,0,1,.54.51,3.76,3.76,0,0,1,.5-.31,4.1,4.1,0,0,1,1.91-.44,3.84,3.84,0,0,1,1.89.47,3.09,3.09,0,0,1,1.32,1.38,3.17,3.17,0,0,1,.35,1.09,9.17,9.17,0,0,1,.07,1.28v4a2.13,2.13,0,0,1-.49,1.49A1.73,1.73,0,0,1,463.1,441.34Z" transform="translate(-209.2 -252.9)"/><path class="cls-4" d="M461.29,431.77a3.21,3.21,0,0,1,1.53.37,2.4,2.4,0,0,1,1,1.06,2.56,2.56,0,0,1,.28.86,9.48,9.48,0,0,1,.06,1.18v4a1.43,1.43,0,0,1-.3,1,1,1,0,0,1-.77.33,1,1,0,0,1-.79-.34,1.44,1.44,0,0,1-.3-1v-3.61a3.58,3.58,0,0,0-.3-1.64,1.21,1.21,0,0,0-1.19-.57,1.73,1.73,0,0,0-1,.34,1.93,1.93,0,0,0-.7.95,6.69,6.69,0,0,0-.16,1.82v2.71a1.38,1.38,0,0,1-.31,1,1,1,0,0,1-.79.33,1,1,0,0,1-.77-.34,1.44,1.44,0,0,1-.3-1V433a1.35,1.35,0,0,1,.27-.92.91.91,0,0,1,.74-.31,1,1,0,0,1,.51.14.9.9,0,0,1,.37.4,1.34,1.34,0,0,1,.14.66v.26a3.9,3.9,0,0,1,1.25-1.11,3.46,3.46,0,0,1,1.57-.35m0-1.5a5,5,0,0,0-2.26.52l0,0-.29-.2a2.44,2.44,0,0,0-1.27-.34,2.48,2.48,0,0,0-1.87.81,2.8,2.8,0,0,0-.64,1.92v6.27a2.9,2.9,0,0,0,.68,2,2.49,2.49,0,0,0,1.89.84,2.53,2.53,0,0,0,1.89-.8,2.88,2.88,0,0,0,.71-2v-2.71a6.56,6.56,0,0,1,.08-1.33.41.41,0,0,1,.16-.22l.1-.06a3.64,3.64,0,0,1,.06.71v3.61a2.9,2.9,0,0,0,.68,2,2.52,2.52,0,0,0,1.91.84,2.48,2.48,0,0,0,1.89-.83,2.89,2.89,0,0,0,.68-2v-4a9,9,0,0,0-.08-1.38,4.19,4.19,0,0,0-2-3,4.67,4.67,0,0,0-2.26-.56Z" transform="translate(-209.2 -252.9)"/><path d="M451.27,440.61a5.34,5.34,0,0,1-2-.35,4.35,4.35,0,0,1-1.53-1,4.56,4.56,0,0,1-1-1.57,5.6,5.6,0,0,1-.33-2,5.75,5.75,0,0,1,.34-2,4.23,4.23,0,0,1,2.52-2.58,5.37,5.37,0,0,1,1.95-.35,5.49,5.49,0,0,1,2,.35,4.22,4.22,0,0,1,1.54,1,4.38,4.38,0,0,1,1,1.57,5.6,5.6,0,0,1,.33,2,5.68,5.68,0,0,1-.34,2,4.53,4.53,0,0,1-1,1.59,4.34,4.34,0,0,1-1.54,1A5.21,5.21,0,0,1,451.27,440.61Zm0-7.22a1.41,1.41,0,0,0-.84.25,1.58,1.58,0,0,0-.56.75,3.45,3.45,0,0,0-.23,1.31,3.61,3.61,0,0,0,.22,1.3,1.65,1.65,0,0,0,.57.75,1.37,1.37,0,0,0,.84.25,1.41,1.41,0,0,0,1.18-.55,3.45,3.45,0,0,0,0-3.51A1.41,1.41,0,0,0,451.27,433.39Z" transform="translate(-209.2 -252.9)"/><path d="M451.27,431.29a4.84,4.84,0,0,1,1.79.32,3.84,3.84,0,0,1,1.38.9,4,4,0,0,1,.87,1.4,5.41,5.41,0,0,1,0,3.58,4,4,0,0,1-.87,1.41,3.89,3.89,0,0,1-1.37.9,4.8,4.8,0,0,1-1.79.31,4.73,4.73,0,0,1-1.77-.31,4,4,0,0,1-1.36-.92,3.88,3.88,0,0,1-.88-1.39,5.13,5.13,0,0,1-.3-1.79,4.93,4.93,0,0,1,.31-1.8,3.89,3.89,0,0,1,.86-1.4,3.8,3.8,0,0,1,1.37-.9,4.84,4.84,0,0,1,1.77-.31m0,7.21a1.9,1.9,0,0,0,1.57-.74,3.91,3.91,0,0,0,0-4.13,1.9,1.9,0,0,0-1.57-.74,2,2,0,0,0-1.12.33,2.17,2.17,0,0,0-.75,1,4.06,4.06,0,0,0-.26,1.5,4,4,0,0,0,.26,1.49,2.1,2.1,0,0,0,.74,1,1.89,1.89,0,0,0,1.13.34m0-8.21a5.89,5.89,0,0,0-2.13.38,4.73,4.73,0,0,0-1.72,1.13,4.85,4.85,0,0,0-1.09,1.75,6.22,6.22,0,0,0-.37,2.15,6.3,6.3,0,0,0,.36,2.13,5,5,0,0,0,1.1,1.75,4.76,4.76,0,0,0,1.71,1.14,5.66,5.66,0,0,0,2.14.39,6,6,0,0,0,2.16-.38,4.8,4.8,0,0,0,1.72-1.14,5.08,5.08,0,0,0,1.09-1.75,6.25,6.25,0,0,0,.37-2.14,6.34,6.34,0,0,0-.36-2.13,5,5,0,0,0-1.1-1.75,4.8,4.8,0,0,0-1.72-1.14,5.8,5.8,0,0,0-2.16-.39Zm0,7.21a.88.88,0,0,1-.55-.16,1.06,1.06,0,0,1-.39-.53,2.8,2.8,0,0,1-.19-1.11,3,3,0,0,1,.19-1.12,1.17,1.17,0,0,1,.38-.53,1,1,0,0,1,.56-.16.92.92,0,0,1,.79.36,3,3,0,0,1,0,2.89.92.92,0,0,1-.79.36Z" transform="translate(-209.2 -252.9)"/><path class="cls-7" d="M450.07,441.34A5.38,5.38,0,0,1,448,441a4.65,4.65,0,0,1-2.66-2.74,5.88,5.88,0,0,1-.35-2.05,6,6,0,0,1,.35-2.06,4.7,4.7,0,0,1,1-1.66,4.41,4.41,0,0,1,1.63-1.07,5.46,5.46,0,0,1,2.05-.37,5.68,5.68,0,0,1,2.06.37,4.51,4.51,0,0,1,1.64,1.08,4.91,4.91,0,0,1,1,1.66,6,6,0,0,1,.34,2.05,5.73,5.73,0,0,1-.35,2.05,4.61,4.61,0,0,1-2.67,2.75A5.64,5.64,0,0,1,450.07,441.34Zm0-7.21a1.18,1.18,0,0,0-.7.2,1.25,1.25,0,0,0-.47.63,3.21,3.21,0,0,0-.21,1.22,3.37,3.37,0,0,0,.2,1.21,1.41,1.41,0,0,0,.48.64,1.29,1.29,0,0,0,1.68-.26,3.24,3.24,0,0,0,0-3.19A1.15,1.15,0,0,0,450.07,434.13Z" transform="translate(-209.2 -252.9)"/><path class="cls-4" d="M450.07,431.77a4.87,4.87,0,0,1,1.79.32,3.82,3.82,0,0,1,2.24,2.3,5.49,5.49,0,0,1,0,3.58,3.9,3.9,0,0,1-.87,1.41,4,4,0,0,1-1.37.9,4.84,4.84,0,0,1-1.79.31,4.69,4.69,0,0,1-1.77-.31,4.16,4.16,0,0,1-1.37-.91,4,4,0,0,1-.87-1.4,5.13,5.13,0,0,1-.3-1.79,5.19,5.19,0,0,1,.3-1.8,3.86,3.86,0,0,1,.87-1.4,3.8,3.8,0,0,1,1.37-.9,5,5,0,0,1,1.77-.31m0,7.21a1.9,1.9,0,0,0,1.57-.74,3.95,3.95,0,0,0,0-4.12,1.88,1.88,0,0,0-1.57-.74,1.94,1.94,0,0,0-1.12.33,2.13,2.13,0,0,0-.75,1,4.06,4.06,0,0,0-.26,1.5,3.78,3.78,0,0,0,.26,1.49,2.1,2.1,0,0,0,.74,1,1.87,1.87,0,0,0,1.13.34m0-8.71a6.29,6.29,0,0,0-2.32.42,5.31,5.31,0,0,0-1.9,1.24,5.45,5.45,0,0,0-1.19,1.93,6.5,6.5,0,0,0-.4,2.32,6.67,6.67,0,0,0,.39,2.31,5.48,5.48,0,0,0,3.08,3.18,6.32,6.32,0,0,0,2.34.42,6.53,6.53,0,0,0,2.34-.41,5.32,5.32,0,0,0,1.89-1.26,5.5,5.5,0,0,0,1.21-1.93,6.71,6.71,0,0,0,.39-2.31,6.61,6.61,0,0,0-.39-2.3,5.34,5.34,0,0,0-1.2-1.93,5.49,5.49,0,0,0-1.9-1.26,6.36,6.36,0,0,0-2.34-.42Zm0,7.21a.43.43,0,0,1-.27-.06.7.7,0,0,1-.21-.31,2.52,2.52,0,0,1-.15-.93,2.48,2.48,0,0,1,.15-.93.64.64,0,0,1,.2-.3.43.43,0,0,1,.28-.07.41.41,0,0,1,.39.17,1.9,1.9,0,0,1,.26,1.13,1.92,1.92,0,0,1-.26,1.13.41.41,0,0,1-.39.17Z" transform="translate(-209.2 -252.9)"/><path d="M425.26,443.83a4.15,4.15,0,0,1-1.63-.25,1.33,1.33,0,0,1-.38-2.16,1.44,1.44,0,0,1,1-.33,1.51,1.51,0,0,1,.48.07l.22,0a.72.72,0,0,0,.36-.06.5.5,0,0,0,.19-.21,4.26,4.26,0,0,0,.36-.73l.12-.29-2.6-6.54a2.84,2.84,0,0,1-.28-1,1.46,1.46,0,0,1,.21-.77,1.56,1.56,0,0,1,.58-.56,1.51,1.51,0,0,1,.77-.21,1.32,1.32,0,0,1,1.09.48,3.13,3.13,0,0,1,.51,1l1.37,4,1.26-3.61a9.77,9.77,0,0,1,.4-1,1.53,1.53,0,0,1,.53-.66,1.4,1.4,0,0,1,.8-.2,1.45,1.45,0,0,1,.72.2,1.4,1.4,0,0,1,.54.54,1.48,1.48,0,0,1,.19.71v.1c0,.11-.06.26-.11.45s-.12.41-.19.62l-2.84,7.41a9.09,9.09,0,0,1-.75,1.63,3,3,0,0,1-1.13,1A3.78,3.78,0,0,1,425.26,443.83Z" transform="translate(-209.2 -252.9)"/><path d="M430.62,431.29a.9.9,0,0,1,.47.13,1,1,0,0,1,.35.35,1,1,0,0,1,.13.47c0,.1-.06.25-.11.43s-.1.38-.17.57l-2.83,7.41a8.56,8.56,0,0,1-.72,1.53,2.28,2.28,0,0,1-.92.85,3.44,3.44,0,0,1-1.56.3,4,4,0,0,1-1.43-.2.84.84,0,0,1-.25-1.34,1,1,0,0,1,.67-.2,1.27,1.27,0,0,1,.34.05,1.81,1.81,0,0,0,.36.05,1.35,1.35,0,0,0,.59-.11,1.2,1.2,0,0,0,.39-.39,6.27,6.27,0,0,0,.39-.81l.2-.48-2.67-6.73a2.34,2.34,0,0,1-.25-.84,1,1,0,0,1,.14-.52,1.12,1.12,0,0,1,.4-.38,1.07,1.07,0,0,1,.52-.14.86.86,0,0,1,.71.3,3.19,3.19,0,0,1,.42.85l1.83,5.34,1.74-5a8.8,8.8,0,0,1,.38-.95,1.12,1.12,0,0,1,.35-.46,1,1,0,0,1,.53-.12m0-1a1.92,1.92,0,0,0-1.07.28,2,2,0,0,0-.71.86,9.73,9.73,0,0,0-.42,1.06l-.79,2.24-.9-2.61a3.7,3.7,0,0,0-.58-1.16,1.86,1.86,0,0,0-1.49-.67,2,2,0,0,0-1,.27,2.07,2.07,0,0,0-1,1.77,3.18,3.18,0,0,0,.33,1.23l2.51,6.33-.05.11a3.84,3.84,0,0,1-.31.66l0,0H425l-.11,0a2.33,2.33,0,0,0-.59-.08,2,2,0,0,0-1.34.46,1.72,1.72,0,0,0-.56,1.32,1.74,1.74,0,0,0,1.08,1.67,4.58,4.58,0,0,0,1.83.29,4.33,4.33,0,0,0,2-.41,3.39,3.39,0,0,0,1.31-1.21,9.59,9.59,0,0,0,.8-1.71l2.83-7.41a5.11,5.11,0,0,0,.21-.67c.05-.2.09-.36.11-.47l0-.1v-.11a2,2,0,0,0-.25-.95,1.92,1.92,0,0,0-.73-.74,2,2,0,0,0-1-.26Z" transform="translate(-209.2 -252.9)"/><path d="M443.72,440.61a1.52,1.52,0,0,1-1.14-.49,1.93,1.93,0,0,1-.43-1.34v-4l-.89,3.51c-.12.5-.23.87-.3,1.1a2.07,2.07,0,0,1-.57.83,1.71,1.71,0,0,1-1.19.4,1.8,1.8,0,0,1-1-.25,1.7,1.7,0,0,1-.61-.64,2.8,2.8,0,0,1-.3-.73l-.19-.71-.88-3.51v4a1.93,1.93,0,0,1-.43,1.33,1.49,1.49,0,0,1-1.16.5,1.51,1.51,0,0,1-1.15-.49,1.89,1.89,0,0,1-.43-1.34v-9.22a1.63,1.63,0,0,1,.62-1.45,2.39,2.39,0,0,1,1.35-.35h.73a3,3,0,0,1,1.14.16,1.28,1.28,0,0,1,.71.68,6.84,6.84,0,0,1,.36,1.09l1.21,4.56,1.21-4.56a7.86,7.86,0,0,1,.35-1.09,1.31,1.31,0,0,1,.71-.68,3.09,3.09,0,0,1,1.15-.16h.73a2.42,2.42,0,0,1,1.35.35,1.63,1.63,0,0,1,.62,1.45v9.22a1.93,1.93,0,0,1-.43,1.33A1.5,1.5,0,0,1,443.72,440.61Z" transform="translate(-209.2 -252.9)"/><path d="M443.35,428.26a1.86,1.86,0,0,1,1.07.27,1.14,1.14,0,0,1,.4,1v9.22a1.46,1.46,0,0,1-.3,1,1,1,0,0,1-.8.33,1,1,0,0,1-.77-.33,1.46,1.46,0,0,1-.3-1v-8l-1.87,7.43c-.12.48-.22.83-.3,1.06a1.53,1.53,0,0,1-.42.61,1.24,1.24,0,0,1-.86.28,1.28,1.28,0,0,1-.7-.18,1.29,1.29,0,0,1-.45-.45,2.87,2.87,0,0,1-.25-.62c-.06-.22-.12-.46-.18-.7l-1.87-7.43v8a1.46,1.46,0,0,1-.3,1,1.1,1.1,0,0,1-1.57,0,1.44,1.44,0,0,1-.3-1v-9.22a1.16,1.16,0,0,1,.39-1,1.92,1.92,0,0,1,1.08-.27h.73a2.79,2.79,0,0,1,1,.12.8.8,0,0,1,.44.43,7.26,7.26,0,0,1,.32,1l1.7,6.38,1.69-6.38a5.91,5.91,0,0,1,.33-1,.77.77,0,0,1,.44-.43,2.79,2.79,0,0,1,1-.12h.73m0-1h-.73a3.57,3.57,0,0,0-1.33.19,1.8,1.8,0,0,0-1,.94,7.65,7.65,0,0,0-.39,1.18l-.72,2.73-.73-2.74a8,8,0,0,0-.38-1.17,1.84,1.84,0,0,0-1-.94,3.64,3.64,0,0,0-1.33-.19h-.73a2.87,2.87,0,0,0-1.63.44,2,2,0,0,0-.84,1.86v9.22a2.43,2.43,0,0,0,.56,1.68,2,2,0,0,0,1.52.65,2,2,0,0,0,1.54-.66,2.44,2.44,0,0,0,.55-1.66l.09.33a3.77,3.77,0,0,0,.34.85,2.35,2.35,0,0,0,.79.81,2.26,2.26,0,0,0,1.23.33,2.2,2.2,0,0,0,1.52-.53,2.4,2.4,0,0,0,.71-1c.06-.18.13-.43.22-.75a2.38,2.38,0,0,0,.56,1.66,2,2,0,0,0,1.51.66,2,2,0,0,0,1.55-.66,2.49,2.49,0,0,0,.55-1.67v-9.22a2.06,2.06,0,0,0-.84-1.86,2.87,2.87,0,0,0-1.63-.44Z" transform="translate(-209.2 -252.9)"/><path class="cls-7" d="M424.06,444.56a4.46,4.46,0,0,1-1.73-.26,1.52,1.52,0,0,1-.93-1.45,1.43,1.43,0,0,1,.48-1.13,1.69,1.69,0,0,1,1.17-.4,2,2,0,0,1,.55.08.54.54,0,0,0,.15,0,.68.68,0,0,0,.24,0,.27.27,0,0,0,.09-.11,4.5,4.5,0,0,0,.34-.7l.09-.2L422,433.93a2.88,2.88,0,0,1-.3-1.12,1.7,1.7,0,0,1,.25-.9,1.82,1.82,0,0,1,1.55-.89,1.6,1.6,0,0,1,1.3.58,3.57,3.57,0,0,1,.54,1.09l1.14,3.29,1-2.93a9.14,9.14,0,0,1,.41-1,1.75,1.75,0,0,1,.63-.76,1.65,1.65,0,0,1,.93-.24,1.69,1.69,0,0,1,.84.23,1.55,1.55,0,0,1,.63.64,1.64,1.64,0,0,1,.22.83.81.81,0,0,1,0,.16c0,.11-.06.26-.11.46s-.12.42-.2.63L428,441.39a8.52,8.52,0,0,1-.78,1.67,3.1,3.1,0,0,1-1.21,1.12A4.07,4.07,0,0,1,424.06,444.56Z" transform="translate(-209.2 -252.9)"/><path class="cls-4" d="M429.42,431.77a.9.9,0,0,1,.47.13,1,1,0,0,1,.47.82c0,.11-.05.25-.1.43s-.11.38-.18.57l-2.83,7.41a8.62,8.62,0,0,1-.71,1.53,2.33,2.33,0,0,1-.93.86,3.51,3.51,0,0,1-1.55.29,3.74,3.74,0,0,1-1.43-.2.76.76,0,0,1-.48-.76.72.72,0,0,1,.23-.57.94.94,0,0,1,.67-.21,1.27,1.27,0,0,1,.34.05,1.81,1.81,0,0,0,.36.05,1.38,1.38,0,0,0,.59-.11,1.09,1.09,0,0,0,.38-.39,5.05,5.05,0,0,0,.4-.81l.19-.48-2.67-6.73a2.49,2.49,0,0,1-.24-.84.91.91,0,0,1,.14-.51,1.21,1.21,0,0,1,.39-.39,1.1,1.1,0,0,1,.52-.14.85.85,0,0,1,.71.3,2.69,2.69,0,0,1,.42.85l1.84,5.35,1.74-5a9.12,9.12,0,0,1,.37-.95,1.13,1.13,0,0,1,.36-.46,1,1,0,0,1,.53-.12m0-1.5a2.42,2.42,0,0,0-1.34.36,2.49,2.49,0,0,0-.89,1.06,10.73,10.73,0,0,0-.45,1.12l-.31.88-.43-1.25a3.93,3.93,0,0,0-.67-1.31,2.35,2.35,0,0,0-1.88-.86,2.56,2.56,0,0,0-1.26.34,2.65,2.65,0,0,0-.94.91,2.55,2.55,0,0,0-.35,1.29,3.72,3.72,0,0,0,.36,1.43l2.44,6.13-.12.26a2.33,2.33,0,0,0-.53-.06,2.4,2.4,0,0,0-1.67.59,2.23,2.23,0,0,0-.73,1.69A2.25,2.25,0,0,0,422,445a5,5,0,0,0,2,.33,4.83,4.83,0,0,0,2.24-.46,3.88,3.88,0,0,0,1.51-1.39,9.69,9.69,0,0,0,.85-1.81l2.83-7.4c.09-.26.16-.49.22-.72s.1-.38.12-.5a1.55,1.55,0,0,0,0-.31,2.46,2.46,0,0,0-1.22-2.12,2.4,2.4,0,0,0-1.22-.33Z" transform="translate(-209.2 -252.9)"/><path class="cls-7" d="M442.52,441.34a1.73,1.73,0,0,1-1.33-.58,2.16,2.16,0,0,1-.5-1.5v-2l-.39,1.55c-.13.51-.23.89-.31,1.12a2.23,2.23,0,0,1-.64.94,2.22,2.22,0,0,1-2.45.17,1.93,1.93,0,0,1-.7-.72,3.46,3.46,0,0,1-.33-.79l-.18-.71-.4-1.56v2a2.2,2.2,0,0,1-.48,1.5,1.86,1.86,0,0,1-2.69,0,2.17,2.17,0,0,1-.5-1.51V430a1.88,1.88,0,0,1,.73-1.66,2.64,2.64,0,0,1,1.49-.39h.74a3.55,3.55,0,0,1,1.23.17,1.62,1.62,0,0,1,.85.82,8.26,8.26,0,0,1,.37,1.13l1,3.65,1-3.65a6.45,6.45,0,0,1,.37-1.13,1.58,1.58,0,0,1,.84-.81,3.39,3.39,0,0,1,1.24-.18h.73a2.64,2.64,0,0,1,1.49.39,1.86,1.86,0,0,1,.73,1.66v9.22a2.2,2.2,0,0,1-.48,1.5A1.8,1.8,0,0,1,442.52,441.34Z" transform="translate(-209.2 -252.9)"/><path class="cls-4" d="M442.14,428.74a1.92,1.92,0,0,1,1.08.27,1.17,1.17,0,0,1,.39,1v9.22a1.51,1.51,0,0,1-.29,1,1,1,0,0,1-.8.33,1,1,0,0,1-.77-.33,1.41,1.41,0,0,1-.31-1v-8.05l-1.86,7.43c-.13.48-.23.84-.3,1.06a1.49,1.49,0,0,1-.43.62,1.25,1.25,0,0,1-.86.27,1.42,1.42,0,0,1-.7-.17,1.38,1.38,0,0,1-.44-.46,2.44,2.44,0,0,1-.25-.62c-.06-.22-.12-.46-.19-.7l-1.87-7.43v8.05a1.51,1.51,0,0,1-.29,1,1,1,0,0,1-.8.33,1,1,0,0,1-.77-.33,1.39,1.39,0,0,1-.31-1V430a1.17,1.17,0,0,1,.4-1,1.88,1.88,0,0,1,1.07-.27h.74a2.73,2.73,0,0,1,.95.12.77.77,0,0,1,.44.43,5.91,5.91,0,0,1,.33,1l1.69,6.38,1.7-6.38a7.26,7.26,0,0,1,.32-1,.84.84,0,0,1,.44-.43,2.79,2.79,0,0,1,1-.12h.73m0-1.5h-.73a3.93,3.93,0,0,0-1.51.23,2.28,2.28,0,0,0-1.25,1.19,8.1,8.1,0,0,0-.41,1.26l-.25.91-.24-.91a8.46,8.46,0,0,0-.41-1.26,2.28,2.28,0,0,0-1.25-1.19,4,4,0,0,0-1.51-.23h-.74a3.37,3.37,0,0,0-1.9.52,2.56,2.56,0,0,0-1.07,2.28v9.22a2.92,2.92,0,0,0,.7,2,2.53,2.53,0,0,0,1.88.81,2.5,2.5,0,0,0,1.91-.83,2.19,2.19,0,0,0,.29-.39,2.78,2.78,0,0,0,.85.82,2.75,2.75,0,0,0,1.49.4,2.7,2.7,0,0,0,1.86-.66,3.23,3.23,0,0,0,.5-.55,2.76,2.76,0,0,0,.28.39,2.61,2.61,0,0,0,3.81,0,2.91,2.91,0,0,0,.67-2V430a2.56,2.56,0,0,0-1.06-2.28,3.4,3.4,0,0,0-1.91-.52Z" transform="translate(-209.2 -252.9)"/><path d="M420.69,440.61a1.5,1.5,0,0,1-1.16-.51,1.93,1.93,0,0,1-.43-1.31v-3.61a3.16,3.16,0,0,0-.24-1.41c0-.08-.16-.3-.74-.3a1.25,1.25,0,0,0-.77.25,1.41,1.41,0,0,0-.52.71,6,6,0,0,0-.13,1.64v2.72a1.89,1.89,0,0,1-.44,1.33,1.55,1.55,0,0,1-1.16.49,1.45,1.45,0,0,1-1.14-.51,1.88,1.88,0,0,1-.43-1.31v-6.27a1.86,1.86,0,0,1,.39-1.26,1.46,1.46,0,0,1,1.12-.47,1.55,1.55,0,0,1,.77.2,1.58,1.58,0,0,1,.56.61l0,.06a4.07,4.07,0,0,1,.68-.46,3.91,3.91,0,0,1,1.8-.41,3.6,3.6,0,0,1,1.77.44,2.83,2.83,0,0,1,1.22,1.27,3.08,3.08,0,0,1,.33,1,10.56,10.56,0,0,1,.06,1.24v4a1.92,1.92,0,0,1-.42,1.32A1.48,1.48,0,0,1,420.69,440.61Z" transform="translate(-209.2 -252.9)"/><path d="M418.88,431.29a3.09,3.09,0,0,1,1.53.37,2.68,2.68,0,0,1,1.29,1.92,9.48,9.48,0,0,1,.06,1.18v4a1.48,1.48,0,0,1-.29,1,1,1,0,0,1-.78.33,1,1,0,0,1-.79-.34,1.44,1.44,0,0,1-.3-1v-3.61a3.62,3.62,0,0,0-.3-1.65,1.22,1.22,0,0,0-1.18-.56,1.76,1.76,0,0,0-1.06.34,2,2,0,0,0-.7.95,6.65,6.65,0,0,0-.16,1.81v2.72a1.38,1.38,0,0,1-.31,1,1,1,0,0,1-.79.33,1,1,0,0,1-.77-.34,1.44,1.44,0,0,1-.3-1v-6.27a1.35,1.35,0,0,1,.27-.92.92.92,0,0,1,.74-.31,1,1,0,0,1,.52.13,1,1,0,0,1,.36.41,1.34,1.34,0,0,1,.14.66v.26a3.93,3.93,0,0,1,1.26-1.11,3.38,3.38,0,0,1,1.56-.35m0-1a4.37,4.37,0,0,0-2,.47,2.07,2.07,0,0,0-.32.19,1.75,1.75,0,0,0-.47-.39,2,2,0,0,0-1-.27,1.93,1.93,0,0,0-1.49.64,2.31,2.31,0,0,0-.52,1.59v6.27a2.41,2.41,0,0,0,.55,1.64,2,2,0,0,0,1.52.68,2,2,0,0,0,1.53-.65,2.37,2.37,0,0,0,.57-1.67v-2.72a5.55,5.55,0,0,1,.11-1.5,1.06,1.06,0,0,1,.33-.45.76.76,0,0,1,.48-.15.79.79,0,0,1,.31,0,2.79,2.79,0,0,1,.17,1.17v3.61a2.41,2.41,0,0,0,.55,1.64,2.08,2.08,0,0,0,3.06,0,2.41,2.41,0,0,0,.55-1.66v-4a9.81,9.81,0,0,0-.07-1.32,3.6,3.6,0,0,0-.39-1.2,3.31,3.31,0,0,0-1.4-1.45,4.14,4.14,0,0,0-2-.5Z" transform="translate(-209.2 -252.9)"/><path class="cls-7" d="M419.49,441.34a1.74,1.74,0,0,1-1.35-.59,2.13,2.13,0,0,1-.49-1.48v-3.61a2.92,2.92,0,0,0-.21-1.29c-.06-.12-.24-.17-.53-.17a1,1,0,0,0-.62.2,1.29,1.29,0,0,0-.43.6,6.31,6.31,0,0,0-.11,1.56v2.71a2.14,2.14,0,0,1-.51,1.51,1.79,1.79,0,0,1-1.34.56,1.71,1.71,0,0,1-1.33-.59,2.13,2.13,0,0,1-.49-1.48V433a2.09,2.09,0,0,1,.45-1.42,1.69,1.69,0,0,1,1.3-.56,1.73,1.73,0,0,1,.9.24,1.55,1.55,0,0,1,.54.51,3.76,3.76,0,0,1,.5-.31,4.09,4.09,0,0,1,1.9-.44,3.88,3.88,0,0,1,1.9.47,3.09,3.09,0,0,1,1.32,1.38,3.4,3.4,0,0,1,.35,1.09,9.17,9.17,0,0,1,.07,1.28v4a2.13,2.13,0,0,1-.49,1.49A1.73,1.73,0,0,1,419.49,441.34Z" transform="translate(-209.2 -252.9)"/><path class="cls-4" d="M417.67,431.77a3.22,3.22,0,0,1,1.54.37,2.4,2.4,0,0,1,1,1.06,2.8,2.8,0,0,1,.28.86,9.48,9.48,0,0,1,.06,1.18v4a1.43,1.43,0,0,1-.3,1,1.08,1.08,0,0,1-1.56,0,1.44,1.44,0,0,1-.3-1v-3.61a3.58,3.58,0,0,0-.3-1.64,1.21,1.21,0,0,0-1.19-.57,1.76,1.76,0,0,0-1.06.34,2.06,2.06,0,0,0-.7.95,7.27,7.27,0,0,0-.15,1.82v2.71a1.43,1.43,0,0,1-.31,1,1,1,0,0,1-.79.33,1,1,0,0,1-.77-.34,1.44,1.44,0,0,1-.3-1V433a1.35,1.35,0,0,1,.27-.92.91.91,0,0,1,.74-.31,1,1,0,0,1,.51.14.9.9,0,0,1,.37.4,1.46,1.46,0,0,1,.14.66v.26a3.9,3.9,0,0,1,1.25-1.11,3.44,3.44,0,0,1,1.56-.35m0-1.5a4.94,4.94,0,0,0-2.25.52l0,0a2,2,0,0,0-.28-.2,2.56,2.56,0,0,0-3.14.47,2.8,2.8,0,0,0-.64,1.92v6.27a2.9,2.9,0,0,0,.67,2,2.6,2.6,0,0,0,3.79,0,2.88,2.88,0,0,0,.71-2v-2.71a6.56,6.56,0,0,1,.08-1.33.47.47,0,0,1,.15-.22l.11-.06a3.64,3.64,0,0,1,.06.71v3.61a2.9,2.9,0,0,0,.68,2,2.52,2.52,0,0,0,1.91.84,2.48,2.48,0,0,0,1.89-.83,2.89,2.89,0,0,0,.68-2v-4a9,9,0,0,0-.08-1.38,4.19,4.19,0,0,0-2-3,4.68,4.68,0,0,0-2.27-.56Z" transform="translate(-209.2 -252.9)"/><path d="M410.36,440.61a1.47,1.47,0,0,1-1.15-.51,1.93,1.93,0,0,1-.42-1.31v-6.21a1.89,1.89,0,0,1,.43-1.3,1.5,1.5,0,0,1,1.14-.49,1.55,1.55,0,0,1,1.15.48,1.73,1.73,0,0,1,.45,1.25v6.27a1.9,1.9,0,0,1-.44,1.33A1.55,1.55,0,0,1,410.36,440.61Zm0-9.83a1.63,1.63,0,0,1-1.1-.4,1.57,1.57,0,0,1,0-2.3,1.59,1.59,0,0,1,1.1-.42,1.62,1.62,0,0,1,1.06.38,1.42,1.42,0,0,1,.51,1.17,1.44,1.44,0,0,1-.49,1.16A1.58,1.58,0,0,1,410.39,430.78Z" transform="translate(-209.2 -252.9)"/><path d="M410.39,428.16a1.15,1.15,0,0,1,.75.27,1.12,1.12,0,0,1,0,1.57,1.08,1.08,0,0,1-.75.28,1.15,1.15,0,0,1-.78-.28,1.09,1.09,0,0,1,0-1.55,1.15,1.15,0,0,1,.77-.29m0,3.13a1.07,1.07,0,0,1,.79.32,1.26,1.26,0,0,1,.31.91v6.27a1.38,1.38,0,0,1-.31,1,1,1,0,0,1-.79.33,1,1,0,0,1-.77-.34,1.44,1.44,0,0,1-.3-1v-6.21a1.41,1.41,0,0,1,.3-1,1,1,0,0,1,.77-.32m0-4.13a2.12,2.12,0,0,0-1.44.55,2.08,2.08,0,0,0,0,3.05l0,0-.15.15a2.36,2.36,0,0,0-.56,1.64v6.21a2.39,2.39,0,0,0,.55,1.64,1.94,1.94,0,0,0,1.52.68,2,2,0,0,0,1.52-.65,2.33,2.33,0,0,0,.58-1.67v-6.27a2.25,2.25,0,0,0-.58-1.59l-.14-.13.07-.05a2,2,0,0,0,.65-1.54,1.91,1.91,0,0,0-.69-1.55,2.11,2.11,0,0,0-1.38-.5Z" transform="translate(-209.2 -252.9)"/><path class="cls-7" d="M409.16,441.34a1.71,1.71,0,0,1-1.34-.59,2.2,2.2,0,0,1-.48-1.48v-6.2a2.1,2.1,0,0,1,.49-1.48,1.52,1.52,0,0,1,.4-.32,2.18,2.18,0,0,1-.31-.22,1.83,1.83,0,0,1,0-2.67,1.85,1.85,0,0,1,1.26-.49,1.89,1.89,0,0,1,1.23.44,1.86,1.86,0,0,1,0,2.71,1.78,1.78,0,0,1-.33.23,1.91,1.91,0,0,1,.38.31A2,2,0,0,1,411,433v6.27a2.11,2.11,0,0,1-.51,1.5A1.76,1.76,0,0,1,409.16,441.34Z" transform="translate(-209.2 -252.9)"/><path class="cls-4" d="M409.18,428.64a1.13,1.13,0,0,1,.75.27,1,1,0,0,1,.33.79,1,1,0,0,1-.32.78,1.08,1.08,0,0,1-.76.28,1.11,1.11,0,0,1-.77-.28,1,1,0,0,1-.32-.78,1,1,0,0,1,.33-.76,1.09,1.09,0,0,1,.76-.3m0,3.13a1,1,0,0,1,.79.33,1.27,1.27,0,0,1,.31.9v6.27a1.43,1.43,0,0,1-.31,1,1,1,0,0,1-.79.33,1,1,0,0,1-.77-.34,1.44,1.44,0,0,1-.3-1v-6.2a1.37,1.37,0,0,1,.3-1,1,1,0,0,1,.77-.33m0-4.63a2.65,2.65,0,0,0-1.77.68,2.5,2.5,0,0,0-.82,1.88,2.57,2.57,0,0,0,.52,1.59,2.91,2.91,0,0,0-.52,1.78v6.2a2.87,2.87,0,0,0,.67,2,2.47,2.47,0,0,0,1.9.85,2.53,2.53,0,0,0,1.89-.81,2.85,2.85,0,0,0,.71-2V433a2.82,2.82,0,0,0-.53-1.71,2.58,2.58,0,0,0,.53-1.59,2.49,2.49,0,0,0-.87-1.95,2.67,2.67,0,0,0-1.71-.61Z" transform="translate(-209.2 -252.9)"/><path d="M402.92,440.61a1.64,1.64,0,0,1-1.23-.52,2.05,2.05,0,0,1-.46-1.42v-8h-2.07a1.76,1.76,0,0,1-1.24-.4,1.4,1.4,0,0,1-.46-1.07,1.41,1.41,0,0,1,.48-1.1,1.85,1.85,0,0,1,1.22-.38h7.5a1.81,1.81,0,0,1,1.25.4,1.43,1.43,0,0,1,.46,1.08,1.41,1.41,0,0,1-.47,1.08,1.82,1.82,0,0,1-1.24.39h-2.08v8a2.06,2.06,0,0,1-.45,1.43A1.59,1.59,0,0,1,402.92,440.61Z" transform="translate(-209.2 -252.9)"/><path d="M406.66,428.26a1.32,1.32,0,0,1,.91.27.91.91,0,0,1,.3.71.89.89,0,0,1-.3.7,1.35,1.35,0,0,1-.91.27h-2.58v8.46a1.56,1.56,0,0,1-.32,1.09,1.08,1.08,0,0,1-.84.35,1.15,1.15,0,0,1-.86-.35,1.56,1.56,0,0,1-.33-1.09v-8.46h-2.57a1.27,1.27,0,0,1-.9-.27,1,1,0,0,1,0-1.42,1.35,1.35,0,0,1,.89-.26h7.5m0-1h-7.5a2.3,2.3,0,0,0-1.54.5,2,2,0,0,0,0,2.92,2.24,2.24,0,0,0,1.57.53h1.57v7.46a2.47,2.47,0,0,0,.6,1.76,2.19,2.19,0,0,0,3.16,0,2.49,2.49,0,0,0,.59-1.77v-7.46h1.58a2.32,2.32,0,0,0,1.57-.52,1.87,1.87,0,0,0,.64-1.45,1.9,1.9,0,0,0-.63-1.45,2.29,2.29,0,0,0-1.58-.53Z" transform="translate(-209.2 -252.9)"/><path class="cls-7" d="M401.71,441.34a1.85,1.85,0,0,1-1.41-.6,2.3,2.3,0,0,1-.52-1.58v-7.72H398a2.05,2.05,0,0,1-1.4-.46,1.74,1.74,0,0,1,0-2.55A2,2,0,0,1,398,428h7.51a2,2,0,0,1,1.41.47,1.64,1.64,0,0,1,.55,1.26,1.67,1.67,0,0,1-.56,1.27,2,2,0,0,1-1.4.45h-1.83v7.72a2.27,2.27,0,0,1-.52,1.59A1.86,1.86,0,0,1,401.71,441.34Z" transform="translate(-209.2 -252.9)"/><path class="cls-4" d="M405.46,428.74a1.34,1.34,0,0,1,.91.27.91.91,0,0,1,.29.71.88.88,0,0,1-.3.7,1.31,1.31,0,0,1-.9.27h-2.58v8.47a1.53,1.53,0,0,1-.33,1.08,1.05,1.05,0,0,1-.84.35,1.09,1.09,0,0,1-.85-.35,1.55,1.55,0,0,1-.33-1.08v-8.47H398a1.31,1.31,0,0,1-.9-.27,1,1,0,0,1,0-1.42,1.32,1.32,0,0,1,.88-.26h7.51m0-1.5H398a2.74,2.74,0,0,0-1.86.63,2.36,2.36,0,0,0-.83,1.85,2.42,2.42,0,0,0,.79,1.82,2.75,2.75,0,0,0,1.9.65H399v7a3,3,0,0,0,.72,2.09,2.61,2.61,0,0,0,2,.84,2.58,2.58,0,0,0,2-.83,3,3,0,0,0,.72-2.1v-7h1.08a2.79,2.79,0,0,0,1.89-.64,2.37,2.37,0,0,0,.81-1.83,2.42,2.42,0,0,0-.79-1.82,2.72,2.72,0,0,0-1.91-.66Z" transform="translate(-209.2 -252.9)"/><path class="cls-2" d="M235,542.32c-10-3.8-16.69-28.59-16.44-33.92s3.35-9.37,6.86-5.74,4.61,2,6.3-2.8,4-11.2,8.34-11.05,2.43,4.41,4.2,5.56,6-6.32,14.32-7.8,7.44,1.5,7.27,6,.14,7,3.82,7.05,11.77-1.2,12.21,2.3-.47,5.06-4.47,9-.92,5.84,3.31,8.15,4,8.14-5.26,12.92S246.05,546.52,235,542.32Z" transform="translate(-209.2 -252.9)"/><path class="cls-5" d="M264.57,510.22c7.88,2,10.79,12.43,6.83,17.94S246.17,543,246.17,543s-18,7.17-25.36-23c0,0-1.86-6.24,7.73-10.13,8.11-3.28,14-11.52,22.61-11.76S259.21,508.87,264.57,510.22Z" transform="translate(-209.2 -252.9)"/><path class="cls-6" d="M244.29,542.76s10.18-6.2,1.37-9.17-18.36-2.85-14.45,5.84C234.36,544.34,244.29,542.76,244.29,542.76Z" transform="translate(-209.2 -252.9)"/><path class="cls-9" d="M235,542.32c-10-3.8-16.69-28.59-16.44-33.92s3.35-9.37,6.86-5.74,4.61,2,6.3-2.8,4-11.2,8.34-11.05,2.43,4.41,4.2,5.56,6-6.32,14.32-7.8,7.44,1.5,7.27,6,.14,7,3.82,7.05,11.77-1.2,12.21,2.3-.47,5.06-4.47,9-.92,5.84,3.31,8.15,4,8.14-5.26,12.92S246.05,546.52,235,542.32Z" transform="translate(-209.2 -252.9)"/><path class="cls-9" d="M242.45,540.33s.53-2.24,2.24-2.34" transform="translate(-209.2 -252.9)"/><path class="cls-9" d="M233.88,535.9s1.53,1.65.81,2.77" transform="translate(-209.2 -252.9)"/><ellipse class="cls-14" cx="49.17" cy="270.78" rx="7.48" ry="8.3"/><ellipse class="cls-14" cx="20.5" cy="267.27" rx="6.61" ry="7.34"/><ellipse class="cls-4" cx="47.64" cy="271.02" rx="4.79" ry="5.31"/><ellipse class="cls-4" cx="21.51" cy="267.81" rx="4.23" ry="4.7"/><ellipse class="cls-7" cx="20.03" cy="265.59" rx="1.85" ry="2.05"/><ellipse class="cls-7" cx="45.54" cy="268.89" rx="1.95" ry="2.17"/><path class="cls-3" d="M232.39,508.79s13-3.16,25.95,1.71C258.34,510.5,247.37,500.65,232.39,508.79Z" transform="translate(-209.2 -252.9)"/></svg>